<svg xmlns="http://www.w3.org/2000/svg" viewBox="0 0 204.26 232.36"><defs><style>.cls-1{fill:#74c16b;}.cls-2,.cls-3{fill:none;stroke-linejoin:round;stroke-width:4px;}.cls-2{stroke:#4c4c4c;}.cls-3{stroke:#74c16b;}</style></defs><title>as_you_refine_everyone_gains_insights</title><g id="Layer_2" data-name="Layer 2"><g id="copy_art" data-name="copy+art"><path class="cls-1" d="M201,2a3.21,3.21,0,1,1-3.22,3.21A3.22,3.22,0,0,1,201,2M186.26,2A3.21,3.21,0,1,1,183,5.21,3.22,3.22,0,0,1,186.26,2M171.48,2a3.21,3.21,0,1,1-3.22,3.21A3.22,3.22,0,0,1,171.48,2"/><polyline class="cls-2" points="127.9 77.88 127.9 51.94 116.45 51.94"/><polyline class="cls-2" points="116.45 77.88 116.45 31.91 105.01 31.91 105.01 46.21"/><polyline class="cls-2" points="105.01 77.88 105.01 46.21 93.56 46.21 93.56 77.88"/><polyline class="cls-3" points="95.45 37.78 90.5 26.09 75.49 20.02 35.97 36.76 57.4 87.33"/><polyline class="cls-3" points="75.09 26.4 78.44 34.3 86.35 30.96"/><path class="cls-2" d="M86,164c7,0,11.57-5.92,11.57-13.23v-4.41c0-7.3-4.61-13.22-11.57-13.22S74.4,139.07,74.4,146.37v4.41C74.4,158.09,79,164,86,164Z"/><path class="cls-2" d="M43.54,171.72c7,0,11.57-5.92,11.57-13.22v-4.41c0-7.3-4.62-13.23-11.57-13.23S32,146.79,32,154.09v4.41C32,165.8,36.58,171.72,43.54,171.72Z"/><path class="cls-2" d="M109.11,196.23V175.58C109.11,166,94,164,86,164s-23.15,2-23.15,11.57v42.18"/><path class="cls-2" d="M62.83,176.3c-5-3.64-13.81-4.58-19.29-4.58-8,0-23.15,2-23.15,11.58v29.42"/><path class="cls-2" d="M128.4,171.72c-7,0-11.57-5.92-11.57-13.22v-4.41c0-7.3,4.61-13.23,11.57-13.23S140,146.79,140,154.09v4.41C140,165.8,135.36,171.72,128.4,171.72Z"/><path class="cls-2" d="M109.11,176.3c5-3.64,13.8-4.58,19.29-4.58,8,0,23.14,2,23.14,11.58"/><path class="cls-2" d="M35.82,2h96.44a11.57,11.57,0,0,1,11.57,11.57V86.86a15.43,15.43,0,0,1-15.43,15.43H66.68l-16.2,21.6a3.85,3.85,0,0,1-6.94-2.31V102.29H35.82A11.57,11.57,0,0,1,24.25,90.72V13.57A11.57,11.57,0,0,1,35.82,2Z"/><path class="cls-2" d="M97.54,110a11.57,11.57,0,0,0,11.57,11.57h34.72l16.36,19.08a3.85,3.85,0,0,0,6.78-2.51V121.58h7.72A11.57,11.57,0,0,0,186.26,110V40.57A11.57,11.57,0,0,0,174.69,29H151.54"/><rect class="cls-3" x="153.77" y="71.34" width="8.72" height="13.08" rx="2.18" ry="2.18"/><rect class="cls-2" x="164.67" y="95.32" width="8.72" height="13.08" rx="2.18" ry="2.18" transform="translate(338.07 203.73) rotate(180)"/><line class="cls-3" x1="173.39" y1="69.16" x2="173.39" y2="86.6"/><line class="cls-2" x1="153.77" y1="93.14" x2="153.77" y2="110.59"/><rect class="cls-2" x="164.67" y="47.35" width="8.72" height="13.08" rx="2.18" ry="2.18" transform="translate(338.07 107.79) rotate(-180)"/><line class="cls-2" x1="153.77" y1="45.17" x2="153.77" y2="62.62"/><path class="cls-2" d="M142.87,92.49v13.74a2.19,2.19,0,0,1-2.18,2.18h-4.36a2.18,2.18,0,0,1-2.18-2.18v-4.36"/><polyline class="cls-3" points="0.84 230.54 45.34 210.04 59.84 229.28 100.84 200.28 119.84 211.28 189.13 169.38"/><polygon class="cls-1" points="186.25 190.23 182.4 189.14 187.81 170.17 168.5 166.16 169.32 162.24 192.84 167.13 186.25 190.23"/></g></g></svg>