<svg xmlns="http://www.w3.org/2000/svg" viewBox="0 0 172.57 122.4"><defs><style>.cls-1{fill:#74c26b;}</style></defs><title>as_you_refine_everyone_gains_insights_2</title><g id="Layer_2" data-name="Layer 2"><g id="copy_art" data-name="copy+art"><rect class="cls-1" x="30.87" y="48.18" width="1.22" height="72.02" transform="translate(-57.16 69.33) rotate(-59.98)"/><rect class="cls-1" x="87.06" y="95.93" width="91.31" height="1.22" transform="translate(-30.48 79.21) rotate(-29.97)"/><path class="cls-1" d="M147.46,108.81,146.85,61c-17.91,10.48-52,30.14-52.37,30.34l-.3.17L37.66,59.81l-.22-13.88L93.56,13.86l54.3,30.23.2,15.95.11.19-.11.06.62,48.51ZM38.87,59.09l55.3,31c3.47-2,35.81-20.64,52.66-30.51l-.19-14.79L93.57,15.26,38.67,46.63Z"/><path class="cls-1" d="M93.17,77.79l-43.32-25v-.7l.31-.19L93.17,27l42.09,24.32V3.05h1.22V52.76ZM51.68,52.41l41.49,24,41.48-24-41.48-24Z"/><circle class="cls-1" cx="62.66" cy="102.52" r="3.05"/><circle class="cls-1" cx="135.87" cy="3.05" r="3.05"/><circle class="cls-1" cx="148.07" cy="108.89" r="3.05"/><circle class="cls-1" cx="93.17" cy="119.35" r="3.05"/></g></g></svg>