<svg xmlns="http://www.w3.org/2000/svg" viewBox="0 0 864.57 281.5"><defs><style>.cls-1,.cls-5{fill:none;}.cls-1{stroke:#4c4c4c;stroke-linejoin:round;stroke-width:3.64px;}.cls-2{fill:#74c16b;fill-rule:evenodd;}.cls-3{fill:#ff8000;}.cls-4{fill:#4c4c4c;}.cls-5{stroke:#515050;stroke-linecap:round;stroke-miterlimit:10;stroke-width:3.74px;}.cls-6{fill:#5657a5;}</style></defs><title>extending_reach_increasing_revenue_3</title><g id="Layer_2" data-name="Layer 2"><g id="copy_art" data-name="copy+art"><polyline class="cls-1" points="299.99 220.31 90.15 220.31 90.15 193.38 97.23 193.38 85.44 181.58 73.64 193.38 80.72 193.38 80.72 230.31 331.99 230.31"/><polyline class="cls-1" points="796.06 182.37 796.06 230.31 599.99 230.31"/><polyline class="cls-1" points="565.99 220.31 786.63 220.31 786.63 182.37"/><path class="cls-2" d="M340.64,81.91a32.05,32.05,0,0,1-20-9.58,24.92,24.92,0,1,1,7.83-1.25,40.21,40.21,0,0,0,12.13,10.83ZM307.73,44.49a2.83,2.83,0,1,1-2.82,2.83,2.83,2.83,0,0,1,2.82-2.83Zm12.95,0a2.83,2.83,0,1,1-2.83,2.83,2.83,2.83,0,0,1,2.83-2.83Zm12.94,0a2.83,2.83,0,1,1-2.82,2.83,2.83,2.83,0,0,1,2.82-2.83Zm7,37.42a39.76,39.76,0,0,0,20,5.34V72.33a25,25,0,0,1-7.83-1.25,40,40,0,0,0,0-47.52,40.23,40.23,0,0,0-12.14-10.83,39.93,39.93,0,1,0,0,69.18Z"/><path class="cls-3" d="M137.65,51.94a4.62,4.62,0,1,1,4.61-4.62A4.61,4.61,0,0,1,137.65,51.94Zm2-18.19a4,4,0,1,0-2.54,5A4,4,0,0,0,139.61,33.75ZM133.54,23.3a3.39,3.39,0,1,0-.86,4.72A3.37,3.37,0,0,0,133.54,23.3Zm-8.45-8a2.92,2.92,0,1,0,.39,4.11A2.91,2.91,0,0,0,125.09,15.33Zm-9.31-4.82a2.41,2.41,0,0,0-3.14,1.16,2.37,2.37,0,1,0,3.14-1.16Zm-8.87-2.39a2,2,0,1,0,1.58,2.4A2,2,0,0,0,106.91,8.12Zm-8.22-.64a1.76,1.76,0,1,0,1.75,1.75A1.75,1.75,0,0,0,98.69,7.48ZM64.35,47.32a4.6,4.6,0,1,0-4.6,4.62A4.6,4.6,0,0,0,64.35,47.32Zm1,11.07a4,4,0,1,0-2.54,5A4,4,0,0,0,65.37,58.39Zm4.06,9.1a3.4,3.4,0,0,0-5.59,3.86,3.44,3.44,0,0,0,4.73.85A3.39,3.39,0,0,0,69.43,67.49ZM76,74.82a2.93,2.93,0,0,0-4.12.39A2.92,2.92,0,1,0,76,74.82Zm7.57,5A2.34,2.34,0,0,0,80.46,81a2.38,2.38,0,0,0,1.16,3.15,2.36,2.36,0,1,0,2-4.29Zm7.74,2.7a2.06,2.06,0,0,0-2.42,1.59,2,2,0,1,0,4,.83A2.06,2.06,0,0,0,91.34,82.53Zm7.37,1.11a1.76,1.76,0,1,0,1.75,1.76A1.77,1.77,0,0,0,98.71,83.64ZM60.33,38.79a4,4,0,1,0-2.54-5A4,4,0,0,0,60.33,38.79ZM64.71,28a3.39,3.39,0,1,0-.85-4.72A3.41,3.41,0,0,0,64.71,28Zm7.2-8.59a2.92,2.92,0,1,0,.4-4.11A2.9,2.9,0,0,0,71.91,19.43Zm8.55-5.76a2.37,2.37,0,0,0,4.3-2,2.37,2.37,0,1,0-4.3,2Zm8.45-3.16A2,2,0,1,0,90.5,8.12,2,2,0,0,0,88.91,10.51Zm45.67,52.93a4,4,0,1,0-2.53-5A4,4,0,0,0,134.58,63.44Zm-5.74,8.75a3.38,3.38,0,1,0-.87-4.7A3.39,3.39,0,0,0,128.84,72.19ZM121,78.92a2.92,2.92,0,1,0,.4-4.1A2.92,2.92,0,0,0,121,78.92Zm-8.34,4a2.37,2.37,0,1,0,1.15-3.14A2.37,2.37,0,0,0,112.64,83Zm-8.15,2a2,2,0,1,0,4-.83,2,2,0,0,0-4,.83Zm23.42-53.52a3.52,3.52,0,1,0-1.41,4.8A3.54,3.54,0,0,0,127.91,31.42Zm-6.59-8.29a3.24,3.24,0,0,0-4.6.14,3.26,3.26,0,1,0,4.76,4.46A3.25,3.25,0,0,0,121.32,23.13Zm-8.2-5a2.74,2.74,0,0,0-3.7,1.28,2.77,2.77,0,1,0,3.7-1.28Zm-8.37-2a2.34,2.34,0,1,0-.91,4.59,2.34,2.34,0,1,0,.91-4.59Zm-8,.28a1.81,1.81,0,1,0,1.94,1.67A1.82,1.82,0,0,0,96.7,16.41ZM89.88,18a1.56,1.56,0,1,0,1.93,1A1.53,1.53,0,0,0,89.88,18Zm-5.73,2.58A1.34,1.34,0,1,0,85.43,23a1.34,1.34,0,1,0-1.28-2.35ZM75.66,59.85a3.51,3.51,0,1,0-1.4,4.8A3.52,3.52,0,0,0,75.66,59.85Zm4.9,6.9a3.25,3.25,0,1,0,.15,4.61A3.26,3.26,0,0,0,80.56,66.75Zm6,4.61a2.78,2.78,0,1,0,1.24,3.71A2.8,2.8,0,0,0,86.51,71.36Zm7,2.57a2.35,2.35,0,1,0,1.85,2.74A2.35,2.35,0,0,0,93.56,73.93Zm6.88.7a1.8,1.8,0,1,0,1.92,1.68A1.78,1.78,0,0,0,100.44,74.63Zm6.18-1a1.57,1.57,0,0,0-1.05,1.93,1.56,1.56,0,1,0,1.05-1.93Zm5.34-2a1.34,1.34,0,1,0,1.83.55A1.36,1.36,0,0,0,112,71.67ZM69.8,55.34a2.76,2.76,0,1,0-3.22-2.22A2.76,2.76,0,0,0,69.8,55.34Zm-.9-8.88A2.26,2.26,0,1,0,69.36,42a2.26,2.26,0,0,0-.46,4.49Zm1.68-8.13a2.16,2.16,0,0,0,2.8-1.21,2.13,2.13,0,0,0-1.19-2.77,2.15,2.15,0,0,0-2.8,1.19A2.18,2.18,0,0,0,70.58,38.33Zm3.6-6.92A1.79,1.79,0,0,0,76.7,31a1.76,1.76,0,0,0-.36-2.5,1.79,1.79,0,0,0-2.53.36A1.81,1.81,0,0,0,74.18,31.41Zm4.51-5.19a1.57,1.57,0,0,0,2.4-2A1.6,1.6,0,0,0,78.88,24,1.57,1.57,0,0,0,78.69,26.22Zm49.9,18.53a2.77,2.77,0,0,0-1-5.45,2.77,2.77,0,1,0,1,5.45ZM128,52.67a2.26,2.26,0,1,0-2-2.49A2.26,2.26,0,0,0,128,52.67Zm-2.81,7.62A2.14,2.14,0,1,0,124,57.51,2.16,2.16,0,0,0,125.21,60.29Zm-4.14,5.85a1.81,1.81,0,1,0-.37-2.53A1.81,1.81,0,0,0,121.07,66.14Zm-4.77,4.29a1.57,1.57,0,0,0,2.22.18,1.54,1.54,0,0,0,.18-2.2,1.59,1.59,0,0,0-2.2-.17A1.57,1.57,0,0,0,116.3,70.43ZM116,30.16a3.28,3.28,0,0,0-4.67,4.62,3.3,3.3,0,0,0,4.66,0A3.24,3.24,0,0,0,116,30.16ZM107.67,25a3,3,0,1,0-2.24,5.5,3,3,0,0,0,2.24-5.5ZM98.74,24a2.6,2.6,0,1,0,0,5.19,2.56,2.56,0,0,0,2.58-2.59A2.61,2.61,0,0,0,98.74,24Zm-8.6,2.66a1.94,1.94,0,0,0-1.07,2.51,2,2,0,0,0,2.56,1.09,2,2,0,0,0,1-2.55A1.9,1.9,0,0,0,90.14,26.63ZM86,59.9a3.29,3.29,0,0,0-4.68,4.63,3.34,3.34,0,0,0,4.68,0A3.27,3.27,0,0,0,86,59.9Zm5.89,4.24a3,3,0,1,0-2.2,5.5A2.93,2.93,0,0,0,93.51,68,3,3,0,0,0,91.88,64.14Zm6.7,1.35A2.61,2.61,0,0,0,96,68.08a2.62,2.62,0,1,0,5.24,0A2.64,2.64,0,0,0,98.58,65.49Zm7.11-1a1.9,1.9,0,0,0-1,2.51,2,2,0,0,0,2.53,1.09,1.93,1.93,0,0,0,1-2.56A1.89,1.89,0,0,0,105.69,64.48ZM80,57.56A2.74,2.74,0,0,0,81.54,54,2.68,2.68,0,0,0,78,52.42a2.76,2.76,0,0,0,2,5.14Zm-2.11-8.43A2.14,2.14,0,0,0,78,44.85a2.13,2.13,0,0,0-2.2,2.08A2.16,2.16,0,0,0,77.87,49.13Zm1.2-8a1.81,1.81,0,0,0,1.41-3.33,1.79,1.79,0,0,0-2.35,1A1.82,1.82,0,0,0,79.07,41.12Zm40.26,1.15a2.76,2.76,0,0,0-2-5.15,2.74,2.74,0,0,0-1.61,3.57A2.77,2.77,0,0,0,119.33,42.27Zm0,7.58a2.15,2.15,0,1,0-2.12-2.2A2.23,2.23,0,0,0,119.36,49.85Zm-2.54,7a1.79,1.79,0,1,0,1.4-3.29,1.71,1.71,0,0,0-2.31,1A1.76,1.76,0,0,0,116.82,56.86ZM83,34.12a1.77,1.77,0,0,0,2.55,0,1.79,1.79,0,0,0,0-2.52,1.81,1.81,0,0,0-2.53,0A1.83,1.83,0,0,0,83,34.12Zm28.8,29a1.73,1.73,0,0,0,2.53,0,1.66,1.66,0,0,0,0-2.46,1.75,1.75,0,0,0-2.51,0A1.79,1.79,0,0,0,111.77,63.09ZM95.36,32.26a2.54,2.54,0,1,0,3,1.92A2.54,2.54,0,0,0,95.36,32.26Zm-7.51,4.19a2.49,2.49,0,0,0,0,3.47,2.45,2.45,0,1,0,0-3.47Zm-3.07,7.22A1.68,1.68,0,0,0,86,45.74a1.65,1.65,0,1,0-1.19-2.07ZM101,57.59a2.57,2.57,0,1,0,3.11,1.95A2.62,2.62,0,0,0,101,57.59Zm5.15-2.71a2.54,2.54,0,0,0,0,3.52,2.46,2.46,0,0,0,3.47-3.48A2.49,2.49,0,0,0,106.14,54.88Zm3.36-4.61a1.66,1.66,0,0,0,1.16,2,1.69,1.69,0,0,0,2-1.17,1.66,1.66,0,0,0-3.21-.87Zm-4.07-14.21a2.25,2.25,0,0,0-1.31-2.9,2.28,2.28,0,0,0-3,1.35,2.25,2.25,0,0,0,1.34,2.9A2.31,2.31,0,0,0,105.43,36.06ZM96.3,60.41a2.22,2.22,0,0,0-1.3-2.9,2.27,2.27,0,1,0-1.61,4.25A2.31,2.31,0,0,0,96.3,60.41Zm13.48-19.56a1.71,1.71,0,0,0,.3-2.38,1.75,1.75,0,0,0-2.37-.28,1.65,1.65,0,0,0-.25,2.34A1.62,1.62,0,0,0,109.78,40.85ZM89.71,56.61a1.72,1.72,0,0,0,.3-2.38A1.76,1.76,0,0,0,87.63,54a1.69,1.69,0,0,0,2.08,2.66Zm21.61-10.56a1.23,1.23,0,0,0,.93-1.42,1.18,1.18,0,0,0-1.43-1,1.16,1.16,0,0,0-.95,1.38A1.24,1.24,0,0,0,111.32,46.05ZM86.76,51.18a1.24,1.24,0,0,0,.93-1.42,1.2,1.2,0,0,0-1.43-.95,1.14,1.14,0,0,0-.94,1.38A1.21,1.21,0,0,0,86.76,51.18Z"/><polyline class="cls-1" points="196.67 52.96 224.4 52.96 224.4 60.03 236.19 48.24 224.4 36.45 224.4 43.52 179.21 43.52"/><polyline class="cls-1" points="642.36 52.96 677.4 52.96 677.4 60.03 689.19 48.24 677.4 36.45 677.4 43.52 624.9 43.52"/><polyline class="cls-1" points="420.19 45.92 456.88 45.92 456.88 38.85 468.67 50.64 456.88 62.44 456.88 55.36 407.46 55.36"/><path class="cls-1" d="M800.12,27.82c6,0,10.4-5,10.4-11.14V13c0-6.15-4.45-11.14-10.4-11.14s-10.4,5-10.4,11.14v3.72C789.72,22.83,794.16,27.82,800.12,27.82Z"/><path class="cls-1" d="M820.92,46V38.11c0-7.17-13-10.4-19.5-10.4s-19.5,3.23-19.5,10.4V46"/><path class="cls-1" d="M802.72,74.62c5.95,0,10.4-5,10.4-11.14V59.76c0-6.15-4.45-11.14-10.4-11.14s-10.4,5-10.4,11.14v3.72C792.32,69.63,796.76,74.62,802.72,74.62Z"/><path class="cls-1" d="M823.52,92.82V84.91c0-7.17-13-10.4-19.5-10.4s-19.5,3.23-19.5,10.4v7.91"/><path class="cls-1" d="M841.72,51.22c5.95,0,10.4-5,10.4-11.14V36.36c0-6.15-4.45-11.14-10.4-11.14s-10.4,5-10.4,11.14v3.72C831.32,46.23,835.76,51.22,841.72,51.22Z"/><path class="cls-1" d="M862.52,69.42V61.51c0-7.17-13-10.4-19.5-10.4s-19.5,3.23-19.5,10.4v7.91"/><path class="cls-1" d="M761.12,51.22c6,0,10.4-5,10.4-11.14V36.36c0-6.15-4.45-11.14-10.4-11.14s-10.4,5-10.4,11.14v3.72C750.72,46.23,755.16,51.22,761.12,51.22Z"/><path class="cls-1" d="M781.92,69.42V61.51c0-7.17-13-10.4-19.5-10.4s-19.5,3.23-19.5,10.4v7.91"/><path class="cls-4" d="M0,123V109H6.89a4.79,4.79,0,0,1,1.71.29,3.71,3.71,0,0,1,1.25.76,3.43,3.43,0,0,1,.77,1.14,3.72,3.72,0,0,1,.26,1.38,3.59,3.59,0,0,1-.2,1.22,3.32,3.32,0,0,1-.54,1,3.07,3.07,0,0,1-.77.67,3.35,3.35,0,0,1-.93.37,2.7,2.7,0,0,1,1.06.38,3.33,3.33,0,0,1,.86.77,3.58,3.58,0,0,1,.58,1,3.67,3.67,0,0,1,.21,1.24,4.31,4.31,0,0,1-.26,1.51,3.35,3.35,0,0,1-.79,1.2,3.84,3.84,0,0,1-1.28.79,4.89,4.89,0,0,1-1.74.28Zm6.38-8.21a2,2,0,0,0,1.46-.5,1.91,1.91,0,0,0,0-2.62,2,2,0,0,0-1.46-.51H2.46v3.63Zm.11,6a2.2,2.2,0,0,0,1.57-.52,1.83,1.83,0,0,0,.57-1.44,1.94,1.94,0,0,0-.53-1.36,2.12,2.12,0,0,0-1.61-.57h-4v3.89Z"/><path class="cls-4" d="M20.39,123v-1.34a5.32,5.32,0,0,1-1.47,1.1,4.42,4.42,0,0,1-2.12.49,3.3,3.3,0,0,1-2.45-.82,3.25,3.25,0,0,1-.81-2.39v-7.18h2.21v6.38a2,2,0,0,0,.56,1.62,2.33,2.33,0,0,0,1.48.44,2.93,2.93,0,0,0,1.52-.4,3.8,3.8,0,0,0,1.08-.92v-7.12H22.6V123Z"/><path class="cls-4" d="M28.92,123.22a7.12,7.12,0,0,1-2.43-.4,5.07,5.07,0,0,1-1.92-1.17l1-1.6a5.32,5.32,0,0,0,.65.54,4.79,4.79,0,0,0,.84.46,5.55,5.55,0,0,0,.95.31,4.27,4.27,0,0,0,1,.12,2.47,2.47,0,0,0,1.5-.38,1.19,1.19,0,0,0,.5-1,.81.81,0,0,0-.45-.75,4.54,4.54,0,0,0-1.14-.42c-.45-.11-.95-.23-1.48-.34a6.29,6.29,0,0,1-1.48-.5,3.27,3.27,0,0,1-1.13-.91,2.37,2.37,0,0,1-.46-1.53,2.65,2.65,0,0,1,.27-1.18,2.77,2.77,0,0,1,.76-1,3.82,3.82,0,0,1,1.25-.67,5.32,5.32,0,0,1,1.72-.26,5.89,5.89,0,0,1,2.27.41,6.37,6.37,0,0,1,1.67,1l-.92,1.56a3.52,3.52,0,0,0-1.26-.87,4.16,4.16,0,0,0-1.74-.35,2.37,2.37,0,0,0-1.39.35,1,1,0,0,0-.5.89.72.72,0,0,0,.45.68,5.47,5.47,0,0,0,1.13.39l1.48.35a5.89,5.89,0,0,1,1.48.52,3.28,3.28,0,0,1,1.14,1,2.58,2.58,0,0,1,.45,1.6,2.84,2.84,0,0,1-1.08,2.25,4,4,0,0,1-1.33.66A6.2,6.2,0,0,1,28.92,123.22Z"/><path class="cls-4" d="M36.46,111.59a1.31,1.31,0,0,1-1-.4,1.32,1.32,0,0,1-.41-1,1.28,1.28,0,0,1,.41-1,1.31,1.31,0,0,1,1-.4,1.29,1.29,0,0,1,1,.4,1.28,1.28,0,0,1,.4,1,1.31,1.31,0,0,1-.4,1A1.29,1.29,0,0,1,36.46,111.59ZM35.36,123V112.83h2.21V123Z"/><path class="cls-4" d="M47.27,123v-6.34a2,2,0,0,0-.56-1.64,2.22,2.22,0,0,0-1.48-.46,2.87,2.87,0,0,0-1.54.42,3.51,3.51,0,0,0-1.06.94V123H40.42V112.83h2.21v1.38a4.39,4.39,0,0,1,.62-.58,4.27,4.27,0,0,1,.82-.53,5.7,5.7,0,0,1,1-.38,4.26,4.26,0,0,1,1.15-.15,2.93,2.93,0,0,1,3.28,3.26V123Z"/><path class="cls-4" d="M57,123.22a5.65,5.65,0,0,1-2.11-.38,4.89,4.89,0,0,1-1.69-1.08,5.07,5.07,0,0,1-1.11-1.69,6,6,0,0,1,0-4.25,4.9,4.9,0,0,1,1.06-1.69A5.14,5.14,0,0,1,54.77,113a5.35,5.35,0,0,1,4.13,0,4.56,4.56,0,0,1,1.58,1.16,5.5,5.5,0,0,1,1,1.75,6.78,6.78,0,0,1,.35,2.21v.52H54a3.12,3.12,0,0,0,.31,1.08,2.77,2.77,0,0,0,.65.9,3.11,3.11,0,0,0,1,.6,3.81,3.81,0,0,0,1.3.22,4.54,4.54,0,0,0,1.53-.29,3.46,3.46,0,0,0,1.34-.83l1,1.45a4.7,4.7,0,0,1-1.83,1.1A6.83,6.83,0,0,1,57,123.22Zm2.69-6.15a3.28,3.28,0,0,0-.19-.93,2.56,2.56,0,0,0-.51-.87,2.73,2.73,0,0,0-.87-.64,2.92,2.92,0,0,0-1.28-.25,2.87,2.87,0,0,0-1.23.24,2.53,2.53,0,0,0-.86.63,3,3,0,0,0-.54.87,3.46,3.46,0,0,0-.23.95Z"/><path class="cls-4" d="M67.49,123.22a7.06,7.06,0,0,1-2.42-.4,5.07,5.07,0,0,1-1.92-1.17l1-1.6a6.21,6.21,0,0,0,.65.54,5.64,5.64,0,0,0,.84.46,5.38,5.38,0,0,0,1,.31,4.21,4.21,0,0,0,1,.12,2.47,2.47,0,0,0,1.5-.38,1.18,1.18,0,0,0,.49-1,.81.81,0,0,0-.45-.75,4.46,4.46,0,0,0-1.13-.42c-.46-.11-1-.23-1.48-.34a6.29,6.29,0,0,1-1.48-.5,3.31,3.31,0,0,1-1.14-.91,2.36,2.36,0,0,1-.45-1.53,2.76,2.76,0,0,1,1-2.16,3.72,3.72,0,0,1,1.25-.67,5.3,5.3,0,0,1,1.71-.26,5.91,5.91,0,0,1,2.28.41,6.37,6.37,0,0,1,1.67,1l-.93,1.56a3.36,3.36,0,0,0-1.26-.87,4.16,4.16,0,0,0-1.74-.35,2.31,2.31,0,0,0-1.38.35,1,1,0,0,0-.51.89.72.72,0,0,0,.45.68,5.38,5.38,0,0,0,1.14.39l1.48.35a6,6,0,0,1,1.48.52,3.25,3.25,0,0,1,1.13,1,2.58,2.58,0,0,1,.45,1.6,2.89,2.89,0,0,1-.27,1.25,2.68,2.68,0,0,1-.81,1,4,4,0,0,1-1.32.66A6.27,6.27,0,0,1,67.49,123.22Z"/><path class="cls-4" d="M77.4,123.22a7.1,7.1,0,0,1-2.42-.4,5.07,5.07,0,0,1-1.92-1.17l1-1.6a4.65,4.65,0,0,0,.65.54,4.79,4.79,0,0,0,.84.46,5,5,0,0,0,1,.31,4.21,4.21,0,0,0,1,.12,2.47,2.47,0,0,0,1.5-.38,1.18,1.18,0,0,0,.49-1,.81.81,0,0,0-.45-.75,4.46,4.46,0,0,0-1.13-.42c-.46-.11-1-.23-1.48-.34a6.29,6.29,0,0,1-1.48-.5,3.31,3.31,0,0,1-1.14-.91,2.36,2.36,0,0,1-.45-1.53,2.79,2.79,0,0,1,.26-1.18,2.91,2.91,0,0,1,.77-1,3.72,3.72,0,0,1,1.25-.67,5.3,5.3,0,0,1,1.71-.26,5.91,5.91,0,0,1,2.28.41,6.37,6.37,0,0,1,1.67,1l-.92,1.56a3.52,3.52,0,0,0-1.26-.87,4.24,4.24,0,0,0-1.75-.35,2.33,2.33,0,0,0-1.38.35,1,1,0,0,0-.51.89.71.71,0,0,0,.46.68,5.27,5.27,0,0,0,1.13.39l1.48.35a6,6,0,0,1,1.48.52,3.16,3.16,0,0,1,1.13,1,2.58,2.58,0,0,1,.45,1.6,2.89,2.89,0,0,1-.27,1.25,2.68,2.68,0,0,1-.81,1,3.89,3.89,0,0,1-1.32.66A6.22,6.22,0,0,1,77.4,123.22Z"/><path class="cls-4" d="M89.31,123V109h2.46v14Z"/><path class="cls-4" d="M101.53,123v-6.34A2,2,0,0,0,101,115a2.26,2.26,0,0,0-1.48-.46A2.91,2.91,0,0,0,98,115a3.64,3.64,0,0,0-1.06.94V123h-2.2V112.83h2.2v1.38a5,5,0,0,1,.62-.58,4.61,4.61,0,0,1,.82-.53,5.51,5.51,0,0,1,1-.38,4.19,4.19,0,0,1,1.14-.15,2.93,2.93,0,0,1,3.28,3.26V123Z"/><path class="cls-4" d="M107.12,123v-8.19h-1.68v-2h1.68v-.57a3.56,3.56,0,0,1,.88-2.58,3.07,3.07,0,0,1,2.33-.93,4.42,4.42,0,0,1,1.31.2,2.79,2.79,0,0,1,1.13.68l-.86,1.37a1.62,1.62,0,0,0-1.18-.44,1.32,1.32,0,0,0-1,.42,1.88,1.88,0,0,0-.38,1.28v.57h2.06v2h-2.06V123Z"/><path class="cls-4" d="M117.64,123.22a5.34,5.34,0,0,1-2.16-.42,4.87,4.87,0,0,1-1.65-1.14,4.93,4.93,0,0,1-1-1.7,5.93,5.93,0,0,1-.36-2.07,5.83,5.83,0,0,1,.36-2.06,4.89,4.89,0,0,1,1-1.69,5,5,0,0,1,1.65-1.15,5.34,5.34,0,0,1,2.16-.42,5.4,5.4,0,0,1,2.18.42,5,5,0,0,1,1.65,1.15,4.89,4.89,0,0,1,1,1.69,5.83,5.83,0,0,1,.36,2.06,5.93,5.93,0,0,1-.36,2.07,4.93,4.93,0,0,1-1,1.7,4.87,4.87,0,0,1-1.65,1.14A5.4,5.4,0,0,1,117.64,123.22Zm0-2a2.78,2.78,0,0,0,1.26-.27,2.89,2.89,0,0,0,.92-.74,3.1,3.1,0,0,0,.57-1.08,4.24,4.24,0,0,0,.19-1.29,4.13,4.13,0,0,0-.19-1.28,3,3,0,0,0-.57-1.07,2.79,2.79,0,0,0-4.34,0,3,3,0,0,0-.57,1.07,4.13,4.13,0,0,0-.19,1.28,4.24,4.24,0,0,0,.19,1.29,3.1,3.1,0,0,0,.57,1.08,2.89,2.89,0,0,0,.92.74A2.76,2.76,0,0,0,117.64,121.27Z"/><path class="cls-4" d="M125.09,123V112.83h2.21v1.49a4.76,4.76,0,0,1,1.43-1.23,3.65,3.65,0,0,1,1.87-.49v2.18a3.58,3.58,0,0,0-.7-.06,2.73,2.73,0,0,0-.73.1,3.91,3.91,0,0,0-.75.3,3.75,3.75,0,0,0-.66.43,2.17,2.17,0,0,0-.46.51V123Z"/><path class="cls-4" d="M144.81,123v-6.62a2.11,2.11,0,0,0-.39-1.32,1.5,1.5,0,0,0-1.27-.5,2.39,2.39,0,0,0-1.37.43,3.78,3.78,0,0,0-1,.91V123h-2.2v-6.62a2.11,2.11,0,0,0-.39-1.32,1.55,1.55,0,0,0-1.29-.5,2.33,2.33,0,0,0-1.36.43,3.94,3.94,0,0,0-1,.93V123h-2.21V112.83h2.21v1.38a2.32,2.32,0,0,1,.47-.51,5.56,5.56,0,0,1,.75-.54,5.06,5.06,0,0,1,1-.42,3.72,3.72,0,0,1,1.1-.17,3,3,0,0,1,1.83.52,2.57,2.57,0,0,1,.95,1.35,3.26,3.26,0,0,1,.56-.67,5,5,0,0,1,.81-.61,4.55,4.55,0,0,1,1-.43,3.94,3.94,0,0,1,1.09-.16,2.93,2.93,0,0,1,2.16.76,3.12,3.12,0,0,1,.76,2.31V123Z"/><path class="cls-4" d="M156.07,123v-1.09a3.85,3.85,0,0,1-1.42,1,4.92,4.92,0,0,1-1.86.34,4,4,0,0,1-1.26-.21,3.49,3.49,0,0,1-1.13-.63,3.17,3.17,0,0,1-.82-1,3.61,3.61,0,0,1,0-3,3.05,3.05,0,0,1,.82-1,3.59,3.59,0,0,1,1.13-.59,4.58,4.58,0,0,1,1.26-.19,5.12,5.12,0,0,1,1.88.33,3.29,3.29,0,0,1,1.4,1v-1.52a1.66,1.66,0,0,0-.65-1.38,2.73,2.73,0,0,0-1.72-.51,4.15,4.15,0,0,0-3,1.29l-.9-1.54a5.76,5.76,0,0,1,2-1.24,6.74,6.74,0,0,1,2.3-.4,7,7,0,0,1,1.61.19,3.84,3.84,0,0,1,1.34.62,3.08,3.08,0,0,1,.93,1.14,3.89,3.89,0,0,1,.34,1.73V123Zm-2.43-1.26a3.87,3.87,0,0,0,1.4-.26,2.34,2.34,0,0,0,1-.79v-1.53a2.27,2.27,0,0,0-1-.79,3.67,3.67,0,0,0-1.4-.26,2.41,2.41,0,0,0-1.56.49,1.74,1.74,0,0,0,0,2.65A2.41,2.41,0,0,0,153.64,121.71Z"/><path class="cls-4" d="M164.17,123.22a2.6,2.6,0,0,1-1.94-.67,2.64,2.64,0,0,1-.66-1.93v-5.84h-1.68v-2h1.68v-2.78h2.21v2.78h2.05v2h-2.05v5.3a1.42,1.42,0,0,0,.24.85.82.82,0,0,0,.72.34,1.63,1.63,0,0,0,.59-.11,1,1,0,0,0,.4-.25l.52,1.66a2,2,0,0,1-.79.47A3.93,3.93,0,0,1,164.17,123.22Z"/><path class="cls-4" d="M168.92,111.59a1.34,1.34,0,0,1-1-.4,1.31,1.31,0,0,1-.4-1,1.28,1.28,0,0,1,.4-1,1.34,1.34,0,0,1,1-.4,1.37,1.37,0,0,1,1.37,1.36,1.35,1.35,0,0,1-.4,1A1.31,1.31,0,0,1,168.92,111.59ZM167.83,123V112.83H170V123Z"/><path class="cls-4" d="M177.47,123.22a5.42,5.42,0,0,1-2.17-.42,4.93,4.93,0,0,1-1.64-1.14,4.79,4.79,0,0,1-1-1.7,5.93,5.93,0,0,1-.36-2.07,5.83,5.83,0,0,1,.36-2.06,4.74,4.74,0,0,1,1-1.69A5.1,5.1,0,0,1,175.3,113a5.84,5.84,0,0,1,4.35,0,5.26,5.26,0,0,1,1.65,1.15,5,5,0,0,1,1,1.69,5.83,5.83,0,0,1,.36,2.06,5.93,5.93,0,0,1-.36,2.07,4.83,4.83,0,0,1-2.69,2.84A5.4,5.4,0,0,1,177.47,123.22Zm0-2a2.84,2.84,0,0,0,1.26-.27,2.89,2.89,0,0,0,.92-.74,3.28,3.28,0,0,0,.57-1.08,4.57,4.57,0,0,0,.19-1.29,4.45,4.45,0,0,0-.19-1.28,3.14,3.14,0,0,0-.57-1.07,2.76,2.76,0,0,0-.92-.74,2.84,2.84,0,0,0-1.26-.27,2.73,2.73,0,0,0-1.24.27,2.8,2.8,0,0,0-.93.74,3,3,0,0,0-.56,1.07,4.13,4.13,0,0,0-.19,1.28,4.24,4.24,0,0,0,.19,1.29,3.09,3.09,0,0,0,.56,1.08,2.93,2.93,0,0,0,.93.74A2.73,2.73,0,0,0,177.47,121.27Z"/><path class="cls-4" d="M191.77,123v-6.34a2,2,0,0,0-.56-1.64,2.22,2.22,0,0,0-1.48-.46,2.87,2.87,0,0,0-1.54.42,3.51,3.51,0,0,0-1.06.94V123h-2.21V112.83h2.21v1.38a3.91,3.91,0,0,1,.62-.58,4,4,0,0,1,.82-.53,5.7,5.7,0,0,1,1-.38,4.26,4.26,0,0,1,1.15-.15,2.93,2.93,0,0,1,3.27,3.26V123Z"/><path class="cls-4" d="M54,151V137H60.2a5.06,5.06,0,0,1,1.95.36,4.33,4.33,0,0,1,1.44,1,4,4,0,0,1,.88,1.39,4.85,4.85,0,0,1,0,3.36,4,4,0,0,1-.89,1.4,4.35,4.35,0,0,1-1.44.95,5,5,0,0,1-1.94.36H56.5V151Zm5.82-7.39a2.45,2.45,0,0,0,1.72-.61,2.29,2.29,0,0,0,0-3.24,2.49,2.49,0,0,0-1.72-.6H56.5v4.45Z"/><path class="cls-4" d="M66.75,151V140.83H69v1.49a4.88,4.88,0,0,1,1.43-1.23,3.68,3.68,0,0,1,1.87-.49v2.18a3.54,3.54,0,0,0-.69-.06,2.74,2.74,0,0,0-.74.1,3.59,3.59,0,0,0-.74.3,3.49,3.49,0,0,0-.67.43,2.17,2.17,0,0,0-.46.51V151Z"/><path class="cls-4" d="M78.61,151.22a5.34,5.34,0,0,1-2.16-.42,4.87,4.87,0,0,1-1.65-1.14,4.93,4.93,0,0,1-1-1.7,5.93,5.93,0,0,1-.36-2.07,5.83,5.83,0,0,1,.36-2.06,4.89,4.89,0,0,1,1-1.69A5,5,0,0,1,76.45,141a5.34,5.34,0,0,1,2.16-.42,5.4,5.4,0,0,1,2.18.42,5,5,0,0,1,1.65,1.15,4.74,4.74,0,0,1,1,1.69,5.83,5.83,0,0,1,.36,2.06,5.93,5.93,0,0,1-.36,2.07,4.79,4.79,0,0,1-1,1.7,4.87,4.87,0,0,1-1.65,1.14A5.4,5.4,0,0,1,78.61,151.22Zm0-1.95a2.67,2.67,0,0,0,2.18-1,3,3,0,0,0,.57-1.08,4.24,4.24,0,0,0,.19-1.29,4.13,4.13,0,0,0-.19-1.28,2.83,2.83,0,0,0-.57-1.07,2.67,2.67,0,0,0-.92-.74,2.79,2.79,0,0,0-3.42.74,3.14,3.14,0,0,0-.57,1.07,4.13,4.13,0,0,0-.19,1.28,4.24,4.24,0,0,0,.19,1.29,3.28,3.28,0,0,0,.57,1.08,2.89,2.89,0,0,0,.92.74A2.79,2.79,0,0,0,78.61,149.27Z"/><path class="cls-4" d="M88.73,151,84.6,140.83H87l3,7.6,3-7.6h2.37L91.11,151Z"/><path class="cls-4" d="M97.72,139.59a1.3,1.3,0,0,1-1-.4,1.29,1.29,0,0,1-.41-1,1.25,1.25,0,0,1,.41-1,1.36,1.36,0,0,1,2.32,1,1.35,1.35,0,0,1-.4,1A1.31,1.31,0,0,1,97.72,139.59ZM96.63,151V140.83h2.2V151Z"/><path class="cls-4" d="M108.83,151v-1.39a4.23,4.23,0,0,1-1.43,1.2,3.91,3.91,0,0,1-1.82.44,4.47,4.47,0,0,1-1.81-.36,4,4,0,0,1-1.43-1,4.78,4.78,0,0,1-.94-1.67,6.82,6.82,0,0,1-.34-2.25,6.7,6.7,0,0,1,.34-2.21,5.07,5.07,0,0,1,.93-1.68,4.3,4.3,0,0,1,1.43-1.07,4.36,4.36,0,0,1,1.82-.38,3.88,3.88,0,0,1,1.79.44,4.15,4.15,0,0,1,1.46,1.22V137H111v14Zm-2.62-1.7a3.18,3.18,0,0,0,1.52-.39,3,3,0,0,0,1.1-1v-4a3,3,0,0,0-1.1-1,3.09,3.09,0,0,0-1.52-.4,2.53,2.53,0,0,0-2.09.94,3.71,3.71,0,0,0-.77,2.44,4.45,4.45,0,0,0,.2,1.35,2.79,2.79,0,0,0,.58,1.06,2.67,2.67,0,0,0,.9.7A2.8,2.8,0,0,0,106.21,149.27Z"/><path class="cls-4" d="M118.57,151.22a5.65,5.65,0,0,1-2.11-.38,4.89,4.89,0,0,1-1.69-1.08,5.07,5.07,0,0,1-1.11-1.69,6,6,0,0,1,0-4.25,4.9,4.9,0,0,1,1.06-1.69,5.14,5.14,0,0,1,1.63-1.14,5.35,5.35,0,0,1,4.13,0,4.47,4.47,0,0,1,1.58,1.16,5.5,5.5,0,0,1,1,1.75,6.53,6.53,0,0,1,.35,2.21v.52h-7.83a3.12,3.12,0,0,0,.31,1.08,2.77,2.77,0,0,0,.65.9,3.11,3.11,0,0,0,1,.6,3.79,3.79,0,0,0,1.29.22,4.59,4.59,0,0,0,1.54-.29,3.46,3.46,0,0,0,1.34-.83l1,1.45a4.7,4.7,0,0,1-1.83,1.1A6.83,6.83,0,0,1,118.57,151.22Zm2.69-6.15a3.28,3.28,0,0,0-.19-.93,2.56,2.56,0,0,0-.51-.87,2.73,2.73,0,0,0-.87-.64,2.92,2.92,0,0,0-1.28-.25,2.87,2.87,0,0,0-1.23.24,2.53,2.53,0,0,0-.86.63,3,3,0,0,0-.54.87,3.86,3.86,0,0,0-.23.95Z"/><path class="cls-4" d="M125.59,151V140.83h2.2v1.49a4.88,4.88,0,0,1,1.43-1.23,3.68,3.68,0,0,1,1.87-.49v2.18a3.54,3.54,0,0,0-.69-.06,2.74,2.74,0,0,0-.74.1,3.59,3.59,0,0,0-.74.3,3.49,3.49,0,0,0-.67.43,2.41,2.41,0,0,0-.46.51V151Z"/><path class="cls-4" d="M136.34,151.22a7.12,7.12,0,0,1-2.43-.4,5.15,5.15,0,0,1-1.92-1.17l1-1.6a5.32,5.32,0,0,0,.65.54,4.79,4.79,0,0,0,.84.46,5.38,5.38,0,0,0,1,.31,4.19,4.19,0,0,0,1,.12,2.48,2.48,0,0,0,1.51-.38,1.2,1.2,0,0,0,.49-1,.81.81,0,0,0-.45-.75,4.4,4.4,0,0,0-1.14-.42c-.45-.11-.94-.23-1.48-.34a6.45,6.45,0,0,1-1.48-.5,3.37,3.37,0,0,1-1.13-.91,2.36,2.36,0,0,1-.45-1.53,2.64,2.64,0,0,1,.26-1.18,2.79,2.79,0,0,1,.77-1,3.63,3.63,0,0,1,1.25-.67,5.21,5.21,0,0,1,1.71-.26,6,6,0,0,1,2.28.41,6.53,6.53,0,0,1,1.67,1l-.93,1.56a3.52,3.52,0,0,0-1.26-.87,4.16,4.16,0,0,0-1.74-.35,2.37,2.37,0,0,0-1.39.35,1,1,0,0,0-.5.89.72.72,0,0,0,.45.68,5.47,5.47,0,0,0,1.13.39l1.48.35a5.76,5.76,0,0,1,1.48.52,3.19,3.19,0,0,1,1.14.95,2.58,2.58,0,0,1,.45,1.6,2.89,2.89,0,0,1-.27,1.25,2.68,2.68,0,0,1-.81,1,4.08,4.08,0,0,1-1.32.66A6.27,6.27,0,0,1,136.34,151.22Z"/><path class="cls-4" d="M260.65,123V109h6.16a5.06,5.06,0,0,1,1.95.36,4.33,4.33,0,0,1,1.44,1,4,4,0,0,1,.88,1.39,4.85,4.85,0,0,1,0,3.36,4,4,0,0,1-.89,1.4,4.35,4.35,0,0,1-1.44.95,5,5,0,0,1-1.94.36h-3.7V123Zm5.82-7.39a2.45,2.45,0,0,0,1.72-.61,2.29,2.29,0,0,0,0-3.24,2.49,2.49,0,0,0-1.72-.6h-3.36v4.45Z"/><path class="cls-4" d="M277.72,123.22a5.65,5.65,0,0,1-2.11-.38,4.89,4.89,0,0,1-1.69-1.08,5.07,5.07,0,0,1-1.11-1.69,6,6,0,0,1,0-4.25,5.05,5.05,0,0,1,1.06-1.69,5.26,5.26,0,0,1,1.63-1.14,5.35,5.35,0,0,1,4.13,0,4.47,4.47,0,0,1,1.58,1.16,5.5,5.5,0,0,1,1,1.75,6.53,6.53,0,0,1,.35,2.21v.52h-7.83a3.35,3.35,0,0,0,.31,1.08,2.77,2.77,0,0,0,.65.9,3.11,3.11,0,0,0,1,.6,3.81,3.81,0,0,0,1.3.22,4.54,4.54,0,0,0,1.53-.29,3.46,3.46,0,0,0,1.34-.83l1,1.45a4.7,4.7,0,0,1-1.83,1.1A6.83,6.83,0,0,1,277.72,123.22Zm2.69-6.15a3.28,3.28,0,0,0-.19-.93,2.56,2.56,0,0,0-.51-.87,2.73,2.73,0,0,0-.87-.64,2.92,2.92,0,0,0-1.28-.25,2.87,2.87,0,0,0-1.23.24,2.63,2.63,0,0,0-.86.63,3,3,0,0,0-.54.87,3.86,3.86,0,0,0-.23.95Z"/><path class="cls-4" d="M289.32,123.22a5.42,5.42,0,0,1-2.17-.42,5.07,5.07,0,0,1-1.65-1.14,4.91,4.91,0,0,1-1-1.7,5.93,5.93,0,0,1-.36-2.07,5.83,5.83,0,0,1,.36-2.06,4.87,4.87,0,0,1,1-1.69,5.26,5.26,0,0,1,1.65-1.15,5.84,5.84,0,0,1,4.35,0,5.26,5.26,0,0,1,1.65,1.15,5,5,0,0,1,1,1.69,5.83,5.83,0,0,1,.36,2.06,5.93,5.93,0,0,1-.36,2.07,4.83,4.83,0,0,1-2.69,2.84A5.4,5.4,0,0,1,289.32,123.22Zm0-2a2.84,2.84,0,0,0,1.26-.27,2.89,2.89,0,0,0,.92-.74,3.28,3.28,0,0,0,.57-1.08,4.57,4.57,0,0,0,.19-1.29,4.45,4.45,0,0,0-.19-1.28,3.14,3.14,0,0,0-.57-1.07,2.76,2.76,0,0,0-.92-.74,2.84,2.84,0,0,0-1.26-.27,2.73,2.73,0,0,0-1.24.27,2.8,2.8,0,0,0-.93.74,3,3,0,0,0-.56,1.07,4.13,4.13,0,0,0-.19,1.28,4.24,4.24,0,0,0,.19,1.29,3.09,3.09,0,0,0,.56,1.08,2.93,2.93,0,0,0,.93.74A2.73,2.73,0,0,0,289.32,121.27Z"/><path class="cls-4" d="M302.23,123.22a4,4,0,0,1-3.25-1.66v5.27h-2.21v-14H299v1.38a4,4,0,0,1,1.4-1.19,3.86,3.86,0,0,1,1.85-.45,4.47,4.47,0,0,1,1.81.36,4.14,4.14,0,0,1,1.42,1,5,5,0,0,1,.93,1.67,7.09,7.09,0,0,1,.34,2.25,7,7,0,0,1-.34,2.24,4.9,4.9,0,0,1-.93,1.67,4,4,0,0,1-1.42,1A4.31,4.31,0,0,1,302.23,123.22Zm-.65-2a2.55,2.55,0,0,0,2.09-1,3.74,3.74,0,0,0,.77-2.43,4.56,4.56,0,0,0-.2-1.36,3.29,3.29,0,0,0-.58-1.06,2.78,2.78,0,0,0-.9-.69,2.68,2.68,0,0,0-1.18-.25,3,3,0,0,0-.77.1,3.3,3.3,0,0,0-.73.3,3.09,3.09,0,0,0-.63.44,2.8,2.8,0,0,0-.47.52v4a2.56,2.56,0,0,0,.47.53,3.54,3.54,0,0,0,.63.44,3.27,3.27,0,0,0,.73.29A3,3,0,0,0,301.58,121.27Z"/><path class="cls-4" d="M308.91,123V109h2.2v14Z"/><path class="cls-4" d="M318.65,123.22a5.65,5.65,0,0,1-2.11-.38,4.82,4.82,0,0,1-2.8-2.77,6,6,0,0,1,0-4.25,4.9,4.9,0,0,1,1.06-1.69,5.14,5.14,0,0,1,1.63-1.14,5.35,5.35,0,0,1,4.13,0,4.56,4.56,0,0,1,1.58,1.16,5.5,5.5,0,0,1,1,1.75,6.78,6.78,0,0,1,.35,2.21v.52h-7.83a3.12,3.12,0,0,0,.31,1.08,2.77,2.77,0,0,0,.65.9,3.11,3.11,0,0,0,1,.6,3.79,3.79,0,0,0,1.29.22,4.59,4.59,0,0,0,1.54-.29,3.46,3.46,0,0,0,1.34-.83l1,1.45a4.7,4.7,0,0,1-1.83,1.1A6.83,6.83,0,0,1,318.65,123.22Zm2.69-6.15a3.28,3.28,0,0,0-.19-.93,2.56,2.56,0,0,0-.51-.87,2.73,2.73,0,0,0-.87-.64,2.92,2.92,0,0,0-1.28-.25,2.87,2.87,0,0,0-1.23.24,2.53,2.53,0,0,0-.86.63,3,3,0,0,0-.54.87,3.46,3.46,0,0,0-.23.95Z"/><path class="cls-4" d="M324.87,118.83v-1.89h5v1.89Z"/><path class="cls-4" d="M332.49,123v-8.19h-1.68v-2h1.68v-.57a3.6,3.6,0,0,1,.88-2.58,3.08,3.08,0,0,1,2.34-.93,4.53,4.53,0,0,1,1.31.2,2.82,2.82,0,0,1,1.12.68l-.86,1.37a1.86,1.86,0,0,0-.51-.33,1.92,1.92,0,0,0-.67-.11,1.3,1.3,0,0,0-1,.42,1.83,1.83,0,0,0-.38,1.28v.57h2.05v2H334.7V123Z"/><path class="cls-4" d="M344.63,123v-1.09a3.85,3.85,0,0,1-1.42,1,4.85,4.85,0,0,1-1.86.34,4,4,0,0,1-1.26-.21,3.49,3.49,0,0,1-1.13-.63,3.17,3.17,0,0,1-.82-1,3.71,3.71,0,0,1,0-3,3.05,3.05,0,0,1,.82-1,3.59,3.59,0,0,1,1.13-.59,4.58,4.58,0,0,1,1.26-.19,5.12,5.12,0,0,1,1.88.33,3.29,3.29,0,0,1,1.4,1v-1.52A1.66,1.66,0,0,0,344,115a2.73,2.73,0,0,0-1.72-.51,4.15,4.15,0,0,0-3,1.29l-.9-1.54a5.76,5.76,0,0,1,2-1.24,6.78,6.78,0,0,1,2.3-.4,7,7,0,0,1,1.61.19,3.84,3.84,0,0,1,1.34.62,3.08,3.08,0,0,1,.93,1.14,3.89,3.89,0,0,1,.34,1.73V123Zm-2.43-1.26a3.83,3.83,0,0,0,1.4-.26,2.34,2.34,0,0,0,1-.79v-1.53a2.27,2.27,0,0,0-1-.79,3.63,3.63,0,0,0-1.4-.26,2.41,2.41,0,0,0-1.56.49,1.74,1.74,0,0,0,0,2.65A2.41,2.41,0,0,0,342.2,121.71Z"/><path class="cls-4" d="M354.31,123.22a5.41,5.41,0,0,1-2.12-.4,4.75,4.75,0,0,1-1.66-1.11,5.2,5.2,0,0,1-1.08-1.69,5.68,5.68,0,0,1-.39-2.13,5.59,5.59,0,0,1,.39-2.12,5.06,5.06,0,0,1,1.08-1.68,4.92,4.92,0,0,1,1.66-1.12,5.6,5.6,0,0,1,2.12-.4,4.79,4.79,0,0,1,2.42.54,5,5,0,0,1,1.47,1.27l-1.45,1.34a2.74,2.74,0,0,0-2.33-1.19,3,3,0,0,0-1.26.25,3,3,0,0,0-1,.69,3.19,3.19,0,0,0-.62,1.06,4,4,0,0,0-.22,1.36,3.9,3.9,0,0,0,.22,1.35,3.14,3.14,0,0,0,.62,1.07,2.87,2.87,0,0,0,1,.71,3.15,3.15,0,0,0,1.26.25,2.76,2.76,0,0,0,2.33-1.2l1.45,1.35a5,5,0,0,1-1.47,1.27A4.9,4.9,0,0,1,354.31,123.22Z"/><path class="cls-4" d="M361.22,111.59a1.34,1.34,0,0,1-1-.4,1.32,1.32,0,0,1-.41-1,1.28,1.28,0,0,1,.41-1,1.34,1.34,0,0,1,1-.4,1.35,1.35,0,0,1,1.36,1.36,1.34,1.34,0,0,1-.39,1A1.31,1.31,0,0,1,361.22,111.59ZM360.13,123V112.83h2.2V123Z"/><path class="cls-4" d="M372,123v-6.34a2,2,0,0,0-.55-1.64,2.24,2.24,0,0,0-1.48-.46,2.91,2.91,0,0,0-1.55.42,3.77,3.77,0,0,0-1.06.94V123h-2.2V112.83h2.2v1.38a5,5,0,0,1,.62-.58,4.61,4.61,0,0,1,.82-.53,5.51,5.51,0,0,1,1-.38,4.24,4.24,0,0,1,1.14-.15,2.93,2.93,0,0,1,3.28,3.26V123Z"/><path class="cls-4" d="M381.21,127.09a7.34,7.34,0,0,1-2.3-.33,5.4,5.4,0,0,1-1.94-1.19l1-1.59a3.39,3.39,0,0,0,1.41,1,5.31,5.31,0,0,0,1.8.29,4.32,4.32,0,0,0,1.08-.14,2.63,2.63,0,0,0,1-.46,2.31,2.31,0,0,0,.69-.85,2.82,2.82,0,0,0,.26-1.3v-1.22a4.71,4.71,0,0,1-1.41,1.22A3.72,3.72,0,0,1,381,123a4.51,4.51,0,0,1-1.8-.35,3.86,3.86,0,0,1-1.42-1,4.82,4.82,0,0,1-.94-1.63,6.89,6.89,0,0,1-.33-2.23,6.81,6.81,0,0,1,.33-2.19,4.77,4.77,0,0,1,.94-1.64,4.09,4.09,0,0,1,1.41-1,4.47,4.47,0,0,1,1.81-.36,3.9,3.9,0,0,1,1.81.44,4.09,4.09,0,0,1,1.44,1.22v-1.4h2.21v9.61a5.06,5.06,0,0,1-.46,2.27,3.87,3.87,0,0,1-1.21,1.43,4.67,4.67,0,0,1-1.67.74A8.44,8.44,0,0,1,381.21,127.09Zm.4-6a3,3,0,0,0,.77-.11,3.58,3.58,0,0,0,.73-.29,4.11,4.11,0,0,0,.63-.43,2.17,2.17,0,0,0,.47-.54v-3.78a2.8,2.8,0,0,0-.47-.52,3.55,3.55,0,0,0-1.36-.74,3,3,0,0,0-.77-.1,2.63,2.63,0,0,0-2.09.89,4,4,0,0,0,0,4.73A2.63,2.63,0,0,0,381.61,121Z"/><path class="cls-4" d="M325,151l-1-2.69h-6.43l-1,2.69h-2.79l5.5-14h3.07l5.5,14Zm-4.25-11.53-2.52,6.68h5Z"/><path class="cls-4" d="M329.34,151V137h2.46v14Z"/><path class="cls-4" d="M526.12,123.22a7.46,7.46,0,0,1-2.88-.54,6.86,6.86,0,0,1-2.27-1.52,6.66,6.66,0,0,1-1.48-2.28,8.2,8.2,0,0,1,0-5.8,6.7,6.7,0,0,1,1.48-2.29,6.84,6.84,0,0,1,2.27-1.51,7.84,7.84,0,0,1,5.77,0,6.84,6.84,0,0,1,2.27,1.51,6.7,6.7,0,0,1,1.48,2.29,8.2,8.2,0,0,1,0,5.8,6.66,6.66,0,0,1-1.48,2.28,6.86,6.86,0,0,1-2.27,1.52A7.51,7.51,0,0,1,526.12,123.22Zm0-2.18a4.64,4.64,0,0,0,1.92-.39,4.33,4.33,0,0,0,1.46-1.06,4.59,4.59,0,0,0,.94-1.61,6.29,6.29,0,0,0,0-4,4.64,4.64,0,0,0-.94-1.6A4.46,4.46,0,0,0,528,111.3a4.8,4.8,0,0,0-1.92-.38,4.73,4.73,0,0,0-1.92.38,4.68,4.68,0,0,0-1.46,1.06,4.78,4.78,0,0,0-.93,1.6,6.29,6.29,0,0,0,0,4,4.73,4.73,0,0,0,.93,1.61,4.43,4.43,0,0,0,3.38,1.45Z"/><path class="cls-4" d="M542.44,123v-6.34a2,2,0,0,0-.56-1.64,2.22,2.22,0,0,0-1.48-.46,2.9,2.9,0,0,0-1.54.42,3.64,3.64,0,0,0-1.06.94V123h-2.2V112.83h2.2v1.38a4.39,4.39,0,0,1,.62-.58,4.27,4.27,0,0,1,.82-.53,5.51,5.51,0,0,1,1-.38,4.14,4.14,0,0,1,1.14-.15,2.93,2.93,0,0,1,3.28,3.26V123Z"/><path class="cls-4" d="M547.5,123V109h2.21v14Z"/><path class="cls-4" d="M553.66,111.59a1.31,1.31,0,0,1-1-.4,1.32,1.32,0,0,1-.41-1,1.28,1.28,0,0,1,.41-1,1.35,1.35,0,0,1,1.92,0,1.28,1.28,0,0,1,.4,1,1.37,1.37,0,0,1-1.36,1.37ZM552.56,123V112.83h2.21V123Z"/><path class="cls-4" d="M564.47,123v-6.34a2,2,0,0,0-.56-1.64,2.22,2.22,0,0,0-1.48-.46,2.87,2.87,0,0,0-1.54.42,3.51,3.51,0,0,0-1.06.94V123h-2.21V112.83h2.21v1.38a4.39,4.39,0,0,1,.62-.58,4.27,4.27,0,0,1,.82-.53,5.7,5.7,0,0,1,1-.38,4.26,4.26,0,0,1,1.15-.15,2.92,2.92,0,0,1,3.27,3.26V123Z"/><path class="cls-4" d="M574.21,123.22a5.65,5.65,0,0,1-2.11-.38,4.89,4.89,0,0,1-1.69-1.08,5.07,5.07,0,0,1-1.11-1.69,6,6,0,0,1,0-4.25,4.9,4.9,0,0,1,1.06-1.69A5.14,5.14,0,0,1,572,113a5.35,5.35,0,0,1,4.13,0,4.47,4.47,0,0,1,1.58,1.16,5.5,5.5,0,0,1,1,1.75,6.78,6.78,0,0,1,.35,2.21v.52h-7.83a3.12,3.12,0,0,0,.31,1.08,2.77,2.77,0,0,0,.65.9,3.11,3.11,0,0,0,1,.6,3.79,3.79,0,0,0,1.29.22,4.59,4.59,0,0,0,1.54-.29,3.46,3.46,0,0,0,1.34-.83l1,1.45a4.7,4.7,0,0,1-1.83,1.1A6.83,6.83,0,0,1,574.21,123.22Zm2.69-6.15a3.28,3.28,0,0,0-.19-.93,2.56,2.56,0,0,0-.51-.87,2.73,2.73,0,0,0-.87-.64,2.92,2.92,0,0,0-1.28-.25,2.87,2.87,0,0,0-1.23.24,2.53,2.53,0,0,0-.86.63,3,3,0,0,0-.54.87,3.46,3.46,0,0,0-.23.95Z"/><path class="cls-4" d="M504.23,151l-2.73-10.33L498.79,151h-2.62l-4-14h2.75l2.73,10.8,2.9-10.8h1.95l2.9,10.8L508.1,137h2.75l-4,14Z"/><path class="cls-4" d="M516.16,151.22a5.34,5.34,0,0,1-2.16-.42,4.87,4.87,0,0,1-1.65-1.14,4.93,4.93,0,0,1-1-1.7,5.93,5.93,0,0,1-.36-2.07,5.83,5.83,0,0,1,.36-2.06,4.89,4.89,0,0,1,1-1.69A5,5,0,0,1,514,141a5.34,5.34,0,0,1,2.16-.42,5.4,5.4,0,0,1,2.18.42,5,5,0,0,1,1.65,1.15,4.89,4.89,0,0,1,1,1.69,5.83,5.83,0,0,1,.36,2.06A5.93,5.93,0,0,1,521,148a4.93,4.93,0,0,1-1,1.7,4.87,4.87,0,0,1-1.65,1.14A5.4,5.4,0,0,1,516.16,151.22Zm0-1.95a2.78,2.78,0,0,0,1.26-.27,2.89,2.89,0,0,0,.92-.74,3,3,0,0,0,.57-1.08,4.24,4.24,0,0,0,.19-1.29,4.13,4.13,0,0,0-.19-1.28,2.83,2.83,0,0,0-.57-1.07,2.79,2.79,0,0,0-4.34,0,3.14,3.14,0,0,0-.57,1.07,4.13,4.13,0,0,0-.19,1.28,4.24,4.24,0,0,0,.19,1.29,3.28,3.28,0,0,0,.57,1.08,2.89,2.89,0,0,0,.92.74A2.79,2.79,0,0,0,516.16,149.27Z"/><path class="cls-4" d="M523.62,151V140.83h2.2v1.49a4.76,4.76,0,0,1,1.43-1.23,3.68,3.68,0,0,1,1.87-.49v2.18a3.58,3.58,0,0,0-.7-.06,2.73,2.73,0,0,0-.73.1,3.91,3.91,0,0,0-.75.3,3.75,3.75,0,0,0-.66.43,2.17,2.17,0,0,0-.46.51V151Z"/><path class="cls-4" d="M537.62,151l-3.11-4.18-1.4,1.45V151H530.9V137h2.21v8.76l4.47-4.89h2.73l-4.22,4.6,4.3,5.54Z"/><path class="cls-4" d="M545.41,151.22a7.06,7.06,0,0,1-2.42-.4,5.07,5.07,0,0,1-1.92-1.17l1-1.6a6.21,6.21,0,0,0,.65.54,5.64,5.64,0,0,0,.84.46,5.38,5.38,0,0,0,1,.31,4.21,4.21,0,0,0,1,.12,2.47,2.47,0,0,0,1.5-.38,1.18,1.18,0,0,0,.49-1,.81.81,0,0,0-.45-.75,4.46,4.46,0,0,0-1.13-.42c-.46-.11-.95-.23-1.48-.34a6.29,6.29,0,0,1-1.48-.5,3.31,3.31,0,0,1-1.14-.91,2.36,2.36,0,0,1-.45-1.53,2.76,2.76,0,0,1,1-2.16,3.72,3.72,0,0,1,1.25-.67,5.3,5.3,0,0,1,1.71-.26,5.91,5.91,0,0,1,2.28.41,6.37,6.37,0,0,1,1.67,1l-.93,1.56a3.36,3.36,0,0,0-1.26-.87,4.16,4.16,0,0,0-1.74-.35,2.31,2.31,0,0,0-1.38.35,1,1,0,0,0-.51.89.72.72,0,0,0,.45.68,5.38,5.38,0,0,0,1.14.39l1.48.35a6,6,0,0,1,1.48.52,3.25,3.25,0,0,1,1.13.95,2.58,2.58,0,0,1,.45,1.6,2.89,2.89,0,0,1-.27,1.25,2.68,2.68,0,0,1-.81,1,4,4,0,0,1-1.32.66A6.27,6.27,0,0,1,545.41,151.22Z"/><path class="cls-4" d="M557.32,151.22a4,4,0,0,1-1.81-.42,4.06,4.06,0,0,1-1.45-1.24v5.27h-2.2v-14h2.2v1.38a4.15,4.15,0,0,1,1.41-1.19,3.86,3.86,0,0,1,1.85-.45,4.47,4.47,0,0,1,1.81.36,4.11,4.11,0,0,1,1.41,1,5,5,0,0,1,.94,1.67,7.1,7.1,0,0,1,.33,2.25,7,7,0,0,1-.33,2.24,4.91,4.91,0,0,1-.94,1.67,4,4,0,0,1-1.41,1A4.31,4.31,0,0,1,557.32,151.22Zm-.65-1.95a2.55,2.55,0,0,0,2.09-1,3.74,3.74,0,0,0,.76-2.43,4.56,4.56,0,0,0-.19-1.36,3.29,3.29,0,0,0-.58-1.06,2.82,2.82,0,0,0-.91-.69,2.61,2.61,0,0,0-1.17-.25,3,3,0,0,0-.77.1,3.55,3.55,0,0,0-1.36.74,3.29,3.29,0,0,0-.48.52v4a3,3,0,0,0,.48.53,3.54,3.54,0,0,0,.63.44,3.09,3.09,0,0,0,.73.29A3,3,0,0,0,556.67,149.27Z"/><path class="cls-4" d="M570.19,151v-1.09a3.89,3.89,0,0,1-1.41,1,4.92,4.92,0,0,1-1.86.34,4,4,0,0,1-1.26-.21,3.54,3.54,0,0,1-1.14-.63,3.31,3.31,0,0,1-.82-1,3.71,3.71,0,0,1,0-3,3.18,3.18,0,0,1,.82-1,3.64,3.64,0,0,1,1.14-.59,4.58,4.58,0,0,1,1.26-.19,5.19,5.19,0,0,1,1.88.33,3.32,3.32,0,0,1,1.39,1v-1.52a1.63,1.63,0,0,0-.65-1.38,2.71,2.71,0,0,0-1.72-.51,4.13,4.13,0,0,0-3,1.29l-.91-1.54a5.8,5.8,0,0,1,2-1.24,6.7,6.7,0,0,1,2.3-.4,6.94,6.94,0,0,1,1.6.19,4,4,0,0,1,1.35.62,3.15,3.15,0,0,1,.92,1.14,3.89,3.89,0,0,1,.35,1.73V151Zm-2.42-1.26a3.81,3.81,0,0,0,1.39-.26,2.34,2.34,0,0,0,1-.79v-1.53a2.27,2.27,0,0,0-1-.79,3.62,3.62,0,0,0-1.39-.26,2.37,2.37,0,0,0-1.56.49,1.73,1.73,0,0,0,0,2.65A2.37,2.37,0,0,0,567.77,149.71Z"/><path class="cls-4" d="M579.87,151.22a5.45,5.45,0,0,1-2.12-.4,4.84,4.84,0,0,1-1.66-1.11A5.2,5.2,0,0,1,575,148a5.68,5.68,0,0,1-.39-2.13,5.59,5.59,0,0,1,.39-2.12,5,5,0,0,1,2.74-2.8,5.63,5.63,0,0,1,2.12-.4,4.77,4.77,0,0,1,2.42.54,5,5,0,0,1,1.47,1.27l-1.45,1.34a2.73,2.73,0,0,0-2.33-1.19,3,3,0,0,0-1.26.25,3,3,0,0,0-1,.69,3.37,3.37,0,0,0-.62,1.06,4.26,4.26,0,0,0-.22,1.36,4.15,4.15,0,0,0,.22,1.35,3.31,3.31,0,0,0,.62,1.07,2.87,2.87,0,0,0,1,.71,3.22,3.22,0,0,0,1.26.25,2.76,2.76,0,0,0,2.33-1.2l1.45,1.35a5,5,0,0,1-1.47,1.27A4.88,4.88,0,0,1,579.87,151.22Z"/><path class="cls-4" d="M590.37,151.22a5.65,5.65,0,0,1-2.11-.38,4.82,4.82,0,0,1-2.8-2.77,6,6,0,0,1,0-4.25,4.9,4.9,0,0,1,1.06-1.69,5.14,5.14,0,0,1,1.63-1.14,5.35,5.35,0,0,1,4.13,0,4.56,4.56,0,0,1,1.58,1.16,5.5,5.5,0,0,1,1,1.75,6.78,6.78,0,0,1,.35,2.21v.52h-7.83a3.34,3.34,0,0,0,.3,1.08,2.8,2.8,0,0,0,.66.9,3.11,3.11,0,0,0,1,.6,3.79,3.79,0,0,0,1.29.22,4.64,4.64,0,0,0,1.54-.29,3.46,3.46,0,0,0,1.34-.83l1,1.45a4.7,4.7,0,0,1-1.83,1.1A6.87,6.87,0,0,1,590.37,151.22Zm2.69-6.15a3.28,3.28,0,0,0-.19-.93,2.56,2.56,0,0,0-.51-.87,2.73,2.73,0,0,0-.87-.64,2.92,2.92,0,0,0-1.28-.25,2.87,2.87,0,0,0-1.23.24,2.53,2.53,0,0,0-.86.63,2.82,2.82,0,0,0-.54.87,3.46,3.46,0,0,0-.23.95Z"/><path class="cls-4" d="M600.85,151.22a7.06,7.06,0,0,1-2.42-.4,5.19,5.19,0,0,1-1.93-1.17l1-1.6a6.21,6.21,0,0,0,.65.54,5.64,5.64,0,0,0,.84.46,5.38,5.38,0,0,0,1,.31,4.21,4.21,0,0,0,1,.12,2.47,2.47,0,0,0,1.5-.38,1.18,1.18,0,0,0,.49-1,.81.81,0,0,0-.45-.75,4.46,4.46,0,0,0-1.13-.42c-.46-.11-1-.23-1.48-.34a6.14,6.14,0,0,1-1.48-.5,3.31,3.31,0,0,1-1.14-.91,2.36,2.36,0,0,1-.45-1.53,2.76,2.76,0,0,1,1-2.16,3.72,3.72,0,0,1,1.25-.67,5.3,5.3,0,0,1,1.71-.26,5.91,5.91,0,0,1,2.28.41,6.37,6.37,0,0,1,1.67,1l-.93,1.56a3.36,3.36,0,0,0-1.26-.87,4.16,4.16,0,0,0-1.74-.35,2.31,2.31,0,0,0-1.38.35,1,1,0,0,0-.51.89.72.72,0,0,0,.45.68,5.38,5.38,0,0,0,1.14.39L602,145a6,6,0,0,1,1.48.52,3.25,3.25,0,0,1,1.13.95,2.58,2.58,0,0,1,.45,1.6,2.89,2.89,0,0,1-.27,1.25,2.68,2.68,0,0,1-.81,1,4.08,4.08,0,0,1-1.32.66A6.27,6.27,0,0,1,600.85,151.22Z"/><path class="cls-4" d="M762.48,123V109h9.6v2.17h-7.14v3.63h7v2.16h-7v6Z"/><path class="cls-4" d="M774.22,123V112.83h2.21v1.49a4.72,4.72,0,0,1,1.42-1.23,3.71,3.71,0,0,1,1.87-.49v2.18a3.4,3.4,0,0,0-.69-.06,2.67,2.67,0,0,0-.73.1,3.46,3.46,0,0,0-.75.3,3.13,3.13,0,0,0-.66.43,2,2,0,0,0-.46.51V123Z"/><path class="cls-4" d="M786.09,123.22a5.42,5.42,0,0,1-2.17-.42,5.07,5.07,0,0,1-1.65-1.14,4.91,4.91,0,0,1-1-1.7,5.93,5.93,0,0,1-.36-2.07,5.83,5.83,0,0,1,.36-2.06,4.87,4.87,0,0,1,1-1.69,5.26,5.26,0,0,1,1.65-1.15,5.84,5.84,0,0,1,4.35,0,5.26,5.26,0,0,1,1.65,1.15,5,5,0,0,1,1,1.69,5.83,5.83,0,0,1,.36,2.06A5.93,5.93,0,0,1,791,120a4.83,4.83,0,0,1-2.69,2.84A5.4,5.4,0,0,1,786.09,123.22Zm0-2a2.84,2.84,0,0,0,1.26-.27,2.89,2.89,0,0,0,.92-.74,3.28,3.28,0,0,0,.57-1.08,4.57,4.57,0,0,0,.19-1.29,4.45,4.45,0,0,0-.19-1.28,3.14,3.14,0,0,0-.57-1.07,2.76,2.76,0,0,0-.92-.74,2.84,2.84,0,0,0-1.26-.27,2.73,2.73,0,0,0-1.24.27,2.8,2.8,0,0,0-.93.74,3,3,0,0,0-.56,1.07,4.13,4.13,0,0,0-.19,1.28,4.24,4.24,0,0,0,.19,1.29,3.09,3.09,0,0,0,.56,1.08,2.93,2.93,0,0,0,.93.74A2.73,2.73,0,0,0,786.09,121.27Z"/><path class="cls-4" d="M800.39,123v-6.34a2,2,0,0,0-.56-1.64,2.22,2.22,0,0,0-1.48-.46,2.87,2.87,0,0,0-1.54.42,3.51,3.51,0,0,0-1.06.94V123h-2.21V112.83h2.21v1.38a3.91,3.91,0,0,1,.62-.58,4.19,4.19,0,0,1,.81-.53,6.15,6.15,0,0,1,1-.38,4.26,4.26,0,0,1,1.15-.15,2.93,2.93,0,0,1,3.27,3.26V123Z"/><path class="cls-4" d="M808.49,123.22a2.6,2.6,0,0,1-1.94-.67,2.64,2.64,0,0,1-.66-1.93v-5.84h-1.68v-2h1.68v-2.78h2.2v2.78h2.06v2h-2.06v5.3a1.36,1.36,0,0,0,.25.85.82.82,0,0,0,.72.34,1.63,1.63,0,0,0,.59-.11,1,1,0,0,0,.4-.25l.52,1.66a2,2,0,0,1-.8.47A3.82,3.82,0,0,1,808.49,123.22Z"/><path class="cls-4" d="M812.15,123V109h2.2v14Z"/><path class="cls-4" d="M818.3,111.59a1.34,1.34,0,0,1-1-.4,1.32,1.32,0,0,1-.41-1,1.28,1.28,0,0,1,.41-1,1.34,1.34,0,0,1,1-.4,1.37,1.37,0,0,1,1.37,1.36,1.35,1.35,0,0,1-.4,1A1.31,1.31,0,0,1,818.3,111.59ZM817.21,123V112.83h2.2V123Z"/><path class="cls-4" d="M829.11,123v-6.34a2,2,0,0,0-.55-1.64,2.24,2.24,0,0,0-1.48-.46,2.91,2.91,0,0,0-1.55.42,3.77,3.77,0,0,0-1.06.94V123h-2.2V112.83h2.2v1.38a5,5,0,0,1,.62-.58,4.61,4.61,0,0,1,.82-.53,5.51,5.51,0,0,1,1-.38,4.24,4.24,0,0,1,1.14-.15,2.93,2.93,0,0,1,3.28,3.26V123Z"/><path class="cls-4" d="M838.86,123.22a5.61,5.61,0,0,1-2.11-.38,4.8,4.8,0,0,1-1.69-1.08,4.94,4.94,0,0,1-1.12-1.69,5.87,5.87,0,0,1-.4-2.18,5.72,5.72,0,0,1,.38-2.07,5,5,0,0,1,2.69-2.83,5.37,5.37,0,0,1,4.14,0,4.53,4.53,0,0,1,1.57,1.16,5.32,5.32,0,0,1,1,1.75,6.53,6.53,0,0,1,.36,2.21v.52h-7.83a3.34,3.34,0,0,0,.3,1.08,2.92,2.92,0,0,0,.65.9,3,3,0,0,0,1,.6,3.71,3.71,0,0,0,1.29.22,4.54,4.54,0,0,0,1.53-.29,3.57,3.57,0,0,0,1.35-.83l1,1.45a4.73,4.73,0,0,1-1.82,1.1A6.92,6.92,0,0,1,838.86,123.22Zm2.69-6.15a3.67,3.67,0,0,0-.19-.93,2.58,2.58,0,0,0-.52-.87,2.73,2.73,0,0,0-.87-.64,2.92,2.92,0,0,0-1.28-.25,2.87,2.87,0,0,0-1.23.24,2.63,2.63,0,0,0-.86.63,2.79,2.79,0,0,0-.53.87,3.49,3.49,0,0,0-.24.95Z"/><path class="cls-4" d="M741.56,151V137h6.15a5,5,0,0,1,1.95.36,4.13,4.13,0,0,1,1.44,1,3.88,3.88,0,0,1,.88,1.39,4.71,4.71,0,0,1,0,3.36,4,4,0,0,1-.89,1.4,4.16,4.16,0,0,1-1.44.95,4.93,4.93,0,0,1-1.94.36H744V151Zm5.81-7.39a2.47,2.47,0,0,0,1.73-.61,2.29,2.29,0,0,0,0-3.24,2.51,2.51,0,0,0-1.73-.6H744v4.45Z"/><path class="cls-4" d="M754.26,151V140.83h2.21v1.49a4.72,4.72,0,0,1,1.42-1.23,3.71,3.71,0,0,1,1.87-.49v2.18a3.4,3.4,0,0,0-.69-.06,2.8,2.8,0,0,0-.74.1,3.59,3.59,0,0,0-.74.3,3.13,3.13,0,0,0-.66.43,2,2,0,0,0-.46.51V151Z"/><path class="cls-4" d="M766.13,151.22a5.42,5.42,0,0,1-2.17-.42,4.83,4.83,0,0,1-2.69-2.84,6.16,6.16,0,0,1-.35-2.07,6.06,6.06,0,0,1,.35-2.06,5,5,0,0,1,1-1.69A5.26,5.26,0,0,1,764,141a5.84,5.84,0,0,1,4.35,0,5.26,5.26,0,0,1,1.65,1.15,5,5,0,0,1,1,1.69,5.83,5.83,0,0,1,.35,2.06A5.92,5.92,0,0,1,771,148a4.83,4.83,0,0,1-2.69,2.84A5.4,5.4,0,0,1,766.13,151.22Zm0-1.95a2.84,2.84,0,0,0,1.26-.27,2.89,2.89,0,0,0,.92-.74,3.28,3.28,0,0,0,.57-1.08,4.57,4.57,0,0,0,.19-1.29,4.45,4.45,0,0,0-.19-1.28,3.14,3.14,0,0,0-.57-1.07,2.76,2.76,0,0,0-.92-.74,2.84,2.84,0,0,0-1.26-.27,2.71,2.71,0,0,0-2.17,1,3,3,0,0,0-.56,1.07,4.13,4.13,0,0,0-.19,1.28,4.24,4.24,0,0,0,.19,1.29,3.09,3.09,0,0,0,.56,1.08,2.82,2.82,0,0,0,.93.74A2.73,2.73,0,0,0,766.13,149.27Z"/><path class="cls-4" d="M774.11,151v-8.19h-1.68v-1.95h1.68v-.57a3.56,3.56,0,0,1,.88-2.58,3.06,3.06,0,0,1,2.33-.93,4.48,4.48,0,0,1,1.31.2,2.75,2.75,0,0,1,1.12.68l-.86,1.37a1.72,1.72,0,0,0-.51-.33,1.9,1.9,0,0,0-.66-.11,1.31,1.31,0,0,0-1,.42,1.88,1.88,0,0,0-.38,1.28v.57h2.06v1.95h-2.06V151Z"/><path class="cls-4" d="M784.73,151.22a5.65,5.65,0,0,1-2.11-.38,4.82,4.82,0,0,1-2.8-2.77,5.68,5.68,0,0,1-.4-2.18,5.51,5.51,0,0,1,.38-2.07,4.9,4.9,0,0,1,1.06-1.69,5.24,5.24,0,0,1,5.76-1.15,4.56,4.56,0,0,1,1.58,1.16,5.5,5.5,0,0,1,1,1.75,6.78,6.78,0,0,1,.35,2.21v.52h-7.83a3.34,3.34,0,0,0,.3,1.08,2.92,2.92,0,0,0,.65.9,3.28,3.28,0,0,0,1,.6,3.79,3.79,0,0,0,1.29.22,4.64,4.64,0,0,0,1.54-.29,3.46,3.46,0,0,0,1.34-.83l1,1.45a4.85,4.85,0,0,1-1.83,1.1A6.87,6.87,0,0,1,784.73,151.22Zm2.69-6.15a3.28,3.28,0,0,0-.19-.93,2.56,2.56,0,0,0-.51-.87,2.78,2.78,0,0,0-.88-.64,2.86,2.86,0,0,0-1.28-.25,2.93,2.93,0,0,0-1.23.24,2.74,2.74,0,0,0-.86.63,2.79,2.79,0,0,0-.53.87,3.46,3.46,0,0,0-.23.95Z"/><path class="cls-4" d="M795.21,151.22a7,7,0,0,1-2.42-.4,5.19,5.19,0,0,1-1.93-1.17l1-1.6a5.32,5.32,0,0,0,.65.54,4.79,4.79,0,0,0,.84.46,5.38,5.38,0,0,0,1,.31,4.21,4.21,0,0,0,1,.12,2.47,2.47,0,0,0,1.5-.38,1.18,1.18,0,0,0,.49-1,.81.81,0,0,0-.45-.75,4.46,4.46,0,0,0-1.13-.42c-.46-.11-1-.23-1.49-.34a6.45,6.45,0,0,1-1.48-.5,3.37,3.37,0,0,1-1.13-.91,2.36,2.36,0,0,1-.45-1.53,2.76,2.76,0,0,1,1-2.16,3.63,3.63,0,0,1,1.25-.67,5.21,5.21,0,0,1,1.71-.26,5.91,5.91,0,0,1,2.28.41,6.53,6.53,0,0,1,1.67,1l-.93,1.56a3.52,3.52,0,0,0-1.26-.87,4.16,4.16,0,0,0-1.74-.35,2.37,2.37,0,0,0-1.39.35,1,1,0,0,0-.5.89.72.72,0,0,0,.45.68,5.47,5.47,0,0,0,1.13.39l1.49.35a6,6,0,0,1,1.48.52,3.25,3.25,0,0,1,1.13.95,2.58,2.58,0,0,1,.45,1.6,2.89,2.89,0,0,1-.27,1.25,2.68,2.68,0,0,1-.81,1A4.08,4.08,0,0,1,797,151,6.27,6.27,0,0,1,795.21,151.22Z"/><path class="cls-4" d="M805.12,151.22a7.06,7.06,0,0,1-2.42-.4,5.07,5.07,0,0,1-1.92-1.17l1-1.6a6.21,6.21,0,0,0,.65.54,5.64,5.64,0,0,0,.84.46,5.38,5.38,0,0,0,1,.31,4.21,4.21,0,0,0,1,.12,2.47,2.47,0,0,0,1.5-.38,1.18,1.18,0,0,0,.49-1,.81.81,0,0,0-.45-.75,4.46,4.46,0,0,0-1.13-.42c-.46-.11-.95-.23-1.48-.34a6.14,6.14,0,0,1-1.48-.5,3.31,3.31,0,0,1-1.14-.91,2.36,2.36,0,0,1-.45-1.53,2.76,2.76,0,0,1,1-2.16,3.72,3.72,0,0,1,1.25-.67,5.3,5.3,0,0,1,1.71-.26,5.91,5.91,0,0,1,2.28.41,6.37,6.37,0,0,1,1.67,1l-.93,1.56a3.36,3.36,0,0,0-1.26-.87,4.16,4.16,0,0,0-1.74-.35,2.31,2.31,0,0,0-1.38.35,1,1,0,0,0-.51.89.72.72,0,0,0,.45.68,5.38,5.38,0,0,0,1.14.39l1.48.35a6,6,0,0,1,1.48.52,3.25,3.25,0,0,1,1.13.95,2.58,2.58,0,0,1,.45,1.6,2.89,2.89,0,0,1-.27,1.25,2.68,2.68,0,0,1-.81,1,4,4,0,0,1-1.32.66A6.27,6.27,0,0,1,805.12,151.22Z"/><path class="cls-4" d="M812.66,139.59a1.3,1.3,0,0,1-.95-.4,1.29,1.29,0,0,1-.41-1,1.25,1.25,0,0,1,.41-1,1.36,1.36,0,0,1,2.32,1,1.35,1.35,0,0,1-.4,1A1.31,1.31,0,0,1,812.66,139.59ZM811.57,151V140.83h2.2V151Z"/><path class="cls-4" d="M821.21,151.22a5.42,5.42,0,0,1-2.17-.42,4.93,4.93,0,0,1-1.64-1.14,4.79,4.79,0,0,1-1-1.7,5.93,5.93,0,0,1-.36-2.07,5.83,5.83,0,0,1,.36-2.06,4.74,4.74,0,0,1,1-1.69A5.1,5.1,0,0,1,819,141a5.84,5.84,0,0,1,4.35,0,5.15,5.15,0,0,1,1.65,1.15,4.89,4.89,0,0,1,1,1.69,5.83,5.83,0,0,1,.36,2.06,5.93,5.93,0,0,1-.36,2.07,4.83,4.83,0,0,1-2.69,2.84A5.4,5.4,0,0,1,821.21,151.22Zm0-1.95a2.84,2.84,0,0,0,1.26-.27,2.89,2.89,0,0,0,.92-.74,3.28,3.28,0,0,0,.57-1.08,4.57,4.57,0,0,0,.19-1.29,4.45,4.45,0,0,0-.19-1.28,3.14,3.14,0,0,0-.57-1.07,2.76,2.76,0,0,0-.92-.74,2.84,2.84,0,0,0-1.26-.27,2.76,2.76,0,0,0-1.24.27,2.8,2.8,0,0,0-.93.74,3,3,0,0,0-.56,1.07,4.13,4.13,0,0,0-.19,1.28,4.24,4.24,0,0,0,.19,1.29,3.09,3.09,0,0,0,.56,1.08,2.93,2.93,0,0,0,.93.74A2.76,2.76,0,0,0,821.21,149.27Z"/><path class="cls-4" d="M835.51,151v-6.34A2,2,0,0,0,835,143a2.22,2.22,0,0,0-1.48-.46,2.87,2.87,0,0,0-1.54.42,3.51,3.51,0,0,0-1.06.94V151h-2.21V140.83h2.21v1.38a4.39,4.39,0,0,1,.62-.58,4.27,4.27,0,0,1,.82-.53,5.7,5.7,0,0,1,1-.38,4.26,4.26,0,0,1,1.15-.15,2.92,2.92,0,0,1,3.27,3.26V151Z"/><path class="cls-4" d="M846.76,151v-1.09a3.81,3.81,0,0,1-1.41,1,4.92,4.92,0,0,1-1.86.34,4,4,0,0,1-1.26-.21,3.54,3.54,0,0,1-1.14-.63,3.47,3.47,0,0,1-.81-4,3.16,3.16,0,0,1,.81-1,3.64,3.64,0,0,1,1.14-.59,4.58,4.58,0,0,1,1.26-.19,5.19,5.19,0,0,1,1.88.33,3.26,3.26,0,0,1,1.39,1v-1.52a1.63,1.63,0,0,0-.65-1.38,2.69,2.69,0,0,0-1.72-.51,4.15,4.15,0,0,0-3,1.29l-.9-1.54a5.66,5.66,0,0,1,2-1.24,6.74,6.74,0,0,1,2.3-.4,7.1,7.1,0,0,1,1.61.19,3.93,3.93,0,0,1,1.34.62,3.15,3.15,0,0,1,.92,1.14,3.89,3.89,0,0,1,.35,1.73V151Zm-2.42-1.26a3.81,3.81,0,0,0,1.39-.26,2.29,2.29,0,0,0,1-.79v-1.53a2.22,2.22,0,0,0-1-.79,3.62,3.62,0,0,0-1.39-.26,2.41,2.41,0,0,0-1.56.49,1.74,1.74,0,0,0,0,2.65A2.41,2.41,0,0,0,844.34,149.71Z"/><path class="cls-4" d="M851.83,151V137H854v14Z"/><path class="cls-4" d="M860.35,151.22a7,7,0,0,1-2.42-.4,5.19,5.19,0,0,1-1.93-1.17l1-1.6a5.32,5.32,0,0,0,.65.54,5.64,5.64,0,0,0,.84.46,5.38,5.38,0,0,0,1,.31,4.21,4.21,0,0,0,1,.12,2.47,2.47,0,0,0,1.5-.38,1.18,1.18,0,0,0,.49-1,.81.81,0,0,0-.45-.75,4.46,4.46,0,0,0-1.13-.42c-.46-.11-1-.23-1.48-.34a6.14,6.14,0,0,1-1.48-.5,3.31,3.31,0,0,1-1.14-.91,2.36,2.36,0,0,1-.45-1.53,2.76,2.76,0,0,1,1-2.16,3.63,3.63,0,0,1,1.25-.67,5.25,5.25,0,0,1,1.71-.26,5.91,5.91,0,0,1,2.28.41,6.37,6.37,0,0,1,1.67,1l-.93,1.56a3.36,3.36,0,0,0-1.26-.87,4.16,4.16,0,0,0-1.74-.35,2.37,2.37,0,0,0-1.39.35,1,1,0,0,0-.5.89.72.72,0,0,0,.45.68,5.38,5.38,0,0,0,1.14.39l1.48.35a6,6,0,0,1,1.48.52,3.25,3.25,0,0,1,1.13.95,2.58,2.58,0,0,1,.45,1.6,2.89,2.89,0,0,1-.27,1.25,2.68,2.68,0,0,1-.81,1,4.08,4.08,0,0,1-1.32.66A6.27,6.27,0,0,1,860.35,151.22Z"/><path class="cls-4" d="M227.59,277.64a7.62,7.62,0,0,1-2.66-.42A5,5,0,0,1,223,276a4.83,4.83,0,0,1-1.13-1.81,7.1,7.1,0,0,1-.38-2.37v-8.48H224v8.4a3.86,3.86,0,0,0,.9,2.68,3.49,3.49,0,0,0,2.7,1,3.43,3.43,0,0,0,2.67-1,3.82,3.82,0,0,0,.91-2.68v-8.4h2.45v8.46a7.2,7.2,0,0,1-.37,2.38,4.79,4.79,0,0,1-1.13,1.82,5.19,5.19,0,0,1-1.89,1.18A7.62,7.62,0,0,1,227.59,277.64Z"/><path class="cls-4" d="M240,277.64a7.12,7.12,0,0,1-2.43-.4,5.3,5.3,0,0,1-1.92-1.18l1-1.59a4.51,4.51,0,0,0,.65.53,4.82,4.82,0,0,0,.84.47,6.32,6.32,0,0,0,1,.31,4.19,4.19,0,0,0,1,.12,2.48,2.48,0,0,0,1.51-.38,1.2,1.2,0,0,0,.49-1,.8.8,0,0,0-.45-.75,4.4,4.4,0,0,0-1.14-.42c-.45-.12-.94-.23-1.48-.34a6.45,6.45,0,0,1-1.48-.5,3.37,3.37,0,0,1-1.13-.91,2.4,2.4,0,0,1-.45-1.53,2.69,2.69,0,0,1,.26-1.19,2.85,2.85,0,0,1,.77-1,3.82,3.82,0,0,1,1.25-.68A5.5,5.5,0,0,1,240,267a5.91,5.91,0,0,1,2.28.41,6,6,0,0,1,1.67,1L243,270a3.65,3.65,0,0,0-1.26-.87,4.32,4.32,0,0,0-1.74-.34,2.44,2.44,0,0,0-1.39.34,1.06,1.06,0,0,0-.5.9.73.73,0,0,0,.45.68,5.47,5.47,0,0,0,1.13.39l1.48.34a6.41,6.41,0,0,1,1.49.53,3.22,3.22,0,0,1,1.13.94,2.63,2.63,0,0,1,.45,1.61,2.93,2.93,0,0,1-.27,1.25,2.76,2.76,0,0,1-.81,1,4.08,4.08,0,0,1-1.32.66A6.27,6.27,0,0,1,240,277.64Z"/><path class="cls-4" d="M251.16,277.64a5.82,5.82,0,0,1-2.11-.38,4.82,4.82,0,0,1-2.8-2.77,6.06,6.06,0,0,1,0-4.25,5.08,5.08,0,0,1,1.07-1.69,5,5,0,0,1,1.62-1.14,5.37,5.37,0,0,1,4.14,0,4.32,4.32,0,0,1,1.57,1.16,5.22,5.22,0,0,1,1,1.75,6.53,6.53,0,0,1,.36,2.21V273h-7.83a3.34,3.34,0,0,0,.3,1.08,2.88,2.88,0,0,0,.65.89,2.83,2.83,0,0,0,1,.6,3.53,3.53,0,0,0,1.29.22,4.52,4.52,0,0,0,1.53-.28,3.5,3.5,0,0,0,1.35-.83l1,1.45a4.85,4.85,0,0,1-1.83,1.1A6.87,6.87,0,0,1,251.16,277.64Zm2.69-6.15a3.58,3.58,0,0,0-.19-.93,2.43,2.43,0,0,0-.52-.87,2.73,2.73,0,0,0-.87-.64,2.89,2.89,0,0,0-1.28-.25,2.93,2.93,0,0,0-1.23.24,2.63,2.63,0,0,0-.86.63,2.79,2.79,0,0,0-.53.87,3.06,3.06,0,0,0-.23.95Z"/><path class="cls-4" d="M258.17,277.39V267.24h2.21v1.5a4.76,4.76,0,0,1,1.43-1.23,3.66,3.66,0,0,1,1.87-.5v2.19a3.52,3.52,0,0,0-.7-.07,2.75,2.75,0,0,0-.73.11,4.63,4.63,0,0,0-.75.29,4.41,4.41,0,0,0-.66.43,2.18,2.18,0,0,0-.46.52v6.91Z"/><path class="cls-4" d="M270.92,277.39v-14h6.89a4.79,4.79,0,0,1,1.71.28,3.72,3.72,0,0,1,1.25.77,3.39,3.39,0,0,1,.77,1.13,3.81,3.81,0,0,1,.26,1.39,3.63,3.63,0,0,1-.2,1.22,3.26,3.26,0,0,1-.54.95,2.92,2.92,0,0,1-.77.68,3.32,3.32,0,0,1-.93.36,2.89,2.89,0,0,1,1.06.39,3.33,3.33,0,0,1,.86.77,3.58,3.58,0,0,1,.58,1.05,3.63,3.63,0,0,1,.21,1.24,4.35,4.35,0,0,1-.26,1.51,3.35,3.35,0,0,1-.79,1.2,3.67,3.67,0,0,1-1.28.78,4.88,4.88,0,0,1-1.74.29Zm6.38-8.21a2,2,0,0,0,1.46-.51,1.71,1.71,0,0,0,.52-1.3,1.75,1.75,0,0,0-.52-1.31,2,2,0,0,0-1.46-.52h-3.92v3.64Zm.11,6a2.25,2.25,0,0,0,1.57-.51,1.83,1.83,0,0,0,.57-1.44,1.92,1.92,0,0,0-.53-1.36,2.12,2.12,0,0,0-1.61-.57h-4v3.88Z"/><path class="cls-4" d="M289.15,277.64a5.82,5.82,0,0,1-2.11-.38,4.8,4.8,0,0,1-1.69-1.08,4.94,4.94,0,0,1-1.12-1.69,5.91,5.91,0,0,1-.4-2.18,5.72,5.72,0,0,1,.38-2.07A5.18,5.18,0,0,1,291,267.4a4.41,4.41,0,0,1,1.57,1.16,5.22,5.22,0,0,1,1,1.75,6.53,6.53,0,0,1,.36,2.21V273h-7.84a3.63,3.63,0,0,0,.31,1.08,2.88,2.88,0,0,0,.65.89,2.74,2.74,0,0,0,1,.6,3.49,3.49,0,0,0,1.29.22,4.52,4.52,0,0,0,1.53-.28,3.57,3.57,0,0,0,1.35-.83l1,1.45a4.73,4.73,0,0,1-1.82,1.1A6.92,6.92,0,0,1,289.15,277.64Zm2.69-6.15a3.58,3.58,0,0,0-.19-.93,2.65,2.65,0,0,0-1.39-1.51,2.92,2.92,0,0,0-1.28-.25,2.87,2.87,0,0,0-1.23.24,2.63,2.63,0,0,0-.86.63,3,3,0,0,0-.54.87,3.76,3.76,0,0,0-.23.95Z"/><path class="cls-4" d="M303,277.39V271a1.93,1.93,0,0,0-.57-1.61A2.32,2.32,0,0,0,301,269a2.83,2.83,0,0,0-1.52.42,3.74,3.74,0,0,0-1.08.94v7.08h-2.21v-14h2.21v5.25A3.93,3.93,0,0,1,299,268a4.51,4.51,0,0,1,.83-.52,5.08,5.08,0,0,1,1-.38A4.26,4.26,0,0,1,302,267a3.38,3.38,0,0,1,2.46.82,3.29,3.29,0,0,1,.81,2.4v7.18Z"/><path class="cls-4" d="M314.29,277.39V276.3a3.79,3.79,0,0,1-1.42,1,4.93,4.93,0,0,1-1.86.35,4,4,0,0,1-1.26-.21,3.39,3.39,0,0,1-1.13-.63,3.17,3.17,0,0,1-.82-1.05,3.61,3.61,0,0,1,0-3,3.05,3.05,0,0,1,.82-1,3.3,3.3,0,0,1,1.13-.59A4.58,4.58,0,0,1,311,271a5.19,5.19,0,0,1,1.88.33,3.43,3.43,0,0,1,1.4,1v-1.51a1.63,1.63,0,0,0-.66-1.38,2.69,2.69,0,0,0-1.72-.51,4.18,4.18,0,0,0-3,1.28l-.9-1.53a5.66,5.66,0,0,1,2-1.24,6.74,6.74,0,0,1,2.3-.4,7.1,7.1,0,0,1,1.61.19,3.75,3.75,0,0,1,1.34.62,3.15,3.15,0,0,1,.92,1.14,3.86,3.86,0,0,1,.35,1.73v6.72Zm-2.43-1.26a3.77,3.77,0,0,0,1.39-.26,2.37,2.37,0,0,0,1-.79v-1.53a2.23,2.23,0,0,0-1-.79,3.59,3.59,0,0,0-1.39-.27,2.41,2.41,0,0,0-1.56.5,1.61,1.61,0,0,0-.61,1.33,1.59,1.59,0,0,0,.61,1.31A2.41,2.41,0,0,0,311.86,276.13Z"/><path class="cls-4" d="M322,277.39l-4.13-10.15h2.35l3,7.61,3-7.61h2.37l-4.13,10.15Z"/><path class="cls-4" d="M331,266a1.38,1.38,0,0,1-1-.4,1.35,1.35,0,0,1,0-1.94,1.37,1.37,0,0,1,1-.39,1.37,1.37,0,1,1,0,2.73Zm-1.09,11.38V267.24h2.2v10.15Z"/><path class="cls-4" d="M339.55,277.64a5.42,5.42,0,0,1-2.17-.42,4.93,4.93,0,0,1-1.64-1.14,4.74,4.74,0,0,1-1-1.71,5.91,5.91,0,0,1-.36-2.06,5.83,5.83,0,0,1,.36-2.06,4.66,4.66,0,0,1,1-1.69,4.81,4.81,0,0,1,1.64-1.15,5.84,5.84,0,0,1,4.35,0,4.85,4.85,0,0,1,1.65,1.15,5,5,0,0,1,1,1.69,5.83,5.83,0,0,1,.36,2.06,5.91,5.91,0,0,1-.36,2.06,5,5,0,0,1-1,1.71,5,5,0,0,1-1.65,1.14A5.4,5.4,0,0,1,339.55,277.64Zm0-1.95a2.75,2.75,0,0,0,2.18-1,3.28,3.28,0,0,0,.57-1.08,4.68,4.68,0,0,0,.19-1.29,4.57,4.57,0,0,0-.19-1.29,3.33,3.33,0,0,0-.57-1.07,2.7,2.7,0,0,0-2.18-1,2.73,2.73,0,0,0-1.24.27,2.9,2.9,0,0,0-.93.73,3.13,3.13,0,0,0-.56,1.07,4.24,4.24,0,0,0-.19,1.29,4.33,4.33,0,0,0,.19,1.29,3.09,3.09,0,0,0,.56,1.08,2.77,2.77,0,0,0,.93.73A2.61,2.61,0,0,0,339.55,275.69Z"/><path class="cls-4" d="M347,277.39V267.24h2.21v1.5a4.76,4.76,0,0,1,1.43-1.23,3.65,3.65,0,0,1,1.86-.5v2.19a3.34,3.34,0,0,0-.69-.07,2.69,2.69,0,0,0-.73.11,4.3,4.3,0,0,0-.75.29,4.41,4.41,0,0,0-.66.43,2.18,2.18,0,0,0-.46.52v6.91Z"/><path class="cls-4" d="M360.48,277.39V276.3a3.68,3.68,0,0,1-1.41,1,4.93,4.93,0,0,1-1.86.35,4,4,0,0,1-1.26-.21,3.54,3.54,0,0,1-1.14-.63,3.47,3.47,0,0,1-.81-4,3.16,3.16,0,0,1,.81-1,3.44,3.44,0,0,1,1.14-.59,4.58,4.58,0,0,1,1.26-.19,5.19,5.19,0,0,1,1.88.33,3.39,3.39,0,0,1,1.39,1v-1.51a1.62,1.62,0,0,0-.65-1.38,2.69,2.69,0,0,0-1.72-.51,4.18,4.18,0,0,0-3,1.28l-.9-1.53a5.66,5.66,0,0,1,2-1.24,6.74,6.74,0,0,1,2.3-.4,6.94,6.94,0,0,1,1.6.19,3.72,3.72,0,0,1,1.35.62,3.15,3.15,0,0,1,.92,1.14,3.86,3.86,0,0,1,.35,1.73v6.72Zm-2.42-1.26a3.81,3.81,0,0,0,1.39-.26,2.29,2.29,0,0,0,1-.79v-1.53a2.16,2.16,0,0,0-1-.79,3.62,3.62,0,0,0-1.39-.27,2.37,2.37,0,0,0-1.56.5,1.62,1.62,0,0,0-.62,1.33,1.59,1.59,0,0,0,.62,1.31A2.37,2.37,0,0,0,358.06,276.13Z"/><path class="cls-4" d="M365.54,277.39v-14h2.21v14Z"/><path class="cls-4" d="M376.07,277.39v-14h2.45v14Z"/><path class="cls-4" d="M388.29,277.39v-6.34a2,2,0,0,0-.56-1.64,2.22,2.22,0,0,0-1.48-.46,2.87,2.87,0,0,0-1.54.42,3.51,3.51,0,0,0-1.06.94v7.08h-2.21V267.24h2.21v1.39a3.93,3.93,0,0,1,.62-.59,4.68,4.68,0,0,1,.81-.52,5.08,5.08,0,0,1,1-.38,4.26,4.26,0,0,1,1.15-.15,3.26,3.26,0,0,1,2.45.84,3.32,3.32,0,0,1,.82,2.42v7.14Z"/><path class="cls-4" d="M396.81,277.64a7.1,7.1,0,0,1-2.42-.4,5.22,5.22,0,0,1-1.92-1.18l1-1.59a5.14,5.14,0,0,0,.65.53,5.68,5.68,0,0,0,.84.47,6.32,6.32,0,0,0,1,.31,4.21,4.21,0,0,0,1,.12,2.47,2.47,0,0,0,1.5-.38,1.18,1.18,0,0,0,.49-1,.8.8,0,0,0-.45-.75,4.46,4.46,0,0,0-1.13-.42c-.46-.12-.95-.23-1.48-.34a6.29,6.29,0,0,1-1.48-.5,3.31,3.31,0,0,1-1.14-.91,2.4,2.4,0,0,1-.45-1.53,2.72,2.72,0,0,1,1-2.16,3.92,3.92,0,0,1,1.25-.68,5.59,5.59,0,0,1,1.71-.25,5.8,5.8,0,0,1,4,1.43l-.93,1.55a3.52,3.52,0,0,0-1.25-.87,4.4,4.4,0,0,0-1.75-.34,2.39,2.39,0,0,0-1.38.34,1,1,0,0,0-.51.9.73.73,0,0,0,.45.68,5.38,5.38,0,0,0,1.14.39l1.48.34a6.5,6.5,0,0,1,1.48.53,3.22,3.22,0,0,1,1.13.94,2.63,2.63,0,0,1,.45,1.61,2.93,2.93,0,0,1-.27,1.25,2.76,2.76,0,0,1-.81,1,4,4,0,0,1-1.32.66A6.27,6.27,0,0,1,396.81,277.64Z"/><path class="cls-4" d="M404.35,266a1.34,1.34,0,0,1-1-.4,1.35,1.35,0,0,1,0-1.94,1.38,1.38,0,0,1,1.92,0,1.37,1.37,0,0,1-1,2.34Zm-1.09,11.38V267.24h2.2v10.15Z"/><path class="cls-4" d="M412.44,281.5a7.61,7.61,0,0,1-2.3-.32,5.43,5.43,0,0,1-1.95-1.19l1-1.59a3.4,3.4,0,0,0,1.41,1,5.09,5.09,0,0,0,1.81.3,4.45,4.45,0,0,0,1.08-.14,2.52,2.52,0,0,0,1-.46,2.44,2.44,0,0,0,.7-.85,3,3,0,0,0,.26-1.3v-1.22A4.63,4.63,0,0,1,414,277a3.67,3.67,0,0,1-1.84.46,4.61,4.61,0,0,1-1.79-.35,3.89,3.89,0,0,1-1.43-1,4.59,4.59,0,0,1-.93-1.62,6.66,6.66,0,0,1-.34-2.23A6.54,6.54,0,0,1,408,270a4.6,4.6,0,0,1,.93-1.64,4.12,4.12,0,0,1,1.42-1,4.42,4.42,0,0,1,1.8-.36,4,4,0,0,1,1.81.43,4.35,4.35,0,0,1,1.45,1.23v-1.41h2.2v9.62a4.93,4.93,0,0,1-.46,2.27,3.85,3.85,0,0,1-1.2,1.43,4.73,4.73,0,0,1-1.67.73A8.44,8.44,0,0,1,412.44,281.5Zm.4-6a2.91,2.91,0,0,0,.76-.11,3.67,3.67,0,0,0,.74-.29,4.11,4.11,0,0,0,.63-.43,2.64,2.64,0,0,0,.47-.54v-3.78a2.84,2.84,0,0,0-.47-.52,3.59,3.59,0,0,0-.63-.45,3.67,3.67,0,0,0-.74-.29,2.89,2.89,0,0,0-.76-.1,2.58,2.58,0,0,0-2.09.89,4,4,0,0,0,0,4.72A2.59,2.59,0,0,0,412.84,275.46Z"/><path class="cls-4" d="M427.37,277.39V271a1.93,1.93,0,0,0-.57-1.61,2.32,2.32,0,0,0-1.49-.44,2.83,2.83,0,0,0-1.52.42,3.74,3.74,0,0,0-1.08.94v7.08H420.5v-14h2.21v5.25a3.93,3.93,0,0,1,.62-.59,4.78,4.78,0,0,1,.82-.52,5.18,5.18,0,0,1,1-.38,4.26,4.26,0,0,1,1.15-.15,3.34,3.34,0,0,1,2.45.82,3.25,3.25,0,0,1,.82,2.4v7.18Z"/><path class="cls-4" d="M435.47,277.64a2.6,2.6,0,0,1-1.94-.67,2.64,2.64,0,0,1-.66-1.93V269.2h-1.68v-2h1.68v-2.77h2.2v2.77h2.06v2h-2.06v5.29a1.37,1.37,0,0,0,.25.86.82.82,0,0,0,.72.34,1.63,1.63,0,0,0,.59-.11,1,1,0,0,0,.4-.25l.52,1.66a2.12,2.12,0,0,1-.8.47A3.82,3.82,0,0,1,435.47,277.64Z"/><path class="cls-4" d="M442.59,277.64a7.06,7.06,0,0,1-2.42-.4,5.22,5.22,0,0,1-1.92-1.18l1-1.59a4.51,4.51,0,0,0,.65.53,5.68,5.68,0,0,0,.84.47,6.32,6.32,0,0,0,1,.31,4.21,4.21,0,0,0,1,.12,2.47,2.47,0,0,0,1.5-.38,1.18,1.18,0,0,0,.49-1,.8.8,0,0,0-.45-.75,4.46,4.46,0,0,0-1.13-.42c-.46-.12-.95-.23-1.48-.34a6.14,6.14,0,0,1-1.48-.5,3.31,3.31,0,0,1-1.14-.91,2.4,2.4,0,0,1-.45-1.53,2.72,2.72,0,0,1,1-2.16,3.82,3.82,0,0,1,1.25-.68,5.55,5.55,0,0,1,1.71-.25,5.8,5.8,0,0,1,3.95,1.43l-.93,1.55a3.47,3.47,0,0,0-1.26-.87,4.32,4.32,0,0,0-1.74-.34,2.44,2.44,0,0,0-1.39.34,1.06,1.06,0,0,0-.5.9.73.73,0,0,0,.45.68,5.38,5.38,0,0,0,1.14.39l1.48.34a6.5,6.5,0,0,1,1.48.53,3.22,3.22,0,0,1,1.13.94,2.63,2.63,0,0,1,.45,1.61,2.93,2.93,0,0,1-.27,1.25,2.76,2.76,0,0,1-.81,1,4.08,4.08,0,0,1-1.32.66A6.27,6.27,0,0,1,442.59,277.64Z"/><path class="cls-4" d="M454.5,277.39v-14H457v14Z"/><path class="cls-4" d="M466.72,277.39v-6.34a2,2,0,0,0-.56-1.64,2.22,2.22,0,0,0-1.48-.46,2.87,2.87,0,0,0-1.54.42,3.51,3.51,0,0,0-1.06.94v7.08h-2.21V267.24h2.21v1.39a4.43,4.43,0,0,1,.62-.59,4.78,4.78,0,0,1,.82-.52,5,5,0,0,1,1-.38,4.26,4.26,0,0,1,1.15-.15,3.3,3.3,0,0,1,2.46.84,3.35,3.35,0,0,1,.81,2.42v7.14Z"/><path class="cls-4" d="M472.31,277.39V269.2h-1.68v-2h1.68v-.56a3.6,3.6,0,0,1,.88-2.59,3.09,3.09,0,0,1,2.33-.92,4.48,4.48,0,0,1,1.31.2,2.74,2.74,0,0,1,1.13.68l-.87,1.37a1.72,1.72,0,0,0-.51-.33,1.9,1.9,0,0,0-.66-.11,1.31,1.31,0,0,0-1,.42,1.86,1.86,0,0,0-.38,1.28v.56h2.06v2h-2.06v8.19Z"/><path class="cls-4" d="M482.83,277.64a5.42,5.42,0,0,1-2.17-.42,5.07,5.07,0,0,1-1.65-1.14,4.86,4.86,0,0,1-1-1.71,5.91,5.91,0,0,1-.36-2.06,5.83,5.83,0,0,1,.36-2.06,4.78,4.78,0,0,1,1-1.69,5,5,0,0,1,1.65-1.15,5.84,5.84,0,0,1,4.35,0,4.9,4.9,0,0,1,2.69,2.84,5.83,5.83,0,0,1,.36,2.06,5.91,5.91,0,0,1-.36,2.06,4.81,4.81,0,0,1-2.69,2.85A5.4,5.4,0,0,1,482.83,277.64Zm0-1.95a2.75,2.75,0,0,0,2.18-1,3.28,3.28,0,0,0,.57-1.08,4.68,4.68,0,0,0,.19-1.29,4.57,4.57,0,0,0-.19-1.29A3.33,3.33,0,0,0,485,270a2.7,2.7,0,0,0-2.18-1,2.73,2.73,0,0,0-1.24.27,2.9,2.9,0,0,0-.93.73,3.13,3.13,0,0,0-.56,1.07,4.24,4.24,0,0,0-.19,1.29,4.33,4.33,0,0,0,.19,1.29,3.09,3.09,0,0,0,.56,1.08,2.77,2.77,0,0,0,.93.73A2.61,2.61,0,0,0,482.83,275.69Z"/><path class="cls-4" d="M490.28,277.39V267.24h2.21v1.5a4.76,4.76,0,0,1,1.43-1.23,3.65,3.65,0,0,1,1.86-.5v2.19a3.34,3.34,0,0,0-.69-.07,2.69,2.69,0,0,0-.73.11,4.3,4.3,0,0,0-.75.29,4,4,0,0,0-.66.43,2.18,2.18,0,0,0-.46.52v6.91Z"/><path class="cls-4" d="M510,277.39v-6.62a2.11,2.11,0,0,0-.39-1.32,1.49,1.49,0,0,0-1.27-.5,2.36,2.36,0,0,0-1.37.43,3.48,3.48,0,0,0-1,.91v7.1h-2.21v-6.62a2.17,2.17,0,0,0-.38-1.32,1.53,1.53,0,0,0-1.3-.5,2.28,2.28,0,0,0-1.35.43,3.81,3.81,0,0,0-1,.93v7.08h-2.2V267.24h2.2v1.39a2.43,2.43,0,0,1,.48-.51,4.61,4.61,0,0,1,1.72-1,3.72,3.72,0,0,1,1.1-.17,2.94,2.94,0,0,1,1.83.52,2.55,2.55,0,0,1,.94,1.35,3.39,3.39,0,0,1,.57-.67,5,5,0,0,1,.81-.61,4.47,4.47,0,0,1,1-.43,4,4,0,0,1,1.1-.16,2.9,2.9,0,0,1,2.16.76,3.15,3.15,0,0,1,.76,2.31v7.33Z"/><path class="cls-4" d="M527.24,277.64a8,8,0,0,1-2.9-.53,7,7,0,0,1-2.33-1.48,6.82,6.82,0,0,1-1.55-2.29,7.92,7.92,0,0,1,0-5.9,6.78,6.78,0,0,1,1.55-2.28,7,7,0,0,1,2.33-1.49,7.94,7.94,0,0,1,2.9-.52,6.74,6.74,0,0,1,1.93.25,6.31,6.31,0,0,1,1.56.69,6.69,6.69,0,0,1,1.22,1,9.55,9.55,0,0,1,.92,1.2l-2.1,1.07a4.13,4.13,0,0,0-1.45-1.46,4,4,0,0,0-2.08-.58,4.89,4.89,0,0,0-1.93.38,4.4,4.4,0,0,0-1.52,1.05,4.84,4.84,0,0,0-1,1.61,5.75,5.75,0,0,0,0,4.06,4.79,4.79,0,0,0,1,1.6,4.4,4.4,0,0,0,1.52,1.05,4.89,4.89,0,0,0,1.93.38,4,4,0,0,0,2.08-.58,4.13,4.13,0,0,0,1.45-1.46l2.1,1.07a8.13,8.13,0,0,1-.94,1.2,6.57,6.57,0,0,1-1.21,1,5.77,5.77,0,0,1-1.55.7A6.74,6.74,0,0,1,527.24,277.64Z"/><path class="cls-4" d="M539.36,277.64a5.42,5.42,0,0,1-2.17-.42,4.83,4.83,0,0,1-2.68-2.85,5.91,5.91,0,0,1-.36-2.06,5.83,5.83,0,0,1,.36-2.06,4.93,4.93,0,0,1,2.68-2.84,5.84,5.84,0,0,1,4.35,0,4.9,4.9,0,0,1,2.69,2.84,5.83,5.83,0,0,1,.36,2.06,5.91,5.91,0,0,1-.36,2.06,4.81,4.81,0,0,1-2.69,2.85A5.4,5.4,0,0,1,539.36,277.64Zm0-1.95a2.75,2.75,0,0,0,2.18-1,3.28,3.28,0,0,0,.57-1.08,4.68,4.68,0,0,0,.19-1.29,4.57,4.57,0,0,0-.19-1.29,3.33,3.33,0,0,0-.57-1.07,2.7,2.7,0,0,0-2.18-1,2.76,2.76,0,0,0-1.24.27,2.9,2.9,0,0,0-.93.73,3.13,3.13,0,0,0-.56,1.07,4.24,4.24,0,0,0-.19,1.29,4.33,4.33,0,0,0,.19,1.29,3.09,3.09,0,0,0,.56,1.08,2.77,2.77,0,0,0,.93.73A2.63,2.63,0,0,0,539.36,275.69Z"/><path class="cls-4" d="M553.66,277.39v-6.34a2,2,0,0,0-.56-1.64,2.22,2.22,0,0,0-1.48-.46,2.87,2.87,0,0,0-1.54.42,3.51,3.51,0,0,0-1.06.94v7.08h-2.21V267.24H549v1.39a4.43,4.43,0,0,1,.62-.59,4.78,4.78,0,0,1,.82-.52,5,5,0,0,1,1-.38,4.26,4.26,0,0,1,1.15-.15,3.26,3.26,0,0,1,2.45.84,3.32,3.32,0,0,1,.82,2.42v7.14Z"/><path class="cls-4" d="M561.76,277.64a2.6,2.6,0,0,1-1.94-.67,2.64,2.64,0,0,1-.66-1.93V269.2h-1.68v-2h1.68v-2.77h2.21v2.77h2v2h-2v5.29a1.43,1.43,0,0,0,.24.86.82.82,0,0,0,.72.34,1.63,1.63,0,0,0,.59-.11,1,1,0,0,0,.4-.25l.52,1.66a2.15,2.15,0,0,1-.79.47A3.93,3.93,0,0,1,561.76,277.64Z"/><path class="cls-4" d="M570.1,277.64a5.86,5.86,0,0,1-2.11-.38,4.89,4.89,0,0,1-1.69-1.08,4.78,4.78,0,0,1-1.11-1.69,5.72,5.72,0,0,1-.4-2.18,5.51,5.51,0,0,1,.38-2.07,5,5,0,0,1,2.68-2.83,5.37,5.37,0,0,1,4.14,0,4.44,4.44,0,0,1,1.58,1.16,5.2,5.2,0,0,1,1,1.75,6.53,6.53,0,0,1,.36,2.21V273H567.1a3.34,3.34,0,0,0,.3,1.08,2.88,2.88,0,0,0,.65.89,2.92,2.92,0,0,0,1,.6,3.57,3.57,0,0,0,1.29.22,4.61,4.61,0,0,0,1.54-.28,3.46,3.46,0,0,0,1.34-.83l1,1.45a4.85,4.85,0,0,1-1.83,1.1A6.87,6.87,0,0,1,570.1,277.64Zm2.69-6.15a3.21,3.21,0,0,0-.19-.93,2.56,2.56,0,0,0-.51-.87,2.77,2.77,0,0,0-2.16-.89,2.85,2.85,0,0,0-1.22.24,2.67,2.67,0,0,0-.87.63,2.79,2.79,0,0,0-.53.87,3.37,3.37,0,0,0-.23.95Z"/><path class="cls-4" d="M584,277.39v-6.34a2,2,0,0,0-.56-1.64,2.22,2.22,0,0,0-1.48-.46,2.9,2.9,0,0,0-1.54.42,3.64,3.64,0,0,0-1.06.94v7.08h-2.2V267.24h2.2v1.39a4.43,4.43,0,0,1,.62-.59,4.78,4.78,0,0,1,.82-.52,4.85,4.85,0,0,1,1-.38,4.14,4.14,0,0,1,1.14-.15,3.3,3.3,0,0,1,2.46.84,3.36,3.36,0,0,1,.82,2.42v7.14Z"/><path class="cls-4" d="M592.07,277.64a2.33,2.33,0,0,1-2.61-2.6V269.2h-1.68v-2h1.68v-2.77h2.21v2.77h2.06v2h-2.06v5.29a1.43,1.43,0,0,0,.24.86.82.82,0,0,0,.72.34,1.63,1.63,0,0,0,.59-.11,1,1,0,0,0,.4-.25l.53,1.66a2.29,2.29,0,0,1-.8.47A3.91,3.91,0,0,1,592.07,277.64Z"/><path class="cls-4" d="M601.18,277.39v-14h6.15a5.07,5.07,0,0,1,2,.36,4.07,4.07,0,0,1,2.32,2.35,4.85,4.85,0,0,1,0,3.36,4.06,4.06,0,0,1-.9,1.4,4.36,4.36,0,0,1-1.43.95,5,5,0,0,1-1.95.36h-3.69v5.23ZM607,270a2.49,2.49,0,0,0,1.72-.61,2.29,2.29,0,0,0,0-3.24,2.49,2.49,0,0,0-1.72-.61h-3.36V270Z"/><path class="cls-4" d="M613.88,277.39V267.24h2.21v1.5a4.76,4.76,0,0,1,1.43-1.23,3.66,3.66,0,0,1,1.87-.5v2.19a3.52,3.52,0,0,0-.7-.07,2.75,2.75,0,0,0-.73.11,4.63,4.63,0,0,0-.75.29,4.41,4.41,0,0,0-.66.43,2.42,2.42,0,0,0-.46.52v6.91Z"/><path class="cls-4" d="M625.75,277.64a5.34,5.34,0,0,1-2.16-.42,4.81,4.81,0,0,1-2.69-2.85,5.91,5.91,0,0,1-.36-2.06,5.83,5.83,0,0,1,.36-2.06,4.9,4.9,0,0,1,2.69-2.84,5.34,5.34,0,0,1,2.16-.42,5.4,5.4,0,0,1,2.18.42,4.9,4.9,0,0,1,2.69,2.84,5.83,5.83,0,0,1,.36,2.06,5.91,5.91,0,0,1-.36,2.06,4.81,4.81,0,0,1-2.69,2.85A5.4,5.4,0,0,1,625.75,277.64Zm0-1.95a2.66,2.66,0,0,0,1.26-.28,2.73,2.73,0,0,0,.92-.73,3.1,3.1,0,0,0,.57-1.08,4.33,4.33,0,0,0,.19-1.29,4.24,4.24,0,0,0-.19-1.29,3.15,3.15,0,0,0-.57-1.07,2.86,2.86,0,0,0-.92-.73,3,3,0,0,0-2.5,0,2.86,2.86,0,0,0-.92.73A3.15,3.15,0,0,0,623,271a4.24,4.24,0,0,0-.19,1.29,4.33,4.33,0,0,0,.19,1.29,3.1,3.1,0,0,0,.57,1.08,2.73,2.73,0,0,0,.92.73A2.63,2.63,0,0,0,625.75,275.69Z"/><path class="cls-4" d="M635.87,277.39l-4.14-10.15h2.36l3,7.61,3-7.61h2.37l-4.14,10.15Z"/><path class="cls-4" d="M644.86,266a1.38,1.38,0,0,1-1-.4,1.35,1.35,0,0,1,0-1.94,1.37,1.37,0,0,1,1-.39,1.37,1.37,0,1,1,0,2.73Zm-1.09,11.38V267.24H646v10.15Z"/><path class="cls-4" d="M656,277.39V276a4.35,4.35,0,0,1-1.43,1.2,3.92,3.92,0,0,1-1.83.44,4.38,4.38,0,0,1-1.8-.36,3.85,3.85,0,0,1-1.43-1,4.77,4.77,0,0,1-1-1.67,7.67,7.67,0,0,1,0-4.45,5.06,5.06,0,0,1,.94-1.68,4.08,4.08,0,0,1,1.43-1.07,4.31,4.31,0,0,1,1.81-.38,4,4,0,0,1,1.8.43,4.29,4.29,0,0,1,1.46,1.23v-5.27h2.2v14Zm-2.63-1.7a3.19,3.19,0,0,0,1.53-.39,3,3,0,0,0,1.1-1v-4a3.09,3.09,0,0,0-1.1-1,3.19,3.19,0,0,0-1.53-.39,2.54,2.54,0,0,0-2.09.94,3.75,3.75,0,0,0-.76,2.44,4.16,4.16,0,0,0,.2,1.35,3,3,0,0,0,.57,1.06,2.74,2.74,0,0,0,2.08.95Z"/><path class="cls-4" d="M665.71,277.64a5.86,5.86,0,0,1-2.11-.38,4.82,4.82,0,0,1-2.8-2.77,6,6,0,0,1,0-4.25,5,5,0,0,1,2.68-2.83,5.12,5.12,0,0,1,2.08-.42,5.05,5.05,0,0,1,2.06.41,4.44,4.44,0,0,1,1.58,1.16,5.39,5.39,0,0,1,1,1.75,6.78,6.78,0,0,1,.35,2.21V273h-7.83a3.34,3.34,0,0,0,.3,1.08,3,3,0,0,0,1.64,1.49,3.57,3.57,0,0,0,1.29.22,4.61,4.61,0,0,0,1.54-.28,3.46,3.46,0,0,0,1.34-.83l1,1.45a4.85,4.85,0,0,1-1.83,1.1A6.87,6.87,0,0,1,665.71,277.64Zm2.69-6.15a3.21,3.21,0,0,0-.19-.93,2.56,2.56,0,0,0-.51-.87,2.85,2.85,0,0,0-.87-.64,2.94,2.94,0,0,0-1.29-.25,2.85,2.85,0,0,0-1.22.24,2.53,2.53,0,0,0-.86.63,2.64,2.64,0,0,0-.54.87,3.37,3.37,0,0,0-.23.95Z"/><path class="cls-4" d="M672.73,277.39V267.24h2.2v1.5a4.88,4.88,0,0,1,1.43-1.23,3.69,3.69,0,0,1,1.87-.5v2.19a3.49,3.49,0,0,0-.69-.07,2.76,2.76,0,0,0-.74.11,4.63,4.63,0,0,0-.75.29,4.41,4.41,0,0,0-.66.43,2.42,2.42,0,0,0-.46.52v6.91Z"/><path class="cls-4" d="M683.48,277.64a7.12,7.12,0,0,1-2.43-.4,5.22,5.22,0,0,1-1.92-1.18l1-1.59a4.51,4.51,0,0,0,.65.53,4.82,4.82,0,0,0,.84.47,6.58,6.58,0,0,0,1,.31,4.27,4.27,0,0,0,1,.12,2.47,2.47,0,0,0,1.5-.38,1.19,1.19,0,0,0,.5-1,.8.8,0,0,0-.45-.75,4.4,4.4,0,0,0-1.14-.42c-.45-.12-1-.23-1.48-.34a6.45,6.45,0,0,1-1.48-.5,3.37,3.37,0,0,1-1.13-.91,2.4,2.4,0,0,1-.45-1.53,2.69,2.69,0,0,1,.26-1.19,2.82,2.82,0,0,1,.76-1,4,4,0,0,1,1.25-.68,5.61,5.61,0,0,1,1.72-.25,5.89,5.89,0,0,1,2.27.41,5.74,5.74,0,0,1,1.67,1l-.92,1.55a3.65,3.65,0,0,0-1.26-.87,4.32,4.32,0,0,0-1.74-.34,2.44,2.44,0,0,0-1.39.34,1,1,0,0,0-.5.9.73.73,0,0,0,.45.68,5.47,5.47,0,0,0,1.13.39l1.48.34a6.17,6.17,0,0,1,1.48.53,3.17,3.17,0,0,1,1.14.94,2.63,2.63,0,0,1,.45,1.61,2.93,2.93,0,0,1-.27,1.25,3,3,0,0,1-.81,1,4,4,0,0,1-1.33.66A6.2,6.2,0,0,1,683.48,277.64Z"/><path class="cls-5" d="M443.7,205.28h23a3.83,3.83,0,0,1,3.83,3.83v15.33a5.11,5.11,0,0,1-5.11,5.11h-11.5l-5.36,7.16a1.28,1.28,0,0,1-2.3-.77v-6.39H443.7a3.83,3.83,0,0,1-3.84-3.83V209.11A3.84,3.84,0,0,1,443.7,205.28Z"/><path class="cls-5" d="M525,228.73c3.77-1.82,6-4,6-8.06v-2.41c0-1.27,1.5-3,1.5-6a9.32,9.32,0,0,0-2.48-6.35c-1.31-1.7-5-1.38-5,.26v1.6c0,5.34-7.44,10.48-9,10.48h-3v16.46h1.49c3,0,1.82,3,6,3h17.15a3.37,3.37,0,0,0,3.14-2.92l2.09-11.07a4.68,4.68,0,0,0-4.54-5.46H534"/><polyline class="cls-5" points="393.63 224.05 393.63 235.27 365.59 235.27 365.59 209.1 386.15 209.1"/><polyline class="cls-5" points="373.07 222.18 379.69 228.13 397.37 207.23"/><circle class="cls-6" cx="589.47" cy="31.4" r="7.81"/><path class="cls-6" d="M577.24,26.84a7.8,7.8,0,0,0-12.49-6.23V33.08a7.8,7.8,0,0,0,12.49-6.24Z"/><path class="cls-6" d="M564.75,73c13.27,2,14.31-5.59,14.31-5.59V39.2H564.75Z"/><path class="cls-6" d="M582,66.76c14,1.69,15-6,15-6V44l-15,.07Z"/><path class="cls-6" d="M512.11,80.35l49.26,8.33V4.73l-49.26,8.5ZM524.68,32l24.2-1.54v6l-9.11.58V62l-6,.38v-25l-9.11.58Z"/></g></g></svg>