<svg xmlns="http://www.w3.org/2000/svg" viewBox="0 0 239.6 249.87"><defs><style>.cls-1{fill:#eff1f4;}.cls-2{fill:#74c26b;fill-rule:evenodd;}.cls-3{fill:none;stroke:#4b4b4b;stroke-linejoin:round;stroke-width:5.77px;}</style></defs><title>future_accessing_information</title><g id="Layer_2" data-name="Layer 2"><g id="copy_art" data-name="copy+art"><path class="cls-1" d="M141.4,214.67a3.95,3.95,0,1,1,0,5.58A3.95,3.95,0,0,1,141.4,214.67Z"/><path class="cls-1" d="M92,243.14a3.94,3.94,0,1,1,0,5.58A3.94,3.94,0,0,1,92,243.14Z"/><path class="cls-1" d="M42.67,214.78a3.95,3.95,0,1,1,0,5.58A3.95,3.95,0,0,1,42.67,214.78Z"/><path class="cls-2" d="M142.09,160.6a36.16,36.16,0,0,1-22.54-10.81,28.24,28.24,0,1,1,8.84-1.42,45.32,45.32,0,0,0,13.7,12.23Zm-37.16-42.24a3.19,3.19,0,1,1-3.19,3.19,3.19,3.19,0,0,1,3.19-3.19Zm14.62,0a3.19,3.19,0,1,1-3.19,3.19,3.19,3.19,0,0,1,3.19-3.19Zm14.62,0a3.19,3.19,0,1,1-3.19,3.19,3.19,3.19,0,0,1,3.19-3.19Zm7.92,42.24a44.84,44.84,0,0,0,22.55,6V149.79a28.14,28.14,0,0,1-8.85-1.42,45,45,0,1,0-13.7,12.23Z"/><line class="cls-3" x1="108.53" y1="0.37" x2="113.64" y2="39.82"/><line class="cls-3" x1="76.46" y1="30.12" x2="91.85" y2="59.82"/><line class="cls-3" x1="33.75" y1="37.19" x2="63.02" y2="64.13"/><line class="cls-3" x1="27.97" y1="80.72" x2="58.85" y2="93.58"/><line class="cls-3" x1="0.13" y1="113.47" x2="39.87" y2="115.29"/><line class="cls-3" x1="23.34" y1="150.65" x2="55.26" y2="140.65"/><line class="cls-3" x1="23.41" y1="193.51" x2="55.02" y2="169.36"/><line class="cls-3" x1="64.75" y1="207.19" x2="82.78" y2="179.01"/><line class="cls-3" x1="92.69" y1="239.86" x2="101.38" y2="201.04"/><line class="cls-3" x1="132.82" y1="223.89" x2="128.52" y2="190.72"/><line class="cls-3" x1="175.56" y1="230.84" x2="157.26" y2="195.51"/><line class="cls-3" x1="195.69" y1="192.93" x2="171.07" y2="170.28"/><line class="cls-3" x1="233.23" y1="170.66" x2="196.51" y2="155.36"/><line class="cls-3" x1="223.95" y1="128.8" x2="190.54" y2="127.27"/><line class="cls-3" x1="238.73" y1="87.48" x2="200.77" y2="99.37"/><line class="cls-3" x1="204.38" y1="61.5" x2="177.81" y2="81.81"/><line class="cls-3" x1="189.49" y1="20.23" x2="168.04" y2="53.74"/><line class="cls-3" x1="146.13" y1="22.53" x2="138.83" y2="55.17"/></g></g></svg>