<svg xmlns="http://www.w3.org/2000/svg" viewBox="0 0 156.46 31.92"><defs><style>.cls-1{fill:#fff;}.cls-2{fill:#74c26b;}</style></defs><title>Asset 1</title><g id="Layer_2" data-name="Layer 2"><g id="copy_art" data-name="copy+art"><path class="cls-1" d="M23.93,30.29V9.72L15.42,30.29H13.34L4.86,9.72V30.29H0V2.58H6.86l7.52,18.24L21.94,2.58H28.8V30.29Z"/><path class="cls-1" d="M41,30.79A10.68,10.68,0,0,1,36.69,30a9.66,9.66,0,0,1-5.32-5.63,12.27,12.27,0,0,1,0-8.17,9.71,9.71,0,0,1,2.06-3.34,9.85,9.85,0,0,1,3.26-2.27,11.55,11.55,0,0,1,8.6,0,9.7,9.7,0,0,1,5.32,5.61,12.11,12.11,0,0,1,0,8.17A9.66,9.66,0,0,1,45.29,30,10.77,10.77,0,0,1,41,30.79Zm0-3.86a5.5,5.5,0,0,0,2.49-.54,5.55,5.55,0,0,0,1.83-1.46,6.16,6.16,0,0,0,1.12-2.14,8.7,8.7,0,0,0,.38-2.55,8.49,8.49,0,0,0-.38-2.54,6.24,6.24,0,0,0-1.12-2.12,5.39,5.39,0,0,0-4.32-2,5.41,5.41,0,0,0-2.45.54,5.53,5.53,0,0,0-1.83,1.45,6.24,6.24,0,0,0-1.12,2.12,8.49,8.49,0,0,0-.38,2.54,8.7,8.7,0,0,0,.38,2.55,6.16,6.16,0,0,0,1.12,2.14,5.55,5.55,0,0,0,1.83,1.46A5.41,5.41,0,0,0,41,26.93Z"/><path class="cls-1" d="M67.69,30.29V27.55a8.61,8.61,0,0,1-2.83,2.37,7.67,7.67,0,0,1-3.61.87,8.9,8.9,0,0,1-3.58-.71,8,8,0,0,1-2.82-2A9.28,9.28,0,0,1,53,24.72a13.81,13.81,0,0,1-.67-4.44A13.63,13.63,0,0,1,53,15.91a9.8,9.8,0,0,1,1.85-3.32,8.26,8.26,0,0,1,2.82-2.12,8.6,8.6,0,0,1,3.6-.75,7.86,7.86,0,0,1,3.55.85A8.41,8.41,0,0,1,67.69,13V2.58h4.36V30.29Zm-5.2-3.36a6.34,6.34,0,0,0,3-.77,6.09,6.09,0,0,0,2.18-1.89v-8a6,6,0,0,0-2.18-1.91,6.14,6.14,0,0,0-3-.79,5,5,0,0,0-4.13,1.87,7.4,7.4,0,0,0-1.52,4.82,8.51,8.51,0,0,0,.4,2.68,6.08,6.08,0,0,0,1.14,2.1,5.48,5.48,0,0,0,1.79,1.37A5.3,5.3,0,0,0,62.49,26.93Z"/><path class="cls-1" d="M87.92,30.29V27.63A10.34,10.34,0,0,1,85,29.81a8.73,8.73,0,0,1-4.19,1A6.52,6.52,0,0,1,76,29.17a6.46,6.46,0,0,1-1.6-4.74V10.22h4.36V22.85a3.91,3.91,0,0,0,1.1,3.2,4.59,4.59,0,0,0,2.93.88,5.91,5.91,0,0,0,3-.79,7.22,7.22,0,0,0,2.14-1.83V10.22h4.37V30.29Z"/><path class="cls-1" d="M95.49,30.29V2.58h4.36V30.29Z"/><path class="cls-1" d="M112.4,30.79a11.45,11.45,0,0,1-4.18-.75,9.62,9.62,0,0,1-3.34-2.14,9.75,9.75,0,0,1-2.21-3.34,11.57,11.57,0,0,1-.78-4.32,11.25,11.25,0,0,1,.74-4.1,10,10,0,0,1,2.1-3.34,10,10,0,0,1,7.34-3.08,10,10,0,0,1,4.07.81,8.86,8.86,0,0,1,3.11,2.29,10.52,10.52,0,0,1,2,3.47,13,13,0,0,1,.7,4.36v1H106.46a6.63,6.63,0,0,0,.6,2.14,5.69,5.69,0,0,0,1.29,1.77,6.12,6.12,0,0,0,2,1.18,7.1,7.1,0,0,0,2.55.44,9.22,9.22,0,0,0,3-.56A7.14,7.14,0,0,0,118.55,25l2,2.87a9.5,9.5,0,0,1-3.61,2.18A13.79,13.79,0,0,1,112.4,30.79Zm5.32-12.18a6.58,6.58,0,0,0-.38-1.82,5.07,5.07,0,0,0-1-1.73,5.33,5.33,0,0,0-1.72-1.26,5.71,5.71,0,0,0-2.53-.5,5.83,5.83,0,0,0-2.44.47,5.4,5.4,0,0,0-1.7,1.25,5.6,5.6,0,0,0-1.06,1.73,6.93,6.93,0,0,0-.46,1.86Z"/><path class="cls-2" d="M148.44,29.79a16.11,16.11,0,0,0,8,2.13V26a10.23,10.23,0,0,1-3.15-.5,15.92,15.92,0,0,0-4.87-23.32,16,16,0,1,0-8,29.78,16.12,16.12,0,0,0,8-2.13m-2.83-15A1.13,1.13,0,1,1,144.48,16a1.14,1.14,0,0,1,1.13-1.13m-5.2,0A1.13,1.13,0,1,1,139.28,16a1.14,1.14,0,0,1,1.13-1.13m-5.2,0A1.13,1.13,0,1,1,134.07,16a1.14,1.14,0,0,1,1.14-1.13m13.23,15a13,13,0,0,1-8-3.83,10,10,0,1,1,0-20,10.05,10.05,0,0,1,8,4,10,10,0,0,1,0,12,10.11,10.11,0,0,1-4.88,3.48,16.21,16.21,0,0,0,4.88,4.33"/></g></g></svg>