<svg id="Layer_1" data-name="Layer 1" xmlns="http://www.w3.org/2000/svg" viewBox="0 0 1105.8 780.3"><defs><style>.cls-1{fill:#f0f1f3;}</style></defs><title>MOD-Website-Components-R1</title><path class="cls-1" d="M610.4,294.9a13.2,13.2,0,1,0-6-17.7A13.2,13.2,0,0,0,610.4,294.9Z"/><path class="cls-1" d="M708.5,335.7a6.3,6.3,0,0,0,6.7-10.7A209.9,209.9,0,0,0,732,269.4a10.1,10.1,0,1,0-10-11.2,10.2,10.2,0,0,0,7.4,10.9,208.1,208.1,0,0,1-16.6,54.7,6.6,6.6,0,0,0-7.2,3.4A6.4,6.4,0,0,0,708.5,335.7Z"/><path class="cls-1" d="M757.4,356.3a3.2,3.2,0,0,0,4.3-1.4,3,3,0,0,0-.4-3.4,264.4,264.4,0,0,0,22.8-72.1,14.3,14.3,0,0,0,3.1-28.3,264.6,264.6,0,0,0-6-73.1,5.3,5.3,0,0,0-3.7-9.8,5.3,5.3,0,0,0-3.9,6.4,5.2,5.2,0,0,0,5,4,258.6,258.6,0,0,1,6,72.3,14.3,14.3,0,0,0-3.1,28.2,264.9,264.9,0,0,1-22.6,71.2,3.2,3.2,0,0,0-2.9,1.8A3.1,3.1,0,0,0,757.4,356.3Z"/><path class="cls-1" d="M851.5,405.2a5.3,5.3,0,0,0,7.1-2.4,5.4,5.4,0,0,0-1.3-6.4,372.7,372.7,0,0,0,33.2-111.1,8.5,8.5,0,0,0,1.8-16.7,368.9,368.9,0,0,0-9.5-121.5l-2.5.6a371.6,371.6,0,0,1,9.4,120.6,8.5,8.5,0,0,0-1.9,16.7,367.3,367.3,0,0,1-32.9,110.3,5.2,5.2,0,0,0-5.8,2.8A5.3,5.3,0,0,0,851.5,405.2Z"/><path class="cls-1" d="M953.1,438.9a9.4,9.4,0,0,0-12.7,4.3,9.3,9.3,0,0,0,3.1,12A476.3,476.3,0,0,1,855.2,575a7.3,7.3,0,0,0-9.5.6,7.4,7.4,0,0,0-1,9.5,476.3,476.3,0,0,1-128.1,84.7,4.7,4.7,0,0,0-8.3,3.6,472.3,472.3,0,0,1-144.8,36.5,11.7,11.7,0,0,0-23.1,2.9,11.7,11.7,0,0,0,23.3-.2,480.4,480.4,0,0,0,145.6-36.7,4.8,4.8,0,0,0,5.6,1.3,4.7,4.7,0,0,0,2.8-5A477.7,477.7,0,0,0,846.5,587a7.6,7.6,0,0,0,9.5-.7,7.3,7.3,0,0,0,1-9.4,476.4,476.4,0,0,0,88.8-120.4,9.7,9.7,0,0,0,11.7-4.8A9.5,9.5,0,0,0,953.1,438.9Z"/><path class="cls-1" d="M414.8,235a10.7,10.7,0,0,0,11.7-9.4,10.6,10.6,0,0,0-7.6-11.3,106.5,106.5,0,0,1,6.6-20.5,4.8,4.8,0,0,0,2.9-9A4.8,4.8,0,0,0,422,187a4.7,4.7,0,0,0,1.1,5.7,106,106,0,0,0-6.8,21.1,10.6,10.6,0,0,0-1.5,21.2Z"/><path class="cls-1" d="M309.3,224.4a11.7,11.7,0,0,0,4.1-22.9,212.2,212.2,0,0,1,17.5-55.7,3.6,3.6,0,0,0,4.1-3.2,3.7,3.7,0,0,0-3.3-4.1,3.8,3.8,0,0,0-4.1,3.3,3.6,3.6,0,0,0,1,2.8,211,211,0,0,0-17.8,56.5,11.7,11.7,0,0,0-1.5,23.3Z"/><path class="cls-1" d="M255.8,214.6a264.4,264.4,0,0,0,6.1,81.7,3.2,3.2,0,0,0-1.2,3.3,3.2,3.2,0,0,0,2.5,2.3,268.8,268.8,0,0,0,28.6,69.4,15.1,15.1,0,1,0,2.3-1.4,264.1,264.1,0,0,1-28.3-68.6,3.3,3.3,0,0,0,1.1-3.2,3.1,3.1,0,0,0-2.4-2.4,261.7,261.7,0,0,1-6.1-80.8,8,8,0,1,0-2.6-.3Z"/><path class="cls-1" d="M150.5,201.4a369.7,369.7,0,0,0,6.6,112,11.3,11.3,0,0,0-7.1,13.2,11.2,11.2,0,1,0,9.7-13.7,371.1,371.1,0,0,1-6.6-111.2,6.5,6.5,0,0,0,5.8-5.7,6.4,6.4,0,0,0-4.4-6.7,369.3,369.3,0,0,1,35.4-117l-2.4-1.2A369.7,369.7,0,0,0,151.9,189a6.4,6.4,0,0,0-5.7,5.6A6.5,6.5,0,0,0,150.5,201.4Z"/><path class="cls-1" d="M103,189.9a3.1,3.1,0,0,0-2.8-3.5,3.1,3.1,0,0,0-3.5,2.8,3.2,3.2,0,0,0,6.3.7Z"/><path class="cls-1" d="M627.2,243a4.8,4.8,0,0,0-5.3,4.2,4.7,4.7,0,0,0,4.2,5.2,4.8,4.8,0,0,0,5.3-4.2A4.7,4.7,0,0,0,627.2,243Z"/><path class="cls-1" d="M930.1,281.2a12.7,12.7,0,0,0,9.8,13.8,422.6,422.6,0,0,1-36.5,121.8,7.4,7.4,0,0,0-6.5,13.1,423.5,423.5,0,0,1-81,109.4,3.8,3.8,0,0,0-4.3.6,3.9,3.9,0,0,0-.8,4.2,420.5,420.5,0,0,1-109.6,74.5,11.1,11.1,0,1,0,1.1,2.4,422.4,422.4,0,0,0,110.4-75,3.7,3.7,0,0,0,4.1-.7,3.8,3.8,0,0,0,.9-4,425.7,425.7,0,0,0,81.6-110.2,7.4,7.4,0,0,0,8.7-3.9,7.3,7.3,0,0,0-2.2-9.2,428.9,428.9,0,0,0,36.8-122.7,12.7,12.7,0,0,0,1.5-25.3A12.6,12.6,0,0,0,930.1,281.2Z"/><path class="cls-1" d="M369.3,284a10.6,10.6,0,0,0,7.8-12.8,10.4,10.4,0,0,0-11.1-8,156.6,156.6,0,0,1-1.8-41,3.7,3.7,0,0,0-.5-7.3,3.7,3.7,0,0,0-4.1,3.3,3.6,3.6,0,0,0,2,3.7,154.1,154.1,0,0,0,1.8,41.8,10.6,10.6,0,0,0,5.9,20.3Z"/><path class="cls-1" d="M42.4,352.8a15.9,15.9,0,1,0,13.2-19.5,477.2,477.2,0,0,1-10-106.4l-2.7,5.4A470.2,470.2,0,0,0,53.1,333.9,15.8,15.8,0,0,0,42.4,352.8Z"/><path class="cls-1" d="M929.6,136.5a3.8,3.8,0,0,0,4.5,2.8,3.7,3.7,0,0,0,2.7-4.5,3.5,3.5,0,0,0-3.1-2.8A425,425,0,0,0,875.2,0L873,1.5a422.6,422.6,0,0,1,58.1,131.1A3.9,3.9,0,0,0,929.6,136.5Z"/><path class="cls-1" d="M1033.2,98.2a12.7,12.7,0,0,0-9.3,15.4,12.7,12.7,0,0,0,24.7-6A12.7,12.7,0,0,0,1033.2,98.2Z"/><path class="cls-1" d="M389.5,327.4a157.3,157.3,0,0,0,25.7,28.9,14.3,14.3,0,0,0,3.5,19.4,14.1,14.1,0,0,0,19.5-2.5c3.9,2.4,8,4.6,12,6.6a166.5,166.5,0,0,0,18.6,7.8,7.9,7.9,0,0,0,5.6,8.7,8,8,0,0,0,9.5-4.3,158,158,0,0,0,45.5,4.2,2.6,2.6,0,0,0,2.3,1.2,2.7,2.7,0,0,0,2.2-1.5A159.3,159.3,0,0,0,580,385.3a6.3,6.3,0,1,0,2.6-9.5,6.5,6.5,0,0,0-3.7,7,159.1,159.1,0,0,1-45.2,10.5,2.5,2.5,0,0,0-2.3-1.2,2.6,2.6,0,0,0-2.2,1.5,155.4,155.4,0,0,1-44.6-4.2,8,8,0,0,0-15-4.4,152,152,0,0,1-18.2-7.6c-4-2-7.9-4.1-11.7-6.4a14.3,14.3,0,0,0-22.8-16.7,158.7,158.7,0,0,1-25.2-28.4,3.2,3.2,0,0,0,0-3.4,3.4,3.4,0,0,0-4.5-.9,3.2,3.2,0,0,0-.8,4.4A3,3,0,0,0,389.5,327.4Z"/><path class="cls-1" d="M79.2,526.1A530.3,530.3,0,0,1,9.1,367.3a6.2,6.2,0,0,0,3.4-7.2,6.2,6.2,0,0,0-7.6-4.7,6.3,6.3,0,0,0-4.7,7.7,6.3,6.3,0,0,0,6.4,4.8A531,531,0,0,0,77,527.6a4.2,4.2,0,0,0-.2,4.9,4.3,4.3,0,0,0,5.9,1.1,4.2,4.2,0,0,0-3.5-7.5Z"/><path class="cls-1" d="M609.6,179.9A100.8,100.8,0,0,1,620,201.3a10.6,10.6,0,0,0,6.8,20,10.6,10.6,0,0,0-4.3-20.8,106.5,106.5,0,0,0-10.7-22,2.6,2.6,0,0,0-3.8-3.4,2.6,2.6,0,0,0-.7,3.6A2.7,2.7,0,0,0,609.6,179.9Z"/><path class="cls-1" d="M658.5,158.4a156.7,156.7,0,0,1,14.4,34.3,6.4,6.4,0,0,0-3.3,7.2,6.3,6.3,0,0,0,6.2,4.9,157.3,157.3,0,0,1,3.2,32.8,15.9,15.9,0,0,0-1.4,31.7,15.9,15.9,0,0,0,4-31.5,152.5,152.5,0,0,0-3.2-33.6,6.3,6.3,0,0,0,3.5-7.3,6.2,6.2,0,0,0-6.4-4.8A164,164,0,0,0,660.8,157a11.7,11.7,0,1,0-2.3,1.4Z"/><path class="cls-1" d="M788.8,66.5a316.2,316.2,0,0,1,39,90.2,4.7,4.7,0,0,0,2.2,8.8,316,316,0,0,1,6.4,103,2.8,2.8,0,0,0-1.7,2.2,2.7,2.7,0,0,0,5.3.6,2.6,2.6,0,0,0-1-2.4,319.2,319.2,0,0,0-6.4-104,4.8,4.8,0,0,0-2.2-8.9A320.3,320.3,0,0,0,791,65a7.4,7.4,0,1,0-11.3-1.2A7.5,7.5,0,0,0,788.8,66.5Z"/><path class="cls-1" d="M457,323.6a2.5,2.5,0,0,0,2.6.3,124.8,124.8,0,0,0,14.1,8.4q3.8,1.8,7.5,3.3a10.6,10.6,0,0,0,20.2,6,118.6,118.6,0,0,0,20.6,1.8,6.3,6.3,0,0,0,6.5,4.8,6.4,6.4,0,1,0-.8-12.7,6.3,6.3,0,0,0-5.8,5.2,100.6,100.6,0,0,1-19.8-1.7,10.8,10.8,0,0,0-7.6-11.4,10.6,10.6,0,0,0-12.4,5.5,78.4,78.4,0,0,1-7.2-3.2,99.3,99.3,0,0,1-13.7-8.2,2.7,2.7,0,1,0-4.2,1.9Z"/><path class="cls-1" d="M367.5,445.4a5.2,5.2,0,0,0-7.4,1.1,5.3,5.3,0,0,0,1.2,7.4,5.1,5.1,0,0,0,6.4-.2,271,271,0,0,0,35.6,21.1,267.2,267.2,0,0,0,41,16.3,3,3,0,0,0,1.9,1.9,2.6,2.6,0,0,0,3.2-1.8,2.6,2.6,0,0,0-1.8-3.3,2.5,2.5,0,0,0-2.5.6,271,271,0,0,1-75.8-36.9A5.2,5.2,0,0,0,367.5,445.4Z"/><path class="cls-1" d="M436.3,526.5a15.4,15.4,0,1,0,10.1,20.1,319.5,319.5,0,0,0,91.5,8.4,4.2,4.2,0,0,0,4.2,2.6,4.2,4.2,0,1,0-4.4-5.2,313.6,313.6,0,0,1-90.6-8.4A15.4,15.4,0,0,0,436.3,526.5Z"/><path class="cls-1" d="M413.6,604.4a12.8,12.8,0,0,0,15.4-7.6,368.9,368.9,0,0,0,111.8,11.1,4.7,4.7,0,0,0,4.7,3.2,4.8,4.8,0,0,0-.6-9.6,4.8,4.8,0,0,0-4.3,3.8,366.1,366.1,0,0,1-110.9-11,12.9,12.9,0,0,0-9-14.4,12.7,12.7,0,0,0-15.2,7.3,393.2,393.2,0,0,1-48-19.7,377.3,377.3,0,0,1-52.3-31.4,3.7,3.7,0,0,0-1.4-4,3.4,3.4,0,0,0-4.2-.1,367.5,367.5,0,0,1-81.2-83.9,8.4,8.4,0,1,0-2.2,1.5,369,369,0,0,0,81.9,84.5,3.7,3.7,0,0,0,1.3,3.9,3.6,3.6,0,0,0,4.2.2,378.9,378.9,0,0,0,52.7,31.6,375.9,375.9,0,0,0,48.4,19.9A12.7,12.7,0,0,0,413.6,604.4Z"/><path class="cls-1" d="M388.6,689.8a4.3,4.3,0,0,0-4.7,1.7,477.6,477.6,0,0,1-138.8-68.1,6.9,6.9,0,0,0-10.9-8,470.6,470.6,0,0,1-101-104.1,13.7,13.7,0,1,0-2.2,1.5A478.7,478.7,0,0,0,232.6,617.6a6.9,6.9,0,0,0,2.2,8.4,6.8,6.8,0,0,0,8.7-.5,491.4,491.4,0,0,0,65.8,39.4,487.1,487.1,0,0,0,73.9,29.2,4.4,4.4,0,0,0,3,3.9,4.4,4.4,0,0,0,5.3-2.9A4.4,4.4,0,0,0,388.6,689.8Z"/><path class="cls-1" d="M534.5,440.8a6.9,6.9,0,0,0-6.4,5.9,210,210,0,0,1-62.1-7.3,4.2,4.2,0,0,0-3-3.9,4.2,4.2,0,1,0-2.4,8.1,4.3,4.3,0,0,0,4.7-1.7,209.2,209.2,0,0,0,63,7.4,6.9,6.9,0,0,0,13.5-.9,212.6,212.6,0,0,0,55-12.8,11.1,11.1,0,0,0,20.3-8.9,212,212,0,0,0,49.5-34.4,3.1,3.1,0,0,0,3.3-.7,3.1,3.1,0,0,0,.1-4.5,3.1,3.1,0,0,0-5.2,3.3,208.6,208.6,0,0,1-48.9,33.9A11.2,11.2,0,0,0,602,420a11.1,11.1,0,0,0-6.2,13.1,210.7,210.7,0,0,1-54.2,12.7A6.8,6.8,0,0,0,534.5,440.8Z"/><path class="cls-1" d="M549.6,674.5a15.3,15.3,0,1,0-16.3-15.9,417.9,417.9,0,0,1-126.8-15.7,4.2,4.2,0,0,0-7.7-2.3A427.8,427.8,0,0,1,334,615a432.1,432.1,0,0,1-57.9-34.6,6.4,6.4,0,1,0-9.6,2.5,6.3,6.3,0,0,0,8-.4,434.2,434.2,0,0,0,58.3,34.9A444.1,444.1,0,0,0,398,643.2a4.3,4.3,0,0,0,3.1,3.9,4.1,4.1,0,0,0,4.6-1.7,418,418,0,0,0,127.7,15.9A15.4,15.4,0,0,0,549.6,674.5Z"/><path class="cls-1" d="M565.6,337a4.2,4.2,0,0,0,2.5-4.3,108.7,108.7,0,0,0,21.4-13.8,8,8,0,0,0,10.8-11.7,8,8,0,0,0-12.5,9.7A105.5,105.5,0,0,1,567,330.3a4.2,4.2,0,0,0-7,4.5A4.2,4.2,0,0,0,565.6,337Z"/><path class="cls-1" d="M731.1,714.1a8,8,0,0,0-4.5,9.2,529.9,529.9,0,0,1-156,39.2,15.4,15.4,0,1,0,.2,2.7,532.3,532.3,0,0,0,156.8-39.5,8,8,0,1,0,3.5-11.6Z"/><path class="cls-1" d="M624.2,357.6a9.5,9.5,0,0,0,13.5.3,9.4,9.4,0,0,0,1-12.6,163.1,163.1,0,0,0,24-33.6,5.4,5.4,0,0,0,5.9-2.8,5.3,5.3,0,1,0-8.3,1.6,156.4,156.4,0,0,1-23.5,32.9,9.5,9.5,0,0,0-12.6,14.2Z"/><path class="cls-1" d="M696.6,433.1A263.1,263.1,0,0,1,632.9,475a6.3,6.3,0,0,0-11.3,4.9,263.3,263.3,0,0,1-72.3,18.4,11.2,11.2,0,1,0,.2,2.6,269,269,0,0,0,73.1-18.5,6.4,6.4,0,0,0,11.4-5,268.6,268.6,0,0,0,64.4-42.3,9.5,9.5,0,1,0-.6-14.3A9.4,9.4,0,0,0,696.6,433.1Z"/><path class="cls-1" d="M751.2,476.7a14.8,14.8,0,0,0,1.2-20.2,318.1,318.1,0,0,0,52.3-73.4,6.3,6.3,0,0,0,4.5-11.8,6.2,6.2,0,0,0-8.5,2.9,6.2,6.2,0,0,0,1.7,7.7,315.4,315.4,0,0,1-51.9,72.7A14.8,14.8,0,0,0,729.2,475a315.2,315.2,0,0,1-73,47.6,8.4,8.4,0,1,0,1.1,2.4A318.9,318.9,0,0,0,731,477,14.8,14.8,0,0,0,751.2,476.7Z"/><path class="cls-1" d="M779.4,506.2a2.6,2.6,0,0,0-3.6-3.8,2.4,2.4,0,0,0-.7,2.6A369.8,369.8,0,0,1,677,571.4a7.9,7.9,0,0,0-9.8-2.9,8,8,0,0,0,6.4,14.6,8,8,0,0,0,4.5-9.3,369.6,369.6,0,0,0,98.8-66.9A2.6,2.6,0,0,0,779.4,506.2Z"/><path class="cls-1" d="M420.9,265.8a5.5,5.5,0,0,0,2.6-5.9,5.4,5.4,0,0,0-6.4-3.9,5.3,5.3,0,0,0,1.3,10.5,107.7,107.7,0,0,0,9.5,22.4,7.9,7.9,0,0,0-1.4,10.4,8,8,0,0,0,11,2.2,8,8,0,0,0-7.4-14A112.3,112.3,0,0,1,420.9,265.8Z"/><path class="cls-1" d="M318.3,292.5a7.1,7.1,0,1,0-2.6.6,217.1,217.1,0,0,0,25,56.6,5.8,5.8,0,0,0,6.3,9.4,210.2,210.2,0,0,0,39.6,42.5,10.6,10.6,0,0,0,17.7,11.6,10.6,10.6,0,0,0-16-13.7,207.5,207.5,0,0,1-39.1-41.9,5.7,5.7,0,0,0,.6-7.1,5.9,5.9,0,0,0-6.9-2.3A213.5,213.5,0,0,1,318.3,292.5Z"/><path class="cls-1" d="M209.3,304a8,8,0,0,0,3.7,15.3A317.4,317.4,0,0,0,249.1,403a12.2,12.2,0,0,0,13.4,20.2,317.7,317.7,0,0,0,64.3,66.2,6.9,6.9,0,0,0,2.1,8.5,7,7,0,0,0,9.7-1.5,6.9,6.9,0,0,0-1.5-9.6,6.8,6.8,0,0,0-8.7.5,312,312,0,0,1-63.7-65.6,12.2,12.2,0,0,0-13.4-20.1,316.6,316.6,0,0,1-35.7-83,8,8,0,0,0,4.5-9.1,8.1,8.1,0,0,0-8.2-6.1,315.9,315.9,0,0,1-5.7-99.8,2.7,2.7,0,0,0,1.6-2.2,2.6,2.6,0,0,0-2.3-2.9,2.6,2.6,0,0,0-2.9,2.4,2.5,2.5,0,0,0,1,2.3A316.1,316.1,0,0,0,209.3,304Z"/><path class="cls-1" d="M161.7,463.2a10.6,10.6,0,0,0-2,14,10.6,10.6,0,1,0,4.2-15.4,419.6,419.6,0,0,1-51.3-118.1,8,8,0,0,0,4.5-9.1,8,8,0,1,0-7.1,9.8A424.8,424.8,0,0,0,161.7,463.2Z"/><path class="cls-1" d="M985.9,122.3l-2.6.6A474.3,474.3,0,0,1,994.5,286a2.5,2.5,0,0,0-1.7,2.1,2.7,2.7,0,0,0,2.3,3,2.6,2.6,0,0,0,2.9-2.4,2.4,2.4,0,0,0-.9-2.3A477.6,477.6,0,0,0,985.9,122.3Z"/><path class="cls-1" d="M373.9,740.2a4.8,4.8,0,0,0-4.1.7l7.5,3.7A4.8,4.8,0,0,0,373.9,740.2Z"/><path class="cls-1" d="M1089.4,99.2l-2.6.7a580.1,580.1,0,0,1,16.3,140.5l2.7-5.4A583.9,583.9,0,0,0,1089.4,99.2Z"/></svg>