<svg id="Layer_1" data-name="Layer 1" xmlns="http://www.w3.org/2000/svg" viewBox="0 0 145.1 109.4"><defs><style>.cls-1{fill:#4c4c4c;}</style></defs><title>MOD-Website-Components-R1</title><path class="cls-1" d="M50,44.8c0-6,11.4-9.5,18.9-10.2h2.4c7.2,0,20.7,3.7,20.7,10.2v9.4h4V44.8c0-4.6-3.4-8.4-9.8-11.1a39.5,39.5,0,0,0-7.7-2.3,15.7,15.7,0,0,0,5.3-11.9V15.1C83.8,6.7,77.5,0,69.5,0S55.2,6.7,55.2,15.1v4.4a15.4,15.4,0,0,0,6,12.4,33.1,33.1,0,0,0-5.3,1.8C49.4,36.4,46,40.2,46,44.8v9.4h4Zm9.2-25.3V15.1C59.2,8.9,63.7,4,69.5,4S79.8,8.9,79.8,15.1v4.4c0,5.7-3.8,10.3-8.8,11.1H68.8C63.4,30.3,59.2,25.5,59.2,19.5Z"/><path class="cls-1" d="M89.2,88.9a38.6,38.6,0,0,0-7.6-2.3,15.5,15.5,0,0,0,5.2-11.8V70.4c0-8.5-6.2-15.2-14.2-15.2S58.3,61.9,58.3,70.4v4.4a15.1,15.1,0,0,0,6,12.3A47.2,47.2,0,0,0,59,88.9c-6.5,2.7-9.9,6.6-9.9,11.1v9.4h4V100c0-6,11.4-9.5,18.8-10.1h2.4c7.2.1,20.8,3.7,20.8,10.2v9.4h4V100C99.1,95.5,95.7,91.6,89.2,88.9ZM62.3,74.8V70.4c0-6.3,4.5-11.2,10.3-11.2s10.2,4.9,10.2,11.2v4.4c0,5.6-3.7,10.2-8.7,11H71.9C66.4,85.5,62.3,80.7,62.3,74.8Z"/><path class="cls-1" d="M135.3,61.3a39.5,39.5,0,0,0-7.7-2.3,15.7,15.7,0,0,0,5.3-11.9V42.8c0-8.5-6.3-15.2-14.3-15.2s-14.3,6.7-14.3,15.2v4.3a15.1,15.1,0,0,0,6,12.4,47.2,47.2,0,0,0-5.3,1.8c-6.5,2.7-9.9,6.5-9.9,11.1v9.4h4V72.4c0-6,11.4-9.5,18.9-10.1h2.4c7.2,0,20.7,3.7,20.7,10.2v9.4h4V72.4C145.1,67.8,141.7,64,135.3,61.3Zm-27-14.2V42.8c0-6.3,4.5-11.2,10.3-11.2s10.3,4.9,10.3,11.2v4.3c0,5.7-3.8,10.3-8.8,11.1h-2.2C112.5,57.9,108.3,53.1,108.3,47.1Z"/><path class="cls-1" d="M50,81.8V72.4c0-4.6-3.4-8.4-9.8-11.1A39.5,39.5,0,0,0,32.5,59a15.6,15.6,0,0,0,5.2-11.9V42.8c0-8.5-6.2-15.2-14.2-15.2S9.2,34.3,9.2,42.8v4.3a15.1,15.1,0,0,0,6,12.4,47.2,47.2,0,0,0-5.3,1.8C3.4,64,0,67.8,0,72.4v9.4H4V72.4c0-6,11.4-9.5,18.8-10.1h2.5c7.1,0,20.7,3.7,20.7,10.2v9.4ZM13.2,47.1V42.8c0-6.3,4.5-11.2,10.3-11.2s10.2,4.9,10.2,11.2v4.3c0,5.7-3.7,10.3-8.7,11.1H22.8C17.4,57.9,13.2,53.1,13.2,47.1Z"/></svg>