<svg id="Layer_1" data-name="Layer 1" xmlns="http://www.w3.org/2000/svg" viewBox="0 0 107.2 107.6"><defs><style>.cls-1{fill:#515151;}</style></defs><title>MOD-Website-Components-R1</title><rect class="cls-1" x="47.1" y="0.2" width="4.9" height="17.73" transform="translate(-0.8 6.4) rotate(-7.4)"/><rect class="cls-1" x="35.1" y="12.7" width="4.9" height="14.91" transform="translate(-5.1 19.5) rotate(-27.4)"/><rect class="cls-1" x="19.2" y="13.9" width="4.9" height="17.73" transform="translate(-9.7 23.2) rotate(-47.4)"/><rect class="cls-1" x="16.9" y="31.5" width="4.9" height="14.91" transform="translate(-24.1 41.9) rotate(-67.4)"/><rect class="cls-1" x="6.5" y="42.3" width="4.9" height="17.73" transform="translate(-42.5 57.7) rotate(-87.4)"/><rect class="cls-1" x="10.1" y="62.6" width="14.9" height="4.9" transform="translate(-18.6 8.2) rotate(-17.4)"/><rect class="cls-1" x="8.7" y="78.6" width="17.7" height="4.9" transform="translate(-45.6 27.3) rotate(-37.4)"/><rect class="cls-1" x="25.5" y="83.8" width="14.9" height="4.9" transform="translate(-57.4 67.5) rotate(-57.4)"/><rect class="cls-1" x="34.4" y="95.9" width="17.7" height="4.9" transform="translate(-62.2 119.1) rotate(-77.4)"/><rect class="cls-1" x="55.8" y="85.1" width="4.9" height="14.91" transform="translate(-11.4 8.3) rotate(-7.4)"/><rect class="cls-1" x="71.8" y="86.3" width="4.9" height="17.73" transform="translate(-35.5 44.8) rotate(-27.4)"/><rect class="cls-1" x="79.3" y="73.6" width="4.9" height="14.9" transform="translate(-33.3 86.4) rotate(-47.4)"/><rect class="cls-1" x="93.4" y="63.9" width="4.9" height="17.73" transform="translate(-8.2 133.2) rotate(-67.4)"/><rect class="cls-1" x="90" y="49.8" width="4.9" height="14.91" transform="translate(31 146.9) rotate(-87.4)"/><rect class="cls-1" x="89.1" y="39.3" width="17.7" height="4.9" transform="translate(-8 31.2) rotate(-17.4)"/><rect class="cls-1" x="77.8" y="29.6" width="14.9" height="4.9" transform="translate(-2 58.3) rotate(-37.4)"/><rect class="cls-1" x="70.9" y="14.2" width="17.7" height="4.9" transform="translate(22.7 74.8) rotate(-57.4)"/><rect class="cls-1" x="56.1" y="15" width="14.9" height="4.9" transform="translate(32.6 75.7) rotate(-77.4)"/><path class="cls-1" d="M73.6,44.8l-6.9-7a2.6,2.6,0,0,0-3.5,0L48.7,52.3l-5.3-5.2a2.5,2.5,0,0,0-3.4,0l-7,7a2.3,2.3,0,0,0,0,3.4l13.9,14a2.4,2.4,0,0,0,1.8.7,2.3,2.3,0,0,0,1.7-.7L73.6,48.2A2.3,2.3,0,0,0,73.6,44.8ZM48.7,66.3,38.2,55.8l3.5-3.5,5.2,5.2a2.4,2.4,0,0,0,3.5,0L64.9,43l3.6,3.5Z"/></svg>