<svg id="Layer_1" data-name="Layer 1" xmlns="http://www.w3.org/2000/svg" viewBox="0 0 89.7 107.6"><defs><style>.cls-1{fill:#515151;}</style></defs><title>MOD-Website-Components-R1</title><path class="cls-1" d="M44.9,64A11,11,0,1,0,34,53,11,11,0,0,0,44.9,64Zm0-17.1A6.1,6.1,0,0,1,51,53a6.1,6.1,0,1,1-6.1-6.1Z"/><path class="cls-1" d="M36.8,27.7v4.7A22.3,22.3,0,0,0,31,35.7l-4.1-2.3a2.8,2.8,0,0,0-1.8-.3,2.6,2.6,0,0,0-1.5,1.2L18,44a2.5,2.5,0,0,0,.9,3.4L23,49.8a17.7,17.7,0,0,0-.2,3.2,20,20,0,0,0,.2,3.4l-4.1,2.4a2.3,2.3,0,0,0-.9,3.3l5.6,9.8a2.6,2.6,0,0,0,3.3.9l4.2-2.5a21.7,21.7,0,0,0,5.7,3.3v4.8a2.5,2.5,0,0,0,2.4,2.5H50.5A2.5,2.5,0,0,0,53,78.4V73.7a23.5,23.5,0,0,0,5.7-3.3l4.1,2.4a2.5,2.5,0,0,0,1.9.2,2.6,2.6,0,0,0,1.4-1.1l5.7-9.8a2.3,2.3,0,0,0-.9-3.3l-4.1-2.4a19.5,19.5,0,0,0,.3-3.4c0-1.1-.1-2.2-.2-3.3l4-2.3a2.5,2.5,0,0,0,.9-3.4l-5.7-9.7a2.4,2.4,0,0,0-1.4-1.2,3.1,3.1,0,0,0-1.9.3l-4,2.3A28.4,28.4,0,0,0,53,32.3V27.7a2.5,2.5,0,0,0-2.5-2.4H39.2A2.4,2.4,0,0,0,36.8,27.7Zm4.9,6.4V30.2h6.4v3.9a2.4,2.4,0,0,0,1.7,2.3,17.8,17.8,0,0,1,7,4.1,2.4,2.4,0,0,0,2.9.3l3.4-1.9,3.2,5.5-3.4,2A2.5,2.5,0,0,0,61.7,49a14.1,14.1,0,0,1,.5,4,19.9,19.9,0,0,1-.5,4.1,2.5,2.5,0,0,0,1.2,2.7l3.4,2-3.2,5.5-3.5-2a2.4,2.4,0,0,0-2.9.3,16.5,16.5,0,0,1-6.9,4,2.4,2.4,0,0,0-1.7,2.3V76H41.7V71.9a2.3,2.3,0,0,0-1.8-2.3,18,18,0,0,1-6.8-4,2.4,2.4,0,0,0-2.9-.4l-3.6,2.1-3.2-5.5L27,59.7A2.4,2.4,0,0,0,28.1,57a18.1,18.1,0,0,1-.4-4,17.2,17.2,0,0,1,.4-3.9A2.4,2.4,0,0,0,27,46.4l-3.6-2,3.2-5.5,3.5,2a2.4,2.4,0,0,0,2.9-.4,16.7,16.7,0,0,1,6.9-4A2.5,2.5,0,0,0,41.7,34.1Z"/><path class="cls-1" d="M87.3,17.9c-11.4,0-37-12-40.4-16.9a2.5,2.5,0,0,0-4,0c-1.3,1.9-7.4,5.9-17.7,10.3S7,17.9,2.4,17.9A2.4,2.4,0,0,0,0,20.3V62.7c0,22,41.9,44.2,44.2,44.8h1.3c2-.5,44.2-24.3,44.2-42.5V20.3A2.4,2.4,0,0,0,87.3,17.9ZM84.8,65c0,13.3-33.7,34.4-39.9,37.5C39,99.6,4.9,80,4.9,62.7V22.6c11-1.3,32.4-10.3,40-16.6C52.5,12.8,74,21.4,84.8,22.6Z"/><path class="cls-1" d="M11.4,26.8a2.5,2.5,0,0,0-2.5,2.4V62.7h4.9V31.5c9.8-1.3,29.4-9.1,33.1-14.2l-4-2.9C40.2,18.1,19.4,26.8,11.4,26.8Z"/></svg>