<svg id="Layer_1" data-name="Layer 1" xmlns="http://www.w3.org/2000/svg" viewBox="0 0 105.9 112.8"><defs><style>.cls-1{fill:#515151;}</style></defs><title>MOD-Website-Components-R1</title><path class="cls-1" d="M75.8,104.2a11.6,11.6,0,0,0,1.9-6.5V95.1c0-6-4.1-10.5-9.5-10.5s-9.5,4.5-9.5,10.5v2.6a11.3,11.3,0,0,0,1.9,6.5l-2.4.8c-1.3-2.8-4.5-4.6-8.2-5.5A11.6,11.6,0,0,0,51.9,93V90.4c0-6-4.1-10.5-9.5-10.5s-9.5,4.5-9.5,10.5V93a11.6,11.6,0,0,0,1.9,6.5c-3.8.9-6.9,2.7-8.2,5.5l-2.5-.8A11.3,11.3,0,0,0,26,97.7V95.1c0-6-4-10.5-9.5-10.5S7,89.1,7,95.1v2.6a11.6,11.6,0,0,0,2,6.5c-5.1,1.2-9,3.9-9,8.6H4.9c0-3.3,7-4.6,11.6-4.6,2.9,0,6.8.5,9.3,1.8v2.8h4.9v-4.7c0-3.3,7-4.5,11.7-4.5S54,104.8,54,108.1v4.7h4.9V110c2.5-1.3,6.5-1.8,9.3-1.8,4.7,0,11.7,1.3,11.7,4.6h4.9C84.8,108.1,80.8,105.4,75.8,104.2ZM11.9,97.7V95.1c0-2.7,1.5-5.6,4.6-5.6s4.6,2.9,4.6,5.6v2.6c0,2.7-1.4,5.7-4.6,5.7S11.9,100.4,11.9,97.7ZM37.8,93V90.4c0-2.7,1.4-5.6,4.6-5.6S47,87.7,47,90.4V93c0,2.7-1.5,5.7-4.6,5.7S37.8,95.7,37.8,93Zm25.8,2.1c0-2.7,1.5-5.6,4.6-5.6s4.6,2.9,4.6,5.6v2.6c0,2.7-1.4,5.7-4.6,5.7s-4.6-3-4.6-5.7Z"/><path class="cls-1" d="M11.8,66h2.3v9.3a4.6,4.6,0,0,0,3.3,4.5,4,4,0,0,0,1.5.3,4.6,4.6,0,0,0,3.8-2L31.9,66H68.2A11.9,11.9,0,0,0,80.1,54.1V9.5A9.6,9.6,0,0,0,70.6,0H11.8A9.6,9.6,0,0,0,2.3,9.5v47A9.6,9.6,0,0,0,11.8,66ZM7.2,9.5a4.7,4.7,0,0,1,4.6-4.6H70.6a4.7,4.7,0,0,1,4.6,4.6V54.1a7,7,0,0,1-7,7H30.6a2.2,2.2,0,0,0-1.9,1L19,75V63.5a2.5,2.5,0,0,0-2.5-2.4H11.8a4.7,4.7,0,0,1-4.6-4.6Z"/><path class="cls-1" d="M96.4,16.4H82.3v4.9H96.4a4.7,4.7,0,0,1,4.6,4.6V68.2a4.6,4.6,0,0,1-4.6,4.6H91.7a2.5,2.5,0,0,0-2.4,2.5v9.8L79.5,73.7a2.5,2.5,0,0,0-1.9-.9H56.5a4.5,4.5,0,0,1-4.6-4.6H47a9.4,9.4,0,0,0,9.5,9.5h20l9.2,10.8a4.9,4.9,0,0,0,3.6,1.7,4.7,4.7,0,0,0,1.7-.3,4.8,4.8,0,0,0,3.2-4.5V77.7h2.2a9.5,9.5,0,0,0,9.5-9.5V25.9A9.6,9.6,0,0,0,96.4,16.4Z"/><path class="cls-1" d="M42.4,42.5a9.6,9.6,0,1,0-9.5-9.6A9.6,9.6,0,0,0,42.4,42.5Zm0-14.2a4.7,4.7,0,1,1-4.6,4.6A4.7,4.7,0,0,1,42.4,28.3Z"/><path class="cls-1" d="M19.6,40.7l4.7,8.1A2.6,2.6,0,0,0,25.8,50a1.9,1.9,0,0,0,1.8-.3l3.3-1.8a18.6,18.6,0,0,0,4.3,2.5v3.7a2.5,2.5,0,0,0,2.5,2.5h9.4a2.5,2.5,0,0,0,2.4-2.5V50.4a17.3,17.3,0,0,0,4.4-2.5l3.2,1.8A2.1,2.1,0,0,0,59,50a2.9,2.9,0,0,0,1.5-1.2l4.7-8.1a2.5,2.5,0,0,0-.9-3.3l-3.2-1.8a12.3,12.3,0,0,0,.2-2.7,11,11,0,0,0-.2-2.5l3.2-1.8a2.6,2.6,0,0,0,.9-3.3l-4.7-8.2a2.5,2.5,0,0,0-3.4-.9L54,18a25.1,25.1,0,0,0-4.5-2.6V11.8a2.4,2.4,0,0,0-2.4-2.4H37.7a2.5,2.5,0,0,0-2.5,2.4v3.7a18.2,18.2,0,0,0-4.4,2.6l-3.2-1.9a2.4,2.4,0,0,0-3.3.9l-4.7,8.2a2.4,2.4,0,0,0,.9,3.3l3.2,1.9a19.4,19.4,0,0,0-.2,2.4,22.8,22.8,0,0,0,.2,2.6l-3.2,1.9A2.3,2.3,0,0,0,19.6,40.7Zm9.2-4.5a18.6,18.6,0,0,1-.4-3.3,16.5,16.5,0,0,1,.4-3.1,2.4,2.4,0,0,0-1.1-2.7l-2.6-1.5,2.2-3.9,2.6,1.5a2.4,2.4,0,0,0,2.9-.4,15.1,15.1,0,0,1,5.6-3.3,2.4,2.4,0,0,0,1.7-2.3V14.3h4.5v2.9a2.4,2.4,0,0,0,1.8,2.3A13.9,13.9,0,0,1,52,22.8a2.6,2.6,0,0,0,3,.3l2.4-1.4,2.3,3.9L57.2,27A2.7,2.7,0,0,0,56,29.7a12.2,12.2,0,0,1,.4,3.2,12.4,12.4,0,0,1-.4,3.3,2.4,2.4,0,0,0,1.2,2.7l2.5,1.5-2.3,3.9-2.5-1.5a2.6,2.6,0,0,0-2.9.3,13.7,13.7,0,0,1-5.6,3.2,2.6,2.6,0,0,0-1.8,2.4v3H40.1v-3a2.5,2.5,0,0,0-1.7-2.4,13.7,13.7,0,0,1-5.6-3.2,2.4,2.4,0,0,0-2.9-.3l-2.6,1.5-2.2-3.9,2.6-1.5A2.5,2.5,0,0,0,28.8,36.2Z"/></svg>