<svg id="Layer_1" data-name="Layer 1" xmlns="http://www.w3.org/2000/svg" viewBox="0 0 1080 2469.1"><defs><style>.cls-1{fill:#a81b8d;}.cls-2,.cls-45{font-size:20px;}.cls-11,.cls-2{fill:#fff;font-family:ProximaNova-Semibold, Proxima Nova;}.cls-11,.cls-2,.cls-27,.cls-43,.cls-44,.cls-45{font-weight:700;}.cls-3{letter-spacing:-0.05em;}.cls-4{letter-spacing:-0.06em;}.cls-5{letter-spacing:-0.03em;}.cls-54,.cls-55,.cls-6{fill:none;stroke-miterlimit:10;stroke-width:1.5px;}.cls-6{stroke:#fff;}.cls-7{letter-spacing:-0.06em;}.cls-8{letter-spacing:-0.03em;}.cls-9{letter-spacing:0em;}.cls-10{fill:#74c26c;}.cls-11{font-size:15px;}.cls-12{letter-spacing:-0.02em;}.cls-13{letter-spacing:-0.02em;}.cls-14{letter-spacing:0em;}.cls-15{font-size:15.4px;fill:#010101;}.cls-15,.cls-25,.cls-42,.cls-46,.cls-47,.cls-49,.cls-50,.cls-53{font-family:ProximaNova-Regular, Proxima Nova;}.cls-16,.cls-25{fill:#404b90;}.cls-17{letter-spacing:-0.03em;}.cls-18{letter-spacing:0em;}.cls-19{fill:#2d3a76;}.cls-20,.cls-27{fill:#4c4c4c;}.cls-21{fill:#f0f1f3;}.cls-22{letter-spacing:-0.02em;}.cls-23{fill:#e9e9ea;}.cls-24{fill:#f7f8f9;}.cls-25{font-size:34.38px;letter-spacing:0.04em;}.cls-26{letter-spacing:0.05em;}.cls-27{font-size:27.12px;letter-spacing:0.05em;}.cls-27,.cls-43,.cls-44,.cls-45{font-family:ProximaNova-Bold, Proxima Nova;}.cls-28{letter-spacing:0.02em;}.cls-29{letter-spacing:0.05em;}.cls-30{letter-spacing:-0.02em;}.cls-31{letter-spacing:0.05em;}.cls-32{letter-spacing:0.03em;}.cls-33{letter-spacing:-0.04em;}.cls-34{letter-spacing:-0.03em;}.cls-35{letter-spacing:-0.08em;}.cls-36{letter-spacing:-0.04em;}.cls-37{letter-spacing:0em;}.cls-38{fill:#5aaa53;}.cls-39{letter-spacing:0em;}.cls-40{fill:#902681;}.cls-41{letter-spacing:0.04em;}.cls-42{font-size:70px;}.cls-42,.cls-46,.cls-53{fill:#231f20;}.cls-43{font-size:40px;}.cls-43,.cls-49{fill:#3f4a8f;}.cls-44{font-size:24px;}.cls-44,.cls-47,.cls-50{fill:#4b4b4b;}.cls-45{fill:#74c26b;letter-spacing:0.03em;}.cls-46,.cls-50{font-size:18px;}.cls-47{font-size:21px;}.cls-48{letter-spacing:-0.06em;}.cls-49{font-size:36px;}.cls-51{letter-spacing:-0.01em;}.cls-52{letter-spacing:0em;}.cls-53{font-size:30px;}.cls-54{stroke:#404b90;}.cls-55{stroke:#20295a;}</style></defs><title>MOD-Website-Components-R1</title><rect class="cls-1" x="121" y="761.9" width="234.7" height="36.92" rx="18.5" ry="18.5"/><text class="cls-2" transform="translate(138.1 787)"><tspan class="cls-3">W</tspan><tspan class="cls-4" x="17.2" y="0">A</tspan><tspan class="cls-5" x="29.3" y="0">T</tspan><tspan x="40.4" y="0">CH THE VIDEO</tspan></text><circle class="cls-6" cx="333.2" cy="780.9" r="9.5"/><polygon class="cls-6" points="337.6 780.9 330.4 776.8 330.4 785 337.6 780.9"/><rect class="cls-1" x="121.7" y="896.9" width="179.9" height="36.92" rx="18.5" ry="18.5"/><text class="cls-2" transform="translate(139.4 922.1)">CON<tspan class="cls-7" x="43.3" y="0">T</tspan><tspan class="cls-8" x="53.6" y="0">A</tspan><tspan class="cls-9" x="66.3" y="0">CT US</tspan></text><polygon class="cls-6" points="287.2 915.9 275 908.9 275 922.9 287.2 915.9"/><rect class="cls-10" x="121.5" y="1017.5" width="214.7" height="27.69" rx="13.8" ry="13.8"/><text class="cls-11" transform="translate(135.2 1036.4)">H<tspan class="cls-12" x="10.8" y="0">O</tspan><tspan x="22" y="0">W MODULEQ </tspan><tspan class="cls-13" x="116.6" y="0">W</tspan><tspan class="cls-14" x="129.8" y="0">ORKS</tspan></text><polygon class="cls-6" points="323.6 1031.8 314.5 1026.5 314.5 1037 323.6 1031.8"/><rect class="cls-10" x="123.3" y="194.7" width="129" height="128.98"/><text class="cls-15" transform="translate(122.4 350.8)">Grass<tspan x="0" y="18.5">#74C26B</tspan></text><rect class="cls-16" x="363.5" y="194.7" width="129" height="128.98"/><text class="cls-15" transform="translate(362.3 350.8)"><tspan class="cls-17">R<tspan class="cls-18" x="8.9" y="0">oyal</tspan></tspan><tspan x="0" y="18.5">#3F4A8F</tspan></text><rect class="cls-19" x="603.1" y="194.7" width="129" height="128.98"/><text class="cls-15" transform="translate(602.5 350.8)">Indigo<tspan x="0" y="18.5">#2D3975</tspan></text><rect class="cls-20" x="842.2" y="194.7" width="129" height="128.98"/><text class="cls-15" transform="translate(843 350.8)">Charcoal<tspan x="0" y="18.5">#4B4B4B</tspan></text><rect class="cls-21" x="124.5" y="422.8" width="129" height="128.98"/><text class="cls-15" transform="translate(123.3 578.9)">Purple<tspan class="cls-22" x="43.6" y="0">R</tspan><tspan x="52.6" y="0">ain</tspan><tspan x="0" y="18.5">#EFF1F4</tspan></text><rect class="cls-23" x="363.5" y="422.8" width="129" height="128.98"/><text class="cls-15" transform="translate(364.6 578.9)">GrayMist<tspan x="0" y="18.5">#E8E9EA</tspan></text><rect class="cls-24" x="602.5" y="422.8" width="129" height="128.98"/><text class="cls-15" transform="translate(604.1 578.9)">Iceberg<tspan x="0" y="18.5">#F7F8F9</tspan></text><rect class="cls-1" x="841.6" y="422.8" width="129" height="128.98"/><text class="cls-15" transform="translate(843.2 578.9)">Grape Jelly<tspan x="0" y="18.5">#A81B8D</tspan></text><text class="cls-25" transform="translate(122.4 101.8)">S<tspan class="cls-26" x="21.7" y="0">TYLE SHEET</tspan></text><text class="cls-27" transform="translate(122.4 169.2)">CO<tspan class="cls-28" x="42.1" y="0">L</tspan><tspan class="cls-29" x="56.9" y="0">OR </tspan><tspan class="cls-30" x="106.1" y="0">P</tspan><tspan class="cls-31" x="122.4" y="0">ALETTE</tspan></text><text class="cls-27" transform="translate(122.4 732.2)">BUT<tspan class="cls-32" x="57.7" y="0">T</tspan><tspan class="cls-29" x="74.2" y="0">ONS</tspan></text><text class="cls-15" transform="translate(122.4 825.2)">Normal</text><text class="cls-15" transform="translate(122.4 958.2)">Normal</text><text class="cls-15" transform="translate(122.4 1066.2)">Normal</text><text class="cls-15" transform="translate(119.2 1318.2)">Pr<tspan class="cls-33" x="14.1" y="0">o</tspan><tspan x="22.4" y="0">xima Nova </tspan><tspan class="cls-34" x="97.2" y="0">R</tspan><tspan x="106.1" y="0">egula</tspan><tspan class="cls-35" x="143.7" y="0">r</tspan><tspan x="147.5" y="0">, 70</tspan><tspan class="cls-36" x="172.4" y="0">p</tspan><tspan class="cls-37" x="180.6" y="0">x/85 line height, White #FFFFFF</tspan></text><rect class="cls-38" x="421.5" y="1017.5" width="214.7" height="27.69" rx="13.8" ry="13.8"/><text class="cls-11" transform="translate(435.2 1036.4)">H<tspan class="cls-12" x="10.8" y="0">O</tspan><tspan x="22" y="0">W MODULEQ </tspan><tspan class="cls-13" x="116.6" y="0">W</tspan><tspan class="cls-14" x="129.8" y="0">ORKS</tspan></text><polygon class="cls-6" points="623.6 1031.8 614.5 1026.5 614.5 1037 623.6 1031.8"/><text class="cls-15" transform="translate(422.4 1066.2)"><tspan class="cls-34">R</tspan><tspan x="8.9" y="0">ollover</tspan></text><text class="cls-15" transform="translate(422.4 1084.2)">#5<tspan class="cls-39" x="18.2" y="0">C</tspan><tspan x="28.5" y="0">AA53</tspan></text><rect class="cls-40" x="421.7" y="896.9" width="179.9" height="36.92" rx="18.5" ry="18.5"/><text class="cls-2" transform="translate(439.4 922.1)">CON<tspan class="cls-7" x="43.3" y="0">T</tspan><tspan class="cls-8" x="53.6" y="0">A</tspan><tspan class="cls-9" x="66.3" y="0">CT US</tspan></text><polygon class="cls-6" points="587.2 915.9 575 908.9 575 922.9 587.2 915.9"/><text class="cls-15" transform="translate(422.4 958.2)"><tspan class="cls-34">R</tspan><tspan x="8.9" y="0">ollover</tspan></text><rect class="cls-40" x="424" y="761.9" width="234.7" height="36.92" rx="18.5" ry="18.5"/><text class="cls-2" transform="translate(441.1 787)"><tspan class="cls-3">W</tspan><tspan class="cls-4" x="17.2" y="0">A</tspan><tspan class="cls-5" x="29.3" y="0">T</tspan><tspan x="40.4" y="0">CH THE VIDEO</tspan></text><circle class="cls-6" cx="636.2" cy="780.9" r="9.5"/><polygon class="cls-6" points="640.6 780.9 633.4 776.8 633.4 785 640.6 780.9"/><text class="cls-15" transform="translate(425.4 825.2)"><tspan class="cls-34">R</tspan><tspan x="8.9" y="0">ollover</tspan></text><text class="cls-15" transform="translate(424 847)">#902681</text><text class="cls-15" transform="translate(848.2 825.2)"><tspan class="cls-34">R</tspan><tspan x="8.9" y="0">ollover</tspan></text><text class="cls-15" transform="translate(742.9 825.2)">Normal</text><text class="cls-15" transform="translate(846.9 847)">#18275B</text><text class="cls-15" transform="translate(424 976)">#902681</text><text class="cls-27" transform="translate(122.4 1188.2)">TYPE <tspan class="cls-41" x="79.7" y="0">S</tspan><tspan x="97" y="0">TYLES</tspan></text><text class="cls-42" transform="translate(119.2 1288.3)">H1 Headline</text><text class="cls-15" transform="translate(119.2 1538.2)">Pr<tspan class="cls-33" x="14.1" y="0">o</tspan><tspan x="22.4" y="0">xima Nova Bold, 40</tspan><tspan class="cls-36" x="153.5" y="0">p</tspan><tspan x="161.8" y="0">x/55 line height, </tspan><tspan class="cls-34" x="274.1" y="0">R</tspan><tspan x="283" y="0">oyal #3F4A8F</tspan></text><text class="cls-43" transform="translate(119.2 1508.3)">H2 Headline</text><text class="cls-15" transform="translate(119.2 1637.2)">Pr<tspan class="cls-33" x="14.1" y="0">o</tspan><tspan x="22.4" y="0">xima Nova Bold, ALL </tspan><tspan class="cls-39" x="165.3" y="0">C</tspan><tspan x="175.7" y="0">APS, 25</tspan><tspan class="cls-36" x="229.6" y="0">p</tspan><tspan x="237.8" y="0">x/40 line height, Charcoal #4B4B4B</tspan></text><text class="cls-44" transform="translate(119.2 1607.3)">H3 HEADLINE</text><text class="cls-15" transform="translate(119.2 1760.1)">Pr<tspan class="cls-33" x="14.1" y="0">o</tspan><tspan x="22.4" y="0">xima Nova Bold, ALL </tspan><tspan class="cls-39" x="165.3" y="0">C</tspan><tspan x="175.7" y="0">APS, 20</tspan><tspan class="cls-36" x="229.9" y="0">p</tspan><tspan x="238.1" y="0">x/35 line height, Grass #74C26B</tspan></text><text class="cls-45" transform="translate(119.2 1730.2)">H4 HEADER BOLD</text><text class="cls-15" transform="translate(119.2 1837.1)">Pr<tspan class="cls-33" x="14.1" y="0">o</tspan><tspan x="22.4" y="0">xima Nova </tspan><tspan class="cls-34" x="97.2" y="0">R</tspan><tspan x="106.1" y="0">egula</tspan><tspan class="cls-35" x="143.7" y="0">r</tspan><tspan x="147.5" y="0">, 18</tspan><tspan class="cls-36" x="169.2" y="0">p</tspan><tspan x="177.4" y="0">x/30 line height, Charcoal #4B4B4B</tspan></text><text class="cls-46" transform="translate(119.2 1807.2)">H4 Body Copy</text><text class="cls-15" transform="translate(119.2 1962.9)">Pr<tspan class="cls-33" x="14.1" y="0">o</tspan><tspan x="22.4" y="0">xima Nova </tspan><tspan class="cls-34" x="97.2" y="0">R</tspan><tspan x="106.1" y="0">egula</tspan><tspan class="cls-35" x="143.7" y="0">r</tspan><tspan x="147.5" y="0">, 20</tspan><tspan class="cls-36" x="173.5" y="0">p</tspan><tspan x="181.7" y="0">x/35 line height, Charcoal #4B4B4B</tspan></text><text class="cls-47" transform="translate(119.2 1933.1)">Body Copy</text><text class="cls-15" transform="translate(119.2 2312.9)">Pr<tspan class="cls-33" x="14.1" y="0">o</tspan><tspan x="22.4" y="0">xima Nova Bold, 24</tspan><tspan class="cls-36" x="153.2" y="0">p</tspan><tspan class="cls-37" x="161.4" y="0">x/36 line height, Charcoal #4B4B4B</tspan></text><text class="cls-44" transform="translate(119.2 2283.1)">C<tspan class="cls-48" x="16.5" y="0">T</tspan><tspan x="28.9" y="0">A Section</tspan></text><text class="cls-15" transform="translate(119.2 2086.9)">Pr<tspan class="cls-33" x="14.1" y="0">o</tspan><tspan x="22.4" y="0">xima Nova </tspan><tspan class="cls-34" x="97.2" y="0">R</tspan><tspan x="106.1" y="0">egula</tspan><tspan class="cls-35" x="143.7" y="0">r</tspan><tspan x="147.5" y="0">, 36</tspan><tspan class="cls-33" x="172.7" y="0">p</tspan><tspan x="180.9" y="0">x/48 line height, </tspan><tspan class="cls-17" x="292.6" y="0">R</tspan><tspan x="301.5" y="0">oyal #3F4A8F</tspan></text><text class="cls-49" transform="translate(119.2 2057.1)">Quote</text><text class="cls-15" transform="translate(119.2 2178.4)">Pr<tspan class="cls-33" x="14.1" y="0">o</tspan><tspan x="22.4" y="0">xima Nova </tspan><tspan class="cls-34" x="97.2" y="0">R</tspan><tspan x="106.1" y="0">egula</tspan><tspan class="cls-35" x="143.7" y="0">r</tspan><tspan x="147.5" y="0">, 18</tspan><tspan class="cls-36" x="169.2" y="0">p</tspan><tspan x="177.4" y="0">x/30 line height, Charcoal #4B4B4B</tspan></text><text class="cls-50" transform="translate(119.2 2148.5)">Quote <tspan class="cls-51" x="54.1" y="0">A</tspan><tspan class="cls-52" x="65.7" y="0">ttribution</tspan></text><text class="cls-15" transform="translate(119.2 1404.3)">Pr<tspan class="cls-33" x="14.1" y="0">o</tspan><tspan x="22.4" y="0">xima Nova </tspan><tspan class="cls-34" x="97.2" y="0">R</tspan><tspan x="106.1" y="0">egula</tspan><tspan class="cls-35" x="143.7" y="0">r</tspan><tspan x="147.5" y="0">, 30</tspan><tspan class="cls-36" x="173" y="0">p</tspan><tspan x="181.2" y="0">x/45 line height, White #FFFFFF</tspan></text><text class="cls-53" transform="translate(119.2 1374.4)">Intro Copy / Hero section at top of each page</text><circle class="cls-54" cx="764.3" cy="780.9" r="18.9"/><polygon class="cls-54" points="773.1 780.9 758.9 772.7 758.9 789.1 773.1 780.9"/><circle class="cls-55" cx="864.3" cy="780.9" r="18.9"/><polygon class="cls-55" points="873.1 780.9 858.9 772.7 858.9 789.1 873.1 780.9"/></svg>