<svg id="Layer_1" data-name="Layer 1" xmlns="http://www.w3.org/2000/svg" viewBox="0 0 107.6 100.9"><defs><style>.cls-1{fill:#515151;}</style></defs><title>MOD-Website-Components-R1</title><path class="cls-1" d="M98.5,0H44.9a9.2,9.2,0,0,0-9.2,9.1V38.2h4.9V9.1a4.2,4.2,0,0,1,4.3-4.2H98.5a4.2,4.2,0,0,1,4.2,4.2V44.9a4.2,4.2,0,0,1-4.2,4.2H80.6a2.4,2.4,0,0,0-1.7.7L63,65.8V51.6a2.5,2.5,0,0,0-2.5-2.5H51.6V54h6.5V66.3a4.6,4.6,0,0,0,2.8,4.3,5.8,5.8,0,0,0,1.8.4A4.5,4.5,0,0,0,66,69.6L81.6,54H98.5a9.1,9.1,0,0,0,9.1-9.1V9.1A9.1,9.1,0,0,0,98.5,0Z"/><path class="cls-1" d="M58.5,82.8V79.2C58.5,70.8,43.8,67,38.2,67S17.9,70.8,17.9,79.2v3.6h4.9V79.2c0-3.8,10.6-7.3,15.4-7.3s15.4,3.5,15.4,7.3v3.6Z"/><path class="cls-1" d="M38.2,40.2A11.4,11.4,0,0,0,26.8,51.5v2.4a11.4,11.4,0,0,0,22.8,0V51.5A11.4,11.4,0,0,0,38.2,40.2Zm6.5,13.7a6.5,6.5,0,0,1-6.5,6.4,6.5,6.5,0,0,1-6.5-6.4V51.5a6.5,6.5,0,0,1,6.5-6.4,6.5,6.5,0,0,1,6.5,6.4Z"/><path class="cls-1" d="M69.4,38.4h.1a2.5,2.5,0,0,0,1.8-.8L89.1,17.5l-3.6-3.3L69.3,32.4l-7.1-7.1-3.4,3.4,8.9,9A2.8,2.8,0,0,0,69.4,38.4Z"/><path class="cls-1" d="M105.2,84.8h-4.3V56H96V84.8H65a2.5,2.5,0,0,0-1.8.8l-3.7,3.7H50.4l-3.8-3.7a2.5,2.5,0,0,0-1.7-.8H11.6V33.7a2,2,0,0,1,2-2H33.7V26.8H13.6a6.9,6.9,0,0,0-6.9,6.9V84.8H2.4A2.5,2.5,0,0,0,0,87.3v2.2a11.4,11.4,0,0,0,11.4,11.4H96.2a11.4,11.4,0,0,0,11.4-11.4V87.3A2.5,2.5,0,0,0,105.2,84.8ZM96.2,96H11.4a6.5,6.5,0,0,1-6.5-6.3h39l3.7,3.8a2.3,2.3,0,0,0,1.7.7H60.5a2.1,2.1,0,0,0,1.7-.7L66,89.7h36.7A6.5,6.5,0,0,1,96.2,96Z"/></svg>