<svg id="Layer_1" data-name="Layer 1" xmlns="http://www.w3.org/2000/svg" viewBox="0 0 771.4 213.6"><defs><style>.cls-1{fill:#74c26c;fill-rule:evenodd;}.cls-2{fill:#4c4c4c;}.cls-3{fill:#fff;}</style></defs><title>MOD-Website-Components-R1</title><path class="cls-1" d="M409.4,141.4a36.5,36.5,0,0,1-22.6-10.8,28.3,28.3,0,0,1,0-56.5,29.1,29.1,0,0,1,8.9,1.4,28.8,28.8,0,0,1,13.7,9.8,28.2,28.2,0,0,1,0,34,28.1,28.1,0,0,1-13.7,9.8,43.7,43.7,0,0,0,13.7,12.3ZM372.2,99.1a3.2,3.2,0,0,1,3.2,3.2,3.2,3.2,0,0,1-3.2,3.2,3.2,3.2,0,0,1-3.2-3.2,3.3,3.3,0,0,1,3.2-3.2Zm14.6,0a3.2,3.2,0,0,1,3.2,3.2,3.2,3.2,0,0,1-3.2,3.2,3.2,3.2,0,0,1-3.2-3.2,3.3,3.3,0,0,1,3.2-3.2Zm14.6,0a3.2,3.2,0,0,1,3.2,3.2,3.2,3.2,0,1,1-6.3,0,3.2,3.2,0,0,1,3.1-3.2Zm8,42.3a45,45,0,0,0,22.5,6V130.6a25.8,25.8,0,0,1-8.8-1.5,45.2,45.2,0,0,0,0-53.6,45.6,45.6,0,0,0-13.7-12.2,45.1,45.1,0,1,0-22.6,84.1,45.7,45.7,0,0,0,22.6-6Z"/><path class="cls-2" d="M669.1,68.7c0-6,11.8-9.9,19.9-10.6h2.6c7.9.1,21.9,4.1,21.9,10.7v10h5.1v-10c0-8.2-9.6-12.9-18.4-14.8a16.9,16.9,0,0,0,5.2-12.5V36.7c0-9.3-6.9-16.7-15.8-16.7s-15.7,7.4-15.7,16.7v4.7a17.3,17.3,0,0,0,5.9,13.2c-8,2.2-15.8,6.7-15.8,14.1v10h5.1ZM679,41.4V36.7c0-6.5,4.6-11.6,10.6-11.6s10.7,5.1,10.7,11.6v4.7c0,6-3.9,10.7-9.1,11.5h-2.4C683.2,52.6,679,47.7,679,41.4Z"/><path class="cls-2" d="M703.5,113.4a17.3,17.3,0,0,0,5.2-12.5V96.2c0-9.4-6.9-16.7-15.8-16.7s-15.7,7.3-15.7,16.7v4.7a16.9,16.9,0,0,0,5.9,13.1c-8,2.2-15.8,6.7-15.8,14.1v10h5.1v-10c0-6,11.8-9.9,19.9-10.6h.6l2-.2c7.9.1,21.9,4.2,21.9,10.7v10h5.1v-10C721.9,119.9,712.3,115.3,703.5,113.4Zm-21.2-12.5V96.2c0-6.5,4.6-11.6,10.6-11.6s10.7,5.1,10.7,11.6v4.7c0,5.9-3.9,10.6-9.1,11.4h-2.4C686.5,112,682.3,107.1,682.3,100.9Z"/><path class="cls-2" d="M753,83.7a17.3,17.3,0,0,0,5.2-12.5V66.4c0-9.3-6.9-16.7-15.7-16.7s-15.8,7.4-15.8,16.7v4.8a16.9,16.9,0,0,0,5.9,13.1c-8,2.2-15.8,6.7-15.8,14.1v10h5.1v-10c0-6,11.8-9.9,19.9-10.6h.7l1.9-.2c7.9.1,21.9,4.1,21.9,10.7v10h5.1v-10C771.4,90.2,761.8,85.6,753,83.7ZM731.8,71.2V66.4c0-6.5,4.7-11.6,10.7-11.6s10.6,5.1,10.6,11.6v4.8c0,5.9-3.9,10.6-9.1,11.4h-2.3C736.1,82.3,731.8,77.4,731.8,71.2Z"/><path class="cls-2" d="M669.1,108.4v-10c0-8.2-9.6-12.8-18.5-14.7a17.3,17.3,0,0,0,5.3-12.5V66.4c0-9.3-7-16.7-15.8-16.7s-15.8,7.4-15.8,16.7v4.8a16.7,16.7,0,0,0,6,13.1c-8.1,2.2-15.9,6.7-15.9,14.1v10h5.1v-10c0-6,11.9-9.9,19.9-10.6h.7l1.9-.2c7.9.1,22,4.1,22,10.7v10ZM629.4,71.2V66.4c0-6.5,4.7-11.6,10.7-11.6s10.7,5.1,10.7,11.6v4.8c0,5.9-3.9,10.6-9.1,11.4h-2.4C633.7,82.3,629.4,77.4,629.4,71.2Z"/><path class="cls-2" d="M173.1,110.3a2.5,2.5,0,0,1-1.8-.8L154.8,93a2.4,2.4,0,0,1,0-3.6l16.5-16.5a2.8,2.8,0,0,1,2.8-.6,2.7,2.7,0,0,1,1.5,2.4v7.4h60.7v5H173.1a2.6,2.6,0,0,1-2.6-2.5V80.8L160.2,91.2l10.3,10.4V97.8a2.6,2.6,0,0,1,2.6-2.5h38.8v5.1H175.6v7.3a2.7,2.7,0,0,1-1.5,2.4Z"/><path class="cls-2" d="M217.8,157.2a3.1,3.1,0,0,1-1.8-.7l-16.5-16.6a2.5,2.5,0,0,1,0-3.6L216,119.8a2.6,2.6,0,0,1,2.8-.5,2.5,2.5,0,0,1,1.6,2.3V129h17.2v5.1H217.8a2.6,2.6,0,0,1-2.5-2.6v-3.7l-10.4,10.3,10.4,10.4v-3.8a2.5,2.5,0,0,1,2.5-2.5h38.9v5.1H220.4v7.3a2.5,2.5,0,0,1-1.6,2.4Z"/><path class="cls-2" d="M207.3,66.7a2.7,2.7,0,0,1-1.8-.8L189,49.4a2.5,2.5,0,0,1,0-3.6l16.5-16.5a2.6,2.6,0,0,1,2.8-.5,2.6,2.6,0,0,1,1.6,2.3v7.4h13.7v5.1H207.3a2.6,2.6,0,0,1-2.5-2.6V37.3L194.4,47.6,204.8,58V54.2a2.5,2.5,0,0,1,2.5-2.5h29v5.1H209.9v7.3a2.7,2.7,0,0,1-1.6,2.4Z"/><path class="cls-2" d="M560.3,113.6a1.8,1.8,0,0,1-1-.2,2.6,2.6,0,0,1-1.6-2.3v-7.4H521V98.6h39.3a2.6,2.6,0,0,1,2.5,2.6v3.7l10.4-10.3L562.8,84.2V88a2.5,2.5,0,0,1-2.5,2.5H538.8V85.4h18.9V78.1a2.7,2.7,0,0,1,1.6-2.4,2.4,2.4,0,0,1,2.8.6l16.5,16.5a2.5,2.5,0,0,1,0,3.6l-16.5,16.5A2.4,2.4,0,0,1,560.3,113.6Z"/><path class="cls-2" d="M595.7,66.7l-1-.2a2.6,2.6,0,0,1-1.5-2.4V56.8H575.9V51.7h19.8a2.6,2.6,0,0,1,2.6,2.5V58l10.3-10.4L598.3,37.3V41a2.6,2.6,0,0,1-2.6,2.6H556.8V38.5h36.4V31.1a2.5,2.5,0,0,1,1.5-2.3,2.6,2.6,0,0,1,2.8.5L614,45.8a2.7,2.7,0,0,1,.8,1.8,2.3,2.3,0,0,1-.8,1.8L597.5,65.9A2.5,2.5,0,0,1,595.7,66.7Z"/><path class="cls-2" d="M609.3,157.2l-1-.2a2.6,2.6,0,0,1-1.5-2.4v-7.3H543.3v-5.1h66a2.5,2.5,0,0,1,2.5,2.5v3.8l10.4-10.4-10.4-10.3v3.7a2.6,2.6,0,0,1-2.5,2.6H561.9V129h44.9v-7.4a2.5,2.5,0,0,1,1.5-2.3,2.6,2.6,0,0,1,2.8.5l16.5,16.5a2.5,2.5,0,0,1,0,3.6l-16.5,16.6A2.9,2.9,0,0,1,609.3,157.2Z"/><rect class="cls-2" x="102.2" y="162.4" width="39.6" height="5.09"/><rect class="cls-2" x="32.3" y="142.3" width="29.7" height="5.09"/><path class="cls-2" d="M298.2,151.1a2.6,2.6,0,0,1-2.1-1.1l-26-36.5a2.3,2.3,0,0,1-.2-2.6,2.4,2.4,0,0,1,2.2-1.4H280v-2.7A106.9,106.9,0,0,1,386.8,0V5.1A101.8,101.8,0,0,0,285.1,106.8V112a2.6,2.6,0,0,1-2.5,2.6h-5.5L298,143.8l16.7-29.2h-6.1a2.6,2.6,0,0,1-2.5-2.6v-5.2a80.7,80.7,0,0,1,149-43.1l-4.3,2.8a75.6,75.6,0,0,0-139.6,40.3v2.7h7.9a2.7,2.7,0,0,1,2.2,1.2,3,3,0,0,1,0,2.6l-20.9,36.5a2.8,2.8,0,0,1-2.1,1.3Z"/><path class="cls-2" d="M448.3,25.7c-3.3-2.4-6.7-4.7-10.2-6.8l2.6-4.4a111.1,111.1,0,0,1,10.7,7.2Z"/><path class="cls-2" d="M427.6,13.6c-3.2-1.4-6.4-2.6-9.7-3.7l1.5-4.8c3.5,1.1,6.9,2.4,10.3,3.8Z"/><path class="cls-2" d="M406.7,7c-3.1-.6-6.3-1.1-9.5-1.4l.5-5c3.4.3,6.7.8,10,1.4Z"/><path class="cls-2" d="M387.3,213.6v-5.1A101.2,101.2,0,0,0,488.5,106.8v-5.2a2.6,2.6,0,0,1,2.6-2.5h5.5L475.7,69.8,459,99.1h6a2.6,2.6,0,0,1,2.6,2.5v5.2a81.1,81.1,0,0,1-23.2,57.1,79.1,79.1,0,0,1-56.7,23.7,80.5,80.5,0,0,1-68.3-37.7l4.3-2.7a75.4,75.4,0,0,0,64,35.3,73.9,73.9,0,0,0,53.1-22.2,75.6,75.6,0,0,0,21.7-53.5v-2.7h-7.9a2.5,2.5,0,0,1-2.2-1.2,2.4,2.4,0,0,1,0-2.6l20.8-36.5a2.7,2.7,0,0,1,2.1-1.2,2.3,2.3,0,0,1,2.2,1l26.1,36.5a2.9,2.9,0,0,1,.2,2.7,2.6,2.6,0,0,1-2.3,1.3h-7.9v2.7A106.4,106.4,0,0,1,387.3,213.6Z"/><path class="cls-2" d="M333.4,199.1a111.1,111.1,0,0,1-10.7-7.2l3.1-4c3.3,2.4,6.7,4.7,10.2,6.8Z"/><path class="cls-2" d="M354.7,208.6c-3.5-1.2-6.9-2.5-10.3-3.9l2.1-4.7a102.2,102.2,0,0,0,9.7,3.7Z"/><path class="cls-2" d="M376.3,213.1l-9.9-1.5,1-5c3.1.6,6.3,1.1,9.5,1.4Z"/><path class="cls-3" d="M64.5,60.8V82.1H76.7V68.4a2.6,2.6,0,0,1,2.5-2.6H97.9v-5Z"/><polygon class="cls-3" points="64.5 103.2 64.5 108.5 76.7 108.5 76.7 94.8 76.7 87.2 64.5 87.2 64.5 103.2"/><path class="cls-3" d="M97.9,34.4H43.5V47.8H62a2.6,2.6,0,0,1,2.5,2.6v5.3H97.9ZM90.5,47.6H80.6V42.5h9.9Z"/><path class="cls-2" d="M43.5,34.4H97.9V55.7H64.5v5.1H97.9v5H103v-34a2.6,2.6,0,0,0-2.6-2.5H41a2.5,2.5,0,0,0-2.5,2.5v16h5Z"/><rect class="cls-2" x="64.5" y="108.5" width="12.1" height="5.09"/><rect class="cls-2" x="64.5" y="82.1" width="12.1" height="5.09"/><rect class="cls-2" x="80.6" y="42.5" width="9.9" height="5.09"/><path class="cls-3" d="M59.4,100.6V79.3H5.1v21.3ZM42.2,87.4h9.9v5.1H42.2Z"/><path class="cls-3" d="M59.4,105.7H5.1v21.4H59.4Zm-7.3,13.2H42.2v-5.1h9.9Z"/><path class="cls-3" d="M59.4,74.2V52.9H5.1V74.2ZM42.2,61h9.9v5.1H42.2Z"/><path class="cls-2" d="M64.5,103.2V50.4A2.6,2.6,0,0,0,62,47.8H2.5A2.6,2.6,0,0,0,0,50.4v79.2a2.5,2.5,0,0,0,2.5,2.5H62a2.5,2.5,0,0,0,2.5-2.5V103.2ZM5.1,52.9H59.4V74.2H5.1Zm0,26.4H59.4v21.3H5.1Zm54.3,47.8H5.1V105.7H59.4Z"/><rect class="cls-2" x="42.2" y="61" width="9.9" height="5.09"/><rect class="cls-2" x="42.2" y="87.4" width="9.9" height="5.09"/><rect class="cls-2" x="42.2" y="113.8" width="9.9" height="5.09"/><path class="cls-3" d="M81.8,97.3v21.3h54.3V97.3Zm37,8.1h9.9v5.1h-9.9Z"/><path class="cls-3" d="M81.8,145.1h54.3V123.7H81.8Zm37-13.3h9.9v5.1h-9.9Z"/><path class="cls-3" d="M81.8,70.9V92.2h54.3V70.9Zm37,8.1h9.9v5.1h-9.9Z"/><path class="cls-2" d="M138.6,65.8H79.2a2.6,2.6,0,0,0-2.5,2.6v79.2a2.5,2.5,0,0,0,2.5,2.5h59.4a2.5,2.5,0,0,0,2.6-2.5V68.4A2.6,2.6,0,0,0,138.6,65.8Zm-2.5,79.3H81.8V123.7h54.3Zm0-26.5H81.8V97.3h54.3Zm0-26.4H81.8V70.9h54.3Z"/><rect class="cls-2" x="118.8" y="79" width="9.9" height="5.09"/><rect class="cls-2" x="118.8" y="105.4" width="9.9" height="5.09"/><rect class="cls-2" x="118.8" y="131.8" width="9.9" height="5.09"/></svg>