<svg id="Layer_1" data-name="Layer 1" xmlns="http://www.w3.org/2000/svg" xmlns:xlink="http://www.w3.org/1999/xlink" viewBox="0 0 36 6.4"><defs><style>.cls-1{fill:none;}.cls-2{fill:#74c26c;}.cls-3{clip-path:url(#clip-path);}.cls-4{opacity:0.5;}.cls-5{fill:#f0f1f3;}</style><clipPath id="clip-path"><rect class="cls-1" x="5" y="153" width="1200.5" height="131.03"/></clipPath></defs><title>MOD-Website-Components-R1</title><path class="cls-2" d="M32.8,0A3.2,3.2,0,0,1,36,3.2a3.2,3.2,0,0,1-6.4,0A3.2,3.2,0,0,1,32.8,0M18,0a3.2,3.2,0,0,1,3.2,3.2,3.2,3.2,0,0,1-6.4,0A3.2,3.2,0,0,1,18,0M3.2,0A3.2,3.2,0,0,1,6.5,3.2,3.2,3.2,0,0,1,3.2,6.4,3.2,3.2,0,0,1,0,3.2,3.2,3.2,0,0,1,3.2,0"/><g class="cls-3"><g class="cls-4"><polyline class="cls-5" points="5.8 283.7 1208 155.9 1208 -475.6 5.8 -572"/></g></g></svg>