<svg id="Layer_1" data-name="Layer 1" xmlns="http://www.w3.org/2000/svg" viewBox="0 0 111.4 114.5"><defs><style>.cls-1{fill:#74c26c;}</style></defs><title>MOD-Website-Components-R1</title><path class="cls-1" d="M110.2,20.3v62L56.9,113.1,5.8,83.6a3.6,3.6,0,0,0,.2-1,3.1,3.1,0,0,0-3-3,3,3,0,0,0-3,3,2.9,2.9,0,0,0,3,3,2.9,2.9,0,0,0,2.2-1l51.7,29.9L111.4,83V20.3Z"/><path class="cls-1" d="M98.2,30.1V75.7h1.2V30.1a3,3,0,0,0,2.4-2.9,2.9,2.9,0,0,0-3-3,3,3,0,0,0-3,3A3.1,3.1,0,0,0,98.2,30.1Z"/><path class="cls-1" d="M14.4,31.8V76l42.2,24.4.6-1L15.6,75.3V31.8a4.5,4.5,0,0,0,3.9-4.5,5.8,5.8,0,0,0-.4-1.8L54.7,5a2.9,2.9,0,0,0,2.2,1,3,3,0,0,0,3-3,2.9,2.9,0,0,0-3-3,3,3,0,0,0-3,3,2.9,2.9,0,0,0,.2.9L18.4,24.5A4.3,4.3,0,0,0,15,22.9a4.5,4.5,0,0,0-4.5,4.4A4.5,4.5,0,0,0,14.4,31.8Z"/></svg>