<svg id="Layer_1" data-name="Layer 1" xmlns="http://www.w3.org/2000/svg" viewBox="0 0 95.9 91.1"><defs><style>.cls-1{fill:#74c26c;}</style></defs><title>MOD-Website-Components-R1</title><path class="cls-1" d="M95.1,66.1a2.4,2.4,0,0,0-.9-.6V34.9a2.1,2.1,0,0,0,1-.6,2.4,2.4,0,0,0,0-3.5,2.1,2.1,0,0,0-1-.6v-12h0L62.6,0h0L0,35.9V72.4L32.4,91.1V70.3c.3-.2.7-.3.9-.6a2.4,2.4,0,0,0,0-3.5,1.8,1.8,0,0,0-.9-.6v-11L61.8,37.7V72.3L94.2,90.9V70.2l.9-.5a2.6,2.6,0,0,0,.7-1.8A2.4,2.4,0,0,0,95.1,66.1ZM63.3,17.2a2.1,2.1,0,0,0,1-.6,2.4,2.4,0,0,0,0-3.5,2.1,2.1,0,0,0-1-.6V2.1l10,5.8L92,18.6,63.3,35.1ZM1.5,71.5V37.6L22,49.5l8.9,5.1v11a2.4,2.4,0,0,0-1.1.6,2.6,2.6,0,0,0,0,3.5,2.4,2.4,0,0,0,1.1.6V88.5ZM31.7,53.3,20.6,47,2.2,36.3,61.8,2.1V12.5a2.7,2.7,0,0,0-1,.6,2.6,2.6,0,0,0,0,3.5,2.7,2.7,0,0,0,1,.6V36ZM63.3,71.5V36.8L92.7,19.9V30.2a2.7,2.7,0,0,0-1,.6,2.6,2.6,0,0,0,0,3.5,2.7,2.7,0,0,0,1,.6V65.5a2.4,2.4,0,0,0-1.1.6,2.4,2.4,0,0,0-.7,1.8,2.6,2.6,0,0,0,.7,1.8,2.4,2.4,0,0,0,1.1.6V88.4Z"/></svg>