<svg id="Layer_1" data-name="Layer 1" xmlns="http://www.w3.org/2000/svg" viewBox="0 0 1439.4 851.2"><defs><style>.cls-1{fill:#f0f1f3;}</style></defs><title>MOD-Website-Components-R1</title><path class="cls-1" d="M1386.1,712.9l1.2.7v-1.4l1.2-.7-1.2-.7V540.5L1338,512.3V456.7l48.1-27.5,1.2.6v-1.3l1.2-.7-1.2-.7V371.6l48.2-27.7,1.1.7v-1.4l1.2-.7-1.2-.7V254.9a5.1,5.1,0,0,0,1.6-.9,4,4,0,0,0,0-5.6,3.9,3.9,0,0,0-1.6-1V229.5l1.2-.6L1408.5,212l-21.1-12.1V87.9l1.2-.7L1374.3,79l-38.6-22.1v1.3L1190,141.9V29.8L1138.2,0V170.2l-49.5-28.4h0L1043,115.6l47-27,1.2.6V87.9l1.2-.7-1.2-.7V56.6a3.9,3.9,0,0,0,1.6-1,4,4,0,0,0,0-5.6,5.1,5.1,0,0,0-1.6-.9V29.8L1039.5.1V58.3l-99.9,57.4L988.8,144l-47,26.9-1.1-.6v1.2l-48.3,27.7-1.2-.7v1.4l-1.2.7.4.2h-.2l1,.6v18a4.2,4.2,0,0,0-1.4.9,3.9,3.9,0,0,0,0,5.6,4.2,4.2,0,0,0,1.4.9v30l-47,26.9V173.3l48.4-27.8,1.2.7v-1.4l1.2-.7-1.2-.7V87.8l99.9-57.3L941.9.9,843.2,57.6l-1.2-.7v1.4l-1.2.6,1.2.7V77.5a3.9,3.9,0,0,0,0,7.5v30.3l-47.1,26.9V29.8L742.8.3V116.1l48.8,28L744.5,171l-48.2-27.6V113.3a3.9,3.9,0,0,0,1.6-1,4,4,0,0,0,0-5.6,5.1,5.1,0,0,0-1.6-.9V87.9l1.2-.7-1.2-.7h0L644.6,56.9v1.3L498.9,141.9V29.8L447.1,0V20.6a3.4,3.4,0,0,0-1.6,1,3.8,3.8,0,0,0,0,5.5,3.4,3.4,0,0,0,1.6,1V170.2l-49.5-28.4h0l-45.7-26.3,47-27,1.2.6V87.9l1.2-.7-1.2-.7V56.6a4.7,4.7,0,0,0,1.6-1,4,4,0,0,0,0-5.6,6.5,6.5,0,0,0-1.6-.9V29.8L348.3.1V20.7a3.9,3.9,0,0,0-1.6,1,4,4,0,0,0,0,5.6,5.1,5.1,0,0,0,1.6.9V58.3l-99.8,57.4L297.7,144l-47.1,26.9-1-.6v1.2l-48.3,27.7-1.2-.7v1.4l-1.2.7.3.2H199l1.1.6v18a6,6,0,0,0-1.5.9,4,4,0,0,0,0,5.6l1.5.9v30l-47,26.9V173.3l48.4-27.8,1.1.7v-1.4l1.2-.7-1.2-.7V87.8l100-57.3L250.8.9,152,57.6l-1.1-.7v1.3l-1.2.7,1.2.7V77.5a3.4,3.4,0,0,0-1.6,1,3.8,3.8,0,0,0,0,5.5,3.4,3.4,0,0,0,1.6,1v30.3l-47.1,26.9V29.8L51.7.3V116.1l48.7,28L53.4,171,2.8,142.1V313.7l-1.2.6,1.8,1.1,48.6,28v54.1L2.8,369.1V485.4L52,513.6v18a6,6,0,0,0-1.5.9,4,4,0,0,0,0,5.6,6,6,0,0,0,1.5.9v30.2L3.9,596.8l-1.1-.7v1.4l-1.2.6,1.2.7v56.9l51.7,29.9V652.3a6,6,0,0,0,1.5-.9,4,4,0,0,0,0-5.6,6,6,0,0,0-1.5-.9V628.4l47,27v.2l48,27.6L53.2,738.4l-1.2-.6v1.3l-1.2.7,1.2.7v17.9a5.1,5.1,0,0,0-1.6.9,4,4,0,0,0,0,5.6,3.9,3.9,0,0,0,1.6,1v31.5l51.7,29.8V769l47-27.1v55.4L202.5,827V712.2l1.2-.7-50.5-29V652.3a6,6,0,0,0,1.5-.9,4.4,4.4,0,0,0,1.1-2.9,4.3,4.3,0,0,0-1.1-2.8,6,6,0,0,0-1.5-.9V628.5l45.9,26.3H199l1.2.7h0l49.3,28.3v18a4.2,4.2,0,0,0-1.4.9,4,4,0,0,0,0,5.6,4.2,4.2,0,0,0,1.4.9v86.5l-1.2.7,1.2.7h0L301.3,827v-1.4L399,769.7l.9.5v-1.1l1.2-.7-1.2-.7V712.1l48.1-27.7,1.2.6v-1.3l1.1-.7-1.1-.7V628.8l47.2,26.6v.3l51.6,29.7V627.2l48.2-27.6,1,.6V599l47-27V682.5l-97.6,56-1.2-.7v1.4l-1.2.7,1.2.7v17.9a2.9,2.9,0,0,0-1.6.9,4,4,0,0,0,0,5.6,2.9,2.9,0,0,0,1.6.9v31.4L597.4,827V794.2a5.6,5.6,0,0,0,1.7-.9,4,4,0,0,0,0-5.6,4.2,4.2,0,0,0-1.7-1V768.8L695,712.9l1.1.7v-1.4l1.2-.7-1.2-.7V657l49.5,28.6V652.7a4.2,4.2,0,0,0,1.6-.9,3.9,3.9,0,0,0,.8-4.4,2.9,2.9,0,0,0-.9-1.6,3.8,3.8,0,0,0-1.5-.9V628.4l47,27v.2l48,27.6-96.3,55.2-1.2-.6v1.3l-1.1.7,1.1.7v17.9a6.5,6.5,0,0,0-1.6.9,4,4,0,0,0,0,5.6,4.7,4.7,0,0,0,1.6,1v31.5l51.8,29.8V794.4a3.9,3.9,0,0,0,1.6-1,4,4,0,0,0,0-5.6,5.1,5.1,0,0,0-1.6-.9V769l47-27.1v55.4L893.6,827V737.5a5.1,5.1,0,0,0,1.6-.9,3.9,3.9,0,0,0,0-5.6,3.9,3.9,0,0,0-1.6-1V712.2l1.2-.7-50.4-29V652.3a4.2,4.2,0,0,0,1.4-.9,4,4,0,0,0,0-5.6,4.2,4.2,0,0,0-1.4-.9V628.5l45.8,26.3h0l1.2.7h0l49.2,28.3v18a4.2,4.2,0,0,0-1.4.9,4,4,0,0,0,0,5.6,4.2,4.2,0,0,0,1.4.9v86.5l-1.2.7,1.2.7h0L992.4,827v-1.4l97.7-55.9,1,.5v-1.1l1.2-.7-1.2-.7V737.5a3.4,3.4,0,0,0,1.6-1,3.8,3.8,0,0,0,0-5.5,3.4,3.4,0,0,0-1.6-1V712.1l48.1-27.7,1.2.6v-1.3l1.2-.7-1.2-.7V628.8l47.2,26.6v.3l51.6,29.7.2-58.2,48.1-27.6,1,.6V599l47.1-27V682.5l-97.6,56-1.1-.7v1.4l-1.2.7,1.2.7v17.9a2.6,2.6,0,0,0-1.6.9,3.9,3.9,0,0,0,0,5.6,2.6,2.6,0,0,0,1.6.9v31.4l51.6,29.7V768.8Zm-1.2-171V709.5l-46.9-27V571.9h.1v-1.3l1.2-.7-1.2-.7V515.1ZM1335.7,511h-.2v56.9l-43.8-25.2-3-1.7v-56l47-26.9Zm-247,48.7a3.4,3.4,0,0,0-1.6,1,3.7,3.7,0,0,0-.5,4.9,2.4,2.4,0,0,0,.6.9,3.8,3.8,0,0,0,1.5.9v86.7l-48.2,27.5-1.2-.6v1.3l-1.2.7,1.2.7v17.9a3.7,3.7,0,0,0-1.6.9,3.9,3.9,0,0,0,0,5.6,3.9,3.9,0,0,0,1.6,1v30.4l-46.9,26.8V655.8l48.5-27.8.9.5v-1l1.2-.7-1.2-.7V570.5l46.8-27Zm.1,152.4V730a3.6,3.6,0,0,0-1.5,1,3.8,3.8,0,0,0,0,5.5,3.6,3.6,0,0,0,1.5,1v28.6l-47-26.8V709a2.9,2.9,0,0,0,1.6-.9,4,4,0,0,0,0-5.6,5.1,5.1,0,0,0-1.6-.9V685l2.6,1.5ZM644.4,567.8l-41.2-23.7-5.6-3.2v-56L644.5,458v53h-.1ZM397.5,560a3,3,0,0,0-1.5.9,3.9,3.9,0,0,0,0,5.5,4.4,4.4,0,0,0,1.5,1v86.7l-48.2,27.5-1.1-.6v1.3l-1.2.7,1.2.7v17.9a3.8,3.8,0,0,0-1.7,6.5,4.2,4.2,0,0,0,1.7,1v30.4l-46.9,26.8V655.8L349.7,628l1,.5v-1l1.2-.7-1.2-.7V595.9a4.2,4.2,0,0,0,1.7-1,4,4,0,0,0,0-5.6,3.2,3.2,0,0,0-1.7-.9V570.5l46.8-27Zm.1,152.1v54l-47-26.8V709a2.6,2.6,0,0,0,1.6-.9,3.9,3.9,0,0,0,0-5.6,4.2,4.2,0,0,0-1.6-.9V685l20.9,12ZM54.4,570.6l47-27v16.5a3.8,3.8,0,0,0-1.5.9,3.9,3.9,0,0,0,0,5.6,3.8,3.8,0,0,0,1.5.9v30.1l-47,27.1Zm50.5-407.1a3.9,3.9,0,0,0-1.6-1V146l46.6,26.4-46.6,26.8V170a5.1,5.1,0,0,0,1.6-.9A4,4,0,0,0,104.9,163.5Zm640.7,35a4.2,4.2,0,0,0,1.7-1,4,4,0,0,0,0-5.6,1.8,1.8,0,0,0-.7-.5l-1-.5V174.4l46.5,26.7v56.4l-46.5,26.6V254.9a3.8,3.8,0,0,0,1.5-.9,3.9,3.9,0,0,0,0-5.6,3.1,3.1,0,0,0-1.5-1V229.5l1.1-.6-1.1-.7ZM841,172.4l-46.6,26.8V146Zm494.7-54.8v54.2l-48.2,27.8-1.2-.6v1.3l-1.2.7,1.2.7v17.9a5.1,5.1,0,0,0-1.6.9,4,4,0,0,0,0,5.6,3.9,3.9,0,0,0,1.6,1v29.4l-47,27.1V198.4a3.8,3.8,0,0,0,1.7-6.5,4.2,4.2,0,0,0-1.7-1V173.1Zm97.4,111.3-45.8,26.3V226.9a4,4,0,0,0,1.7-.9,3.9,3.9,0,0,0,0-5.6,3.7,3.7,0,0,0-1.7-1V202.9h0v-.3l22.2,12.7Zm-48.2,84.5-48.1,27.9-1.2-.7V342l-1.2.7,1.2.6v17.9a3.4,3.4,0,0,0-1.6,1,3.9,3.9,0,0,0,0,5.6,4.2,4.2,0,0,0,1.6.9v28.8l-49.2-28.2v57.6l-47,27V343.4l97.6-55.9,1.1.7v-1.4l1.2-.7-.5-.2,46.2-26.6Zm0,112.3-47-27.1V368.7a4.2,4.2,0,0,0,1.6-.9,3.9,3.9,0,0,0,0-5.6,3.4,3.4,0,0,0-1.6-1V344.7l47,26.9Zm-144.1,49.9a3.4,3.4,0,0,0-1.6-1V458.5h.1v-.4l23.7,13.6,23.2,13.3v56l-47,27V482.1a3.4,3.4,0,0,0,1.6-1A3.8,3.8,0,0,0,1240.8,475.6Zm-691,6a4.2,4.2,0,0,0,1-3.8,4.5,4.5,0,0,0-1.1-2.3,5.1,5.1,0,0,0-1.6-.9V458.5h.1v-.4l13,7.5L595,485v56l-47,27V482.5A4,4,0,0,0,549.8,481.6ZM153.2,595.9a3.4,3.4,0,0,0,1.6-1,3.9,3.9,0,0,0,0-5.6,4.2,4.2,0,0,0-1.6-.9V570.5l1.2-.7-1.3-.8V539.1a3.8,3.8,0,0,0,1.8-1.1,3.9,3.9,0,0,0,0-5.5,3.6,3.6,0,0,0-1.8-1V514.9h.2v-1.2l46.8-26.9V597.4l-46.9,26.8Zm49.4-393L249.5,230v17.4a3.7,3.7,0,0,0-1.6.9,4.1,4.1,0,0,0-1,3.8,3.8,3.8,0,0,0,1.1,2.4l1.5.9v28.3l-46.9-26.8v-30a5.1,5.1,0,0,0,1.6-.9,4,4,0,0,0,0-5.6,3.9,3.9,0,0,0-1.6-1ZM299,219.4a3.4,3.4,0,0,0-1.6,1,3.9,3.9,0,0,0,0,5.6,4.2,4.2,0,0,0,1.6.9v29.7l-1.3.8h.3L252,284V255.4a5.1,5.1,0,0,0,1.6-.9,4.1,4.1,0,0,0,1-3.8,3.8,3.8,0,0,0-1.1-2.4,4.6,4.6,0,0,0-1.5-.9V230.1l47-27.2Zm199.9-19.2V169.7a4.2,4.2,0,0,0,1.4-.9,4,4,0,0,0,0-5.6,4.2,4.2,0,0,0-1.4-.9V146.1L545.8,173V284.9l-1.3.7.4.2-46.2,26.6V202.8l.2.2v-1.4l1.2-.7Zm98.6,26.9a4.2,4.2,0,0,0,1.7-1,4,4,0,0,0,0-5.6,5.6,5.6,0,0,0-1.7-.9V203.1l45.4,26-45.5,26.1Zm296.2,56.5a5.1,5.1,0,0,0,1.6-.9,4,4,0,0,0,0-5.6,2.9,2.9,0,0,0-1.6-.9V259.7l45.8,26.1-45.8,26.3ZM1190,200.2V169.7a4.2,4.2,0,0,0,1.4-.9,3.9,3.9,0,0,0,0-5.6,4.2,4.2,0,0,0-1.4-.9V146.1l46.9,26.9v18a2.7,2.7,0,0,0-1.5.9,3.9,3.9,0,0,0,0,5.6,4.6,4.6,0,0,0,1.5.9v86.5l-1.2.7.4.2-46.3,26.6V227a3.2,3.2,0,0,0,1.8-1,3.9,3.9,0,0,0,0-5.6,4,4,0,0,0-1.8-1V202.8l.2.2v-1.4l1.2-.7Zm98.7,26.9a3.9,3.9,0,0,0,1.6-1,4,4,0,0,0,0-5.6,5.1,5.1,0,0,0-1.6-.9V203.1l45,25.8.4.2-45.4,26.1Zm1.2-26.1,47-27.2,46.7,26.9-47.1,27-1.7-.9Zm-26.8,268-22.7-13,45.9-26.4v52.8Zm-173.2-42.6L1043,399.5l46.9-27,46.8,26.9Zm-2.7,83.8a2.9,2.9,0,0,0,1.6.9v28.1h-.1l-45.8-26.3,45.9-26.4v17.3a5.1,5.1,0,0,0-1.6.9A4,4,0,0,0,1087.2,510.2Zm-341.6,2V482a3.8,3.8,0,0,0,1.5-.9,3.9,3.9,0,0,0,0-5.6,3.8,3.8,0,0,0-1.5-.9V458.1l45.9,26.5h-.1l50.4,29v18a5.5,5.5,0,0,0-1.4.9,4,4,0,0,0,0,5.6,5.5,5.5,0,0,0,1.4.9v28.6l-46.9-27h0ZM557.7,460.9l-8.4-4.9,45.9-26.4v52.8ZM447,361.1a4.2,4.2,0,0,0-1.7,1,3.9,3.9,0,0,0,0,5.6,4.2,4.2,0,0,0,1.7,1v28.6L401.4,371,447,344.7Zm-48.3,65.3-46.9-26.9,47-27,46.8,26.9Zm-2.6,83.8a2.9,2.9,0,0,0,1.6.9v28.1h-.2l-45.7-26.3,45.9-26.4v17.3a5.1,5.1,0,0,0-1.6.9A4,4,0,0,0,396.1,510.2Zm-47.7,60.3v17.9a4.2,4.2,0,0,0-1.6.9,3.9,3.9,0,0,0,0,5.6,2.6,2.6,0,0,0,1.6.9v28.7l-46-26.3h.2l-1.2-.6V567.4a3.9,3.9,0,0,0,1.6-1,4,4,0,0,0,0-5.6,5.1,5.1,0,0,0-1.6-.9V543.4l1.4.8ZM103.9,259.9l45.5,26L103.8,312Zm45.2,50.9a4,4,0,0,0,1.8,1v28.6l-45.5-26.1,45.5-26.2v16.1a3.2,3.2,0,0,0-1.8,1A3.9,3.9,0,0,0,149.1,310.8Zm1.8,32.4v54.4h-.2v1.3l-46.9,26.9V316.1ZM252,174.4l45.4,26.3-45.4,26Zm196.3,56.3.4-.2.6.4v-.7l47-27.1V313.4l-46.9,27V285.1l-48.3-27.8,46.7-26.9ZM795,283.9a3.7,3.7,0,0,0,1.6-.9,4,4,0,0,0,.1-5.5l-.7-.9-1-.7v-16l45.5,26L795,312Zm45.2,21.3a3.8,3.8,0,0,0-.7,4.4,2.9,2.9,0,0,0,.9,1.6,3.9,3.9,0,0,0,1.6,1v28.2l-45.5-26.1L842,288.1v16.1A3.6,3.6,0,0,0,840.2,305.2Zm299.2-74.5.4-.2.6.4v-.7l47-27.1v16.5a2.6,2.6,0,0,0-1.3.8,3.9,3.9,0,0,0,0,5.6,3.8,3.8,0,0,0,1.3.9v86.5l-46.9,27V311.8a4.2,4.2,0,0,0,1.6-.9,3.9,3.9,0,0,0,0-5.6,3.4,3.4,0,0,0-1.6-1V285.1l-48.2-27.8,46.6-26.9Zm196.2.2v53.2l-46.2-26.7ZM1287.5,259l46.5,26.9-46.6,26.7-46.6-26.8ZM1190,340.4a3.7,3.7,0,0,0,1.6-.9,4,4,0,0,0,.4-5.1l-.6-.8a4.2,4.2,0,0,0-1.4-.9V316.4l23.8,13.7,21.8,12.5L1190,368.9Zm1.3-26.1,45.6-26.2v52.4Zm-54.7-3.4a4.2,4.2,0,0,0,1.6.9v28.8l-47.1-26.9V283.4a3.9,3.9,0,0,0,1.6-1,4,4,0,0,0,0-5.6,3.7,3.7,0,0,0-1.6-.9V259.8h.2v-.4l46.9,27v17.8a3.4,3.4,0,0,0-1.6,1A3.9,3.9,0,0,0,1136.6,310.9ZM994.1,396.3a3.9,3.9,0,0,0,.4-5,1.8,1.8,0,0,0-.5-.7,3.9,3.9,0,0,0-1.6-1V373.2l45.6,26.2-45.6,26.3V397.3A4.2,4.2,0,0,0,994.1,396.3Zm-.2-62.8a4.2,4.2,0,0,0-1.6-.9V316.3h.2v-.2l45.7,26.3L992.4,369V340.1a3.4,3.4,0,0,0,1.6-1A3.9,3.9,0,0,0,993.9,333.5Zm45.5,27.6a5.6,5.6,0,0,0-1.7.9,4,4,0,0,0,0,5.6,4.2,4.2,0,0,0,1.7,1v28.8l-45.7-26.2,45.6-26.3Zm2.3,7.5a3.4,3.4,0,0,0,1.6-1,3.9,3.9,0,0,0,0-5.6,4.2,4.2,0,0,0-1.6-.9V343.6l47-27.1v53.6l-47,27.1Zm-2.3,32.7v16.8a2.9,2.9,0,0,0-1.6.9,4,4,0,0,0,0,5.6,5.1,5.1,0,0,0,1.6.9V454l-45.9-26.2Zm49.3-125.4a3.7,3.7,0,0,0-1.6.9,4,4,0,0,0,0,5.6,3.9,3.9,0,0,0,1.6,1v30.4l-47.9,27.5-46.7-26.9,94.6-54.7Zm-96.2,36.7V259.5l46.1,26.4Zm-2.5,20a4.2,4.2,0,0,0-1.6.9,3.9,3.9,0,0,0,0,5.6,3.4,3.4,0,0,0,1.6,1V369l-45.8-26.5L990,316.1Zm101.1-16.2,45.9,26.3-45.9,26.4Zm-4-58.9-46.5,26.8-46.8-26.8,46.6-26.9Zm-96.9,54.6H990v.2l-45.7-26.1,45.8-26.5Zm-47,.1a4.4,4.4,0,0,0,1.5-1,4.3,4.3,0,0,0-.1-5.9,3.8,3.8,0,0,0-1.5-.9V288.2l45.2,26.1-45.1,26.1ZM943,425.8a4.6,4.6,0,0,0,1.8-1,4,4,0,0,0,0-5.6,3.6,3.6,0,0,0-1.8-1V401.6h.2v-57L989,371.1h-.1l1.1.6v17.8a4,4,0,0,0-2.1,6l.6.7a3.8,3.8,0,0,0,1.5.9v29.9l-1.3.7,1.3.7V539.3l-46.9-27.1V482.5a6.5,6.5,0,0,0,1.6-.9,4,4,0,0,0,0-5.6,4.7,4.7,0,0,0-1.6-1V457.1l1.1-.6-1.1-.7H943Zm.2,170.1a4.2,4.2,0,0,0,1.4-.9,3.9,3.9,0,0,0,0-5.6,4.2,4.2,0,0,0-1.4-.9V572l31,17.7,14.6,8.4-45.6,26.2Zm46.9-36a5.6,5.6,0,0,0-1.7.9,4.3,4.3,0,0,0-1.1,2.8,4.4,4.4,0,0,0,1.1,2.9,5.6,5.6,0,0,0,1.7.9v28.7l-11.6-6.6-35.3-20.2V515l45.7,26.3h0l1.2.7ZM939.6,456.5l-45.8,26.2v-29a2.4,2.4,0,0,0,1.4-.9,3.8,3.8,0,0,0,0-5.5,3.1,3.1,0,0,0-1.4-.9V430.3l30.5,17.4ZM796.3,484.6l45.6-26v52.2Zm48.1-59.1a3.1,3.1,0,0,0,1.4-.9,3.8,3.8,0,0,0,0-5.5,3.3,3.3,0,0,0-1.4-1V401.7l45.6,26L844.4,454Zm-2.5-7.4a3.4,3.4,0,0,0-1.6,1,3.8,3.8,0,0,0,0,5.5,3.4,3.4,0,0,0,1.6,1v29.8l-47,27v-54l46.9-26.8Zm-49.4,64.2L746.7,456l45.8-26.2Zm47.9-114.7a3.7,3.7,0,0,0,1.6.9v29.1h-.1v1.3L795,425.7V340.1a3.6,3.6,0,0,0,1.5-1,3.8,3.8,0,0,0,0-5.5,3.6,3.6,0,0,0-1.5-1V316.1l47,27.1v17.9a2.9,2.9,0,0,0-1.6.9A4,4,0,0,0,840.4,367.6Zm-48.6-53.3-46.2,26.5v-29a3.1,3.1,0,0,0,1.5-1,3.8,3.8,0,0,0,0-5.5,3.1,3.1,0,0,0-1.5-1V287.9Zm-98,111.4-47-27.1V368.7a5.1,5.1,0,0,0,1.6-.9,4,4,0,0,0,0-5.6,3.9,3.9,0,0,0-1.6-1V344.7l46.9,26.9v17.9a4.2,4.2,0,0,0-1.7,1,4,4,0,0,0,0,5.6,5.6,5.6,0,0,0,1.7.9Zm1.1-56.1L648,342.7l46.8-27.1,47,27Zm48.2-65.3a4.7,4.7,0,0,0-1.6,1,3.9,3.9,0,0,0,0,5.5,4.7,4.7,0,0,0,1.6,1v28.7l-45.5-26.2,45.5-26.1ZM544.5,342.6l-45.7,26.3V316.4Zm3.6-1.9v-29a3.9,3.9,0,0,0,1.6-1,4,4,0,0,0,0-5.6,5.1,5.1,0,0,0-1.6-.9V287.7l46.2,26.5Zm98.8-85.3a3.9,3.9,0,0,0,1.6-1,4,4,0,0,0,0-5.6,5.1,5.1,0,0,0-1.6-.9V230l46.9-27.1v16.5a3.6,3.6,0,0,0-1.5,1,4,4,0,0,0,0,5.6,4.6,4.6,0,0,0,1.5.9v29.7l-46.9,26.9Zm-2.4-7.5a5.1,5.1,0,0,0-1.6.9,4,4,0,0,0,0,5.6,3.9,3.9,0,0,0,1.6,1v28.7l-46.1-26.7,46.1-26.5ZM596.3,259l46.6,26.9-46.6,26.7-46.6-26.8Zm-50.5,45.2a5.6,5.6,0,0,0-1.7.9,4,4,0,0,0,0,5.6,4.2,4.2,0,0,0,1.7,1v28.8l-45.6-26.2,45.6-26.2ZM447,340.6l-47.1-27V284a5,5,0,0,0,1.9-1,4,4,0,0,0,.7-4.5,4.2,4.2,0,0,0-1-1.7,3.2,3.2,0,0,0-1.6-.9V259.8h.3v-.4l46.8,27Zm-98.8,20.5a5.1,5.1,0,0,0-1.6.9,4,4,0,0,0,0,5.6,3.9,3.9,0,0,0,1.6,1v28.8l-45.7-26.2,45.7-26.3Zm-1.3,38.3-45.7,26.3V373.2Zm3.7-30.8a3.9,3.9,0,0,0,1.6-1,4,4,0,0,0,0-5.6,5.1,5.1,0,0,0-1.6-.9V343.6l47-27.1v53.6l-47,27.1ZM347,342.5,301.2,369V340.1a3.9,3.9,0,0,0,1.6-1,4,4,0,0,0,0-5.6,5.1,5.1,0,0,0-1.6-.9V316.3h.2v-.2L328,331.5Zm1.2,58.8v16.8a2.7,2.7,0,0,0-1.5.9,3.9,3.9,0,0,0,0,5.6,4.6,4.6,0,0,0,1.5.9V454l-45.9-26.2Zm49.4-125.4a3.2,3.2,0,0,0-1.6.9,3.8,3.8,0,0,0-.8,4.5,4.2,4.2,0,0,0,1,1.7,4.2,4.2,0,0,0,1.4.9v29.9l-47.9,27.5-22.1-12.8L303,314.4l94.6-54.7Zm-96.2,36.7V283.4a6,6,0,0,0,1.5-.9,4,4,0,0,0,0-5.6,3,3,0,0,0-1.5-.9V259.5l46.1,26.4Zm-2.6,20a6.5,6.5,0,0,0-1.6.9,4,4,0,0,0,0,5.6,4.7,4.7,0,0,0,1.6,1V369L253,342.5l45.8-26.4Zm101.1-16.2,46,26.3-46,26.4ZM396,257.5l-46.6,26.8-46.7-26.8,46.5-26.9Zm-97,18.4a4.2,4.2,0,0,0-1.7,1,3.9,3.9,0,0,0,0,5.6,4,4,0,0,0,1.7.9v28.7h-.2v.2l-45.7-26.1L299,259.6Zm-47,36.3a3.1,3.1,0,0,0,1.5-1,3.8,3.8,0,0,0,0-5.5,3.1,3.1,0,0,0-1.5-1V288.2l45.2,26.1L252,340.4Zm0,32.5,45.9,26.4h-.1l1.1.6v55.3l-1.3.7,1.3.7V539.3L252,512.2V457.1l1.2-.6-1.2-.7h-.2V401.6h.2Zm-3.6,111.8-45.8,26.2V454.3a4.2,4.2,0,0,0,1.7-1,4.1,4.1,0,0,0,.8-4.4,3.4,3.4,0,0,0-1-1.6,2.9,2.9,0,0,0-1.5-.9V430.3l33.2,18.9ZM153.3,454V401.7l45.6,26Zm-2.6-52.4v53.8l-46.9,27v-54Zm0,57v52.2l-45.6-26.2Zm2.6-1.5,46.8-26.7v15.9a3.9,3.9,0,0,0-1.6,1,3.8,3.8,0,0,0-.8,4.4,3.4,3.4,0,0,0,1,1.6,2.4,2.4,0,0,0,1.4.9v30l-46.8,26.9Zm49.3,28.4,46.9-26.9v54.9h.2v54.3h-.2v1.3L202.6,596ZM252,595.9a3.8,3.8,0,0,0,1.5-.9,4,4,0,0,0,0-5.6,3.8,3.8,0,0,0-1.5-.9V572l29.4,16.8,16.3,9.3-45.6,26.2Zm-2.5-24v16.6a2.9,2.9,0,0,0-1.6.9,4,4,0,0,0,0,5.6,2.9,2.9,0,0,0,1.6.9v29.9l-46.9,26.9v-54Zm49.4-12a5.1,5.1,0,0,0-1.6.9,4,4,0,0,0,0,5.6,3.9,3.9,0,0,0,1.6,1v28.7l-47-26.8V515l45.8,26.3h-.1l1.2.7Zm2.3-130L348.3,457v17.6a4.2,4.2,0,0,0-1.6.9,3.9,3.9,0,0,0-1.1,2.1,3.7,3.7,0,0,0,1,3.8,4.2,4.2,0,0,0,1.7,1v29.7l-1.3.7.3.2-46,26.3Zm49.4,80.8V482.3a5.1,5.1,0,0,0,1.6-.9,4.1,4.1,0,0,0,1-2.1,3.7,3.7,0,0,0-1-3.8,4.2,4.2,0,0,0-1.6-.9V456.9l47.1-27.2v54Zm0-56.5V425.5a5.6,5.6,0,0,0,1.7-.9,4,4,0,0,0,0-5.6,4.2,4.2,0,0,0-1.7-1V401.5l45.7,26.3Zm99.8-111.6,46.1-26.5V369Zm48.4,29.1,47-27.1V454h-.1v.4l-46.9-27.1Zm49.4,82.2V343.4l97.5-55.9,1.2.7v-1.4l1.2-.7-.5-.2,46.2-26.6v54.1l-48.2,27.9-1.2-.7V342l-1.2.7,1.2.6v17.9a3.9,3.9,0,0,0-1.6,1,4,4,0,0,0,0,5.6,5.1,5.1,0,0,0,1.6.9v28.8l-49.2-28.2v57.6Zm49.3-80.6L643,399.4l-45.4,26.1Zm145.6-28.7v16.5a6.5,6.5,0,0,0-1.6.9,4,4,0,0,0-.7,4.5,3.1,3.1,0,0,0,.9,1.4,4.2,4.2,0,0,0,1.4.9v28.7L697.2,371Zm2.4,24.3a4,4,0,0,0,1.8-1,3.8,3.8,0,0,0,.3-5.2,1.8,1.8,0,0,0-.5-.7,5.1,5.1,0,0,0-1.6-.9V344.8h.1v-1.3l46.9-26.9v16a3.1,3.1,0,0,0-1.5,1,3.8,3.8,0,0,0,0,5.5,3.1,3.1,0,0,0,1.5,1v87l-46.9,26.8V425.7a4.2,4.2,0,0,0,1.6-.9,3.9,3.9,0,0,0,0-5.6,3.4,3.4,0,0,0-1.6-1V399h-.1Zm98.9,88.2,46.8-26.7v15.9a4.7,4.7,0,0,0-1.6,1,3.9,3.9,0,0,0,0,5.5,4.7,4.7,0,0,0,1.6,1v30.4l-46.9,26.9Zm49.4,28.4,46.8-26.9v16.5a4.2,4.2,0,0,0-1.4.9,3.9,3.9,0,0,0,0,5.6,4.2,4.2,0,0,0,1.4.9v31h.2v54.3h-.1v1.3l-47,26.8Zm46.9,86.4v16.6a2.6,2.6,0,0,0-1.6.9,3.9,3.9,0,0,0,0,5.6,2.6,2.6,0,0,0,1.6.9v29.9l-46.9,26.9v-54Zm51.8,25.6V567.4a4.2,4.2,0,0,0,1.6-.9,3.9,3.9,0,0,0,1.2-2.8,4,4,0,0,0-1.2-2.9,4.2,4.2,0,0,0-1.6-.9V543.4l47.1,27.1v54l-46-26.3h.1Zm-.1-167.6,47,27.1v55.1l-1.3.7.4.2-46.1,26.3Zm49.4,80.8V456.9l47.1-27.2v54Zm0-56.5V425.5a3.7,3.7,0,0,0,1.6-.9,4,4,0,0,0,0-5.6,3.9,3.9,0,0,0-1.6-1V401.5l45.7,26.3Zm50.8-83.2,45.6-26.3v52.6Zm49-28.4,46-26.5v16.5a4.6,4.6,0,0,0-1.8,1,4,4,0,0,0-.3,5.2l.5.7a5.1,5.1,0,0,0,1.6.9V369Zm48.4,54.5a4.4,4.4,0,0,0,1.5-1,3.9,3.9,0,0,0,0-5.5,4.4,4.4,0,0,0-1.5-1V371.7l46.9-27.1V454h0v.4l-47-27.1Zm49.3-56.4v-53l46.1,26.5Zm-52.8-139.8-46.1,26.5V198.6a3.9,3.9,0,0,0,2.6-5.4,3.1,3.1,0,0,0-1-1.5,3.4,3.4,0,0,0-1.6-1V174.5Zm-48.4-10.2a3.4,3.4,0,0,0-1.6,1,3.9,3.9,0,0,0-.8,4.4,6,6,0,0,0,.9,1.5,3.8,3.8,0,0,0,1.5.9v28.3l-37.6-21.5-7.9-4.5,45.5-26.2Zm-46.8,36.2,1.5-.9a4.1,4.1,0,0,0,1-3.8,4.7,4.7,0,0,0-1.1-2.1,4.2,4.2,0,0,0-1.4-.9V203l45.2,26.1-45.2,26ZM989.1,257.5l-46,26.5V254.8a3.8,3.8,0,0,0,1.5-.9,3.9,3.9,0,0,0,0-5.6,3.8,3.8,0,0,0-1.5-.9V230.1l47-27.2v53.7l-1.3.8Zm-.5-56.8-45.5,26V198.4a5.1,5.1,0,0,0,1.6-.9,4,4,0,0,0,0-5.6,3.9,3.9,0,0,0-1.6-1V174.4Zm-47.9-9.8a4.7,4.7,0,0,0-1.6,1,4,4,0,0,0,0,5.6,6.5,6.5,0,0,0,1.6.9v28.4l-45.6-26,45.6-26.4Zm0,39.1v17.4a3.2,3.2,0,0,0-1.6.9,3.9,3.9,0,0,0,0,5.6,3.4,3.4,0,0,0,1.6,1v28.8l-47-26.8v-30a4.2,4.2,0,0,0,1.6-.9,3.9,3.9,0,0,0,0-5.6,3.4,3.4,0,0,0-1.6-1V202.9Zm.1,57.8v16.5a4.2,4.2,0,0,0-1.7,1,3.8,3.8,0,0,0-1.2,3.1,3.9,3.9,0,0,0,1.2,2.8,4.2,4.2,0,0,0,1.7,1v28.4h-.2v1.3l-1.2.7,1.2.7v54.3l-46.9-27V314.8Zm-.2,112.4v18.1a4.2,4.2,0,0,0-1.4.9,4,4,0,0,0,0,5.6,4.2,4.2,0,0,0,1.4.9v28.6l-11.9-6.8-34.2-19.6.3-.2-50.4-28.8V368.5a2.9,2.9,0,0,0,1.6-.9,4,4,0,0,0,0-5.6,3.9,3.9,0,0,0-1.6-1V343.2l47-27v55.7Zm-148-140.3v15.6a3.6,3.6,0,0,0-2.1,1.1,3.8,3.8,0,0,0-.1,5.5l.6.9a3.7,3.7,0,0,0,1.6.9V312l-45.5-26Zm-49.4-12.5a3.4,3.4,0,0,0-1.6,1,3.9,3.9,0,0,0,0,5.6,4.2,4.2,0,0,0,1.6.9v28.8h-.1v1.8l-46.8,26.8V257.9l46.9-27Zm-97.5-73.6,46.7,26.9-47.1,27L598.7,201ZM495.3,200.9l-46,26.5V174.5Zm-95.1,26a4.2,4.2,0,0,0,1.4-.9,3.9,3.9,0,0,0,1-3.8,3.9,3.9,0,0,0-1.1-2.1,3.8,3.8,0,0,0-1.3-.9V203l45.2,26.1-45.2,26Zm-150.6-.1-45.6-26,45.6-26.4Zm-1.3,59-45.7,26.3V259.7Zm1.3,2v16.9a3.3,3.3,0,0,0-1.7,1,3.9,3.9,0,0,0,0,5.5,4.2,4.2,0,0,0,1.7,1v28.4h-.2v1.3l-1.2.7,1.2.7v54.3l-46.9-27V314.8Zm-49.4,84.1,49.3,28.3v54.1l-9.4-5.3-36.8-21.1.4-.2-50.4-28.8V343.2l47-27Zm-98.7-112V312L56,286ZM349.6,568.4l-46.4-26.6-.7-.4,47-26.9,21.3,12.2,25.7,14.7Zm98.5-113.7-48,27.6V428.4l47.8-27.7,1.5.9v-1.7l1.1-.6-1.1-.7v-30a6,6,0,0,0,1.5-.9,4,4,0,0,0,0-5.6,6,6,0,0,0-1.5-.9V344.7l47.1,27.1v55.5L448.6,455Zm149.5-26.4,46.9-27v16.5a4.2,4.2,0,0,0-1.7,1,4,4,0,0,0,0,5.6,4.2,4.2,0,0,0,1.7,1v29.9l-46.9,26.9Zm49.3-3a6,6,0,0,0,1.5-.9,4,4,0,0,0,0-5.6,6,6,0,0,0-1.5-.9V401.4l45.7,26.4-45.7,26.1Zm49.4,28.5a4.2,4.2,0,0,0,1.4-.9,3.9,3.9,0,0,0,0-5.6,4.2,4.2,0,0,0-1.4-.9v-18l1-.6-1-.6V397a4.2,4.2,0,0,0,1.4-.9,3.9,3.9,0,0,0,0-5.6,4.2,4.2,0,0,0-1.4-.9V373.2l46.8,27.1v18a4.2,4.2,0,0,0-1.4.9,3.9,3.9,0,0,0,0,5.6,4.2,4.2,0,0,0,1.4.9v29.6l-1.2.7,1.4.8v17.7a4,4,0,0,0-1.8,1,4,4,0,0,0,0,5.6,4,4,0,0,0,1.8,1v28.8h-.2L696.3,484Zm49.2,85.3a4.2,4.2,0,0,0,1.7-1,3.9,3.9,0,0,0,0-5.6,4.2,4.2,0,0,0-1.7-1V515h.1l45.9,26.4-46,26.5Zm98.9,56.8a3.9,3.9,0,0,0,1.6-1,4,4,0,0,0,0-5.6,5.1,5.1,0,0,0-1.6-.9V570.5l1.2-.7-1.4-.8V539.2a3.2,3.2,0,0,0,1.8-1,3.9,3.9,0,0,0,0-5.6,4,4,0,0,0-1.8-1V514.9h.2v-1.2l46.9-26.9V597.4l-46.9,26.8Zm196.3-27.5-47.1-27,47-26.9,47,26.9Zm98.6-113.7-48.1,27.6V428.4l47.8-27.7,1.4.9v-1.7l1.1-.6-1.1-.7V344.7l47.1,27.1v17.8a3.3,3.3,0,0,0-1.7,1,3.8,3.8,0,0,0,0,5.5,4.2,4.2,0,0,0,1.7,1v30.2L1139.7,455Zm149.4-26.4,47-27v16.5a4,4,0,0,0-1.8,1,4,4,0,0,0,0,5.6,4,4,0,0,0,1.8,1v29.9l-47,26.9Zm0-55,45.5,26.1-45.5,26.1Zm49.3-89.8V230l47-27.1v16.5a3.9,3.9,0,0,0-1.6,1,4,4,0,0,0,0,5.6,5.1,5.1,0,0,0,1.6.9v29.7Zm-246.7-84.7v-29a4.2,4.2,0,0,0,1.4-.9,4,4,0,0,0,0-5.6,4.2,4.2,0,0,0-1.4-.9V146l45.9,26.4Zm-2.4,3.7v16.6a4.6,4.6,0,0,0-1.8,1,4.2,4.2,0,0,0-1,3.8,3.6,3.6,0,0,0,1.1,2.1,4.2,4.2,0,0,0,1.7,1v28.4h-.2v.2L1042.9,229Zm-49.4-11.8a4.2,4.2,0,0,0-1.7,1,3.8,3.8,0,0,0,1.7,6.5v30l-47,27.1V201.5l1.2-.6-.4-.2,46.2-26.5ZM891.4,276.1a4.2,4.2,0,0,0-1.7,1,3.9,3.9,0,0,0,0,5.6,3.2,3.2,0,0,0,1.7.9v29.8l-47,27V312.1a2.9,2.9,0,0,0,1.6-.9,4,4,0,0,0,.7-4.5,4.6,4.6,0,0,0-.9-1.5,4.2,4.2,0,0,0-1.4-.9V286.8l1.2-.7-.3-.2,46.1-26.3ZM742,228.9l-45.7,26.2V226.9a5.1,5.1,0,0,0,1.6-.9,4,4,0,0,0,0-5.6,3.9,3.9,0,0,0-1.6-1V202.9h0v-.3L719.5,216Zm-97.5-57.1-48.1,27.8-1.2-.6v1.3l-1.2.7,1.2.7v17.9a4.2,4.2,0,0,0-1.6.9,3.9,3.9,0,0,0,0,5.6,3.4,3.4,0,0,0,1.6,1v29.4l-47.1,27.1V173.1l96.5-55.5Zm-197.6,55-38.8-22.2-6.7-3.8,45.5-26.2Zm-46.7-28V170.2a4.7,4.7,0,0,0,1.6-1,4,4,0,0,0,0-5.6,6.5,6.5,0,0,0-1.6-.9V146l45.9,26.4Zm-2.4,3.7v16.6a4,4,0,0,0-1.8,1,3.7,3.7,0,0,0-1,3.8,3.5,3.5,0,0,0,1,2.1,4.6,4.6,0,0,0,1.8,1v28.4h-.2v.2L351.7,229Zm-49.5-11.8a3.9,3.9,0,0,0-1.6,1,3.9,3.9,0,0,0,0,5.6,3.7,3.7,0,0,0,1.6.9v30l-46.9,27.1V226.9a4.2,4.2,0,0,0,1.6-.9,3.9,3.9,0,0,0,0-5.6,3.4,3.4,0,0,0-1.6-1V201.5l1.2-.6-.3-.2,46.1-26.5ZM200.2,313.4l-47,27V311.7a4.6,4.6,0,0,0,1.5-.9,4,4,0,0,0,0-5.6,4.6,4.6,0,0,0-1.5-.9V286.8l1.2-.7-.3-.2,46.1-26.3Zm-99.3-55.9L54.5,284.1V198.5a4.2,4.2,0,0,0,1.7-1,4,4,0,0,0,0-5.6,4.2,4.2,0,0,0-1.7-1V174.4l46.4,26.7ZM52,304.3a3.9,3.9,0,0,0,0,7.5v28.8L6.3,314.4,52,288.2Zm2.5,7.5a4.4,4.4,0,0,0,1.5-1,3.9,3.9,0,0,0,0-5.5,4.4,4.4,0,0,0-1.5-1V287.9l46.1,26.4L54.5,340.8Zm46.9,170.5L55.6,456l45.8-26.2Zm-1,2.3h-.2l50.5,29v17.9a4.2,4.2,0,0,0-1.4.9,3.9,3.9,0,0,0,0,5.5,2.4,2.4,0,0,0,1.4.9v28.8l-47-27h0L54.5,512.2V458.1Zm3.5,83a4.7,4.7,0,0,0,1.6-1,4,4,0,0,0,0-5.6,4.3,4.3,0,0,0-1.6-.9V543.5l45.8,26.3-45.8,26.4Zm96.2,32.5v52.5l-45.8-26.4Zm49.4,28.7v52.3l-45.7-26.2Zm2.6-1.5,46.8-26.7v16.1a4.2,4.2,0,0,0-1.6.9,4.5,4.5,0,0,0,.1,6.1,3.8,3.8,0,0,0,1.5.9v29.8l-46.8,26.9Zm49.2-2.7a3.2,3.2,0,0,0,1.6-.9A4.1,4.1,0,0,0,304,620a4.4,4.4,0,0,0-1.1-2.4,6.5,6.5,0,0,0-1.6-.9V600.6l45.8,26.2-45.8,26.3ZM400,511.2a4.2,4.2,0,0,0,1.7-1,4,4,0,0,0,0-5.6,3.2,3.2,0,0,0-1.7-.9V487.1l45.4,25.7L400,539Zm1.3-26.1,47.3-27.4,46.5,26.6-47.2,27.2Zm96.6-1.9L451,456.3l46.6-27,47,27.1Zm2.1,115,47.2-27,46.6,26.9-47,26.9-12.3-7Zm-1.2,2.1L533.2,620l11.2,6.4-45.6,26.1Zm50.8-30.5L595,543.7v52.4Zm97.3-113.1,47-26.9v16.5a4.2,4.2,0,0,0-1.7,1,3.9,3.9,0,0,0,0,5.6,4.2,4.2,0,0,0,1.7,1v31.5l49.2,28.2v18a4.2,4.2,0,0,0-1.4.9,3.9,3.9,0,0,0,0,5.6,4.2,4.2,0,0,0,1.4.9v30.2l-47,27V540.5l-49.2-28.2Zm96.2,167.8-45.6-26.3,45.6-26.3Zm2.4.2V570.6l47-27v54ZM795,543.5l45.8,26.3L795,596.2Zm96.3,56.6v52.5l-45.8-26.4Zm49.3,28.7v52.3l-45.7-26.2Zm2.6-1.5L990,600.6v53.8l-46.8,26.9Zm49.2-26.7,45.9,26.2-45.9,26.3Zm98.8-89.4a3.9,3.9,0,0,0,1.6-1,4,4,0,0,0,0-5.6,3.7,3.7,0,0,0-1.6-.9V487.1l45.5,25.7L1091.2,539Zm1.2-26.1,47.3-27.4,46.5,26.6-47.1,27.2Zm96.6-1.9-46.9-26.9,46.7-27,46.9,27.2Zm2.2,115,47.1-27,46.7,26.9L1238,625l-11.9-6.8Zm-1.2,26.1a3.9,3.9,0,0,0,0-7.5V600.3l34.9,20,10.7,6.1L1190,652.5Zm50.7-54.5,45.5-26.1v52.4ZM1338,453.9V425.3a3.8,3.8,0,0,0,1.5-.9,3.9,3.9,0,0,0,0-5.6,3.8,3.8,0,0,0-1.5-.9V401.4l45.7,26.4Zm48.1-84.3-47-26.9,47-27.2,45.4,26.1,1.6.9Zm48.2-122.2a3.9,3.9,0,0,0-1.6,1,4,4,0,0,0,0,5.6,5.1,5.1,0,0,0,1.6.9v85.6l-5.1-3-41.9-24.1V257.9l47-27ZM1385,198.5h0v.3l-47-27V116.3l47-27ZM1338.1,60.9l45.8,26.3-45.8,26.3Zm-2.4,54-97.4,56-47-27L1335.7,61ZM1140.6,4.1l47.1,27.1V141.8l-.3-.2v1.8l-1,.6,1,.6v17.7a4.3,4.3,0,0,0-1.6.9,4,4,0,0,0,0,5.6,4.7,4.7,0,0,0,1.6,1v28.9l-46.8-26.9Zm-51.9,158.3a5.1,5.1,0,0,0-1.6.9,4,4,0,0,0,0,5.6,3.9,3.9,0,0,0,1.6,1v30l-46.9,27V198.2a5.1,5.1,0,0,0,1.6-.9,4,4,0,0,0,0-5.6,3.9,3.9,0,0,0-1.6-1V172.8l1.2-.6-1.2-.7V117.7l46.9,27Zm-49.2,7.8L993.7,144l45.8-26.3Zm49.3-139V49.1a6.5,6.5,0,0,0-1.6.9,4,4,0,0,0,0,5.6,4.7,4.7,0,0,0,1.6,1V85.2l-37.4-21.5-9.6-5.4V4.2ZM944.3,115.7l96.4-55.4,9.2,5.3,37.7,21.6-46.9,27.1-1.2-.7V115l-48.1,27.7h-.2Zm47,29.7h.1l46.8,26.8-47.3,27.1-46.7-27,47-27ZM841.8,283.6l-47.4-27.2V201.9l47.4-27.2ZM843.4,171l-47.3-26.8,47.1-26.9,47,26.8ZM941.9,3.7,989,30.5,892.6,85.8l-47-26.9ZM891.4,87.8v54.3l-47-26.9V85a3.9,3.9,0,0,0,0-7.5V61ZM745.2,4.3l47.4,26.9V142l-47.4-27.2Zm46.9,142.3v51.8l-45.2-26ZM743.3,173v17.9a3.4,3.4,0,0,0-1.6,1,3.9,3.9,0,0,0,0,5.6l.6.5,1,.4v28.5l-24.8-14.3-22.2-12.7V146.1Zm-49.4-67.2a5.1,5.1,0,0,0-1.6.9,4,4,0,0,0,0,5.6,3.9,3.9,0,0,0,1.6,1v28.8h0v56.4h0v.3l-47-27V116.3l47-27ZM647,85a4.7,4.7,0,0,0,1.6-1,4,4,0,0,0,0-5.6,5.1,5.1,0,0,0-1.6-.9V60.9l45.7,26.3-45.8,26.3Zm-2.4-7.5a5.1,5.1,0,0,0-1.6.9,4,4,0,0,0,0,5.6,3.9,3.9,0,0,0,1.6,1v29.9l-97.4,56-47-27,144.4-83ZM496.5,31.2V141.8h-.2v1.7l-1,.6,1,.6v17.7a3.7,3.7,0,0,0-1.6.9,4,4,0,0,0,0,5.6,3.9,3.9,0,0,0,1.6,1v28.9l-46.9-26.9V28.1a3.4,3.4,0,0,0,1.6-1,3.8,3.8,0,0,0,0-5.5,3.4,3.4,0,0,0-1.6-1V4.1ZM397.6,162.8a2.9,2.9,0,0,0-1.4.8,4,4,0,0,0,0,5.6,4.2,4.2,0,0,0,1.4.9v29.8l-46.9,27V198.2a5.1,5.1,0,0,0,1.6-.9,4,4,0,0,0,0-5.6,3.9,3.9,0,0,0-1.6-1V172.8l1.1-.6-1.1-.7V141.7a3.9,3.9,0,0,0,0-7.5V117.7l46.9,27Zm-49.3-28.6a3.9,3.9,0,0,0,0,7.5v28.5L302.6,144l45.7-26.3Zm49.4-103V49.1a5.1,5.1,0,0,0-1.6.9,4,4,0,0,0,0,5.6,3.9,3.9,0,0,0,1.6,1V85.2L359.5,63.3l-8.8-5V28.2a5.1,5.1,0,0,0,1.6-.9,4,4,0,0,0,0-5.6,3.9,3.9,0,0,0-1.6-1V4.2ZM253.2,115.7l96.3-55.4,8.3,4.8,38.7,22.1-47,27.1-1.2-.7V115l-48.1,27.7H300ZM300,145.3h.2l46.9,26.8-47.3,27.1-46.8-27ZM150.7,283.6l-47.4-27.2V201.9l47.4-27.2ZM152.3,171,105,144.2l47.1-26.9,47,26.8Zm.9-55.8V85a3.4,3.4,0,0,0,1.6-1,3.8,3.8,0,0,0,0-5.5,3.4,3.4,0,0,0-1.6-1V61l47.1,26.8v54.3ZM250.8,3.7l47,26.8L201.5,85.8,154.4,58.9ZM54,4.3l47.4,26.9V142L54,114.8Zm46.9,142.3v15.9a3.9,3.9,0,0,0-1.6,1,4,4,0,0,0,0,5.6,5.1,5.1,0,0,0,1.6.9v28.4l-45.2-26Zm-95.8-.5,47,26.9v18a4.6,4.6,0,0,0-1.5.9,3.9,3.9,0,0,0,0,5.6,4.6,4.6,0,0,0,1.5.9v85.4H52v1.8L5.1,312.3ZM54.4,344.8h.1v-1.3l46.9-26.9V427.1L54.5,453.9V399h-.1ZM5.1,484V373.2L52,400.3v55l-1.2.7,1.3.8v54.1H52Zm49.3,55.1a4.2,4.2,0,0,0,1.7-1,4,4,0,0,0,0-5.6,4.2,4.2,0,0,0-1.7-1V515h.1l45.9,26.4-46,26.5ZM52,571.9v52.6L6.3,598.2ZM5.1,654.4V600.2l47,27.1v17.5a4.2,4.2,0,0,0-1.7,1,4,4,0,0,0,0,5.6,4.2,4.2,0,0,0,1.7,1v29.1Zm50.8-27.9,45.5-26.1v52.2Zm97.3,58.9h0l45.7,26.2-45.8,26.3V685.3ZM54.4,796V765.9a3.9,3.9,0,0,0,1.6-1,4,4,0,0,0,0-5.6,5.1,5.1,0,0,0-1.6-.9V741.9l47,27.1v54.1Zm48.2-29.1-47-27.1,95.1-54.6v54Zm97.5,56-47-27V740.6l47-27.1ZM150.9,644.7a3.2,3.2,0,0,0-1.8,1,3.9,3.9,0,0,0-1.2,2.8,4,4,0,0,0,3,3.9v28.8h-.2l-46.8-26.9V598.9L150.7,572v16.4a4.2,4.2,0,0,0-1.4.9,3.9,3.9,0,0,0,0,5.6,4.2,4.2,0,0,0,1.4.9v29.8l-1.2.7,1.4.8Zm101,64.7a3.6,3.6,0,0,0,1.8-1,4,4,0,0,0,0-5.6,4.6,4.6,0,0,0-1.8-1V685.2l.2.2V684l46.8-26.9V767.6l-47.1,26.9Zm47,113.5L253,796.5l45.9-26.2Zm2.4,0V769l48.1-27.4,47,26.8Zm97.5-112.8-25.7-14.8L351.7,683l47-26.8,47,26.8ZM446.9,681l-47-26.9V567.4a3.3,3.3,0,0,0,1.7-1,3.8,3.8,0,0,0,0-5.5,4.2,4.2,0,0,0-1.7-1V543.3h.1v-.2l47,27.1v55.8l-1.2.7,1.2.6ZM401.1,541.1l46.8-26.9.4.2,97.4-55.9v16.1a5.1,5.1,0,0,0-1.6.9,4.2,4.2,0,0,0-1,3.8,3.8,3.8,0,0,0,1.1,2.3,4.6,4.6,0,0,0,1.5.9v86.4l-48.2,27.9-1-.6v1.2l-47.2,27.3V568.9Zm49.4,85.6,46-26.6v52.6Zm49.2,28.1,46.1-26.5v53Zm97.7-58.6V543.5l5.3,3,40.6,23.4ZM548.1,795.9v-30a2.9,2.9,0,0,0,1.6-.9,4,4,0,0,0,0-5.6,2.9,2.9,0,0,0-1.6-.9V741.9l34.6,19.9,12.4,7v17.9a3.4,3.4,0,0,0-1.6,1,3.9,3.9,0,0,0,0,5.6,4.6,4.6,0,0,0,1.5.9v28.7Zm144.5-84.4-96.3,55.3-12.4-7.1-34.6-19.8,96.4-55.3,5.5,3.1Zm-41.1-26.3-4.6-2.7V571.9h.1v-1.3l1.2-.7-1.2-.7V515.1l46.9,26.8v55.6l-1.1.7,1.1.6V709.5Zm44.8-30.8V600.2l47,27.1v17.5a4,4,0,0,0-1.8,1,4.2,4.2,0,0,0-.8,4.4,3.9,3.9,0,0,0,1,1.6,4.2,4.2,0,0,0,1.6.9v28.8Zm50.8-27.9,45.4-26.1v52.2Zm97.1,82.7a3.4,3.4,0,0,0,1.6-1,3.8,3.8,0,0,0,0-5.5,3.4,3.4,0,0,0-1.6-1V685.3h.2l45.7,26.2-45.9,26.3ZM745.5,796V765.9a3.9,3.9,0,0,0,1.6-1,3.9,3.9,0,0,0,0-5.6,5.1,5.1,0,0,0-1.6-.9V741.9l47,27.1v17.9a5.1,5.1,0,0,0-1.6.9,4,4,0,0,0,0,5.6,3.9,3.9,0,0,0,1.6,1v28.7Zm48.2-29.1-47-27.1,95.2-54.6v16.5a3.4,3.4,0,0,0-1.6,1,3.8,3.8,0,0,0,0,5.5,3.4,3.4,0,0,0,1.6,1v30ZM891.2,730a4.7,4.7,0,0,0-1.6,1,4,4,0,0,0,0,5.6,6.5,6.5,0,0,0,1.6.9v85.4l-47-27V740.6l47-27.1ZM842,644.8a4,4,0,0,0-1.8,1,4,4,0,0,0,0,5.6,3.2,3.2,0,0,0,1.8,1v28.8h-.1L795,654.3V598.9L841.8,572v16.4a4.2,4.2,0,0,0-1.4.9,4,4,0,0,0,0,5.6,4.2,4.2,0,0,0,1.4.9v29.8l-1.2.7,1.4.8Zm101,64.6a3.2,3.2,0,0,0,1.8-1,4,4,0,0,0,0-5.6,4,4,0,0,0-1.8-1V685.2l.2.2V684L990,657.1V767.6L943,794.5Zm47.1,113.5-45.9-26.4,45.9-26.2Zm2.3,0V769l48.1-27.4,47,26.8Zm97.5-112.8-45.1-26-1.9-1.1,46.9-26.8,47,26.8ZM1138,681l-47-26.9V567.4a3.8,3.8,0,0,0,1.8-.9,3.9,3.9,0,0,0,.4-5,1.6,1.6,0,0,0-.6-.8,3.4,3.4,0,0,0-1.6-1V543.3h.2v-.2l46.9,27.1v55.8l-1.2.7,1.2.6Zm-45.8-139.9,46.9-26.9.3.2,97.5-55.9v16.1a3.4,3.4,0,0,0-1.6,1,3.8,3.8,0,0,0,0,5.5,3.4,3.4,0,0,0,1.6,1v86.8l-48.1,27.9-1.1-.6v1.2l-47.2,27.3V568.9Zm49.4,85.6,46-26.6v16.7a3.9,3.9,0,0,0,0,7.5v28.4Zm49.2,28.1,46.2-26.5v53Zm97.7-58.6V543.5l3.3,1.9,42.7,24.5Zm48.3,88.4,46.9,26.9-96.3,55.3-12.1-6.9-34.9-20Zm-97.6,111.3v-30a2.6,2.6,0,0,0,1.6-.9,3.9,3.9,0,0,0,0-5.6,2.6,2.6,0,0,0-1.6-.9V741.9l34.9,20,12.1,6.9v54.1Z"/><path class="cls-1" d="M352.3,532.7a3.9,3.9,0,0,0-5.6,0,3.8,3.8,0,0,0,0,5.5,3.9,3.9,0,0,0,5.6,0A3.9,3.9,0,0,0,352.3,532.7Z"/><circle class="cls-1" cx="201.5" cy="166.4" r="3.9"/><path class="cls-1" d="M451,532.5a3.9,3.9,0,0,0-5.5,0,3.9,3.9,0,0,0,0,5.6,3.9,3.9,0,0,0,5.5,0A3.9,3.9,0,0,0,451,532.5Z"/><path class="cls-1" d="M599.1,282.7a3.9,3.9,0,1,0-5.5,0A3.8,3.8,0,0,0,599.1,282.7Z"/><path class="cls-1" d="M642.9,197.6a4,4,0,1,0,0-5.6A4,4,0,0,0,642.9,197.6Z"/><path class="cls-1" d="M549.7,708.4a3.9,3.9,0,0,0,0-5.6,4,4,0,0,0-5.6,5.6A3.9,3.9,0,0,0,549.7,708.4Z"/><path class="cls-1" d="M6.7,339.4a3.8,3.8,0,0,0,0-5.5,3.8,3.8,0,0,0-5.5,0,3.8,3.8,0,0,0,0,5.5A3.8,3.8,0,0,0,6.7,339.4Z"/><path class="cls-1" d="M149.3,135.4a3.9,3.9,0,0,0,0,5.6,3.8,3.8,0,0,0,5.5,0,3.9,3.9,0,0,0,0-5.6A3.9,3.9,0,0,0,149.3,135.4Z"/><path class="cls-1" d="M1.2,674.6a3.8,3.8,0,0,0,0,5.5,3.8,3.8,0,0,0,5.5,0,3.8,3.8,0,0,0,0-5.5A3.8,3.8,0,0,0,1.2,674.6Z"/><path class="cls-1" d="M6.7,509.8a3.9,3.9,0,0,0,0-5.6,3.8,3.8,0,0,0-5.5,0,3.9,3.9,0,0,0,0,5.6A3.9,3.9,0,0,0,6.7,509.8Z"/><path class="cls-1" d="M352.3,84.1a4,4,0,0,0,0-5.6,3.9,3.9,0,0,0-5.6,0,4,4,0,0,0,5.6,5.6Z"/><path class="cls-1" d="M396.1,106.7a4,4,0,1,0,5.6,0A4,4,0,0,0,396.1,106.7Z"/><path class="cls-1" d="M303,169.2a4,4,0,0,0,0-5.6,3.9,3.9,0,0,0-5.6,0,4,4,0,0,0,5.6,5.6Z"/><path class="cls-1" d="M253.6,140.8a3.9,3.9,0,0,0,0-5.6,4,4,0,1,0,0,5.6Z"/><path class="cls-1" d="M1044.4,534.5a3.6,3.6,0,0,0-1.1-2.1,3.9,3.9,0,0,0-5.6,0,3.9,3.9,0,0,0-1,3.7,4.3,4.3,0,0,0,1.1,2.1,3.9,3.9,0,0,0,5.6,0A3.9,3.9,0,0,0,1044.4,534.5Z"/><path class="cls-1" d="M1191.5,447.5a3.8,3.8,0,0,0-5.5,0,3.9,3.9,0,0,0,0,5.6,3.9,3.9,0,0,0,5.5,0A3.9,3.9,0,0,0,1191.5,447.5Z"/><path class="cls-1" d="M1290.3,282.7a3.9,3.9,0,0,0,0-5.5,3.9,3.9,0,0,0-5.6,0,3.9,3.9,0,0,0,0,5.5A3.9,3.9,0,0,0,1290.3,282.7Z"/><path class="cls-1" d="M1334.1,305.7a3.9,3.9,0,1,0,5.5,0A3.8,3.8,0,0,0,1334.1,305.7Z"/><path class="cls-1" d="M889.8,396.3a3.9,3.9,0,0,0,5.5,0,3.9,3.9,0,0,0,0-5.6,3.9,3.9,0,0,0-5.5,0A3.9,3.9,0,0,0,889.8,396.3Z"/><path class="cls-1" d="M1037.9,254.5a3.9,3.9,0,1,0,0-5.5A3.8,3.8,0,0,0,1037.9,254.5Z"/><path class="cls-1" d="M944.7,27.4a3.9,3.9,0,0,0,0-5.6,3.9,3.9,0,0,0-5.5,0,3.9,3.9,0,0,0,0,5.6A3.9,3.9,0,0,0,944.7,27.4Z"/><path class="cls-1" d="M697.9,504.2a3.9,3.9,0,0,0-5.6,0,4,4,0,1,0,5.6,0Z"/><path class="cls-1" d="M1043.4,84.1a3.9,3.9,0,0,0,0-5.6,3.8,3.8,0,0,0-5.5,0,3.9,3.9,0,0,0,0,5.6A3.9,3.9,0,0,0,1043.4,84.1Z"/><path class="cls-1" d="M988.5,169.2a4,4,0,0,0,5.6,0,4,4,0,0,0-5.6-5.6A4,4,0,0,0,988.5,169.2Z"/><path class="cls-1" d="M297.3,844.5a4,4,0,0,0,5.6,5.6,4,4,0,1,0-5.6-5.6Z"/><circle class="cls-1" cx="398.8" cy="790.7" r="3.9"/><path class="cls-1" d="M247.9,816a3.9,3.9,0,0,0,0,5.6,3.8,3.8,0,0,0,5.5,0,3.9,3.9,0,0,0,0-5.6A3.9,3.9,0,0,0,247.9,816Z"/><path class="cls-1" d="M198.5,674.3a4,4,0,0,0,5.6,5.6,4,4,0,1,0-5.6-5.6Z"/><path class="cls-1" d="M500.3,674.2a3.9,3.9,0,0,0-5.6,0,3.9,3.9,0,0,0-.7,4.6,5.1,5.1,0,0,0,.9,1.3,4,4,0,0,0,5.6,0,3.9,3.9,0,0,0,.6-4.6A2.6,2.6,0,0,0,500.3,674.2Z"/><path class="cls-1" d="M549.6,594.7a3.9,3.9,0,0,0,0-5.6,3.9,3.9,0,0,0-5.5,0,3.9,3.9,0,0,0,0,5.6A3.9,3.9,0,0,0,549.6,594.7Z"/><path class="cls-1" d="M692.2,731.1a3.9,3.9,0,1,0,5.5,0A3.8,3.8,0,0,0,692.2,731.1Z"/><path class="cls-1" d="M544.1,816.2a3.9,3.9,0,0,0,0,5.5,3.9,3.9,0,0,0,5.6,0,3.9,3.9,0,0,0,0-5.5A3.9,3.9,0,0,0,544.1,816.2Z"/><path class="cls-1" d="M444.5,252.7a4,4,0,0,0,1,1.8,4,4,0,0,0,5.6,0,4,4,0,0,0,.8-4.4,4.2,4.2,0,0,0-1-1.7,3.9,3.9,0,0,0-5.6,0A4.1,4.1,0,0,0,444.5,252.7Z"/><path class="cls-1" d="M346.7,310.8a3.8,3.8,0,0,0,5.5,0,3.9,3.9,0,0,0,0-5.6,3.9,3.9,0,0,0-5.5,0A3.9,3.9,0,0,0,346.7,310.8Z"/><path class="cls-1" d="M500.3,509.4a3.9,3.9,0,0,0,0-5.5,3.9,3.9,0,0,0-5.6,0,3.9,3.9,0,0,0,0,5.5A3.9,3.9,0,0,0,500.3,509.4Z"/><path class="cls-1" d="M1036.6,762.4a3.9,3.9,0,0,0,6.7,2.9,4.2,4.2,0,0,0,1.2-2.9,4,4,0,0,0-1.2-2.9,3.9,3.9,0,0,0-5.6,0A3.9,3.9,0,0,0,1036.6,762.4Z"/><path class="cls-1" d="M1092.7,787.7a3.9,3.9,0,0,0-5.6,0,3.6,3.6,0,0,0-1.1,2.9,3.7,3.7,0,0,0,1.1,2.9,3.9,3.9,0,0,0,5.6,0,3.6,3.6,0,0,0,1.1-2.9A3.7,3.7,0,0,0,1092.7,787.7Z"/><path class="cls-1" d="M988.5,844.5a3.9,3.9,0,0,0,0,5.6,3.9,3.9,0,0,0,5.5,0,3.9,3.9,0,0,0,0-5.6A3.8,3.8,0,0,0,988.5,844.5Z"/><path class="cls-1" d="M889.7,674.1a3.9,3.9,0,0,0-1,3.8,3.6,3.6,0,0,0,1.1,2.1,3.9,3.9,0,0,0,5.5,0,3.7,3.7,0,0,0,1-3.8,4.1,4.1,0,0,0-1-2.1A4,4,0,0,0,889.7,674.1Z"/><path class="cls-1" d="M1191.4,674.2a3.9,3.9,0,0,0-5.6,0,4.1,4.1,0,0,0-.7,4.6,5.1,5.1,0,0,0,.9,1.3,4,4,0,0,0,5.6,0,4,4,0,0,0,.7-4.6A3.8,3.8,0,0,0,1191.4,674.2Z"/><path class="cls-1" d="M1388.9,333.6a4,4,0,1,0-5.6,5.6,3.9,3.9,0,0,0,5.6,0A4,4,0,0,0,1388.9,333.6Z"/><path class="cls-1" d="M1432.7,362a4,4,0,0,0,5.6,5.6,4,4,0,0,0-5.6-5.6Z"/><path class="cls-1" d="M1092.7,390.3a4,4,0,1,0,0,5.6A4,4,0,0,0,1092.7,390.3Z"/><path class="cls-1" d="M1383.3,731.1a3.9,3.9,0,0,0,0,5.5,3.9,3.9,0,0,0,5.6,0,3.9,3.9,0,0,0,0-5.5A3.9,3.9,0,0,0,1383.3,731.1Z"/><circle class="cls-1" cx="1336.8" cy="705.5" r="3.9"/><path class="cls-1" d="M1136.6,419.1a3.9,3.9,0,1,0,5.5,0A3.8,3.8,0,0,0,1136.6,419.1Z"/><path class="cls-1" d="M840.3,816.1a3.9,3.9,0,0,0,0,5.6,3.9,3.9,0,0,0,5.5,0,3.9,3.9,0,0,0,0-5.6A3.9,3.9,0,0,0,840.3,816.1Z"/><path class="cls-1" d="M1136.5,254a3.9,3.9,0,0,0,5.5,0,3.9,3.9,0,0,0,0-5.6,3.8,3.8,0,0,0-5.5,0A3.9,3.9,0,0,0,1136.5,254Z"/></svg>