<svg id="Layer_1" data-name="Layer 1" xmlns="http://www.w3.org/2000/svg" viewBox="0 0 181.7 185.7"><defs><style>.cls-1{fill:#74c26c;}</style></defs><title>MOD-Website-Components-R1</title><path class="cls-1" d="M178.6,0a3,3,0,0,0-3,3,2.9,2.9,0,0,0,2.1,2.9V39.6L146.8,21.1,116.4,39.3a2.4,2.4,0,0,0-1.4-.5,2.5,2.5,0,0,0-2.5,2.4,2.5,2.5,0,0,0,1.5,2.3V80l32.8,19.6L179.5,80V5.9A3,3,0,0,0,181.7,3,3.1,3.1,0,0,0,178.6,0ZM146.8,59.3,117.3,41.6c.1-.1.1-.2.1-.4a.4.4,0,0,0-.1-.3l29.5-17.7,30,18ZM115.9,43.5l.5-.3,30.4,18.2,30.9-18.5v36L146.8,97.5,115.9,78.9Z"/><rect class="cls-1" x="-10.5" y="143" width="161.9" height="2" transform="translate(-63 55.1) rotate(-30.3)"/></svg>