<svg id="Layer_1" data-name="Layer 1" xmlns="http://www.w3.org/2000/svg" viewBox="0 0 108.4 88.2"><defs><style>.cls-1{fill:#515151;}</style></defs><title>MOD-Website-Components-R1</title><path class="cls-1" d="M69.9,27A11.5,11.5,0,1,0,81.4,38.5,11.4,11.4,0,0,0,69.9,27Zm0,18a6.6,6.6,0,1,1,6.6-6.5A6.5,6.5,0,0,1,69.9,45Z"/><path class="cls-1" d="M106.2,30.8l-8-.6a27.2,27.2,0,0,0-2.4-5.8l5.2-6.1a2.5,2.5,0,0,0-.2-3.3L93.4,7.6a2.5,2.5,0,0,0-3.3-.2L84,12.6a28.7,28.7,0,0,0-5.7-2.4l-.7-7.9A2.4,2.4,0,0,0,75.2,0H64.7a2.4,2.4,0,0,0-2.4,2.3l-.7,7.9a28.7,28.7,0,0,0-5.7,2.4L49.8,7.4a2.5,2.5,0,0,0-3.3.2L39.1,15a2.4,2.4,0,0,0-.2,3.3l5.2,6.1a27.2,27.2,0,0,0-2.4,5.8l-2.9.2.4,4.9,4.6-.4A2.5,2.5,0,0,0,46,33a24.1,24.1,0,0,1,3.2-7.6,2.6,2.6,0,0,0-.2-2.9l-4.9-5.7,4.2-4.2L54,17.5a2.4,2.4,0,0,0,2.9.2,23.2,23.2,0,0,1,7.6-3.2,2.5,2.5,0,0,0,1.9-2.2L67,4.9h5.9l.6,7.4a2.5,2.5,0,0,0,1.9,2.2A24.1,24.1,0,0,1,83,17.7a2.4,2.4,0,0,0,2.9-.2l5.7-4.9,4.2,4.2-4.9,5.7a2.6,2.6,0,0,0-.2,2.9A24.1,24.1,0,0,1,93.9,33a2.5,2.5,0,0,0,2.2,1.9l7.4.6v5.9l-7.4.6a2.5,2.5,0,0,0-2.2,1.9,23.2,23.2,0,0,1-3.2,7.6,2.6,2.6,0,0,0,.2,2.9l4.9,5.7-4.2,4.2-5.7-4.9-3.2,3.8,7.4,6.3a2.5,2.5,0,0,0,1.6.6,2.6,2.6,0,0,0,1.7-.7l7.4-7.5a2.5,2.5,0,0,0,.2-3.3l-5.2-6a32.3,32.3,0,0,0,2.4-5.8l8-.7a2.4,2.4,0,0,0,2.2-2.4V33.2A2.4,2.4,0,0,0,106.2,30.8Z"/><path class="cls-1" d="M22.7,54.4c6.5,0,11.4-5.2,11.4-12.1V39.1c0-6.9-4.9-12.1-11.4-12.1S11.2,32.2,11.2,39.1v3.2C11.2,49.2,16.2,54.4,22.7,54.4ZM16.1,39.1c0-4.2,2.8-7.2,6.6-7.2s6.5,3,6.5,7.2v3.2c0,4.2-2.7,7.2-6.5,7.2s-6.6-3-6.6-7.2Z"/><path class="cls-1" d="M49.8,76.4a2.4,2.4,0,0,0-2.4-2.1H35L20,57.1a2.3,2.3,0,0,0-1.8-.8H13.7c-6.1,0-10.5,4.2-11.4,11.1C1.5,72.8,0,85.3,0,85.4l4.9.6c0-.1,1.4-12.5,2.2-17.9.3-2.1,1.5-6.9,6.6-6.9h3.4l15,17.1a2.1,2.1,0,0,0,1.8.9h11a5.8,5.8,0,0,1-1.2,2.9,3.9,3.9,0,0,1-3.1,1.2H28.3L17.8,70.6l-3.7,3.2L22,83.3H15.9v4.9H81.2V83.3H48.8A13.5,13.5,0,0,0,49.8,76.4Z"/><path class="cls-1" d="M51.9,76.5v4.9H63.2a2.2,2.2,0,0,0,2.1-1.2L78.8,57.7a2.1,2.1,0,0,0,0-2.4A2.3,2.3,0,0,0,76.7,54H45.2a2.3,2.3,0,0,0-2,1.1l-9,13.5,4,2.7,8.3-12.4H72.4L61.8,76.5Z"/></svg>