<svg id="Layer_1" data-name="Layer 1" xmlns="http://www.w3.org/2000/svg" viewBox="0 0 201.1 106.4"><defs><style>.cls-1{fill:#74c26c;}</style></defs><title>MOD-Website-Components-R1</title><path class="cls-1" d="M20.2,11.6a6.2,6.2,0,0,0,8.5-2.2A6.4,6.4,0,0,0,26.4.8a6.2,6.2,0,1,0-6.2,10.8Z"/><path class="cls-1" d="M37.4,89.9a8.3,8.3,0,0,0-9.6,6.7,8.3,8.3,0,1,0,16.4,2.9A8.3,8.3,0,0,0,37.4,89.9Z"/><path class="cls-1" d="M145.4,73.6a5.4,5.4,0,1,0,7.4,2A5.4,5.4,0,0,0,145.4,73.6Z"/><path class="cls-1" d="M156.7,11.2a5.1,5.1,0,0,0-.2,6.2,125.2,125.2,0,0,1-29.7,24A125.7,125.7,0,0,1,92.4,54.9a6.2,6.2,0,0,0-6.9-4A6.5,6.5,0,0,0,80.3,57a131.3,131.3,0,0,1-15.4.9c-3.5,0-7-.1-10.5-.4a11.2,11.2,0,0,0-21.9-3.8A124.1,124.1,0,0,1,5,42.5a2.5,2.5,0,0,0-1.3-2.4A2.5,2.5,0,0,0,.3,41a2.6,2.6,0,0,0,.9,3.4,2.6,2.6,0,0,0,2.7-.1A122.6,122.6,0,0,0,32.1,55.7a11.2,11.2,0,0,0,22.1,3.9c3.5.3,7.1.4,10.7.4a117.2,117.2,0,0,0,15.7-1,6.3,6.3,0,0,0,7.1,4.2,6.2,6.2,0,0,0,5.1-6.3,125.6,125.6,0,0,0,35-13.7,127.9,127.9,0,0,0,30.3-24.4,5,5,0,1,0-1.4-7.6Z"/><path class="cls-1" d="M198,34.5a8.7,8.7,0,1,0,1.1,12.3A8.7,8.7,0,0,0,198,34.5Z"/></svg>