<svg id="Layer_1" data-name="Layer 1" xmlns="http://www.w3.org/2000/svg" viewBox="0 0 118.6 124"><defs><style>.cls-1{fill:#4c4c4c;}</style></defs><title>MOD-Website-Components-R1</title><path class="cls-1" d="M58,53.3a10,10,0,1,0,10,10A10,10,0,0,0,58,53.3Zm0,16a6,6,0,1,1,6-6A6,6,0,0,1,58,69.3Z"/><path class="cls-1" d="M90.1,70.3l-6.4-3.4a28.2,28.2,0,0,0,.2-5.8L90.4,58a2,2,0,0,0,1-2.5l-3.3-8.7a2.1,2.1,0,0,0-2.5-1.2l-6.9,2a25.9,25.9,0,0,0-4-4.1l2.4-6.8a2,2,0,0,0-1-2.5l-8.5-3.8a1.9,1.9,0,0,0-2.6.8l-3.5,6.4a27.2,27.2,0,0,0-5.7-.2l-3.1-6.5a2.1,2.1,0,0,0-2.6-1l-8.6,3.4a1.9,1.9,0,0,0-1.2,2.4l2,6.9a31.6,31.6,0,0,0-4.2,4l-6.8-2.4a1.9,1.9,0,0,0-2.5,1.1L25,53.8a2,2,0,0,0,.9,2.5l6.4,3.5a21.8,21.8,0,0,0-.2,5.7l-6.5,3.1a2.1,2.1,0,0,0-1,2.6l3.3,8.7a2.2,2.2,0,0,0,2.5,1.2L37.3,79a26.3,26.3,0,0,0,4,4.2L38.8,90a2.1,2.1,0,0,0,1.1,2.5l8.5,3.8a2.1,2.1,0,0,0,2.6-.9l3.4-6.3a28.2,28.2,0,0,0,5.8.1l3.1,6.5a2.2,2.2,0,0,0,1.8,1.2l.7-.2,8.7-3.3A1.9,1.9,0,0,0,75.7,91l-2-7a30.8,30.8,0,0,0,4.2-3.9l6.8,2.4a2.1,2.1,0,0,0,2.5-1.1l3.7-8.5A1.9,1.9,0,0,0,90.1,70.3Zm-5.8,7.8-6.5-2.3a1.9,1.9,0,0,0-2.2.7,21.8,21.8,0,0,1-5.4,5.1,2.1,2.1,0,0,0-.8,2.2l2,6.5-5.3,2-2.9-6.1a1.9,1.9,0,0,0-1.8-1.1h-.3a23.1,23.1,0,0,1-7.4-.2,1.9,1.9,0,0,0-2.1,1l-3.2,6-5.2-2.3,2.3-6.4a2,2,0,0,0-.7-2.3,23.3,23.3,0,0,1-5.1-5.3,1.8,1.8,0,0,0-2.2-.8L31,76.7l-2-5.2,6.1-3a1.8,1.8,0,0,0,1.1-2.1,22.4,22.4,0,0,1,.2-7.3,2,2,0,0,0-1-2.2l-6-3.2,2.3-5.1,6.4,2.2a1.9,1.9,0,0,0,2.3-.7,22.8,22.8,0,0,1,5.3-5,1.9,1.9,0,0,0,.8-2.3l-1.9-6.5,5.3-2,2.9,6.1a2.1,2.1,0,0,0,2.1,1.2,19.9,19.9,0,0,1,7.3.2,2.3,2.3,0,0,0,2.2-1l3.2-6,5.1,2.3-2.2,6.4a1.9,1.9,0,0,0,.7,2.2,19.8,19.8,0,0,1,5,5.4,2.2,2.2,0,0,0,2.3.8L85,50l2,5.2-6.1,2.9a1.9,1.9,0,0,0-1.1,2.1,26.3,26.3,0,0,1-.2,7.4,1.9,1.9,0,0,0,1,2.1L86.5,73Z"/><path class="cls-1" d="M60,14.7H74.8a12.7,12.7,0,1,0,0-4H58a2,2,0,0,0-2,2V26h4ZM87.3,4a8.7,8.7,0,1,1,0,17.3A8.7,8.7,0,0,1,87.3,4Z"/><path class="cls-1" d="M118.1,96.6,105.3,83.8V63.3a2,2,0,0,0-2-2H92.7v4h8.6V83.8L88.6,96.6a1.9,1.9,0,0,0,0,2.8l13.3,13.3a2,2,0,0,0,1.4.6,1.8,1.8,0,0,0,1.4-.6l13.4-13.3A2.1,2.1,0,0,0,118.1,96.6Zm-14.8,11.9L92.8,98l10.5-10.5L113.8,98Z"/><path class="cls-1" d="M10.7,63.3a2,2,0,0,0,2,2H23.3v-4H14.7v-20h8.6a2,2,0,0,0,2-2V18a2,2,0,0,0-2-2H2a2,2,0,0,0-2,2V39.3a2,2,0,0,0,2,2h8.7ZM4,20H21.3V37.3H4Z"/><path class="cls-1" d="M56,109.3H33.3v-14a1.9,1.9,0,0,0-1-1.7,1.8,1.8,0,0,0-2,0L8.9,107a2,2,0,0,0-.9,1.6,2.1,2.1,0,0,0,.9,1.7l21.4,13.4a1.9,1.9,0,0,0,1,.3,1.7,1.7,0,0,0,1-.3,1.9,1.9,0,0,0,1-1.7v-8.7H58a2,2,0,0,0,2-2V100.7H56Zm-26.7,9.1-15.5-9.8,15.5-9.7Z"/></svg>