<svg id="Layer_1" data-name="Layer 1" xmlns="http://www.w3.org/2000/svg" viewBox="0 0 116.5 87"><defs><style>.cls-1{fill:#74c26c;}</style></defs><title>MOD-Website-Components-R1</title><path class="cls-1" d="M115.9,54.6l-53.6,31L26.6,65,55.4,49.2a7.5,7.5,0,0,0,6.9,4.5,7.6,7.6,0,0,0,6.8-4.3l15.7,9.1-7.7,4.6c-4.1,2.5-8.3,5-12.6,7.4a2.9,2.9,0,0,0-2.2-1,2.9,2.9,0,0,0-3,3,3,3,0,0,0,3,3,3.1,3.1,0,0,0,3-3,2.9,2.9,0,0,0-.2-.9l12.6-7.5c7.6-4.5,15.4-9.3,23.7-13.2,1.3-.7,2.6-1.3,3.3-2.7h0v-.2c.4-10.7.3-21.5.2-31.8-.1-5.3-.2-10.7-.2-16.1h-1.2c0,5.4.1,10.8.2,16.1.1,10.3.2,21-.2,31.7a6,6,0,0,1-2.6,2c-5.2,2.4-10.1,5.2-14.9,8L69.5,48.3a7.5,7.5,0,0,0-7.2-9.6,7.5,7.5,0,0,0-7.5,7.5,11.1,11.1,0,0,0,.2,1.9L25.4,64.3,9,54.8V28.3H7.8V55.5L24.1,65,5.3,75.2V75A3.1,3.1,0,0,0,.8,79.4c2.8,2.1,5.8-.3,5.1-3.1L25.4,65.7,62,86.8l.3.2,54.2-31.3Z"/></svg>