<svg id="Layer_1" data-name="Layer 1" xmlns="http://www.w3.org/2000/svg" xmlns:xlink="http://www.w3.org/1999/xlink" viewBox="0 0 854.7 157.7"><defs><style>.cls-1{fill:none;}.cls-2{fill:#74c26c;fill-rule:evenodd;}.cls-3{fill:#666766;}.cls-4{fill:#f57f20;}.cls-5{fill:#4c4c4c;}.cls-6{fill:#e54125;}.cls-7{fill:#fff;}.cls-8{clip-path:url(#clip-path);}.cls-9{opacity:0.5;}.cls-10{fill:#f0f1f3;}</style><clipPath id="clip-path"><rect class="cls-1" x="1.5" y="342" width="1200.5" height="131.03"/></clipPath></defs><title>MOD-Website-Components-R1</title><path class="cls-2" d="M436.6,141.6a58,58,0,0,1-36.2-17.4,45.4,45.4,0,1,1,0-90.7,47.9,47.9,0,0,1,14.2,2.2,46.2,46.2,0,0,1,22,15.8,45.4,45.4,0,0,1-22,70.4,72.8,72.8,0,0,0,22,19.7ZM376.9,73.7a5.2,5.2,0,1,1-5.1,5.1,5.1,5.1,0,0,1,5.1-5.1Zm23.5,0a5.2,5.2,0,1,1-5.1,5.1,5.1,5.1,0,0,1,5.1-5.1Zm23.5,0a5.2,5.2,0,1,1-5.2,5.1,5.1,5.1,0,0,1,5.2-5.1Zm12.7,67.9a72.5,72.5,0,0,0,36.2,9.7V124.2a44.5,44.5,0,0,1-14.2-2.3,72.5,72.5,0,0,0,0-86.2,73.8,73.8,0,0,0-22-19.6,72.4,72.4,0,1,0-36.2,135.2,72.8,72.8,0,0,0,36.2-9.7Z"/><path class="cls-3" d="M16.7,105.5h-6v17.2a.6.6,0,0,1-.6.6H7.2a.6.6,0,0,1-.6-.6V105.5H.6a.6.6,0,0,1-.6-.6v-2.4a.6.6,0,0,1,.6-.5H16.7c.4,0,.6.2.6.5v2.4A.6.6,0,0,1,16.7,105.5Zm21.6,17.8H35.4a.6.6,0,0,1-.6-.6V114H25.3v8.7a.6.6,0,0,1-.6.6h-3a.6.6,0,0,1-.6-.6V102.5a.6.6,0,0,1,.6-.5h3a.6.6,0,0,1,.6.5v7.8h9.5v-7.8c0-.3.2-.5.6-.5h2.9c.4,0,.6.2.6.5v20.2A.6.6,0,0,1,38.3,123.3Zm14.9.2c-5,0-9.5-2.8-9.5-9.3v-3.1c0-6.6,4.5-9.4,9.5-9.4s9.5,2.8,9.5,9.4v3.1C62.7,120.7,58.1,123.5,53.2,123.5Zm5.3-12.4c0-4-2.4-5.7-5.3-5.7s-5.3,1.7-5.3,5.7v3.1c0,3.9,2.4,5.7,5.3,5.7s5.3-1.8,5.3-5.7Zm30,12.2h-3a.6.6,0,0,1-.5-.6v-13c0-.2,0-.3-.1-.3v.2L80,120.3a1.2,1.2,0,0,1-1,.5H77.4a1.1,1.1,0,0,1-.9-.5l-4.9-10.7v-.2c-.1,0-.1.1-.1.3v13a.6.6,0,0,1-.5.6h-3a.5.5,0,0,1-.5-.5V103.2a1.2,1.2,0,0,1,1.2-1.2H71a1.2,1.2,0,0,1,1.1.7l5.8,11.7c.1.3.2.4.3.4s.2-.1.3-.4l5.8-11.7a1.2,1.2,0,0,1,1.1-.7h2.4a1.2,1.2,0,0,1,1.2,1.2v19.6A.5.5,0,0,1,88.5,123.3Zm65.9,0h-3.1a1.6,1.6,0,0,1-1.8-1.1l-8.1-13.6-.3-.3c-.1,0-.1.1-.1.3v14.1a.6.6,0,0,1-.6.6h-2.6a.6.6,0,0,1-.6-.6V103.2a1.2,1.2,0,0,1,1.2-1.2h3.3c.6,0,.9.2,1.3.9l8.4,14.5.3.2a.4.4,0,0,0,.1-.3V102.5a.6.6,0,0,1,.6-.5H155a.6.6,0,0,1,.6.5v19.6A1.3,1.3,0,0,1,154.4,123.3Zm-52.5.2a29.4,29.4,0,0,1-6.8-.8c-.3,0-.5-.2-.5-.6V120c0-.4.2-.6.5-.6h.1a47.5,47.5,0,0,0,6.8.5c2.6,0,3.4-.9,3.4-2.6s-5.3-3.5-7.9-4.6a5.4,5.4,0,0,1-3.6-5.3c0-3.3,2.7-5.7,8.3-5.7a31.6,31.6,0,0,1,6.4.8c.3.1.6.3.6.6v2.2a.6.6,0,0,1-.5.6h-.1a57.6,57.6,0,0,0-6.6-.6c-2.2,0-3.9.8-3.9,2.1s1.1,1.9,2.4,2.5l5.1,2c2.5,1,4.2,2.5,4.2,5.4S107.9,123.5,101.9,123.5Zm21.2,0c-5,0-9.5-2.8-9.5-9.3v-3.1c0-6.6,4.5-9.4,9.5-9.4s9.5,2.8,9.5,9.4v3.1C132.6,120.7,128,123.5,123.1,123.5Zm5.3-12.4c0-4-2.4-5.7-5.3-5.7s-5.3,1.7-5.3,5.7v3.1c0,3.9,2.3,5.7,5.3,5.7s5.3-1.8,5.3-5.7ZM28.2,157.4H24.5c-.3,0-.5-.3-.6-.6l-4.3-7.3H15v7.4a.6.6,0,0,1-.5.6h-3a.6.6,0,0,1-.6-.6V137.2c0-.6.3-.8.9-.9a50.5,50.5,0,0,1,7.1-.4c4.6,0,8.9,1.6,8.9,6.8v.2a5.8,5.8,0,0,1-4.1,5.9l4.7,8a.4.4,0,0,1,.1.3A.3.3,0,0,1,28.2,157.4Zm-4.5-14.7c0-2.3-1.8-3.3-4.8-3.3l-3.9.2v6.5h3.9c3.1,0,4.8-.6,4.8-3.3Zm12.8,8.8c0,2.5.1,2.6,2.4,2.6h7.5a.6.6,0,0,1,.6.6v1.9c0,.4-.1.6-.6.6a34.5,34.5,0,0,1-6.4.4c-5,0-7.6.1-7.6-6.1V142c0-6.1,2.6-6.1,7.6-6.1a47.6,47.6,0,0,1,6.4.4c.5.1.6.2.6.6v2c0,.3-.2.5-.6.5H38.9c-2.3,0-2.4.1-2.4,2.6v2.8h9.6a.6.6,0,0,1,.6.6v2.1a.6.6,0,0,1-.6.6H36.5Zm24,6.1c-4.8,0-9-2-9-8.4V136.7a.6.6,0,0,1,.6-.6h3a.6.6,0,0,1,.6.6v12.5c0,3.4,1.6,5,4.8,5s4.8-1.6,4.8-5V136.7a.6.6,0,0,1,.6-.6h3a.6.6,0,0,1,.6.6v12.5C69.5,155.6,65.3,157.6,60.5,157.6Zm28.7-18h-6v17.2a.6.6,0,0,1-.6.6h-3a.6.6,0,0,1-.6-.6V139.6H73.1c-.4,0-.6-.2-.6-.5v-2.4a.6.6,0,0,1,.6-.6H89.2a.6.6,0,0,1,.6.6v2.4A.6.6,0,0,1,89.2,139.6Zm40.7,17.8h-3.7c-.3,0-.4-.3-.6-.6l-4.3-7.3h-4.6v7.4a.6.6,0,0,1-.5.6h-3a.6.6,0,0,1-.6-.6V137.2c0-.6.3-.8.9-.9a51.4,51.4,0,0,1,7.1-.4c4.7,0,8.9,1.6,8.9,6.8v.2a5.9,5.9,0,0,1-4,5.9l4.7,8v.3A.3.3,0,0,1,129.9,157.4Zm-4.5-14.7c0-2.3-1.8-3.3-4.8-3.3l-3.9.2v6.5h3.9c3.1,0,4.8-.6,4.8-3.3Zm15.9,15a36.2,36.2,0,0,1-6.8-.8.6.6,0,0,1-.5-.6v-2.2a.6.6,0,0,1,.5-.6h.1a44.4,44.4,0,0,0,6.8.6c2.6,0,3.5-1,3.5-2.7s-5.4-3.5-8-4.6a5.4,5.4,0,0,1-3.6-5.2c0-3.3,2.7-5.7,8.3-5.7a27.4,27.4,0,0,1,6.5.8.5.5,0,0,1,.5.5v2.3a.5.5,0,0,1-.5.5h0a63.4,63.4,0,0,0-6.7-.5c-2.2,0-3.9.7-3.9,2.1s1.1,1.9,2.5,2.4l5,2c2.6,1,4.2,2.5,4.2,5.4S147.3,157.7,141.3,157.7ZM97,151.5c0,2.5.1,2.6,2.4,2.6H107a.6.6,0,0,1,.5.6v1.9c0,.4-.1.6-.5.6a36.8,36.8,0,0,1-6.5.4c-5,0-7.6.1-7.6-6.1V142c0-6.1,2.6-6.1,7.6-6.1a51.3,51.3,0,0,1,6.5.4c.4.1.5.2.5.6v2a.5.5,0,0,1-.5.5H99.4c-2.3,0-2.4.1-2.4,2.6v2.8h9.6a.6.6,0,0,1,.6.6v2.1a.6.6,0,0,1-.6.6H97Zm59.9-15.6a4.3,4.3,0,0,0-4.5,4.3,4.5,4.5,0,0,0,8.9,0A4.2,4.2,0,0,0,156.9,135.9Zm0,8.1a3.8,3.8,0,0,1,0-7.6,3.8,3.8,0,0,1,0,7.6Zm2-1.8-1-1.7a1.1,1.1,0,0,0,.8-1.2h0c0-1-.8-1.4-1.8-1.4h-1.4l-.2.2v4a.1.1,0,0,0,.1.1h.6a.1.1,0,0,0,.1-.1v-1.5h1l.8,1.5h.9a.1.1,0,0,0,.1-.1Zm-1-2.9c0,.6-.4.7-1,.7h-.8v-1.3h.8c.6,0,1,.2,1,.7Z"/><path class="cls-4" d="M118.5,46.5a4.8,4.8,0,1,1,4.9-4.8A4.8,4.8,0,0,1,118.5,46.5Zm2.1-19a4.2,4.2,0,0,0-5.3-2.7,4.3,4.3,0,0,0-2.6,5.3,4.2,4.2,0,0,0,5.2,2.7A4.3,4.3,0,0,0,120.6,27.5Zm-6.4-10.9a3.4,3.4,0,0,0-4.9-.9,3.5,3.5,0,0,0-.9,4.9,3.6,3.6,0,0,0,5,.9A3.4,3.4,0,0,0,114.2,16.6Zm-8.8-8.4a3.1,3.1,0,1,0,.4,4.3A3,3,0,0,0,105.4,8.2Zm-9.7-5a2.5,2.5,0,0,0-3.3,1.2,2.4,2.4,0,0,0,1.2,3.3,2.5,2.5,0,0,0,3.3-1.2A2.6,2.6,0,0,0,95.7,3.2ZM86.4.7a2.2,2.2,0,0,0-2.6,1.6,2.1,2.1,0,0,0,1.7,2.5A2,2,0,0,0,88,3.2,2,2,0,0,0,86.4.7ZM77.8,0a1.8,1.8,0,0,0-1.9,1.8,1.9,1.9,0,0,0,1.9,1.9,1.9,1.9,0,0,0,1.8-1.9A1.8,1.8,0,0,0,77.8,0Zm-36,41.7A4.8,4.8,0,1,0,37,46.5,4.7,4.7,0,0,0,41.8,41.7Zm1.1,11.6a4.2,4.2,0,1,0-2.7,5.3A4.3,4.3,0,0,0,42.9,53.3Zm4.2,9.5a3.5,3.5,0,0,0-4.9-.9,3.6,3.6,0,0,0-.9,5,3.5,3.5,0,0,0,4.9.9A3.6,3.6,0,0,0,47.1,62.8ZM54,70.5a3.1,3.1,0,1,0,.4,4.3A3,3,0,0,0,54,70.5Zm8,5.2a2.5,2.5,0,0,0-3.3,1.2,2.4,2.4,0,0,0,1.2,3.3A2.4,2.4,0,0,0,63.2,79,2.5,2.5,0,0,0,62,75.7Zm8.1,2.9a2.2,2.2,0,0,0-2.6,1.6,2.2,2.2,0,0,0,1.7,2.6,2.1,2.1,0,0,0,2.5-1.7A2.1,2.1,0,0,0,70.1,78.6Zm7.7,1.1a2,2,0,0,0-1.9,1.9,1.9,1.9,0,0,0,1.9,1.8,1.8,1.8,0,0,0,1.8-1.8A1.9,1.9,0,0,0,77.8,79.7ZM37.6,32.8a4.3,4.3,0,0,0,5.3-2.7,4.2,4.2,0,0,0-8-2.6A4.3,4.3,0,0,0,37.6,32.8Zm4.6-11.3a3.5,3.5,0,1,0-.9-4.9A3.5,3.5,0,0,0,42.2,21.5Zm7.5-9a3,3,0,0,0,4.3.4,3.1,3.1,0,0,0,.5-4.3,3.1,3.1,0,0,0-4.4-.4A3,3,0,0,0,49.7,12.5Zm9-6A2.5,2.5,0,0,0,62,7.7a2.5,2.5,0,0,0,1.2-3.3,2.5,2.5,0,0,0-3.3-1.2A2.4,2.4,0,0,0,58.7,6.5Zm8.8-3.3a2.1,2.1,0,0,0,2.6,1.6,2,2,0,0,0,1.6-2.5A2.1,2.1,0,0,0,69.2.7,2.1,2.1,0,0,0,67.5,3.2Zm47.8,55.4a4.2,4.2,0,0,0,5.3-2.7,4.3,4.3,0,0,0-2.7-5.3,4.2,4.2,0,0,0-2.6,8Zm-6,9.1a3.5,3.5,0,0,0,5-.8,3.6,3.6,0,0,0-5.9-4.1A3.5,3.5,0,0,0,109.3,67.7Zm-8.2,7.1a3.1,3.1,0,1,0,.4-4.3A3,3,0,0,0,101.1,74.8ZM92.4,79a2.5,2.5,0,0,0,3.3,1.3,2.7,2.7,0,0,0,1.2-3.4,2.6,2.6,0,0,0-3.3-1.2A2.4,2.4,0,0,0,92.4,79Zm-8.6,2.1a2.2,2.2,0,0,0,2.6,1.7A2.2,2.2,0,0,0,88,80.2a2.1,2.1,0,0,0-4.2.9Zm24.6-56a3.8,3.8,0,0,0-5.1-1.5,3.7,3.7,0,1,0,5.1,1.5Zm-6.9-8.7a3.6,3.6,0,0,0-4.9.1,3.6,3.6,0,0,0,.2,4.9,3.4,3.4,0,0,0,4.7-5Zm-8.6-5.2A2.9,2.9,0,0,0,89,12.5a3,3,0,0,0,1.3,3.9,2.9,2.9,0,0,0,2.6-5.2ZM84.1,9a2.6,2.6,0,0,0-2.9,2,2.5,2.5,0,0,0,2,2.9A2.5,2.5,0,0,0,84.1,9Zm-8.4.3a2,2,0,0,0-1.8,2,1.9,1.9,0,0,0,2,1.8,1.8,1.8,0,0,0,1.8-2A2,2,0,0,0,75.7,9.3ZM68.5,11a1.7,1.7,0,0,0-1,2.1,1.7,1.7,0,0,0,2,1.1,1.7,1.7,0,0,0,1.1-2.1A1.8,1.8,0,0,0,68.5,11Zm-6,2.7a1.5,1.5,0,0,0-.5,1.9,1.4,1.4,0,0,0,1.9.6,1.5,1.5,0,0,0,.6-1.9A1.6,1.6,0,0,0,62.5,13.7ZM53.7,54.8a3.7,3.7,0,0,0-6.5,3.6,3.7,3.7,0,0,0,6.5-3.6ZM58.8,62a3.4,3.4,0,1,0,.1,4.9A3.4,3.4,0,0,0,58.8,62ZM65,66.9a2.9,2.9,0,0,0-2.6,5.2A2.9,2.9,0,1,0,65,66.9Zm7.4,2.7a2.5,2.5,0,1,0-1,4.8,2.4,2.4,0,0,0,2.9-2A2.3,2.3,0,0,0,72.4,69.6Zm7.2.7a2,2,0,0,0-1.8,2,2,2,0,0,0,2.1,1.8,1.9,1.9,0,0,0,1.7-2A1.8,1.8,0,0,0,79.6,70.3Zm6.5-1a1.5,1.5,0,0,0-1.1,2,1.6,1.6,0,0,0,2,1.1,1.6,1.6,0,0,0,1.1-2.1A1.6,1.6,0,0,0,86.1,69.3Zm5.6-2.1a1.4,1.4,0,0,0-.6,1.9,1.5,1.5,0,0,0,1.9.6,1.4,1.4,0,0,0,.6-1.9A1.4,1.4,0,0,0,91.7,67.2ZM47.5,50.1a2.9,2.9,0,1,0-1-5.7,3,3,0,0,0-2.4,3.4A2.9,2.9,0,0,0,47.5,50.1Zm-.9-9.3a2.4,2.4,0,1,0-2.1-2.6A2.3,2.3,0,0,0,46.6,40.8Zm1.7-8.5a2.4,2.4,0,0,0,3-1.3,2.2,2.2,0,1,0-4.2-1.6A2.2,2.2,0,0,0,48.3,32.3Zm3.8-7.2a1.8,1.8,0,0,0,2.6-.5,1.8,1.8,0,0,0-.3-2.6,2,2,0,0,0-2.7.4A2,2,0,0,0,52.1,25.1Zm4.7-5.5a1.6,1.6,0,1,0,.2-2.3A1.7,1.7,0,0,0,56.8,19.6ZM109.1,39a2.9,2.9,0,0,0,2.3-3.4,2.9,2.9,0,1,0-5.7,1.1A2.9,2.9,0,0,0,109.1,39Zm-.6,8.3a2.4,2.4,0,1,0-2.1-2.6A2.3,2.3,0,0,0,108.5,47.3Zm-3,8a2.3,2.3,0,0,0,1.7-4.2,2.3,2.3,0,0,0-2.9,1.3A2.2,2.2,0,0,0,105.5,55.3Zm-4.3,6.1a1.9,1.9,0,0,0,2.3-3,1.8,1.8,0,0,0-2.7.4A1.9,1.9,0,0,0,101.2,61.4Zm-5,4.5a1.6,1.6,0,1,0,.2-2.3A1.6,1.6,0,0,0,96.2,65.9Zm-.4-42.2a3.5,3.5,0,1,0,0,4.9A3.4,3.4,0,0,0,95.8,23.7Zm-8.6-5.3a3.1,3.1,0,0,0-4.1,1.7,3.2,3.2,0,0,0,1.7,4,3.1,3.1,0,1,0,2.4-5.7Zm-9.4-1.1A2.7,2.7,0,0,0,75.1,20a2.8,2.8,0,0,0,2.7,2.7,2.7,2.7,0,1,0,0-5.4Zm-9,2.7a2.2,2.2,0,0,0-1.1,2.7,2.1,2.1,0,0,0,2.7,1.1,2.1,2.1,0,0,0,1.1-2.7A2.2,2.2,0,0,0,68.8,20ZM64.5,54.9a3.4,3.4,0,1,0,0,4.9A3.6,3.6,0,0,0,64.5,54.9Zm6.1,4.4a3,3,0,0,0-4,1.8,3.1,3.1,0,0,0,1.7,4,3.1,3.1,0,0,0,4-1.7A3.1,3.1,0,0,0,70.6,59.3Zm7.1,1.4a2.8,2.8,0,1,0,2.7,2.8A2.8,2.8,0,0,0,77.7,60.7Zm7.4-1A1.9,1.9,0,0,0,84,62.3a2,2,0,0,0,2.6,1.1,2,2,0,1,0-1.5-3.7ZM58.2,52.4a2.8,2.8,0,0,0,1.6-3.7A2.8,2.8,0,0,0,56.1,47a3,3,0,0,0-1.7,3.8A3,3,0,0,0,58.2,52.4ZM56,43.6a2.3,2.3,0,0,0,.1-4.5,2.4,2.4,0,0,0-2.4,2.2A2.3,2.3,0,0,0,56,43.6Zm1.2-8.4a1.9,1.9,0,1,0,1.5-3.5,1.9,1.9,0,0,0-2.5,1.1A1.9,1.9,0,0,0,57.2,35.2Zm42.2,1.2a2.8,2.8,0,0,0,1.6-3.7A2.8,2.8,0,0,0,97.3,31a3,3,0,0,0-1.7,3.8A2.9,2.9,0,0,0,99.4,36.4Zm0,8a2.3,2.3,0,0,0,2.3-2.3,2.2,2.2,0,0,0-2.2-2.2,2.2,2.2,0,0,0-2.3,2.2A2.4,2.4,0,0,0,99.4,44.4Zm-2.7,7.3a2,2,0,0,0,2.5-1,1.9,1.9,0,0,0-1-2.5,1.8,1.8,0,0,0-2.4,1A2,2,0,0,0,96.7,51.7ZM61.3,27.9a1.9,1.9,0,0,0,2.7,0,1.9,1.9,0,1,0-2.7,0ZM91.5,58.2a1.8,1.8,0,1,0,2.6-2.6,1.8,1.8,0,0,0-2.6,2.6ZM74.3,25.9a2.7,2.7,0,0,0-2.1,3.2,2.5,2.5,0,0,0,3.2,2A2.6,2.6,0,0,0,77.5,28,2.8,2.8,0,0,0,74.3,25.9Zm-7.9,4.4a2.8,2.8,0,0,0,0,3.7,2.7,2.7,0,0,0,3.7,0,2.6,2.6,0,0,0-.1-3.7A2.5,2.5,0,0,0,66.4,30.3Zm-3.2,7.6a1.7,1.7,0,1,0,3.3.9,1.7,1.7,0,0,0-1.2-2.1A1.8,1.8,0,0,0,63.2,37.9Zm17,14.6a2.5,2.5,0,0,0-2,3.1,2.7,2.7,0,0,0,3.2,2.1,2.7,2.7,0,0,0,2-3.2A2.6,2.6,0,0,0,80.2,52.5Zm5.4-2.9a2.7,2.7,0,0,0,0,3.7,2.5,2.5,0,1,0,3.6-3.6A2.5,2.5,0,0,0,85.6,49.6Zm3.5-4.8a1.7,1.7,0,0,0,1.2,2.1,1.7,1.7,0,0,0,2.1-1.2,1.7,1.7,0,0,0-1.2-2.1A1.7,1.7,0,0,0,89.1,44.8ZM84.8,29.9a2.2,2.2,0,0,0-1.4-3,2.4,2.4,0,0,0-3.1,1.4,2.4,2.4,0,0,0,4.5,1.6ZM75.3,55.4a2.3,2.3,0,0,0-1.4-3,2.4,2.4,0,1,0-1.7,4.4A2.5,2.5,0,0,0,75.3,55.4ZM89.4,34.9a1.8,1.8,0,0,0,.3-2.5,1.8,1.8,0,0,0-2.5-.2,1.7,1.7,0,0,0-.3,2.4A1.8,1.8,0,0,0,89.4,34.9Zm-21,16.5a2,2,0,0,0,.3-2.5,2,2,0,0,0-2.5-.3,1.8,1.8,0,0,0,2.2,2.8ZM91,40.4a1.3,1.3,0,0,0,1-1.5,1.3,1.3,0,0,0-1.5-1,1.2,1.2,0,0,0-1,1.4A1.3,1.3,0,0,0,91,40.4ZM65.3,45.7a1.2,1.2,0,0,0-.5-2.4,1.1,1.1,0,0,0-1,1.4A1.2,1.2,0,0,0,65.3,45.7Z"/><path class="cls-5" d="M274.4,96.2l-.9-.2a2.5,2.5,0,0,1-1.6-2.3V86.3H235.6V81.2h38.8a2.6,2.6,0,0,1,2.6,2.6v3.7l10.3-10.4L277,66.8v3.7a2.6,2.6,0,0,1-2.6,2.6H211.2V68h60.7V60.6a2.6,2.6,0,0,1,4.3-1.8l16.5,16.5a2.5,2.5,0,0,1,0,3.6L276.2,95.5A2.7,2.7,0,0,1,274.4,96.2Z"/><path class="cls-5" d="M229.7,143.1a1.8,1.8,0,0,1-1-.2,2.5,2.5,0,0,1-1.5-2.3v-7.4H190.8v-5.1h38.9a2.6,2.6,0,0,1,2.5,2.6v3.7l10.4-10.3-10.4-10.4v3.8a2.5,2.5,0,0,1-2.5,2.5H209.9v-5.1h17.3v-7.3a2.6,2.6,0,0,1,1.5-2.4,2.4,2.4,0,0,1,2.8.6L248,122.3a2.5,2.5,0,0,1,0,3.6l-16.5,16.5A2.4,2.4,0,0,1,229.7,143.1Z"/><path class="cls-5" d="M240.2,52.6a1.8,1.8,0,0,1-1-.2,2.5,2.5,0,0,1-1.5-2.3V42.7H211.2V37.6h29a2.6,2.6,0,0,1,2.6,2.6v3.7l10.3-10.3L242.8,23.2V27a2.6,2.6,0,0,1-2.6,2.5H223.9V24.4h13.8V17.1a2.6,2.6,0,0,1,1.5-2.4,2.4,2.4,0,0,1,2.8.6l16.5,16.5a2.5,2.5,0,0,1,0,3.6L242,51.9A2.4,2.4,0,0,1,240.2,52.6Z"/><path class="cls-5" d="M533.7,99.6l-1-.2a2.7,2.7,0,0,1-1.5-2.4V89.7H494.4V84.6h39.3a2.6,2.6,0,0,1,2.6,2.5v3.8l10.3-10.4L536.3,70.1v3.8a2.6,2.6,0,0,1-2.6,2.6H512.2V71.4h19V64a2.7,2.7,0,0,1,1.5-2.4,2.8,2.8,0,0,1,2.8.6L552,78.7a2.5,2.5,0,0,1,0,3.6L535.5,98.8A2.5,2.5,0,0,1,533.7,99.6Z"/><path class="cls-5" d="M569.1,52.6a1.5,1.5,0,0,1-.9-.2,2.5,2.5,0,0,1-1.6-2.3V42.7H549.3V37.6h19.8a2.6,2.6,0,0,1,2.6,2.6v3.7L582,33.6,571.7,23.2V27a2.6,2.6,0,0,1-2.6,2.5H530.3V24.4h36.3V17.1a2.5,2.5,0,0,1,1.6-2.4,2.3,2.3,0,0,1,2.7.6l16.5,16.5a2.5,2.5,0,0,1,0,3.6L570.9,51.9A2.4,2.4,0,0,1,569.1,52.6Z"/><path class="cls-5" d="M582.7,143.1a2,2,0,0,1-1-.2,2.5,2.5,0,0,1-1.5-2.3v-7.4H516.7v-5.1h66a2.6,2.6,0,0,1,2.6,2.6v3.7l10.3-10.3-10.3-10.4v3.8a2.6,2.6,0,0,1-2.6,2.5H535.3v-5.1h44.9v-7.3a2.6,2.6,0,0,1,1.5-2.4,2.4,2.4,0,0,1,2.8.6L601,122.3a2.5,2.5,0,0,1,0,3.6l-16.5,16.5A2.4,2.4,0,0,1,582.7,143.1Z"/><path class="cls-6" d="M723.8,102.7c-6.4,0-11.5-2.1-15.4-6.3s-5.8-9.7-5.8-16.5,2-13,5.9-17.4,9.3-6.5,16.1-6.5a19.6,19.6,0,0,1,15.1,6.3q5.7,6.3,5.7,16.5c0,7.4-2,13.2-5.9,17.5S730.4,102.7,723.8,102.7Zm.4-41.9A14.6,14.6,0,0,0,712.6,66c-2.9,3.4-4.4,7.9-4.4,13.4s1.4,10.1,4.3,13.5A14.2,14.2,0,0,0,723.8,98c5,0,8.9-1.6,11.7-4.9s4.3-7.7,4.3-13.6-1.4-10.5-4.1-13.8S729.1,60.8,724.2,60.8Z"/><path class="cls-6" d="M782,57.9a7.8,7.8,0,0,1,3.5.8V54.1a10.1,10.1,0,0,0-3.8-.6,9.9,9.9,0,0,0-7.3,3c-2,1.9-2.9,4.6-2.9,8v5.2h-13v-5c0-4.5,1.8-6.8,5.5-6.8a7.7,7.7,0,0,1,3.4.8V54.1a9.7,9.7,0,0,0-3.8-.6,9.9,9.9,0,0,0-7.3,3,10.9,10.9,0,0,0-2.9,8v5.2h-5.5v4.4h5.5V102h5.1V74.1h13V102h5.1V74.1h7.6V69.7h-7.6v-5C776.6,60.2,778.4,57.9,782,57.9Z"/><path class="cls-6" d="M791.6,61.5a3.2,3.2,0,0,1-2.3-.9,3.3,3.3,0,0,1-1-2.4,3,3,0,0,1,1-2.4,2.9,2.9,0,0,1,2.3-1,3.4,3.4,0,0,1,3.5,3.4,3.3,3.3,0,0,1-1,2.3A3.3,3.3,0,0,1,791.6,61.5Zm2.6,40.5H789V69.7h5.2Z"/><path class="cls-6" d="M823.1,100.5a16.7,16.7,0,0,1-8.8,2.2,14.7,14.7,0,0,1-11.2-4.5c-2.8-3-4.2-6.8-4.2-11.6s1.5-9.6,4.6-12.8,7.1-4.8,12.1-4.8a17.3,17.3,0,0,1,7.5,1.5v5.3a12.6,12.6,0,0,0-7.6-2.5,10.9,10.9,0,0,0-8.2,3.5c-2.1,2.4-3.1,5.5-3.1,9.4a12.8,12.8,0,0,0,3,8.9,10,10,0,0,0,7.9,3.3,12.8,12.8,0,0,0,8-2.8Z"/><path class="cls-6" d="M854.7,87.1H831.9c.1,3.6,1.1,6.4,2.9,8.4a10.3,10.3,0,0,0,7.6,2.9,16,16,0,0,0,10.1-3.6v4.8c-2.9,2.1-6.6,3.1-11.3,3.1s-8.1-1.4-10.7-4.4-3.9-7-3.9-12.3,1.4-9.1,4.2-12.3A13.6,13.6,0,0,1,841.4,69c4.3,0,7.5,1.3,9.8,4s3.5,6.6,3.5,11.4Zm-5.3-4.3c0-3-.7-5.4-2.1-7a7.4,7.4,0,0,0-6-2.5,8.5,8.5,0,0,0-6.2,2.6,11.9,11.9,0,0,0-3.1,6.9Z"/><polygon class="cls-6" points="617.4 102.2 658.2 116.8 680.9 109.5 680.9 48.5 658.2 40.9 617.4 56.6 617.4 102.2"/><polygon class="cls-7" points="617.4 102.2 632 96.1 632 60.2 658.5 54.1 658.5 107.5 617.4 102.2"/><g class="cls-8"><g class="cls-9"><polyline class="cls-10" points="2.3 472.7 1204.5 344.9 1204.5 -286.6 2.3 -383"/></g></g></svg>