<svg id="Layer_1" data-name="Layer 1" xmlns="http://www.w3.org/2000/svg" viewBox="0 0 886.5 971"><defs><style>.cls-1{fill:#f0f1f3;}</style></defs><title>MOD-Website-Components-R1</title><path class="cls-1" d="M751.1,161.3H750V310.9L632,379.1a13.1,13.1,0,0,0-22,0L563,352l38-22,20,11.6L712,289V183.8l-85.8-49.5a5.8,5.8,0,0,0,.3-1.9,5.5,5.5,0,1,0-11,0,5.5,5.5,0,0,0,5.5,5.5,5.4,5.4,0,0,0,4.2-1.9L710,185V287.8l-89,51.5-18-10.4,18-10.4h0l71-41V201.3a5.6,5.6,0,0,0,4.5-5.4,5.5,5.5,0,1,0-11,0,5.6,5.6,0,0,0,4.5,5.4v75l-69,39.9-69-39.9V204.1a8.1,8.1,0,0,0,7-7.9,8.8,8.8,0,0,0-.7-3.3l58.5-33.8A5.4,5.4,0,0,0,621,161a5.5,5.5,0,0,0,5.5-5.5,5.5,5.5,0,0,0-11,0,5.8,5.8,0,0,0,.3,1.9l-58.5,33.8a8.3,8.3,0,0,0-6.3-3,8,8,0,0,0-1,15.9v73.4l69,39.8-18,10.4-64.8-37.4a5.8,5.8,0,0,0,.3-1.9,5.5,5.5,0,0,0-11,0,5.5,5.5,0,0,0,5.5,5.5,5.4,5.4,0,0,0,4.2-1.9L599,328.9l-38,21.9-65-37.6a5.5,5.5,0,1,0-10.5-2.2,5.5,5.5,0,0,0,5.5,5.5,5.1,5.1,0,0,0,3.8-1.6L559,352l-63.8,36.9a5.5,5.5,0,0,0-4.2-2,5.5,5.5,0,0,0-5.5,5.5,5.5,5.5,0,0,0,11,0,5.7,5.7,0,0,0-.3-1.8L561,353.1l48.1,27.8a12.7,12.7,0,0,0-1.1,5.2,13,13,0,0,0,13,13,12.8,12.8,0,0,0,10.4-5.3L690,427.6v78L561,431.1l-29,16.8V422.3a5.6,5.6,0,0,0,4.5-5.4,5.5,5.5,0,0,0-11,0,5.6,5.6,0,0,0,4.5,5.4V449l-48.5,28a13.2,13.2,0,0,0-10.5-5.4,13,13,0,0,0-10.8,5.9L402,443.8V414.6a5.6,5.6,0,0,0,4.5-5.4,5.5,5.5,0,0,0-11,0,5.6,5.6,0,0,0,4.5,5.4v98l-88,50.8V542.6l70-40.4V420.1l-69-39.8,58-33.5,64.8,37.4a5.8,5.8,0,0,0-.3,1.9,5.5,5.5,0,0,0,11,0,5.5,5.5,0,0,0-5.5-5.5,5.4,5.4,0,0,0-4.2,1.9L373,345.6l29-16.8V224.3h-2V327.7l-29,16.8-18-10.4,29-16.8V235.2l-29.2-16.8,58-33.5,25,14.4a5.8,5.8,0,0,0-.3,1.9,5.5,5.5,0,1,0,11,0,5.5,5.5,0,0,0-5.5-5.5,5.4,5.4,0,0,0-4.2,1.9l-24-13.9,24-13.9a5.5,5.5,0,0,0,4.2,2,5.5,5.5,0,0,0,5.5-5.5,5.5,5.5,0,1,0-11,0,5.7,5.7,0,0,0,.3,1.8l-25,14.5-38-22L402,143.8V39.2h-2V142.6l-29.2,16.9L311,124.9,185.2,197.6a5.4,5.4,0,0,0-4.2-1.9,5.5,5.5,0,0,0-5.5,5.5,5.5,5.5,0,0,0,11,0,5.8,5.8,0,0,0-.3-1.9L311,127.2l57.8,33.4-58.8,34v1.3l38.8,22.5-33.6,19.4a5.4,5.4,0,0,0-4.2-1.9,5.5,5.5,0,1,0,5.5,5.5,4.8,4.8,0,0,0-.3-1.8l34.6-20.1L380,236.4v79.7l-29,16.8L323.5,317a15,15,0,0,0,.5-3.7,13,13,0,1,0-26,0,15,15,0,0,0,.5,3.7L251,344.5l-29-16.8V224.3h-2V328.8l29,16.8-63.8,36.9a5.4,5.4,0,0,0-4.2-1.9,5.5,5.5,0,0,0-5.5,5.5,5.5,5.5,0,0,0,11,0,5.8,5.8,0,0,0-.3-1.9L251,346.8l60,34.6h0l69,39.9V501l-69,39.9-64.8-37.4a4.7,4.7,0,0,0,.3-1.7,5.5,5.5,0,1,0-11,0,5.5,5.5,0,0,0,9.8,3.4L270,519.5h0v20.8l-48-27.7v-98a5.6,5.6,0,0,0,4.5-5.4,5.5,5.5,0,0,0-11,0,5.6,5.6,0,0,0,4.5,5.4v62.1l-89-51.4L40,477.9V577a5.6,5.6,0,0,0-4.5,5.4,5.5,5.5,0,0,0,11,0A5.6,5.6,0,0,0,42,577V479l89-51.4L220,479v33.4l-18,10.4V489.4l-71-41-65.7,38a5.5,5.5,0,0,0-9.8,3.4,5.5,5.5,0,0,0,11,0,4.7,4.7,0,0,0-.3-1.7L131,450.7l69,39.9V524L90.5,587.3l-.5.3v68.2L2,605V455.9l124.8-72.1a5.5,5.5,0,0,0,4.2,2,5.5,5.5,0,0,0,5.5-5.5,5.5,5.5,0,0,0-11,0,5.7,5.7,0,0,0,.3,1.8L.5,454.5l-.5.3V606.1l90,52v80.8l119.3,68.9a13.2,13.2,0,0,0-1.3,5.6,13,13,0,1,0,26,0,13.2,13.2,0,0,0-1.3-5.6l113.7-65.7a5.5,5.5,0,0,0,10.1-3.1,5.5,5.5,0,0,0-11,0c0,.5.1.9.1,1.3L231.7,806.1a12.9,12.9,0,0,0-21.4,0L92,737.7V659.3l38,21.9v34.6l91,52.6,91-52.6V694.5l81.6,47.2a8.1,8.1,0,0,0-.6,3.1,7.9,7.9,0,0,0,7,7.9V895.6L530.5,971l1-1.7L402,894.4V752.7a7.9,7.9,0,0,0,7-7.9,8.1,8.1,0,0,0-.6-3.1L531,670.9l89,51.4v77.8l-18-10.4V778.9l-65.8-38a5.8,5.8,0,0,0,.3-1.9,5.5,5.5,0,0,0-11,0,5.5,5.5,0,0,0,5.5,5.5,5.4,5.4,0,0,0,4.2-1.9L600,780.1v8.5l-13.8-8a5.7,5.7,0,0,0,.3-1.8,5.5,5.5,0,0,0-11,0,5.5,5.5,0,0,0,5.5,5.5,5.5,5.5,0,0,0,4.2-2l14.8,8.6v68.9l-69,39.9-64.9-37.5a5.2,5.2,0,0,0,.4-2.1,5.5,5.5,0,1,0-5.5,5.5,5.7,5.7,0,0,0,4-1.7L531,902l71-41V792l18,10.4v69l-89,51.4-89-51.4V773.3a5.4,5.4,0,0,0,4.5-5.4,5.5,5.5,0,0,0-11,0,5.4,5.4,0,0,0,4.5,5.4v99.2l91,52.6,91-52.6V803.6L711,855l125.8-72.7a5.5,5.5,0,0,0,4.2,2,5.5,5.5,0,0,0,5.5-5.5,5.5,5.5,0,0,0-11,0,5.7,5.7,0,0,0,.3,1.8L711,852.7l-89-51.4V723.5l34,19.6a5.9,5.9,0,0,0-.5,2.3,5.5,5.5,0,1,0,11,0,5.5,5.5,0,0,0-9.4-3.9L622,721.2V676.5l89,51.4,89-51.4v43.9l-84.8,49a5.4,5.4,0,0,0-4.2-1.9,5.5,5.5,0,0,0-5.5,5.5,5.5,5.5,0,0,0,11,0,5.8,5.8,0,0,0-.3-1.9L800,722.7v27.7a5.5,5.5,0,0,0-4.5,5.4,5.5,5.5,0,0,0,11,0,5.5,5.5,0,0,0-4.5-5.4V721.5l39.5-22.8.5-.3V547.1L712,472V420.9a5.4,5.4,0,0,0,4.5-5.4,5.5,5.5,0,0,0-11,0,5.4,5.4,0,0,0,4.5,5.4v98l-58,33.6V531.7l40-23.1V426.5l-59.5-34.4a12.4,12.4,0,0,0,1.5-6,12.7,12.7,0,0,0-1.1-5.2l118.6-68.5.5-.3V163.2l128.5,74.3,1-1.8-130-75.1Zm-438.2,34,57.9-33.5,38,21.9-58,33.5ZM299.3,318.9a12.9,12.9,0,0,0,23.4,0L349,334.1l-33.8,19.5a5.4,5.4,0,0,0-4.2-1.9,5.5,5.5,0,0,0-5.5,5.5,5.5,5.5,0,1,0,11,0,5.8,5.8,0,0,0-.3-1.9L351,335.2l18,10.4-58,33.5-58-33.5ZM530,451.3v66.5l-47.4-27.4a12.4,12.4,0,0,0,1.4-5.8,13.1,13.1,0,0,0-1.4-5.9Zm90,199.8h0l-59,34.1-69-39.9V548a5.5,5.5,0,0,0,4.5-5.4,5.5,5.5,0,1,0-11,0A5.5,5.5,0,0,0,490,548v96.3l-18-10.4V553.6l-40-23.1V507.9l28.1-16.2a13,13,0,0,0,21.5.4l48.9,28.3h0L621,572.7l29-16.8v77.9ZM471.5,635.9l18,10.4-37.9,22-18-10.4ZM432,656.5V532.8l38,21.9v79.8Zm59.5-9,38,21.9-37.9,22-38-22ZM459.2,479.2a12.5,12.5,0,0,0-1.2,5.4,13.2,13.2,0,0,0,1.1,5.3l-28.6,16.6-.5.3v22.5l-28-16.2V446.2Zm-58.7,35.4,29.5,17v126l-29,16.8-64.8-37.5a4.1,4.1,0,0,0,.3-1.6,5.5,5.5,0,1,0-5.5,5.5,5.5,5.5,0,0,0,4.3-2.1l65.7,38L431.6,659l18,10.4L401,697.5,312,646V565.7ZM272,520.7l38,21.9v20.8l-38-21.9ZM92,657V588.7l108-62.4v44l-70,40.5v68.1Zm218,57.6-89,51.5-89-51.5V611.9l70-40.4V525.2l18-10.4V577a5.6,5.6,0,0,0-4.5,5.4,5.5,5.5,0,0,0,11,0A5.6,5.6,0,0,0,222,577V514.9l48,27.7V670.3l40,23.1Zm91,22.2a8.2,8.2,0,0,0-6.4,3.2L272,669.1V543.8l38,21.9v81.5l91,52.6,50.6-29.2,38,21.9L407.4,740A8.2,8.2,0,0,0,401,736.8Zm161.5-50L620,653.5V720ZM711,725.6l-89-51.4V652.4L652,635h0l59-34.1,69,39.9v20.8l-69-39.9-70.5,40.7.5.9-.5.9L711,704.8l71-41v-22l18,10.4v22Zm68-62.4-68,39.3-68-39.3,68-39.3Zm61-114.9v149l-38,21.9v-149l-90-52V474.3Zm-128.3-28,88.3,51v78.6l-18-10.4V587.7a5.5,5.5,0,0,0,4.5-5.4,5.5,5.5,0,0,0-11,0,5.5,5.5,0,0,0,4.5,5.4v50.7l-69-39.9-59,34.1V554.8ZM650,553.6l-29,16.8-89-51.5V450.2l29-16.8,128.5,74.3-39.4,22.7H650l-29,16.8-64.7-37.4a7.8,7.8,0,0,0,.2-1.6,5.5,5.5,0,1,0-5.5,5.5,5.3,5.3,0,0,0,4.4-2.2l65.6,38,29-16.8Z"/><path class="cls-1" d="M152,703.1V628.2a5.5,5.5,0,1,0-2,0v76.1l71,41,65.8-38a5.5,5.5,0,0,0,4.2,2,5.5,5.5,0,0,0,5.5-5.5,5.5,5.5,0,0,0-11,0,4.7,4.7,0,0,0,.3,1.7L221,743Z"/><path class="cls-1" d="M491,166.8a5.5,5.5,0,0,0,5.5-5.5,5.7,5.7,0,0,0-.3-1.8L616.8,89.8a5.4,5.4,0,0,0,4.2,1.9,5.5,5.5,0,0,0,5.5-5.5,5.5,5.5,0,0,0-11,0,5.8,5.8,0,0,0,.3,1.9L495.2,157.8a5.5,5.5,0,0,0-4.2-2,5.5,5.5,0,0,0-5.5,5.5A5.5,5.5,0,0,0,491,166.8Z"/><path class="cls-1" d="M881,184.9a5.7,5.7,0,0,0-4.2,1.9l-84.8-49v-98a5.5,5.5,0,0,0,4.5-5.4,5.5,5.5,0,1,0-11,0,5.5,5.5,0,0,0,4.5,5.4V139l85.8,49.6a5.2,5.2,0,0,0-.3,1.8,5.5,5.5,0,1,0,5.5-5.5Z"/><path class="cls-1" d="M811,132.9a5.5,5.5,0,0,0,1-10.9V46.5L876.8,9.1A5.7,5.7,0,0,0,881,11a5.5,5.5,0,0,0,5.5-5.5,5.5,5.5,0,0,0-11,0,5.2,5.2,0,0,0,.3,1.8L810,45.4V122a5.5,5.5,0,0,0,1,10.9Z"/><path class="cls-1" d="M240,61.6v70.1h2V61.6a10.5,10.5,0,0,0,8.4-15.1L311,11.4l69.5,40.2,1-1.7L311,9.1,249.3,44.8a10.4,10.4,0,0,0-8.3-4.1,10.5,10.5,0,0,0-1,20.9Z"/></svg>
