<svg id="Layer_1" data-name="Layer 1" xmlns="http://www.w3.org/2000/svg" viewBox="0 0 95.2 130.4"><defs><style>.cls-1{fill:#515151;}</style></defs><title>MOD-Website-Components-R1</title><path class="cls-1" d="M85.5,0H32.7A9.6,9.6,0,0,0,23,9.7V15H7.3A7.3,7.3,0,0,0,0,22.3V123.2a7.3,7.3,0,0,0,7.3,7.2H60.1a7.3,7.3,0,0,0,7.3-7.2V57.8H83.1A12.1,12.1,0,0,0,95.2,45.7V9.7A9.6,9.6,0,0,0,85.5,0ZM60.1,125.5H7.3a2.3,2.3,0,0,1-2.4-2.3V116H62.5v7.2A2.3,2.3,0,0,1,60.1,125.5Zm2.4-14.4H4.9V22.3a2.4,2.4,0,0,1,2.4-2.4H23V48.1a9.7,9.7,0,0,0,9.7,9.7H35v9.5a4.7,4.7,0,0,0,3.3,4.6l1.6.3a4.9,4.9,0,0,0,3.9-2l9.3-12.4h9.4ZM90.3,45.7a7.2,7.2,0,0,1-7.2,7.2H51.9a2.5,2.5,0,0,0-2,.9l-10,13.5v-12a2.4,2.4,0,0,0-2.4-2.4H32.7a4.8,4.8,0,0,1-4.8-4.8V9.7a4.7,4.7,0,0,1,4.8-4.8H85.5a4.7,4.7,0,0,1,4.8,4.8Z"/><path class="cls-1" d="M66.7,30.2a9.8,9.8,0,0,0,2.1-6.1V21.7a9.7,9.7,0,1,0-19.4,0v2.4a9.8,9.8,0,0,0,2.1,6.1c-3.9,1.5-6.9,4.3-6.9,8.3v7.2h4.9V38.5c0-2.8,5.1-4.8,9.6-4.8s9.6,2,9.6,4.8v7.2h4.9V38.5C73.6,34.5,70.6,31.7,66.7,30.2ZM54.3,24.1V21.7a4.8,4.8,0,1,1,9.6,0v2.4a4.8,4.8,0,0,1-9.6,0Z"/><rect class="cls-1" x="28.9" y="118.3" width="9.6" height="4.9"/></svg>