<svg id="Layer_1" data-name="Layer 1" xmlns="http://www.w3.org/2000/svg" viewBox="0 0 722.8 1012"><defs><style>.cls-1{fill:#f0f1f3;}</style></defs><title>MOD-Website-Components-R1</title><path class="cls-1" d="M722.8,287l-61.3-36.7V176.8l-57.1-34.3a7.1,7.1,0,0,0,.4-2,5.4,5.4,0,0,0-4.5-5.3V66.5L538.2,29.3,476.9,66h0l-62,37.3v73.5h0l-59.6,35.7V140L294,103.3V0h-1.6V28.8L244.4,0h-3.2l50.4,30.2L232.8,65.5V0h-1.7V65.5L172.3,30.2,222.6,0h-3.1l-48,28.8V0h-1.6V96.4a7.2,7.2,0,0,0-5.1,2.9L110.3,66.5V0h-1.7V66.5L48.2,102.8,0,73.9v1.9l46.6,27.9L0,131.7v1.9l47.4-28.4v71.6L0,205.2v1.9l48.2-28.9,54.2,32.5a7.2,7.2,0,0,0-.7,3.3,7.1,7.1,0,0,0,.7,3.2L48.2,249.8,0,220.9v1.9l47.4,28.4V395a2.4,2.4,0,0,0-1.1.6L0,367.9v1.9L45.4,397c0,.2-.1.5-.1.7s.1.5.1.7L0,425.7v1.9l46.3-27.8a4.1,4.1,0,0,0,1.1.7v70.3L5.9,495.6,0,492.1v1.5l4.6,2.8L0,499.2v1.9l6.2-3.8L38,516.4v21.3L0,514.9H0v1.9H0l38,22.8v35L17.5,586.9,0,597.4H0V599H0l38.7-23.2,8.7,5.2v36.8L30.2,628.1,0,610v1.5l28.9,17.4L0,646.2v1.9l30.5-18.3,7.5,4.5v56.4l-.9.5L0,669v1.5l36.4,21.9v1.1L0,715.3v1.6l37.1-22.3.9.5V810.5L0,833.3v1.5l38.7-23.2,43.4,26.1a7.5,7.5,0,0,0-.5,2.6,7.1,7.1,0,0,0,.5,2.6L38.7,869,0,845.8v1.6l38,22.8v57.4L0,904.8v1.5l37.4,22.5L0,951.2v1.5l38.7-23.2,48.4,29.1V1012h1.3V958.6l43.8-26.3a5.9,5.9,0,0,0,4.1,2.3V1012h1.3V988.9L176,1012h2.6l-40.4-24.3,47.2-28.3V1012h1.3V959.4l47.2,28.3L193.5,1012h2.6l38.4-23.1V1012h1.3V929.1L285,899.6V841.5l47.8,28.7v58.9L382.6,959h0l49.1,29.5,49.8-29.9V903.5a4.3,4.3,0,0,0,3.6-4.2,4.1,4.1,0,0,0-.3-1.6l45.8-27.5v-59l49.2-29.5V722l-46.2-27.7a3.2,3.2,0,0,0,.3-1.4,3.9,3.9,0,0,0-3.3-3.8V574.6l-49.7-29.8-49.8,29.8h0l-49.2,29.5v59l-46.6,28a2.5,2.5,0,0,0-1.8-.8,2.6,2.6,0,0,0-1.9.8l-47.3-28.4-48.5,29.1V634.3l41.3-24.7,16.1,9.6,62.1-37.3V507.5L294,470.8V399.2l60.4,36.2,59-35.3a3.4,3.4,0,0,0,4.6,0l58.1,34.8v73.5l61.3,36.8h0l62,37.2,62.1-37.2V402.5a4.8,4.8,0,0,0,4.1-4.8,3.9,3.9,0,0,0-.4-1.8l57.6-34.5ZM600.3,214.4V145.7a5.4,5.4,0,0,0,3.2-1.8l56.4,33.8v72.6l-38.4,23L600.3,286ZM538.2,31.2l60.4,36.2v67.8a5.1,5.1,0,0,0-3.2,1.9l-57.2-34.3h0L478.5,67Zm3.5,438.9,56.9-34.2v70.6l-56.9-34.1a5,5,0,0,0,.2-1.2A3.6,3.6,0,0,0,541.7,470.1Zm-.9-1.4a3.7,3.7,0,0,0-1.8-1.1V399.2l58.9,35.3Zm53.7-326.2L539,175.8V105.2l55.5,33.3a6.5,6.5,0,0,0-.4,2A7.1,7.1,0,0,0,594.5,142.5ZM541.3,249.8l57.3-34.4V286l-57.3-34.4a2.1,2.1,0,0,0,0-1.8Zm-.8-1.4a2.8,2.8,0,0,0-1.5-.8V178.7L597.9,214Zm-.7-71.2L575.2,156l20.2-12.1a5.4,5.4,0,0,0,3.2,1.8v66.8Zm-59.7-37.6,57.3-34.4v70.6l-57.3-34.4c0-.3.1-.6.1-.9S480.1,139.8,480.1,139.6Zm-2.3-71.2,58.8,35.3-57.4,34.4a3.9,3.9,0,0,0-1.4-.8Zm0,75.2a2.9,2.9,0,0,0,1.4-.8l34.4,20.6,23,13.8-52.9,31.7-5.9,3.6Zm59.6,35.1v68.9a2.8,2.8,0,0,0-1.5.8L478.5,214l43.4-26.1Zm-59.6,36.7,57.3,34.4a2.1,2.1,0,0,0,0,1.8L477.8,286ZM416.5,104.2l59.6-35.8v68.9a3.2,3.2,0,0,0-2.4,3.2,2.8,2.8,0,0,0,.1.9l-57.3,34.4Zm59.6,39.4v68.9l-58.8-35.3,57.4-34.4A2.9,2.9,0,0,0,476.1,143.6Zm-59.6,35.1,12.1,7.2,47.5,28.5V286l-59.6-35.7Zm-61.2,35.7,59.6-35.7v71.6l-55.3,33.1a6.7,6.7,0,0,0-4.3-2.4Zm-6.8,75.7-46.9,28.1-7.6,4.6V251.2l59.6-35.8V281a6.5,6.5,0,0,0-5.7,6.5A5.8,5.8,0,0,0,348.5,290.1ZM293.2,104.7l60.4,36.2v71.6l-60.4-36.2-58.6,35.1a4,4,0,0,0-1.8-1V140.9l30-18Zm-58,410.6-2.4,1.4v-8.3l59.6-35.7v71.6l-7.4,4.4v-3.6ZM188.8,839.4,209.6,827l25.6-15.4L283,840.3,235.2,869l-46.4-27.8a2.1,2.1,0,0,0,0-1.8Zm-51.2-29.7V752.2l24.2-14.5,20.7-12.4a4.1,4.1,0,0,0,2.9,1.6V781Zm47.8-27.2v54.9a3.8,3.8,0,0,0-1.5.9l-45.7-27.5Zm-94.8-2.1L136.3,753v56.7L90.6,782.3a2.8,2.8,0,0,0,.1-.9A3.1,3.1,0,0,0,90.6,780.4ZM87.1,545.1v56.5a2.9,2.9,0,0,0-1.4.8L49,580.4V545.2l57.8-34.7a4.2,4.2,0,0,0,1.8,1.1v20.7Zm1.3,62.2a2.8,2.8,0,0,0,1.5-.8L135.6,634,88.4,662.3Zm47.2,85.6L88.4,721.2V664.6ZM88.4,723.6,112,737.7l23.6,14.2L89.9,779.3a2.8,2.8,0,0,0-1.5-.8Zm24.1,12.8-23.4-14,47.2-28.3v56.6Zm-23.4-73,47.2-28.3v56.7Zm1.5-58a2.8,2.8,0,0,0,.1-.9,2.9,2.9,0,0,0-2.3-2.9V545.9l20.2-12.1v48.1l27.7,16.6v34.3Zm18-245.9L49.8,324.2l57-34.2a3.2,3.2,0,0,0,1.8,1ZM110.3,581V532.8l26.6-16,33,19.8v8.6l7.7,4.6-41.3,24.8v22Zm2.6-294.7,57-34.1v70.6l-57-34.2a4.3,4.3,0,0,0,.2-1.1A5,5,0,0,0,112.9,286.3Zm56.2,37.9-17.4,10.5-41.4,24.8V291a3.2,3.2,0,0,0,1.8-1Zm.8,1.5v70.6L111,361l24.7-14.9Zm-.8,72L110.3,433V362.4Zm.8,1.5v70.6L111,434.5Zm-.8,72-57,34.2a4,4,0,0,0-1.8-1V435.9Zm-56,36.8a5,5,0,0,0-.2-1.2l57-34.1V535l-33-19.7-26.6,16V511.6A3.8,3.8,0,0,0,113.1,508Zm118-220.1v67.4a5.8,5.8,0,0,0-3.6,2.1l-36.9-22.2-19.1-11.4V252.2Zm-58.8-37.2,57-34.2a3.2,3.2,0,0,0,1.8,1V286ZM205,345.8l21.7,13a5.1,5.1,0,0,0-.5,2.2,5.4,5.4,0,0,0,.5,2.2l-55.2,33.1V325.7Zm22.5,18.8a5.7,5.7,0,0,0,3.6,2V434l-59.6,35.8V398.2ZM190.3,724.2a5.5,5.5,0,0,0,0-3.6l44.2-26.5v56.6Zm43.6,27.7-47.2,28.3V726.9a4.1,4.1,0,0,0,2.9-1.6Zm-44.3-32.4a4.1,4.1,0,0,0-2.9-1.6V663.8l47.8-28.7v57.4Zm-52-122.1v-22l41.3-24.8,6.5,3.9v49.6l-18.3,11Zm27.9,18.7-9.8,5.8-18.1,10.9V599.3Zm15-66.5,2.6-1.5a4.8,4.8,0,0,0,2.3,1.3v3.2Zm5.6,55.6,2.3,1.4-17.7,10.7-2.4-1.4Zm.6-1.1V555.3l40.7,24.4a4.8,4.8,0,0,0-.4,1.8,5.8,5.8,0,0,0,.4,1.8l-37.7,22.6Zm3-60,41.4-24.9v52.6l-41.4-24.9a3.4,3.4,0,0,0,0-2.8Zm41.4,29.2v3.4a5.6,5.6,0,0,0-2.9,1.6l-41.5-24.9v-4a4.8,4.8,0,0,0,2.3-1.3Zm-2.9,11.4a5.2,5.2,0,0,0,3.7,1.7,4.5,4.5,0,0,0,2.6-.8v47.2l-43.2-26Zm2.9-67L189,543a3.7,3.7,0,0,0-2.9-1.4,3.7,3.7,0,0,0-3,1.4l-11.6-7V472.7L211,496.3l20.1,12.1Zm-48.7,26.4a3.4,3.4,0,0,0,0,2.8l-3.2,2-7.7-4.6v-6.7Zm-.6,180.1-13.4,8.1-30.8,18.4V694.1l44.2,26.5a5.6,5.6,0,0,0,0,3.6Zm.7-4.7-23.6-14.2-21.3-12.8V635.1l47.8,28.7v54.1A4.1,4.1,0,0,0,182.5,719.5Zm-43.9-85.3-.4-.2,28.6-17.2,3.9,2.4L190,607.6,233.9,634l-47.8,28.7Zm48.1,147.5L234.5,753v57.5h-.2l-46.1,27.7a3.8,3.8,0,0,0-1.5-.9Zm47.8-204.4a4.9,4.9,0,0,0-1.7-.6v-2.4l1.7,1.1ZM231.9,507l-51.2-30.7-8.4-5.1,14.2-8.5,45.4-27.3,59.7,35.8-15.1,9.1Zm.9-73V366.6a5.7,5.7,0,0,0,3.6-2l56,33.6v71.6Zm0-78.7V288.9l58.8,35.3-55.2,33.2A5.8,5.8,0,0,0,232.8,355.3Zm4.4,7.9a5.4,5.4,0,0,0,.5-2.2,5.1,5.1,0,0,0-.5-2.2l55.2-33.1v70.6ZM232.8,287V217.5a3.2,3.2,0,0,0,1.8-1L287,248l5.4,3.2v71.6Zm0-219.6h0l59.6-35.7v71.6l-9.5,5.7-51,30.5-54.5-32.7a8.1,8.1,0,0,0,.6-3.1,7.3,7.3,0,0,0-.6-3ZM171.5,31.7,230.4,67,176.5,99.3a7.2,7.2,0,0,0-5-2.9Zm0,146V111a7.5,7.5,0,0,0,5-2.8l54.6,32.7v69.5a3.7,3.7,0,0,0-2.8,3.6,2.2,2.2,0,0,0,.2,1.1l-57.8,34.7-54.2-32.6a7.9,7.9,0,0,0,0-6.5ZM109.4,67.9l47.7,28.6,6.9,4.2a7.2,7.2,0,0,0,5.9,10.3v65.8l-54.3,32.5a7.4,7.4,0,0,0-5.3-3V140L49.8,103.7ZM49,176.8V105.2l59.6,35.7v65.4a7.6,7.6,0,0,0-5.4,3Zm0,74.4,11.7-7,42.5-25.6a7.9,7.9,0,0,0,6.2,3.1,7.6,7.6,0,0,0,6.2-3.1l53.5,32.1-57,34.2a3.7,3.7,0,0,0-2.7-1.1,3.6,3.6,0,0,0-3.6,3.7,2.2,2.2,0,0,0,.2,1.1L49,322.8Zm0,74.5,59.6,35.7h0V433L50.9,398.4a1.5,1.5,0,0,0,.1-.7,2.8,2.8,0,0,0-2-2.7ZM7.5,496.6,49,471.7V400.5a4.1,4.1,0,0,0,1.1-.7l2.2,1.3,56.3,33.8v69.5a3.7,3.7,0,0,0-2.8,3.6,2,2,0,0,0,.2,1.1L48.2,543.8l-8.9-5.4V515.7Zm31.8,78V540.4l8.1,4.8v34.3ZM31.7,629,49,618.7V582l36,21.6a2.9,2.9,0,0,0-.2.9,2.9,2.9,0,0,0,2.3,2.8v55.8L62.7,677.7,40.2,691.2l-.9-.5V633.6Zm7.6,121.7V695.1a2.2,2.2,0,0,0,1.6-2.2v-.5l17-10.3,29.2-17.5V722h0Zm47.8-27.1v54.9a2.9,2.9,0,0,0-1.4.8L39.9,751.9ZM41.4,811.7l-2.1-1.2V753L85,780.4a3,3,0,0,0-.2,1,3,3,0,0,0,3,2.9,2.7,2.7,0,0,0,2.1-.9l45.7,27.4L92.7,836.6a6.1,6.1,0,0,0-4.9-2.5,6.4,6.4,0,0,0-5,2.5Zm-2.1,58.5,43.5-26.1a6.5,6.5,0,0,0,4.3,2.4v52.4L39.3,927.6Zm97,52.7a5.9,5.9,0,0,0-5.3,5.9,5,5,0,0,0,.6,2.4l-3.1,1.8L87.8,957.5,39.9,928.8l48.5-29.2V846.5a6.2,6.2,0,0,0,4.3-2.4l43.6,26.1Zm-42.9-80a5.5,5.5,0,0,0,.6-2.6,5.8,5.8,0,0,0-.6-2.6l43.5-26.1,46.4,27.8a2.9,2.9,0,0,0-.2.9,3,3,0,0,0,2.3,2.9v55.7l-43.8,26.3a5.9,5.9,0,0,0-4-2.3V869.4Zm44.2,143.7v-52a5.9,5.9,0,0,0,4-2.3l43.2,25.9Zm96.9,0-47.8-28.7h0l-44.4-26.7a6.4,6.4,0,0,0,.5-2.4,7,7,0,0,0-.5-2.5L186.1,900l48.4,29.1Zm49.2-87.7L235.2,928l-48.5-29.1V843.2a2.8,2.8,0,0,0,1.5-.8l47,28.2,48.5-29.1Zm0-59.7-47.9-28.7V753l43.7,26.2a5.4,5.4,0,0,0-.4,2.2,5.2,5.2,0,0,0,4.6,5.1Zm49.1,29.4L285,839.9V786.5a4.9,4.9,0,0,0,3.4-1.9l44.4,26.6Zm49.1,88.5-47.8-28.7V871l46,27.5a2.2,2.2,0,0,0-.1.8,2.6,2.6,0,0,0,1.9,2.5Zm0-60.3a3.4,3.4,0,0,0-1.2.6l-46-27.6,20-12,27.2-16.3Zm0-56.9-47.8,28.7V811.2l24.2-14.5,23.6-14.2Zm3.2,58.6,21.6-12.9L431.1,871v56.6l-46-27.6a1.7,1.7,0,0,0,.1-.7A2.2,2.2,0,0,0,385.1,898.5Zm44.1-86.9-46,27.6V782.5l46,27.6a1.7,1.7,0,0,0-.1.7A2.2,2.2,0,0,0,429.2,811.6Zm.7,1.1a3.5,3.5,0,0,0,1.2.7v55.2l-47.2-28.3Zm.5,57.1-46,27.6a2.3,2.3,0,0,0-1.2-.6V841.5Zm-46,31.3,46,27.7-47.2,28.3V901.8A1.9,1.9,0,0,0,384.4,901.1Zm95.8,56.8L431.7,987l-47.8-28.8,48.5-29.1h0L477.6,902a4.3,4.3,0,0,0,2.6,1.5Zm-3.3-57-44.5,26.7V871l26.3,15.8,18.2,10.9a4.1,4.1,0,0,0-.3,1.6A4.5,4.5,0,0,0,476.9,900.9Zm3.3-5.8a3.9,3.9,0,0,0-2.6,1.5L433,869.8l47.2-28.3Zm-47.8-26.5V813.4l1.2-.7,46,27.6Zm47.8-29.4-46-27.6a2.2,2.2,0,0,0,.1-.8,1.7,1.7,0,0,0-.1-.7l46-27.6Zm.7-117.6L433,692.9l47.8-28.7h.1l48.4-29.1v54a3.9,3.9,0,0,0-3.2,3.8,5.9,5.9,0,0,0,.2,1.4L510.2,704ZM434.5,633l45.7-27.4v56.7l-45.7-27.4a2.9,2.9,0,0,0,.2-.9A3,3,0,0,0,434.5,633Zm47,29.3V605.6L528.7,634Zm47.8,207.1-45.2,27.2a3.9,3.9,0,0,0-2.6-1.5V782.5l47.8,28.7ZM533,695.5l45.5,27.3V781L530,810.1l-31-18.6L481.5,781V722.8L527,695.5a4,4,0,0,0,3,1.3A4.2,4.2,0,0,0,533,695.5ZM480.9,546.3l48.4,29.1v57.4l-47.8-28.7h0L433,575Zm-48.5,29.9,47.2,28.3-45.8,27.4a2.9,2.9,0,0,0-1.4-.8Zm0,60.6a2.5,2.5,0,0,0,1.4-.8l45.8,27.4-47.2,28.4Zm0,57.3,47.8,28.7v57.4l-47.8-28.7Zm-.7,58.5,47.9,28.8-46,27.6a2.7,2.7,0,0,0-1.9-.8,2.5,2.5,0,0,0-1.8.8l-46-27.6,29.8-18ZM383.2,604.8l47.9-28.6v54.9a3,3,0,0,0-2.3,2.9,2.9,2.9,0,0,0,2.3,2.8v55l-23.6-14.2-24.3-14.5ZM336,692.2l46.6-28,8.5,5.1,40,24h0v58.2l-18.2,10.9-29.7,17.8V722L336,693.7c0-.3.1-.5.1-.8S336,692.4,336,692.2Zm-1.9,3.2a2.3,2.3,0,0,0,1.2-.6l46.6,28v57.4l-24.1-14.5-23.7-14.2Zm3.2,59.6,44,26.4L334,809.8l-.5.3-44.4-26.6a5.4,5.4,0,0,0,.5-2.1,5.4,5.4,0,0,0-.5-2.2l15-9,29.4-17.6Zm-4.5-59.6v56.1L308.7,766l-20.3,12.1a5.3,5.3,0,0,0-3.4-1.9V722.8l46.6-28A2.3,2.3,0,0,0,332.8,695.4Zm-48.5-31.2,46.6,28c0,.2-.1.5-.1.7a2.4,2.4,0,0,0,.2.8L283.7,722v54.2a5.5,5.5,0,0,0-3.5,1.9l-24.5-14.7-19.9-11.9V693.3Zm-51.5-91.4V518.3l2.4-1.5,48.5,29.1v3.6l-47.9,28.7v-3.6Zm3,60v-48l40.1,24Zm.7-49.5a5.7,5.7,0,0,0,.3-1.8,4.8,4.8,0,0,0-.3-1.8l47.2-28.3v52.7l-6.2,3.7Zm117.1-74.9V581l-60.4,36.3-14.5-8.7,6.3-3.8V550.6l9-5.4V472.7ZM293.2,249.8l-57.8-34.7a4.3,4.3,0,0,0,.2-1.1,5,5,0,0,0-.2-1.2l57.8-34.6L352.8,214ZM412.6,398.6l-58.2,34.9L294,397.3V324.7l22.6-13.6,32.7-19.6a6.5,6.5,0,0,0,4.3,2.4v67.5l59,35.4a2.9,2.9,0,0,0-.2.9A2.4,2.4,0,0,0,412.6,398.6Zm2.3-4a2.8,2.8,0,0,0-1.5.8l-58.1-34.9V293.9a6.7,6.7,0,0,0,4.3-2.4l36.5,21.9,18.8,11.3ZM360.4,290.1a5.8,5.8,0,0,0,.6-2.6,6,6,0,0,0-.6-2.7l55.3-33.1,5.6,3.3,54.1,32.5-37.7,22.6-22,13.2Zm56.1,104.5V324.7l26-15.6,33.6-20.2v71.6L418,395.4A2.8,2.8,0,0,0,416.5,394.6Zm120.9,73a3.7,3.7,0,0,0-2.9,3.6,3.6,3.6,0,0,0,2.9,3.6v68.5l-59.6-35.8V434.9l59.6-35.7Zm0-70.3h0L524.5,405l-47.6,28.5-58.1-34.9a2.4,2.4,0,0,0,.2-.9,2.9,2.9,0,0,0-.2-.9l59-35.4V288.9l42.4,25.5,17.2,10.3Zm-7.5-79-51.4-30.8L535.9,253a3.1,3.1,0,0,0,4.6,0l57.4,34.5-59.7,35.8Zm68.7-29.4v71.6L539,396.3V324.7ZM539,474.8a3.5,3.5,0,0,0,1.8-1L597.9,508,539,543.3Zm120.9,69.5-60.5,36.2-59.6-35.8,59.6-35.8h0l60.5-36.2Zm-59.6-37.8V435.9l58.8,35.3Zm59.6-36.7-60.5-36.3h0l-59.6-35.8,59.6-35.8,46.3,27.8,10.4,6.2a5.7,5.7,0,0,0-.3,1.8,4.8,4.8,0,0,0,4.1,4.8Zm61.2-109.3-56.7,34a4.9,4.9,0,0,0-7.4,0l-56.7-34V287.9h0l29.4-17.7,31-18.5,60.4,36.2Z"/><path class="cls-1" d="M109.4,652.9a2.1,2.1,0,0,0-2,2.1,2,2,0,0,0,2,2,2,2,0,0,0,2.1-2A2.1,2.1,0,0,0,109.4,652.9Z"/><path class="cls-1" d="M170.7,688.5a3.2,3.2,0,0,0-3.3,3.2,3.3,3.3,0,0,0,6.6,0A3.2,3.2,0,0,0,170.7,688.5Z"/><path class="cls-1" d="M415.7,31.9a1.7,1.7,0,0,0,1.6-1.7,1.6,1.6,0,0,0-3.2,0A1.7,1.7,0,0,0,415.7,31.9Z"/><path class="cls-1" d="M354.4,71.5a4.5,4.5,0,0,0,0-9,4.5,4.5,0,0,0,0,9Z"/><path class="cls-1" d="M660.7,33.1a2.9,2.9,0,0,0,2.9-2.9,2.9,2.9,0,0,0-5.8,0A2.9,2.9,0,0,0,660.7,33.1Z"/><path class="cls-1" d="M412.4,471.2a3.3,3.3,0,0,0,6.6,0,3.3,3.3,0,0,0-6.6,0Z"/><path class="cls-1" d="M476.9,580.3a1.2,1.2,0,1,0,0,2.4,1.2,1.2,0,1,0,0-2.4Z"/><path class="cls-1" d="M87.8,488.2a1.6,1.6,0,0,0,1.6-1.6,1.7,1.7,0,0,0-1.6-1.7,1.8,1.8,0,0,0-1.7,1.7A1.7,1.7,0,0,0,87.8,488.2Z"/><path class="cls-1" d="M136.9,459.7a2.6,2.6,0,0,0,2.6-2.6,2.5,2.5,0,0,0-2.6-2.6,2.6,2.6,0,0,0-2.6,2.6A2.6,2.6,0,0,0,136.9,459.7Z"/><circle class="cls-1" cx="333.5" cy="987.7" r="1.3"/><path class="cls-1" d="M284.3,954.6a3.6,3.6,0,1,0,3.6,3.6A3.6,3.6,0,0,0,284.3,954.6Z"/><path class="cls-1" d="M530,985.4a2.3,2.3,0,0,0-2.3,2.3,2.3,2.3,0,0,0,4.6,0A2.3,2.3,0,0,0,530,985.4Z"/><path class="cls-1" d="M330.8,634a2.7,2.7,0,1,0,2.7-2.7A2.7,2.7,0,0,0,330.8,634Z"/><path class="cls-1" d="M381.6,545.5a.9.9,0,0,0,1,1,1,1,0,0,0,1-1,1.1,1.1,0,0,0-1-1A1,1,0,0,0,381.6,545.5Z"/></svg>