<svg id="Layer_1" data-name="Layer 1" xmlns="http://www.w3.org/2000/svg" viewBox="0 0 117.9 86.8"><defs><style>.cls-1{fill:#4c4c4c;}</style></defs><title>MOD-Website-Components-R1</title><path class="cls-1" d="M31.8,37.1c8.7,0,15.2-7,15.2-16.2V16.2C47,7,40.5,0,31.8,0S16.5,7,16.5,16.2v4.7C16.5,30.1,23.1,37.1,31.8,37.1ZM20.5,16.2C20.5,9.1,25.3,4,31.8,4S43,9.1,43,16.2v4.7c0,7.1-4.7,12.2-11.2,12.2S20.5,28,20.5,20.9Z"/><path class="cls-1" d="M66,43.7h41.7L90.2,72.8H74.8v4H91.4a2,2,0,0,0,1.7-.9L113,42.8a2.6,2.6,0,0,0,0-2.1,2.1,2.1,0,0,0-1.8-1H64.9a2.2,2.2,0,0,0-1.7.9L50,60.5l3.3,2.2Z"/><path class="cls-1" d="M67.3,82.8c3.5-4.6,2.9-11.2,2.8-11.5a2,2,0,0,0-2-1.8H49.2L26.7,43.7a2.3,2.3,0,0,0-1.5-.7H18.5c-8,0-13.9,5.8-15.2,15S0,84.3,0,84.5L4,85c0-.2,2.2-18.5,3.3-26.4S12.4,47,18.5,47h5.8L46.8,72.8a1.7,1.7,0,0,0,1.5.7H66.2c-.1,2-.5,5-2.3,7.1a7.1,7.1,0,0,1-5.7,2.2H39.3L23.4,63.6l-3.1,2.6L34.1,82.8H21.8v4h96.1v-4Z"/></svg>