<svg xmlns="http://www.w3.org/2000/svg" viewBox="0 0 201.1 106.38"><defs><style>.cls-1{fill:#74c26b;}</style></defs><title>multi_dots</title><g id="Layer_2" data-name="Layer 2"><g id="backgrounds"><path class="cls-1" d="M17.89,3.12A6.24,6.24,0,1,0,26.42.84,6.24,6.24,0,0,0,17.89,3.12Z"/><path class="cls-1" d="M.33,41a2.5,2.5,0,1,0,3.41-.91A2.5,2.5,0,0,0,.33,41Z"/><path class="cls-1" d="M32.17,55.14a11.23,11.23,0,1,0,13-9.11A11.23,11.23,0,0,0,32.17,55.14Z"/><path class="cls-1" d="M27.81,96.62a8.32,8.32,0,1,0,9.64-6.75A8.31,8.31,0,0,0,27.81,96.62Z"/><path class="cls-1" d="M80.42,58.17A6.24,6.24,0,1,0,85.48,51,6.25,6.25,0,0,0,80.42,58.17Z"/><path class="cls-1" d="M143.41,81a5.41,5.41,0,1,0,2-7.39A5.42,5.42,0,0,0,143.41,81Z"/><path class="cls-1" d="M157.29,18.23a5,5,0,1,0-.61-7A5,5,0,0,0,157.29,18.23Z"/><path class="cls-1" d="M186.75,47.84a8.73,8.73,0,1,0-1.07-12.31A8.74,8.74,0,0,0,186.75,47.84Z"/><path class="cls-1" d="M161.18,15.22a126.11,126.11,0,0,1-33.34,28,124.76,124.76,0,0,1-40.76,14.9A127.37,127.37,0,0,1,64.9,60a127.63,127.63,0,0,1-21.69-1.86A124.89,124.89,0,0,1,1.77,43.08l1-1.8A122.73,122.73,0,0,0,43.56,56.12,125.65,125.65,0,0,0,64.9,58,125.07,125.07,0,0,0,86.71,56,122.67,122.67,0,0,0,126.8,41.38a124.07,124.07,0,0,0,32.79-27.5Z"/></g></g></svg>