<svg xmlns="http://www.w3.org/2000/svg" viewBox="0 0 771.41 213.62"><defs><style>.cls-1{fill:#4b4b4b;fill-rule:evenodd;}.cls-2,.cls-3{fill:none;stroke-linejoin:round;stroke-width:5.09px;}.cls-2{stroke:#4b4b4b;}.cls-3,.cls-4{stroke:#74c26b;}.cls-4{fill:#fff;stroke-miterlimit:10;}</style></defs><title>product_page_procces_graphic_2</title><g id="Layer_2" data-name="Layer 2"><g id="copy_art" data-name="copy+art"><path class="cls-1" d="M409.37,141.37a36.17,36.17,0,0,1-22.54-10.82,28.15,28.15,0,1,1,8.84-1.41,45.46,45.46,0,0,0,13.7,12.23ZM372.21,99.12a3.19,3.19,0,1,1-3.19,3.19,3.19,3.19,0,0,1,3.19-3.19Zm14.62,0a3.19,3.19,0,1,1-3.19,3.19,3.19,3.19,0,0,1,3.19-3.19Zm14.62,0a3.19,3.19,0,1,1-3.19,3.19,3.19,3.19,0,0,1,3.19-3.19Zm7.92,42.25a44.94,44.94,0,0,0,22.55,6V130.55a28.43,28.43,0,0,1-8.85-1.41,45,45,0,1,0-13.7,12.23Z"/><path class="cls-2" d="M689.62,55.6c7.57,0,13.21-6.34,13.21-14.15V36.73c0-7.82-5.64-14.15-13.21-14.15s-13.2,6.33-13.2,14.15v4.72C676.42,49.26,682.06,55.6,689.62,55.6Z"/><path class="cls-2" d="M716,78.71v-10c0-9.11-16.54-13.21-24.76-13.21s-24.77,4.1-24.77,13.21v10"/><path class="cls-2" d="M692.93,115c7.56,0,13.2-6.34,13.2-14.15V96.16c0-7.81-5.64-14.15-13.2-14.15s-13.21,6.34-13.21,14.15v4.72C679.72,108.69,685.37,115,692.93,115Z"/><path class="cls-2" d="M719.34,138.14v-10c0-9.1-16.54-13.21-24.76-13.21S669.81,119,669.81,128.1v10"/><path class="cls-2" d="M742.45,85.31c7.56,0,13.21-6.33,13.21-14.15V66.44c0-7.81-5.65-14.15-13.21-14.15s-13.2,6.34-13.2,14.15v4.72C729.25,79,734.89,85.31,742.45,85.31Z"/><path class="cls-2" d="M768.87,108.43V98.38c0-9.1-16.54-13.2-24.77-13.2s-24.76,4.1-24.76,13.2v10.05"/><path class="cls-2" d="M640.1,85.31c7.56,0,13.21-6.33,13.21-14.15V66.44c0-7.81-5.65-14.15-13.21-14.15s-13.21,6.34-13.21,14.15v4.72C626.89,79,632.54,85.31,640.1,85.31Z"/><path class="cls-2" d="M666.51,108.43V98.38c0-9.1-16.54-13.2-24.76-13.2S617,89.28,617,98.38v10.05"/><polyline class="cls-2" points="211.9 97.81 173.09 97.81 173.09 107.72 156.58 91.21 173.09 74.7 173.09 84.6 236.34 84.6"/><polyline class="cls-2" points="256.69 144.75 217.82 144.75 217.82 154.65 201.32 138.14 217.82 121.63 217.82 131.54 237.64 131.54"/><polyline class="cls-2" points="236.34 54.24 207.32 54.24 207.32 64.14 190.81 47.64 207.32 31.13 207.32 41.03 223.61 41.03"/><polyline class="cls-2" points="538.8 87.97 560.29 87.97 560.29 78.06 576.8 94.57 560.29 111.08 560.29 101.17 520.97 101.17"/><polyline class="cls-2" points="556.85 41.03 595.71 41.03 595.71 31.13 612.22 47.64 595.71 64.14 595.71 54.24 575.9 54.24"/><polyline class="cls-2" points="561.92 131.54 609.3 131.54 609.3 121.63 625.81 138.14 609.3 154.65 609.3 144.75 543.26 144.75"/><line class="cls-3" x1="102.16" y1="164.99" x2="141.79" y2="164.99"/><line class="cls-3" x1="61.98" y1="144.88" x2="32.26" y2="144.88"/><rect class="cls-3" x="41" y="31.84" width="59.43" height="26.41"/><polyline class="cls-3" points="100.43 58.25 100.43 84.67 41 84.67 41 58.25"/><polyline class="cls-3" points="100.43 84.67 100.43 111.08 41 111.08 41 84.67"/><line class="cls-3" x1="90.53" y1="45.04" x2="80.62" y2="45.04"/><line class="cls-3" x1="90.53" y1="71.46" x2="80.62" y2="71.46"/><line class="cls-3" x1="90.53" y1="97.87" x2="80.62" y2="97.87"/><rect class="cls-4" x="79.44" y="68.8" width="58.98" height="79.99"/><rect class="cls-3" x="79.44" y="68.8" width="59.43" height="26.41"/><polyline class="cls-3" points="138.87 95.22 138.87 121.63 79.44 121.63 79.44 95.22"/><polyline class="cls-3" points="138.87 121.63 138.87 148.05 79.44 148.05 79.44 121.63"/><line class="cls-3" x1="128.97" y1="82.01" x2="119.06" y2="82.01"/><line class="cls-3" x1="128.97" y1="108.43" x2="119.06" y2="108.43"/><line class="cls-3" x1="128.97" y1="134.84" x2="119.06" y2="134.84"/><rect class="cls-4" x="2.55" y="50.36" width="58.98" height="79.99"/><rect class="cls-3" x="2.55" y="50.36" width="59.43" height="26.41"/><polyline class="cls-3" points="61.98 76.77 61.98 103.19 2.55 103.19 2.55 76.77"/><polyline class="cls-3" points="61.98 103.19 61.98 129.6 2.55 129.6 2.55 103.19"/><line class="cls-3" x1="52.07" y1="63.56" x2="42.17" y2="63.56"/><line class="cls-3" x1="52.07" y1="89.98" x2="42.17" y2="89.98"/><line class="cls-3" x1="52.07" y1="116.39" x2="42.17" y2="116.39"/><path class="cls-2" d="M386.83,2.55A104.26,104.26,0,0,0,282.57,106.81V112H272.14l26.07,36.49L319.06,112H308.63v-5.21A78.2,78.2,0,0,1,453,65.11"/><path class="cls-2" d="M439.38,16.74a103.67,103.67,0,0,1,10.44,7"/><path class="cls-2" d="M418.66,7.49a102.37,102.37,0,0,1,10,3.78"/><path class="cls-2" d="M397.49,3.08c3.29.34,6.53.82,9.72,1.46"/><path class="cls-2" d="M387.26,211.07c57.59,0,103.83-46.68,103.83-104.26V101.6h10.43L475.45,65.1,454.6,101.6H465v5.21C465,150,430.92,185,387.74,185a78.17,78.17,0,0,1-66.17-36.5"/><path class="cls-2" d="M334.71,196.88a104.81,104.81,0,0,1-10.44-7"/><path class="cls-2" d="M355.43,206.13a103.81,103.81,0,0,1-10-3.78"/><path class="cls-2" d="M376.6,210.53c-3.28-.33-6.52-.82-9.71-1.45"/></g></g></svg>