<svg xmlns="http://www.w3.org/2000/svg" viewBox="0 0 126.15 112.44"><defs><style>.cls-1{fill:none;}.cls-2{fill:#515050;}</style></defs><title>two_phone</title><g id="Layer_2" data-name="Layer 2"><g id="copy_art" data-name="copy+art"><circle class="cls-1" cx="63.14" cy="54.78" r="5.55"/><path class="cls-1" d="M52.1,8.23a2.75,2.75,0,0,0-2.74-2.75H8.23A2.75,2.75,0,0,0,5.48,8.23V11H52.1Z"/><path class="cls-1" d="M5.48,104.21A2.75,2.75,0,0,0,8.23,107H49.36a2.74,2.74,0,0,0,2.74-2.74V96H5.48Zm19.2-5.49h8.23v5.49H24.68Z"/><path class="cls-1" d="M120.66,8.23a2.75,2.75,0,0,0-2.74-2.75H76.79A2.75,2.75,0,0,0,74,8.23V11h46.62Z"/><path class="cls-1" d="M77.61,66.41l3.09,1.78,2.75-4.75-3-1.76a2.73,2.73,0,0,1-1.29-3,16.41,16.41,0,0,0,.48-3.88A16.14,16.14,0,0,0,79.13,51a2.76,2.76,0,0,1,1.3-3l3-1.74L80.7,41.5l-3,1.74a2.75,2.75,0,0,1-3.26-.39A16.45,16.45,0,0,0,67.79,39a2.74,2.74,0,0,1-2-2.63V32.91H60.33v3.5A2.73,2.73,0,0,1,58.38,39a16.51,16.51,0,0,0-6.59,3.86,2.73,2.73,0,0,1-3.26.39L45.45,41.5,42.7,46.25l3.13,1.8a2.76,2.76,0,0,1,1.3,3,16.24,16.24,0,0,0-.45,3.73,16.57,16.57,0,0,0,.47,3.83,2.73,2.73,0,0,1-1.3,3L42.7,63.44l2.75,4.75,3.16-1.83a2.75,2.75,0,0,1,3.25.38,16.48,16.48,0,0,0,6.52,3.79,2.75,2.75,0,0,1,1.95,2.63v3.63h5.49v-3.6a2.73,2.73,0,0,1,2-2.63,16.5,16.5,0,0,0,6.58-3.78A2.73,2.73,0,0,1,77.61,66.41Zm-14.47-.59a11,11,0,1,1,11-11A11,11,0,0,1,63.14,65.82Z"/><path class="cls-1" d="M74,104.21A2.75,2.75,0,0,0,76.79,107h41.13a2.74,2.74,0,0,0,2.74-2.74V96H74Zm19.2-5.49h8.23v5.49H93.24Z"/><path class="cls-2" d="M57.59,24.68V8.23A8.24,8.24,0,0,0,49.36,0H8.23A8.24,8.24,0,0,0,0,8.23v96a8.24,8.24,0,0,0,8.23,8.23H49.36a8.24,8.24,0,0,0,8.23-8.23V85H52.1V90.5H5.48v-74H52.1v8.23ZM52.1,96v8.23A2.74,2.74,0,0,1,49.36,107H8.23a2.75,2.75,0,0,1-2.75-2.74V96ZM5.48,11V8.23A2.75,2.75,0,0,1,8.23,5.48H49.36A2.75,2.75,0,0,1,52.1,8.23V11Z"/><rect class="cls-2" x="24.68" y="98.72" width="8.23" height="5.48"/><path class="cls-2" d="M117.92,0H76.79a8.24,8.24,0,0,0-8.23,8.23V24.68H74V16.45h46.62V90.5H74V85H68.56v19.2a8.24,8.24,0,0,0,8.23,8.23h41.13a8.24,8.24,0,0,0,8.23-8.23v-96A8.24,8.24,0,0,0,117.92,0ZM74,11V8.23a2.75,2.75,0,0,1,2.75-2.75h41.13a2.75,2.75,0,0,1,2.74,2.75V11Zm46.62,93.24a2.74,2.74,0,0,1-2.74,2.74H76.79A2.75,2.75,0,0,1,74,104.21V96h46.62Z"/><rect class="cls-2" x="93.24" y="98.72" width="8.23" height="5.48"/><path class="cls-2" d="M63.14,43.75a11,11,0,1,0,11,11A11,11,0,0,0,63.14,43.75Zm0,16.58a5.55,5.55,0,1,1,5.54-5.55A5.56,5.56,0,0,1,63.14,60.33Z"/><path class="cls-2" d="M88.56,60.06l-3.72-2.15a20.82,20.82,0,0,0,.24-3.13,22.11,22.11,0,0,0-.22-3l3.7-2.14a2.76,2.76,0,0,0,1-3.75l-5.49-9.5a2.69,2.69,0,0,0-1.66-1.27,2.74,2.74,0,0,0-2.08.27l-3.7,2.13a22.21,22.21,0,0,0-5.34-3.08V30.17a2.75,2.75,0,0,0-2.74-2.75h-11a2.75,2.75,0,0,0-2.74,2.75v4.31a22.27,22.27,0,0,0-5.27,3.07l-3.77-2.17a2.73,2.73,0,0,0-3.74,1l-5.49,9.5A2.77,2.77,0,0,0,36.31,48a2.74,2.74,0,0,0,1.28,1.66l3.82,2.21a21,21,0,0,0-.21,2.94,21.44,21.44,0,0,0,.22,3.07l-3.83,2.21a2.79,2.79,0,0,0-1.28,1.67,2.75,2.75,0,0,0,.27,2.08l5.49,9.5a2.74,2.74,0,0,0,1.66,1.28,2.7,2.7,0,0,0,2.08-.28l3.86-2.23a22.23,22.23,0,0,0,5.18,3v4.44a2.74,2.74,0,0,0,2.74,2.74h11a2.74,2.74,0,0,0,2.74-2.74V75.14a21.9,21.9,0,0,0,5.24-3l3.8,2.19a2.73,2.73,0,0,0,3.74-1l5.49-9.5A2.76,2.76,0,0,0,88.56,60.06ZM79.13,51a16.14,16.14,0,0,1,.46,3.78,16.41,16.41,0,0,1-.48,3.88,2.73,2.73,0,0,0,1.29,3l3,1.76L80.7,68.19l-3.09-1.78a2.73,2.73,0,0,0-3.24.37,16.5,16.5,0,0,1-6.58,3.78,2.73,2.73,0,0,0-2,2.63v3.6H60.33V73.16a2.75,2.75,0,0,0-1.95-2.63,16.48,16.48,0,0,1-6.52-3.79,2.75,2.75,0,0,0-3.25-.38l-3.16,1.83L42.7,63.44l3.15-1.82a2.73,2.73,0,0,0,1.3-3,16.57,16.57,0,0,1-.47-3.83,16.24,16.24,0,0,1,.45-3.73,2.76,2.76,0,0,0-1.3-3l-3.13-1.8,2.75-4.75,3.08,1.78a2.73,2.73,0,0,0,3.26-.39A16.51,16.51,0,0,1,58.38,39a2.73,2.73,0,0,0,1.95-2.62v-3.5h5.49v3.47a2.74,2.74,0,0,0,2,2.63,16.45,16.45,0,0,1,6.65,3.84,2.75,2.75,0,0,0,3.26.39l3-1.74,2.75,4.75-3,1.74A2.76,2.76,0,0,0,79.13,51Z"/><polygon class="cls-2" points="103.41 44.68 99.53 48.56 103.07 52.1 90.5 52.1 90.5 57.59 103.07 57.59 99.53 61.13 103.41 65.01 113.57 54.85 103.41 44.68"/><polygon class="cls-2" points="35.65 52.1 23.07 52.1 26.62 48.56 22.74 44.68 12.58 54.85 22.74 65.01 26.62 61.13 23.07 57.59 35.65 57.59 35.65 52.1"/></g></g></svg>