<svg xmlns="http://www.w3.org/2000/svg" viewBox="0 0 281.76 217.04"><defs><style>.cls-1{fill:#74c26b;}.cls-2{fill:#9d9acb;}.cls-3{fill:#4c4c4c;}.cls-4{fill:none;stroke:#74c16b;stroke-linejoin:round;stroke-width:2.27px;}</style></defs><title>we_understand_your_work</title><g id="Layer_2" data-name="Layer 2"><g id="copy_art" data-name="copy+art"><path class="cls-1" d="M154.94,200.58a3.21,3.21,0,1,1-3.23,3.21,3.22,3.22,0,0,1,3.23-3.21m-14.78,0a3.21,3.21,0,1,1-3.22,3.21,3.22,3.22,0,0,1,3.22-3.21m-14.77,0a3.21,3.21,0,1,1-3.23,3.21,3.22,3.22,0,0,1,3.23-3.21"/><circle class="cls-2" cx="56.38" cy="78.77" r="8.33"/><ellipse class="cls-2" cx="94.25" cy="152.24" rx="8.33" ry="9.09"/><ellipse class="cls-2" cx="141.97" cy="90.89" rx="9.09" ry="8.33"/><ellipse class="cls-2" cx="166.21" cy="142.4" rx="9.09" ry="8.33"/><circle class="cls-2" cx="183.63" cy="101.49" r="8.33"/><ellipse class="cls-2" cx="224.54" cy="73.47" rx="8.33" ry="9.09"/><ellipse class="cls-2" cx="118.49" cy="44.69" rx="8.33" ry="9.09"/><circle class="cls-2" cx="32.14" cy="60.59" r="3.79"/><ellipse class="cls-2" cx="65.47" cy="50.75" rx="3.79" ry="4.54"/><ellipse class="cls-2" cx="251.8" cy="44.69" rx="3.79" ry="4.54"/><ellipse class="cls-2" cx="43.51" cy="171.18" rx="4.54" ry="3.79"/><circle class="cls-2" cx="85.92" cy="197.69" r="4.54"/><circle class="cls-2" cx="126.07" cy="136.34" r="3.79"/><circle class="cls-2" cx="211.66" cy="115.89" r="4.54"/><line class="cls-2" x1="31.39" y1="61.35" x2="56.2" y2="80.48"/><line class="cls-2" x1="66.01" y1="47.72" x2="57.14" y2="77.91"/><line class="cls-2" x1="48.05" y1="78.01" x2="140.82" y2="91.19"/><line class="cls-2" x1="55.63" y1="78.01" x2="93.81" y2="160.02"/><line class="cls-2" x1="41.99" y1="172.42" x2="100.11" y2="146.18"/><line class="cls-2" x1="55.63" y1="81.04" x2="165.2" y2="141.79"/><line class="cls-2" x1="126.83" y1="137.09" x2="164.53" y2="142.54"/><line class="cls-2" x1="164.7" y1="142.72" x2="182" y2="102.25"/><line class="cls-2" x1="227.21" y1="73.47" x2="57.14" y2="79.3"/><line class="cls-2" x1="226.16" y1="73.47" x2="164.7" y2="143.41"/><line class="cls-2" x1="252.39" y1="44.69" x2="226.81" y2="73.14"/><line class="cls-2" x1="211.78" y1="116.73" x2="184.39" y2="102.25"/><line class="cls-2" x1="95.01" y1="153.18" x2="142.08" y2="91.65"/><line class="cls-2" x1="143.36" y1="93.41" x2="119.25" y2="44.69"/><line class="cls-2" x1="85.92" y1="199.22" x2="94.97" y2="153.76"/><line class="cls-2" x1="119.25" y1="44.69" x2="150" y2="56.93"/><ellipse class="cls-2" cx="150.31" cy="58.32" rx="3.79" ry="4.54"/><path class="cls-3" d="M251.8,39.38c-2.5,0-4.54,2.38-4.54,5.31a5.81,5.81,0,0,0,1.06,3.39L231.34,67a8.75,8.75,0,0,0-6.8-3.35c-4.91,0-8.9,4.23-9.08,9.49l-79.94,2.74L124,52.52a9.8,9.8,0,0,0,2.89-4l19.28,7.68a6.08,6.08,0,0,0-.38,2.11c0,2.92,2,5.3,4.55,5.3s4.54-2.38,4.54-5.3-2-5.3-4.54-5.3a4.32,4.32,0,0,0-3.45,1.85L127.3,47.08a10.49,10.49,0,0,0,.28-2.39c0-5.43-4.08-9.85-9.09-9.85s-9.09,4.42-9.09,9.85,4.08,9.84,9.09,9.84a8.52,8.52,0,0,0,4.23-1.13l11.14,22.51L65.45,78.26a9.1,9.1,0,0,0-5.34-7.77l4.29-14.6a3.85,3.85,0,0,0,1.07.16c2.51,0,4.55-2.38,4.55-5.3s-2-5.31-4.55-5.31-4.54,2.38-4.54,5.31A5.59,5.59,0,0,0,63,55.21L58.68,70a8.74,8.74,0,0,0-2.3-.31,9.08,9.08,0,0,0-7.6,4.12L35.54,63.6a4.57,4.57,0,1,0-1.21,1L48.05,75.15a9.07,9.07,0,0,0,8.33,12.71,9.2,9.2,0,0,0,2.79-.44l27.59,59.26a10.38,10.38,0,0,0-1.59,5.42L48.05,168.86a5.5,5.5,0,0,0-4.54-2.23c-2.93,0-5.31,2-5.31,4.55s2.38,4.54,5.31,4.54,5.3-2,5.3-4.54a3.75,3.75,0,0,0-.12-1l36.59-16.52a9.52,9.52,0,0,0,7.3,8.2L86.5,192.42a5.49,5.49,0,0,0-.58,0,5.31,5.31,0,1,0,2,.41l6.12-30.72h.16c5,0,9.09-4.42,9.09-9.85a10.31,10.31,0,0,0-2-6.12l20.87-27.28,35.18,19.5a8.48,8.48,0,0,0-.85,2.28l-26-3.75a4.57,4.57,0,1,0-.44,1.47l26.24,3.79c0,.09,0,.18,0,.27,0,5,4.41,9.09,9.84,9.09s9.85-4.08,9.85-9.09a8.81,8.81,0,0,0-3.42-6.88l23.17-26.37,10.66,5.63a5.8,5.8,0,0,0-.11,1.11,5.29,5.29,0,1,0,.64-2.54L196.84,108l23-26.12a8.51,8.51,0,0,0,4.74,1.46c5,0,9.08-4.42,9.08-9.85a10.35,10.35,0,0,0-1.39-5.22l17.15-19.09a4,4,0,0,0,2.42.83c2.51,0,4.55-2.38,4.55-5.3S254.31,39.38,251.8,39.38Zm-117.21,38,2.72,5.49a9.22,9.22,0,0,0-5,6.32L65.74,79.76ZM100.35,145a8.57,8.57,0,0,0-12.55.36L60.57,86.83a9.6,9.6,0,0,0,1.76-1.2l58.56,32.47Zm21.47-28.08L63.43,84.5a8.94,8.94,0,0,0,1.7-3.3l67,9.52c0,.06,0,.11,0,.17a8.88,8.88,0,0,0,4,7.3Zm49.55,17.79a10,10,0,0,0-2-.88l10.32-24.13a9.06,9.06,0,0,0,11.44-3l3.34,1.76Zm24.1-27.42-3.61-1.91a9.08,9.08,0,0,0-8.23-12.94,9.08,9.08,0,0,0-5.28,16.47l-10.51,24.57a10.87,10.87,0,0,0-1.63-.13,10.12,10.12,0,0,0-8,3.76l-35.09-19.45L137.45,99a10.42,10.42,0,0,0,4.52,1c5.43,0,9.85-4.08,9.85-9.09S147.4,81.8,142,81.8a10.53,10.53,0,0,0-3.25.52l-2.46-5,79.25-2.71a10.14,10.14,0,0,0,3.1,6.29Z"/><path class="cls-4" d="M194.38,139.82h20.15a2.41,2.41,0,0,1,2.41,2.41v15.31a3.22,3.22,0,0,1-3.22,3.22H200.83l-3.39,4.52a.81.81,0,0,1-1.45-.49v-4h-1.61a2.41,2.41,0,0,1-2.41-2.41V142.23A2.41,2.41,0,0,1,194.38,139.82Z"/><path class="cls-4" d="M125.58,190.63v-3c0-2-2.78-3-5.06-3s-5,1-5,3v3Z"/><path class="cls-4" d="M120.52,184.56a2.94,2.94,0,0,0,3-3v-1a3,3,0,0,0-6.07,0v1A2.94,2.94,0,0,0,120.52,184.56Z"/><line class="cls-4" x1="128.61" y1="182.54" x2="139.74" y2="182.54"/><line class="cls-4" x1="128.61" y1="186.58" x2="139.74" y2="186.58"/><line class="cls-4" x1="128.61" y1="190.63" x2="136.7" y2="190.63"/><polyline class="cls-4" points="115.47 212.87 115.47 199.73 119.51 199.73 119.51 212.87"/><polyline class="cls-4" points="123.56 212.87 123.56 196.69 127.6 196.69 127.6 212.87"/><polyline class="cls-4" points="131.65 212.87 131.65 204.78 135.69 204.78 135.69 212.87"/><polygon class="cls-4" points="143.78 215.91 110.41 215.91 110.41 169.39 138.72 169.39 143.78 174.45 143.78 215.91"/><polyline class="cls-4" points="141.76 176.47 136.7 176.47 136.7 171.41"/><path class="cls-4" d="M32.37,25.2a4.48,4.48,0,0,0,4.38-4.69V19A4.39,4.39,0,1,0,28,19v1.56A4.48,4.48,0,0,0,32.37,25.2Z"/><path class="cls-4" d="M41.12,31.76V29.53c0-3-5.84-4.38-8.75-4.38s-8.75,1.36-8.75,4.38v2.23"/><path class="cls-4" d="M32.37,1.14A21.87,21.87,0,0,0,10.5,23v1.1H8.31l5.47,7.65,4.38-7.65H16V23a16.41,16.41,0,0,1,30.29-8.75"/><path class="cls-4" d="M43.4,4.11a23.24,23.24,0,0,1,2.19,1.47"/><path class="cls-4" d="M39.05,2.17a22.14,22.14,0,0,1,2.1.8"/><path class="cls-4" d="M32.46,44.89A21.8,21.8,0,0,0,54.25,23V21.92h2.19L51,14.26l-4.38,7.66h2.19V23a16.29,16.29,0,0,1-30.1,8.75"/><path class="cls-4" d="M21.44,41.91a23.24,23.24,0,0,1-2.19-1.47"/><path class="cls-4" d="M25.79,43.85a21.09,21.09,0,0,1-2.1-.79"/><path class="cls-4" d="M30.23,44.77q-1-.1-2-.3"/><circle class="cls-4" cx="16.22" cy="124.91" r="15.08"/><path class="cls-4" d="M6.72,118.76A11.37,11.37,0,0,1,13.39,114"/><path class="cls-4" d="M5,123.21a11,11,0,0,1,.5-2"/><rect class="cls-4" x="34.01" y="136.04" width="4" height="17.33" transform="translate(-91.77 67.85) rotate(-45)"/><line class="cls-4" x1="29.89" y1="138.58" x2="26.88" y2="135.57"/><path class="cls-4" d="M21.87,133.39v-2.83c0-2.51-3.11-3.77-5.65-3.77s-5.66,1.26-5.66,3.77v2.83"/><path class="cls-4" d="M16.22,126.79A3.59,3.59,0,0,0,20,123.16V122a3.6,3.6,0,0,0-3.77-3.64A3.59,3.59,0,0,0,12.45,122v1.21A3.58,3.58,0,0,0,16.22,126.79Z"/><line class="cls-4" x1="252.6" y1="92.17" x2="259.42" y2="85.36"/><polyline class="cls-4" points="255.63 81.57 255.63 63.39 275.33 63.39 275.33 81.57"/><line class="cls-4" x1="278.36" y1="92.17" x2="271.54" y2="85.36"/><path class="cls-4" d="M275.33,72.48s3.12,2.46,3.78,3,1.52,1.18,1.52,2.27V92.93a2.27,2.27,0,0,1-2.27,2.27H252.6a2.27,2.27,0,0,1-2.27-2.27V77.78c0-1.09.85-1.7,1.51-2.27s3.79-3,3.79-3"/><path class="cls-4" d="M278.36,78.54l-7.58,7.57A5.19,5.19,0,0,1,267,87.63h-3a5.18,5.18,0,0,1-3.78-1.52l-7.58-7.57"/><polyline class="cls-4" points="261.69 75.51 264.72 78.54 270.02 71.72"/><polyline class="cls-4" points="184.23 30.14 184.23 24.67 207.92 24.67 207.92 50.18 197.9 50.18 194.25 50.18 184.23 50.18 184.23 39.25"/><path class="cls-4" d="M175.12,30.14a3.73,3.73,0,0,0,3.64-3.91v-1.3a3.65,3.65,0,1,0-7.29,0v1.3A3.74,3.74,0,0,0,175.12,30.14Z"/><path class="cls-4" d="M179.68,61.12V36.52h4.55c2.75,0,3.65-1.63,3.65-3.65H171.47c-3.26,0-4.55,1.38-4.55,5.47v6.38c0,2,.78,3.64,2.73,3.64h.91"/><line class="cls-4" x1="175.12" y1="45.63" x2="175.12" y2="61.12"/><line class="cls-4" x1="170.56" y1="38.34" x2="170.56" y2="61.12"/><line class="cls-4" x1="191.52" y1="32.87" x2="200.63" y2="32.87"/><line class="cls-4" x1="193.34" y1="36.52" x2="198.81" y2="36.52"/><polyline class="cls-4" points="186.97 29.23 186.97 27.4 188.79 27.4"/><polyline class="cls-4" points="205.19 29.23 205.19 27.4 203.37 27.4"/><polyline class="cls-4" points="205.19 45.63 205.19 47.45 203.37 47.45"/><polyline class="cls-4" points="186.97 45.63 186.97 47.45 188.79 47.45"/></g></g></svg>